<svg width="507" height="95" viewBox="0 0 507 95" fill="none" xmlns="http://www.w3.org/2000/svg">
<path d="M194.812 63.4264C183.884 63.4264 176.8 55.5617 176.8 47.3672V46.343C176.8 38.0096 183.884 30.2839 194.812 30.2839C205.741 30.2839 212.868 38.0096 212.868 46.343V47.3672C212.868 55.5355 205.785 63.4264 194.812 63.4264ZM207.035 46.4385C207.035 40.4662 202.695 35.1537 194.812 35.1537C186.93 35.1537 182.66 40.4749 182.66 46.4385V47.1763C182.66 53.1486 187 58.565 194.812 58.565C202.625 58.565 207.035 53.1486 207.035 47.1763V46.4385Z" fill="#A3AAB4"/>
<path d="M71.4789 62.2269L67.3989 54.5881H49.2564L45.3156 62.2269H39.2393L55.8536 31.3936H60.6714L77.6158 62.2269H71.4789ZM58.1454 37.4092L51.4357 50.3694H65.0899L58.1454 37.4092Z" fill="white"/>
<path d="M103.927 63.425C92.8674 63.425 87.7285 57.409 87.7285 49.3972V31.3936H93.4665V49.4576C93.4665 55.152 97.2165 58.5289 104.343 58.5289C111.661 58.5289 114.673 55.152 114.673 49.4576V31.3936H120.454V49.3972C120.454 57.0359 115.55 63.425 103.927 63.425Z" fill="white"/>
<path d="M152.686 36.2026V62.2442H146.896V36.2026H133.424V31.3936H166.158V36.2026H152.686Z" fill="white"/>
<path d="M264.439 62.2269V37.8258L262.911 40.5081L249.994 62.2095H247.173L234.395 40.5081L232.868 37.8258V62.2269H227.217V31.3936H235.229L247.381 52.5481L248.814 55.152L250.246 52.5481L262.286 31.3936H270.264V62.2269H264.439Z" fill="white"/>
<path d="M313.979 62.2269L309.908 54.5881H291.8L287.867 62.2269H281.791L298.458 31.3936H303.249L320.194 62.2269H313.979ZM300.689 37.4092L293.979 50.3694H307.633L300.689 37.4092Z" fill="white"/>
<path d="M343.519 36.2026V62.2442H337.729V36.2026H324.257V31.3936H356.991V36.2026H343.519Z" fill="white"/>
<path d="M385.967 36.2026V62.2442H380.186V36.2026H366.713V31.3936H399.448V36.2026H385.967Z" fill="white"/>
<path d="M413.702 62.2269V34.3102C416.019 34.3102 416.939 33.0602 416.939 31.3936H419.396V62.2269H413.702Z" fill="white"/>
<path d="M464.708 40.0906C461.371 36.9231 456.948 35.1527 452.347 35.1427C444.1 35.1427 439.474 40.7851 439.474 46.6705V47.2695C439.474 53.1027 444.144 58.5542 452.755 58.5542C457.262 58.4722 461.575 56.7074 464.847 53.6061L468.319 57.261C463.994 61.2772 458.292 63.4799 452.391 63.4152C440.724 63.4152 433.641 55.8285 433.641 47.495V46.4708C433.641 38.1375 441.366 30.2729 452.668 30.2729C459.196 30.2729 465.125 32.9986 468.293 36.4274L464.708 40.0906Z" fill="white"/>
<path d="M195.517 41.6707L190.215 49.8823C189.544 50.9211 189.842 52.3076 190.881 52.9784L190.889 52.9831C191.928 53.6539 193.314 53.3557 193.985 52.3165L199.287 44.1051C199.958 43.066 199.66 41.6798 198.62 41.0089L198.613 41.0041C197.574 40.3332 196.188 40.6317 195.517 41.6707Z" fill="white"/>
</svg>
