<svg width="148" height="33" viewBox="0 0 148 33" fill="none" xmlns="http://www.w3.org/2000/svg">
<g clip-path="url(#clip0_196_5631)">
<path fill-rule="evenodd" clip-rule="evenodd" d="M16 32.2806C24.8366 32.2806 32 25.1172 32 16.2806C32 7.44408 24.8366 0.28064 16 0.28064C7.16344 0.28064 0 7.44408 0 16.2806C0 25.1172 7.16344 32.2806 16 32.2806Z" fill="#0DBD8B"/>
<path fill-rule="evenodd" clip-rule="evenodd" d="M13.0747 7.73576C13.0747 7.08992 13.5993 6.56637 14.2465 6.56637C18.6329 6.56636 22.1888 10.1149 22.1888 14.4922C22.1888 15.1381 21.6642 15.6616 21.017 15.6616C20.3698 15.6616 19.8452 15.1381 19.8452 14.4922C19.8452 11.4066 17.3386 8.90516 14.2465 8.90516C13.5993 8.90516 13.0747 8.3816 13.0747 7.73576Z" fill="white"/>
<path fill-rule="evenodd" clip-rule="evenodd" d="M24.5424 13.3228C25.1896 13.3228 25.7142 13.8463 25.7142 14.4921C25.7142 18.8695 22.1583 22.418 17.7719 22.418C17.1247 22.418 16.6001 21.8945 16.6001 21.2486C16.6001 20.6028 17.1247 20.0792 17.7719 20.0792C20.864 20.0792 23.3706 17.5778 23.3706 14.4921C23.3706 13.8463 23.8952 13.3228 24.5424 13.3228Z" fill="white"/>
<path fill-rule="evenodd" clip-rule="evenodd" d="M18.9437 24.8255C18.9437 25.4714 18.419 25.9949 17.7719 25.9949C13.3854 25.9949 9.82952 22.4464 9.82952 18.0691C9.82952 17.4232 10.3542 16.8997 11.0013 16.8997C11.6485 16.8997 12.1732 17.4232 12.1732 18.0691C12.1732 21.1547 14.6798 23.6561 17.7719 23.6561C18.419 23.6561 18.9437 24.1797 18.9437 24.8255Z" fill="white"/>
<path fill-rule="evenodd" clip-rule="evenodd" d="M7.45751 19.2385C6.81033 19.2385 6.28568 18.715 6.28568 18.0691C6.28568 13.6918 9.84159 10.1433 14.228 10.1433C14.8752 10.1433 15.3999 10.6668 15.3999 11.3127C15.3999 11.9585 14.8752 12.4821 14.228 12.4821C11.136 12.4821 8.62934 14.9835 8.62934 18.0691C8.62934 18.715 8.10469 19.2385 7.45751 19.2385Z" fill="white"/>
<path d="M56.2858 18.1377H45.0001C45.1334 19.3187 45.562 20.2615 46.2858 20.9663C47.0096 21.652 47.962 21.9949 49.143 21.9949C49.9239 21.9949 50.6287 21.8044 51.2572 21.4234C51.8858 21.0425 52.3334 20.5282 52.6001 19.8806H56.0287C55.5715 21.3853 54.7144 22.6044 53.4572 23.5377C52.2192 24.452 50.7525 24.9091 49.0572 24.9091C46.8477 24.9091 45.0572 24.1758 43.6858 22.7091C42.3334 21.2425 41.6572 19.3853 41.6572 17.1377C41.6572 14.9472 42.343 13.1091 43.7144 11.6234C45.0858 10.1377 46.8572 9.39486 49.0287 9.39486C51.2001 9.39486 52.9525 10.1282 54.2858 11.5949C55.6382 13.0425 56.3144 14.871 56.3144 17.0806L56.2858 18.1377ZM49.0287 12.1663C47.962 12.1663 47.0763 12.4806 46.3715 13.1091C45.6668 13.7377 45.2287 14.5758 45.0572 15.6234H52.943C52.7906 14.5758 52.3715 13.7377 51.6858 13.1091C51.0001 12.4806 50.1144 12.1663 49.0287 12.1663ZM58.6541 20.1377V3.13771H62.0541V20.1949C62.0541 20.9568 62.4732 21.3377 63.3113 21.3377L63.9113 21.3091V24.5377C63.5875 24.5949 63.2446 24.6234 62.8827 24.6234C61.416 24.6234 60.3398 24.252 59.6541 23.5091C58.9875 22.7663 58.6541 21.6425 58.6541 20.1377ZM79.7456 18.1377H68.4599C68.5933 19.3187 69.0218 20.2615 69.7456 20.9663C70.4694 21.652 71.4218 21.9949 72.6028 21.9949C73.3837 21.9949 74.0885 21.8044 74.7171 21.4234C75.3456 21.0425 75.7933 20.5282 76.0599 19.8806H79.4885C79.0314 21.3853 78.1742 22.6044 76.9171 23.5377C75.679 24.452 74.2123 24.9091 72.5171 24.9091C70.3075 24.9091 68.5171 24.1758 67.1456 22.7091C65.7933 21.2425 65.1171 19.3853 65.1171 17.1377C65.1171 14.9472 65.8028 13.1091 67.1742 11.6234C68.5456 10.1377 70.3171 9.39486 72.4885 9.39486C74.6599 9.39486 76.4123 10.1282 77.7456 11.5949C79.098 13.0425 79.7742 14.871 79.7742 17.0806L79.7456 18.1377ZM72.4885 12.1663C71.4218 12.1663 70.5361 12.4806 69.8314 13.1091C69.1266 13.7377 68.6885 14.5758 68.5171 15.6234H76.4028C76.2504 14.5758 75.8314 13.7377 75.1456 13.1091C74.4599 12.4806 73.5742 12.1663 72.4885 12.1663ZM95.0854 16.052V24.5663H91.6854V15.6806C91.6854 13.433 90.752 12.3091 88.8854 12.3091C87.8758 12.3091 87.0663 12.633 86.4568 13.2806C85.8663 13.9282 85.5711 14.8139 85.5711 15.9377V24.5663H82.1711V9.73771H85.3139V11.7091C85.6758 11.0425 86.2282 10.4901 86.9711 10.052C87.7139 9.6139 88.6378 9.39486 89.7425 9.39486C91.7997 9.39486 93.2854 10.1758 94.1997 11.7377C95.4568 10.1758 97.133 9.39486 99.2282 9.39486C100.962 9.39486 102.295 9.93771 103.228 11.0234C104.162 12.0901 104.628 13.4996 104.628 15.252V24.5663H101.228V15.6806C101.228 13.433 100.295 12.3091 98.4282 12.3091C97.3997 12.3091 96.5806 12.6425 95.9711 13.3091C95.3806 13.9568 95.0854 14.871 95.0854 16.052ZM121.537 18.1377H110.251C110.385 19.3187 110.813 20.2615 111.537 20.9663C112.261 21.652 113.213 21.9949 114.394 21.9949C115.175 21.9949 115.88 21.8044 116.508 21.4234C117.137 21.0425 117.585 20.5282 117.851 19.8806H121.28C120.823 21.3853 119.965 22.6044 118.708 23.5377C117.47 24.452 116.004 24.9091 114.308 24.9091C112.099 24.9091 110.308 24.1758 108.937 22.7091C107.585 21.2425 106.908 19.3853 106.908 17.1377C106.908 14.9472 107.594 13.1091 108.965 11.6234C110.337 10.1377 112.108 9.39486 114.28 9.39486C116.451 9.39486 118.204 10.1282 119.537 11.5949C120.889 13.0425 121.565 14.871 121.565 17.0806L121.537 18.1377ZM114.28 12.1663C113.213 12.1663 112.327 12.4806 111.623 13.1091C110.918 13.7377 110.48 14.5758 110.308 15.6234H118.194C118.042 14.5758 117.623 13.7377 116.937 13.1091C116.251 12.4806 115.365 12.1663 114.28 12.1663ZM127.105 9.73771V11.7091C127.448 11.0615 128.01 10.5187 128.791 10.0806C129.591 9.62343 130.553 9.39486 131.677 9.39486C133.429 9.39486 134.781 9.92819 135.734 10.9949C136.705 12.0615 137.191 13.4806 137.191 15.252V24.5663H133.791V15.6806C133.791 14.633 133.543 13.8139 133.048 13.2234C132.572 12.6139 131.839 12.3091 130.848 12.3091C129.762 12.3091 128.905 12.633 128.277 13.2806C127.667 13.9282 127.362 14.8234 127.362 15.9663V24.5663H123.962V9.73771H127.105ZM147.121 21.5377V24.4806C146.702 24.5949 146.111 24.652 145.349 24.652C142.454 24.652 141.006 23.1949 141.006 20.2806V12.452H138.749V9.73771H141.006V5.88057H144.406V9.73771H147.178V12.452H144.406V19.9377C144.406 21.0996 144.959 21.6806 146.063 21.6806L147.121 21.5377Z" fill="white"/>
</g>
<defs>
<clipPath id="clip0_196_5631">
<rect width="148" height="32" fill="white" transform="translate(0 0.28064)"/>
</clipPath>
</defs>
</svg>
