<svg width="290" height="90" viewBox="0 0 290 90" fill="none" xmlns="http://www.w3.org/2000/svg">
<path d="M88.4048 29.6289H105.336V35.078H94.6446V41.1915H103.879V46.559H94.6446V57.4996H88.4048V29.6289ZM107.913 47.6821V29.6289H114.152V47.5984C114.152 51.0518 116.149 52.5073 118.354 52.5073C120.517 52.5073 122.513 51.0518 122.513 47.5984V29.6289H128.753V47.6821C128.753 54.4215 124.385 57.9991 118.354 57.9991C112.28 57.9991 107.913 54.4215 107.913 47.6821ZM144.556 35.1186V57.4996H138.316V35.1186H131.454V29.6288H151.42V35.1186H144.556ZM154.164 47.6821V29.6289H160.404V47.5984C160.404 51.0518 162.402 52.5073 164.605 52.5073C166.768 52.5073 168.766 51.0518 168.766 47.5984V29.6289H175.006V47.6821C175.006 54.4215 170.636 57.9991 164.605 57.9991C158.532 57.9991 154.164 54.4215 154.164 47.6821ZM193.015 46.0595L198.59 57.4996H191.475L187.066 47.8901H184.486V57.4996H178.246V29.6289H187.606C193.221 29.6289 196.591 32.9558 196.591 38.2396C196.591 41.6501 194.636 44.2716 193.015 46.0595ZM184.486 42.5226H188.73C189.71 41.357 190.253 39.8868 190.268 38.364C190.268 36.7005 189.396 35.0778 187.441 35.0778H184.486V42.5226ZM200.708 29.6289H217.805V35.078H206.948V40.5678H216.181V45.9351H206.948V52.0506H217.888V57.4996H200.708V29.6289Z" fill="white"/>
<path d="M244.642 45.768L245.015 49.5963H245.223L245.597 45.3948L248.593 29.6288H254.957L248.8 57.7483H241.562L238.11 40.9836L237.902 37.6566H237.528L237.237 40.9836L233.742 57.7483H226.628L220.43 29.6288H227.087L230.123 45.7271L230.415 49.5963H230.705L230.997 45.768L234.367 29.6288H241.272L244.642 45.768ZM257.532 29.6288H274.628V35.0778H263.772V40.5676H273.008V45.9351H263.772V52.0506H274.712V57.4996H257.532V29.6288ZM278.203 57.4996V29.6288H284.355V57.4996H278.203ZM187.445 66.9443L187.333 67.582C187.315 67.7316 187.258 67.8066 187.127 67.8066H183.338L181.37 80.2785C181.363 80.3328 181.338 80.383 181.295 80.418C181.253 80.453 181.2 80.4701 181.145 80.4656H180.413C180.282 80.4656 180.227 80.3908 180.245 80.2785L182.213 67.8066H178.482C178.352 67.8066 178.295 67.751 178.332 67.6011L178.425 66.9636C178.443 66.8128 178.5 66.738 178.65 66.738H187.278C187.408 66.738 187.465 66.8128 187.445 66.9443ZM194.138 72.983C194.128 73.3231 194.09 73.6618 194.025 73.9959L193.82 75.2893C193.815 75.353 193.798 75.4153 193.77 75.4723C193.742 75.5291 193.702 75.5795 193.652 75.6201C193.603 75.6608 193.545 75.6906 193.483 75.7081C193.423 75.7255 193.358 75.7301 193.295 75.7215H187.425L187.257 76.7526C187.213 77.007 187.188 77.264 187.18 77.5218C187.18 78.9658 188.007 79.6965 189.45 79.6965C190.035 79.739 190.618 79.6133 191.133 79.3343C191.648 79.0551 192.073 78.6345 192.357 78.1218C192.452 77.9711 192.563 77.9528 192.675 78.0278L193.145 78.2898C193.295 78.384 193.275 78.4963 193.202 78.6278C192.808 79.274 192.25 79.8028 191.585 80.1591C190.918 80.5153 190.168 80.686 189.413 80.6528C187.257 80.6528 186.112 79.4901 186.112 77.6341C186.118 77.364 186.143 77.0945 186.187 76.8276L186.675 73.7521C186.775 72.715 187.263 71.7543 188.043 71.0621C188.822 70.3701 189.833 69.9978 190.875 70.0198C192.9 70.0198 194.138 71.2018 194.138 72.983ZM193.088 73.1144C193.088 71.7261 192.263 70.9955 190.838 70.9955C189.225 70.9955 188.025 71.97 187.725 73.8645L187.557 74.8581H192.825L192.995 73.9211C193.052 73.6558 193.083 73.3858 193.088 73.1144ZM203.962 72.3636C204.018 72.5893 203.962 72.6641 203.83 72.7016L203.212 72.9081C203.187 72.9183 203.16 72.923 203.133 72.9218C203.108 72.9205 203.082 72.9131 203.058 72.9006C203.035 72.888 203.015 72.8703 202.998 72.8488C202.983 72.8273 202.973 72.8026 202.968 72.7765C202.912 72.2666 202.66 71.7988 202.263 71.473C201.867 71.1471 201.36 70.9891 200.848 71.0328C199.255 71.0328 198.167 71.9891 197.828 74.0141L197.417 76.7526C197.367 76.9995 197.342 77.2506 197.342 77.5025C197.303 77.7915 197.332 78.0851 197.425 78.3615C197.518 78.6376 197.672 78.8891 197.877 79.097C198.08 79.3046 198.33 79.4633 198.603 79.5606C198.878 79.6581 199.172 79.6918 199.462 79.6591C200.047 79.6853 200.625 79.5276 201.117 79.2081C201.607 78.8886 201.985 78.4236 202.198 77.878C202.273 77.7273 202.348 77.6898 202.48 77.7465L203.062 77.9903C203.212 78.046 203.212 78.1593 203.137 78.2716C202.832 79.0051 202.307 79.6271 201.637 80.053C200.965 80.479 200.18 80.6883 199.385 80.6528C197.36 80.6528 196.235 79.5093 196.235 77.6341C196.233 77.3571 196.258 77.0805 196.31 76.8083L196.78 73.8836C197.153 71.5581 198.56 70.0198 200.83 70.0198C201.55 69.9441 202.273 70.1435 202.855 70.5781C203.435 71.0126 203.83 71.6503 203.962 72.3636ZM213.822 72.6075C213.825 72.8721 213.8 73.1363 213.748 73.3958L212.66 80.2785C212.658 80.306 212.652 80.333 212.64 80.3576C212.627 80.3823 212.61 80.4041 212.588 80.4218C212.568 80.4395 212.543 80.4525 212.517 80.46C212.49 80.4676 212.462 80.4695 212.435 80.4656H211.778C211.628 80.4656 211.553 80.3908 211.592 80.2785L212.642 73.6023C212.692 73.3365 212.717 73.0663 212.717 72.7958C212.753 72.5591 212.733 72.3173 212.66 72.0895C212.587 71.8616 212.462 71.6538 212.295 71.4828C212.127 71.3118 211.922 71.182 211.695 71.104C211.47 71.0258 211.228 71.0015 210.99 71.0328C209.828 71.0328 208.44 72.0448 207.69 73.489L206.622 80.2785C206.615 80.3328 206.588 80.3828 206.547 80.4176C206.505 80.4526 206.45 80.4698 206.397 80.4656H205.722C205.59 80.4656 205.533 80.3908 205.552 80.2785L207.747 66.4566C207.752 66.4023 207.778 66.3525 207.82 66.3175C207.863 66.2826 207.917 66.2653 207.972 66.2695H208.647C208.778 66.2695 208.835 66.3443 208.815 66.4566L207.933 71.9518C208.315 71.3926 208.818 70.9278 209.407 70.593C209.995 70.2583 210.652 70.0621 211.328 70.0198C211.67 69.9953 212.013 70.0463 212.333 70.1689C212.653 70.2918 212.942 70.4833 213.18 70.7301C213.418 70.977 213.6 71.273 213.71 71.5975C213.822 71.9218 213.86 72.2666 213.822 72.6075ZM224.283 72.6075C224.285 72.8721 224.26 73.1363 224.208 73.3958L223.12 80.2785C223.12 80.306 223.113 80.333 223.1 80.3576C223.088 80.3823 223.072 80.4041 223.05 80.4218C223.028 80.4395 223.003 80.4525 222.977 80.46C222.952 80.4676 222.923 80.4695 222.897 80.4656H222.238C222.09 80.4656 222.015 80.3908 222.052 80.2785L223.102 73.6023C223.153 73.3365 223.178 73.0663 223.177 72.7958C223.213 72.5591 223.195 72.3173 223.122 72.0895C223.048 71.8616 222.923 71.6538 222.755 71.4828C222.588 71.3118 222.383 71.182 222.157 71.104C221.93 71.0258 221.688 71.0015 221.452 71.0328C220.288 71.0328 218.92 72.0266 218.17 73.4708L217.082 80.2785C217.08 80.306 217.073 80.3328 217.062 80.3575C217.05 80.3821 217.032 80.4039 217.012 80.4216C216.99 80.4393 216.965 80.4523 216.938 80.4598C216.912 80.4675 216.885 80.4695 216.857 80.4656H216.2C216.05 80.4656 215.993 80.3908 216.013 80.2785L217.588 70.3953C217.593 70.3408 217.62 70.2906 217.663 70.2556C217.705 70.2205 217.758 70.2029 217.813 70.207H218.47C218.602 70.207 218.658 70.283 218.638 70.3953L218.395 71.97C218.77 71.4041 219.273 70.9333 219.862 70.595C220.452 70.2565 221.11 70.0596 221.788 70.0198C222.13 69.9953 222.473 70.0463 222.793 70.1689C223.115 70.2916 223.403 70.4833 223.642 70.7301C223.88 70.977 224.06 71.273 224.172 71.5975C224.282 71.9218 224.32 72.2666 224.283 72.6075ZM234.952 73.0771C234.947 73.3598 234.922 73.642 234.877 73.9211L234.407 76.8841C234.323 77.9581 233.818 78.9556 233.005 79.661C232.19 80.3663 231.132 80.7226 230.057 80.6528C227.9 80.6528 226.662 79.4526 226.662 77.6341C226.668 77.3515 226.693 77.0695 226.737 76.7901L227.225 73.7895C227.58 71.4265 229.082 70.0198 231.537 70.0198C233.693 70.0198 234.952 71.2575 234.952 73.0771ZM228.255 73.9585L227.825 76.7526C227.778 77 227.753 77.251 227.75 77.5025C227.75 78.9091 228.65 79.6591 230.113 79.6591C230.923 79.7021 231.717 79.4223 232.322 78.881C232.927 78.3396 233.292 77.581 233.338 76.7708L233.768 74.0708C233.827 73.7866 233.858 73.4976 233.863 73.2076C233.863 71.802 232.943 71.0328 231.5 71.0328C229.793 71.0328 228.575 71.9891 228.255 73.9585ZM240.253 66.4566L238.06 80.2785C238.053 80.3328 238.027 80.3826 237.985 80.4176C237.943 80.4526 237.89 80.4698 237.835 80.4656H237.16C237.028 80.4656 236.972 80.3908 236.992 80.2785L239.185 66.4566C239.192 66.4023 239.218 66.3525 239.26 66.3175C239.302 66.2826 239.355 66.2653 239.41 66.2693H240.085C240.217 66.2693 240.273 66.3443 240.253 66.4566ZM249.967 73.0771C249.962 73.3598 249.937 73.642 249.892 73.9211L249.423 76.8841C249.338 77.9581 248.835 78.9556 248.02 79.661C247.207 80.3663 246.147 80.7226 245.072 80.6528C242.915 80.6528 241.678 79.4526 241.678 77.6341C241.683 77.3515 241.708 77.0695 241.753 76.7901L242.24 73.7895C242.597 71.4265 244.097 70.0198 246.553 70.0198C248.71 70.0198 249.967 71.2575 249.967 73.0771ZM243.272 73.9585L242.84 76.7526C242.793 77 242.768 77.251 242.765 77.5025C242.765 78.9091 243.665 79.6591 245.128 79.6591C245.938 79.7021 246.733 79.4223 247.338 78.881C247.942 78.3396 248.307 77.581 248.353 76.7708L248.785 74.0708C248.843 73.7866 248.875 73.4976 248.878 73.2076C248.878 71.802 247.96 71.0328 246.517 71.0328C244.81 71.0328 243.59 71.9891 243.272 73.9585ZM260.67 71.3516L259.263 80.2036C258.795 83.0908 257.015 84.4043 254.82 84.4043C254.21 84.4243 253.602 84.3123 253.038 84.0759C252.477 83.8396 251.97 83.4846 251.557 83.0351C251.535 83.0168 251.517 82.9938 251.505 82.9678C251.492 82.9418 251.487 82.9135 251.487 82.8848C251.487 82.8561 251.492 82.8278 251.505 82.8018C251.517 82.7758 251.535 82.753 251.557 82.7346L251.913 82.3035C251.93 82.2775 251.955 82.2561 251.982 82.2415C252.01 82.2268 252.042 82.2191 252.072 82.2191C252.103 82.2191 252.135 82.2268 252.163 82.2415C252.19 82.2561 252.213 82.2775 252.232 82.3035C252.55 82.6636 252.943 82.9506 253.383 83.145C253.823 83.3391 254.302 83.436 254.782 83.4288C256.452 83.4288 257.802 82.5473 258.195 80.1095L258.477 78.2716C258.103 78.9228 257.577 79.4731 256.943 79.875C256.308 80.2768 255.587 80.5181 254.838 80.5781C253.17 80.5781 252.232 79.4901 252.232 77.7273C252.232 77.4133 252.257 77.1 252.307 76.7901L252.777 73.8453C253.132 71.5581 254.52 70.1323 256.845 70.1323C258.117 70.1604 259.37 70.4546 260.522 70.9955C260.69 71.0885 260.708 71.1635 260.67 71.3516ZM259.508 71.6886C258.675 71.3165 257.775 71.1186 256.863 71.1078C255.14 71.1078 254.127 72.139 253.845 73.9018L253.395 76.6778C253.345 76.975 253.318 77.276 253.32 77.5775C253.32 78.9091 253.938 79.5843 255.102 79.5843C256.32 79.5843 257.708 78.6653 258.72 76.771L259.508 71.6886ZM265.282 70.3953L263.705 80.2785C263.7 80.3328 263.673 80.3828 263.632 80.4176C263.59 80.4526 263.535 80.4698 263.482 80.4656H262.807C262.675 80.4656 262.618 80.3908 262.637 80.2785L264.212 70.3953C264.218 70.3408 264.245 70.2906 264.287 70.2556C264.328 70.2205 264.383 70.2029 264.437 70.2071H265.112C265.243 70.207 265.3 70.283 265.282 70.3953ZM265.9 66.494L265.6 68.3136C265.595 68.373 265.565 68.4276 265.52 68.4661C265.475 68.5046 265.415 68.524 265.357 68.5201H264.7C264.568 68.5201 264.493 68.4441 264.532 68.3136L264.812 66.494C264.818 66.4298 264.848 66.3705 264.898 66.3286C264.947 66.2866 265.01 66.2655 265.075 66.2693H265.713C265.862 66.2693 265.918 66.3443 265.9 66.494ZM275.35 72.983C275.34 73.3231 275.302 73.6618 275.237 73.9959L275.032 75.2893C275.028 75.353 275.012 75.4153 274.982 75.4723C274.953 75.5291 274.913 75.5795 274.863 75.62C274.815 75.6606 274.757 75.6905 274.697 75.708C274.635 75.7255 274.57 75.73 274.507 75.7215H268.637L268.468 76.7526C268.425 77.007 268.4 77.264 268.392 77.5218C268.392 78.9658 269.218 79.6965 270.662 79.6965C271.247 79.739 271.83 79.6133 272.345 79.3343C272.86 79.0551 273.285 78.6345 273.568 78.1218C273.663 77.9711 273.775 77.9528 273.887 78.0278L274.357 78.2898C274.507 78.384 274.488 78.4963 274.413 78.6278C274.022 79.274 273.462 79.8028 272.797 80.1591C272.13 80.5153 271.38 80.686 270.625 80.6528C268.468 80.6528 267.323 79.4901 267.323 77.6341C267.332 77.364 267.357 77.0945 267.398 76.8276L267.887 73.7521C267.987 72.715 268.477 71.7543 269.255 71.0621C270.033 70.3701 271.045 69.9978 272.087 70.0198C274.112 70.0198 275.35 71.2018 275.35 72.983ZM274.3 73.1144C274.3 71.7261 273.475 70.9955 272.05 70.9955C270.437 70.9955 269.237 71.97 268.937 73.8645L268.768 74.8581H274.037L274.207 73.9211C274.263 73.6558 274.295 73.3858 274.3 73.1144ZM284.592 72.2888C284.61 72.4578 284.592 72.5326 284.403 72.5701L283.917 72.7208C283.748 72.7765 283.673 72.7208 283.635 72.6075C283.612 72.3628 283.54 72.1251 283.423 71.9091C283.305 71.6931 283.145 71.5033 282.953 71.3508C282.76 71.1983 282.538 71.0865 282.302 71.0221C282.063 70.9576 281.817 70.942 281.573 70.9761C279.678 70.9761 279.078 72.064 279.078 72.8513C279.078 73.8076 280.017 74.2025 281.273 74.7083C282.792 75.3266 283.992 75.9835 283.992 77.5216C283.992 78.9658 282.96 80.6721 280.335 80.6721C278.478 80.6721 277.185 79.734 276.978 78.309C276.94 78.1218 276.978 78.046 277.128 78.0085L277.653 77.8405C277.822 77.7838 277.897 77.8213 277.935 77.971C278.067 79.0781 279.003 79.7158 280.335 79.7158C282.23 79.7158 282.923 78.553 282.923 77.6148C282.923 76.5461 282.003 76.1706 280.617 75.608C279.097 74.9705 278.01 74.3703 278.01 72.8888C278.01 71.5955 279.003 70.039 281.517 70.039C283.26 70.0391 284.387 70.9205 284.592 72.2888Z" fill="#A3AAB4"/>
<path d="M67.3994 73.4941C69.4079 73.4941 71.0362 71.8657 71.0362 69.8572C71.0362 67.8487 69.4079 66.2206 67.3994 66.2206C65.3909 66.2206 63.7627 67.8487 63.7627 69.8572C63.7627 71.8657 65.3909 73.4941 67.3994 73.4941Z" fill="white"/>
<path d="M71.9774 62.2424C73.7851 62.2424 75.2504 60.777 75.2504 58.9694C75.2504 57.1619 73.7851 55.6965 71.9774 55.6965C70.1699 55.6965 68.7046 57.1619 68.7046 58.9694C68.7046 60.777 70.1699 62.2424 71.9774 62.2424Z" fill="white"/>
<path d="M73.3882 51.2853C75.0152 51.2853 76.334 49.9665 76.334 48.3395C76.334 46.7127 75.0152 45.3937 73.3882 45.3937C71.7614 45.3937 70.4424 46.7127 70.4424 48.3395C70.4424 49.9665 71.7614 51.2853 73.3882 51.2853Z" fill="white"/>
<path d="M70.8667 41.1319C72.3307 41.1319 73.5175 39.9451 73.5175 38.4811C73.5175 37.0169 72.3307 35.8301 70.8667 35.8301C69.4027 35.8301 68.2158 37.0169 68.2158 38.4811C68.2158 39.9451 69.4027 41.1319 70.8667 41.1319Z" fill="white"/>
<path d="M65.6934 34.0198C67.0113 34.0198 68.0794 32.9516 68.0794 31.6339C68.0794 30.3163 67.0113 29.2479 65.6934 29.2479C64.3758 29.2479 63.3076 30.3163 63.3076 31.6339C63.3076 32.9516 64.3758 34.0198 65.6934 34.0198Z" fill="white"/>
<path d="M59.159 29.0569C60.345 29.0569 61.3064 28.0955 61.3064 26.9095C61.3064 25.7237 60.345 24.7622 59.159 24.7622C57.9732 24.7622 57.0117 25.7237 57.0117 26.9095C57.0117 28.0955 57.9732 29.0569 59.159 29.0569Z" fill="white"/>
<path d="M52.4735 26.7338C53.541 26.7338 54.4064 25.8683 54.4064 24.8008C54.4064 23.7333 53.541 22.8679 52.4735 22.8679C51.4059 22.8679 50.5405 23.7333 50.5405 24.8008C50.5405 25.8683 51.4059 26.7338 52.4735 26.7338Z" fill="white"/>
<path d="M46.1208 27.5501C47.0812 27.5501 47.8597 26.7716 47.8597 25.8111C47.8597 24.8508 47.0812 24.0723 46.1208 24.0723C45.1603 24.0723 44.3818 24.8508 44.3818 25.8111C44.3818 26.7716 45.1603 27.5501 46.1208 27.5501Z" fill="white"/>
<path d="M40.6739 30.2045C41.5386 30.2045 42.2394 29.5037 42.2394 28.639C42.2394 27.7745 41.5386 27.0735 40.6739 27.0735C39.8094 27.0735 39.1084 27.7745 39.1084 28.639C39.1084 29.5037 39.8094 30.2045 40.6739 30.2045Z" fill="white"/>
<path d="M37.0731 34.2367C37.8511 34.2367 38.4819 33.6059 38.4819 32.8279C38.4819 32.0497 37.8511 31.4191 37.0731 31.4191C36.2949 31.4191 35.6641 32.0497 35.6641 32.8279C35.6641 33.6059 36.2949 34.2367 37.0731 34.2367Z" fill="white"/>
<path d="M37.0167 39.7194C37.7167 39.7194 38.2844 39.1519 38.2844 38.4518C38.2844 37.7518 37.7167 37.1841 37.0167 37.1841C36.3165 37.1841 35.749 37.7518 35.749 38.4518C35.749 39.1519 36.3165 39.7194 37.0167 39.7194Z" fill="white"/>
<path d="M55.9218 13.0416C57.9303 13.0416 59.5585 11.4134 59.5585 9.40489C59.5585 7.39639 57.9303 5.76819 55.9218 5.76819C53.9133 5.76819 52.2852 7.39639 52.2852 9.40489C52.2852 11.4134 53.9133 13.0416 55.9218 13.0416Z" fill="white"/>
<path d="M44.1978 14.1598C46.0053 14.1598 47.4706 12.6945 47.4706 10.8869C47.4706 9.07924 46.0053 7.61389 44.1978 7.61389C42.3901 7.61389 40.9248 9.07924 40.9248 10.8869C40.9248 12.6945 42.3901 14.1598 44.1978 14.1598Z" fill="white"/>
<path d="M34.2935 17.9228C35.9203 17.9228 37.2393 16.604 37.2393 14.9771C37.2393 13.3501 35.9203 12.0312 34.2935 12.0312C32.6665 12.0312 31.3477 13.3501 31.3477 14.9771C31.3477 16.604 32.6665 17.9228 34.2935 17.9228Z" fill="white"/>
<path d="M27.0127 24.7452C28.4767 24.7452 29.6635 23.5584 29.6635 22.0942C29.6635 20.6302 28.4767 19.4434 27.0127 19.4434C25.5487 19.4434 24.3618 20.6302 24.3618 22.0942C24.3618 23.5584 25.5487 24.7452 27.0127 24.7452Z" fill="white"/>
<path d="M23.6751 32.385C24.9927 32.385 26.0611 31.3168 26.0611 29.9992C26.0611 28.6813 24.9927 27.6132 23.6751 27.6132C22.3574 27.6132 21.2891 28.6813 21.2891 29.9992C21.2891 31.3168 22.3574 32.385 23.6751 32.385Z" fill="white"/>
<path d="M22.8505 40.1704C24.0363 40.1704 24.9978 39.2091 24.9978 38.0231C24.9978 36.8371 24.0363 35.8757 22.8505 35.8757C21.6645 35.8757 20.7031 36.8371 20.7031 38.0231C20.7031 39.2091 21.6645 40.1704 22.8505 40.1704Z" fill="white"/>
<path d="M24.3676 46.7954C25.4351 46.7954 26.3004 45.9301 26.3004 44.8626C26.3004 43.7949 25.4351 42.9296 24.3676 42.9296C23.3001 42.9296 22.4346 43.7949 22.4346 44.8626C22.4346 45.9301 23.3001 46.7954 24.3676 46.7954Z" fill="white"/>
<path d="M28.4119 51.5961C29.3722 51.5961 30.1507 50.8176 30.1507 49.8573C30.1507 48.8968 29.3722 48.1183 28.4119 48.1183C27.4514 48.1183 26.6729 48.8968 26.6729 49.8573C26.6729 50.8176 27.4514 51.5961 28.4119 51.5961Z" fill="white"/>
<path d="M33.5841 54.7291C34.4487 54.7291 35.1496 54.0281 35.1496 53.1636C35.1496 52.299 34.4487 51.5981 33.5841 51.5981C32.7196 51.5981 32.0186 52.299 32.0186 53.1636C32.0186 54.0281 32.7196 54.7291 33.5841 54.7291Z" fill="white"/>
<path d="M39.0128 55.5943C39.791 55.5943 40.4217 54.9635 40.4217 54.1853C40.4217 53.4073 39.791 52.7765 39.0128 52.7765C38.2348 52.7765 37.604 53.4073 37.604 54.1853C37.604 54.9635 38.2348 55.5943 39.0128 55.5943Z" fill="white"/>
<path d="M43.9107 52.6914C44.6109 52.6914 45.1784 52.1239 45.1784 51.4238C45.1784 50.7237 44.6109 50.1562 43.9107 50.1562C43.2107 50.1562 42.6431 50.7237 42.6431 51.4238C42.6431 52.1239 43.2107 52.6914 43.9107 52.6914Z" fill="white"/>
<path d="M9.30713 53.211C11.3156 53.211 12.9438 51.5827 12.9438 49.5742C12.9438 47.5657 11.3156 45.9375 9.30713 45.9375C7.29863 45.9375 5.67041 47.5657 5.67041 49.5742C5.67041 51.5827 7.29863 53.211 9.30713 53.211Z" fill="white"/>
<path d="M16.4497 62.2555C18.2573 62.2555 19.7227 60.7902 19.7227 58.9827C19.7227 57.175 18.2573 55.7097 16.4497 55.7097C14.6421 55.7097 13.1768 57.175 13.1768 58.9827C13.1768 60.7902 14.6421 62.2555 16.4497 62.2555Z" fill="white"/>
<path d="M24.9449 68.4665C26.5719 68.4665 27.8907 67.1477 27.8907 65.5207C27.8907 63.8938 26.5719 62.5748 24.9449 62.5748C23.318 62.5748 21.999 63.8938 21.999 65.5207C21.999 67.1477 23.318 68.4665 24.9449 68.4665Z" fill="white"/>
<path d="M34.747 70.9137C36.2112 70.9137 37.398 69.7269 37.398 68.2629C37.398 66.7989 36.2112 65.6121 34.747 65.6121C33.283 65.6121 32.0962 66.7989 32.0962 68.2629C32.0962 69.7269 33.283 70.9137 34.747 70.9137Z" fill="white"/>
<path d="M43.2649 69.5893C44.5826 69.5893 45.6509 68.5212 45.6509 67.2035C45.6509 65.8858 44.5826 64.8175 43.2649 64.8175C41.9472 64.8175 40.8789 65.8858 40.8789 67.2035C40.8789 68.5212 41.9472 69.5893 43.2649 69.5893Z" fill="white"/>
<path d="M50.6239 66.0557C51.8099 66.0557 52.7712 65.0943 52.7712 63.9083C52.7712 62.7225 51.8099 61.761 50.6239 61.761C49.4381 61.761 48.4766 62.7225 48.4766 63.9083C48.4766 65.0943 49.4381 66.0557 50.6239 66.0557Z" fill="white"/>
<path d="M55.7932 61.1053C56.8607 61.1053 57.7262 60.24 57.7262 59.1725C57.7262 58.105 56.8607 57.2396 55.7932 57.2396C54.7257 57.2396 53.8604 58.105 53.8604 59.1725C53.8604 60.24 54.7257 61.1053 55.7932 61.1053Z" fill="white"/>
<path d="M58.093 54.9068C59.0533 54.9068 59.8318 54.1282 59.8318 53.1678C59.8318 52.2073 59.0533 51.4288 58.093 51.4288C57.1325 51.4288 56.354 52.2073 56.354 53.1678C56.354 54.1282 57.1325 54.9068 58.093 54.9068Z" fill="white"/>
<path d="M58.3692 48.6029C59.2339 48.6029 59.9347 47.9021 59.9347 47.0374C59.9347 46.1728 59.2339 45.4719 58.3692 45.4719C57.5047 45.4719 56.8037 46.1728 56.8037 47.0374C56.8037 47.9021 57.5047 48.6029 58.3692 48.6029Z" fill="white"/>
<path d="M56.5387 43.2344C57.3169 43.2344 57.9477 42.6037 57.9477 41.8256C57.9477 41.0476 57.3169 40.4167 56.5387 40.4167C55.7607 40.4167 55.1299 41.0476 55.1299 41.8256C55.1299 42.6037 55.7607 43.2344 56.5387 43.2344Z" fill="white"/>
<path d="M51.6974 40.2305C52.3974 40.2305 52.965 39.663 52.965 38.963C52.965 38.2628 52.3974 37.6953 51.6974 37.6953C50.9972 37.6953 50.4297 38.2628 50.4297 38.963C50.4297 39.663 50.9972 40.2305 51.6974 40.2305Z" fill="white"/>
</svg>
