<svg width="42" height="42" viewBox="0 0 42 42" fill="none" xmlns="http://www.w3.org/2000/svg">
<path d="M11.0126 11.0126C11.696 10.3291 12.804 10.3291 13.4874 11.0126L21 18.5251L28.5126 11.0126C29.196 10.3291 30.304 10.3291 30.9874 11.0126C31.6709 11.696 31.6709 12.804 30.9874 13.4874L23.4749 21L30.9874 28.5126C31.6709 29.196 31.6709 30.304 30.9874 30.9874C30.304 31.6709 29.196 31.6709 28.5126 30.9874L21 23.4749L13.4874 30.9874C12.804 31.6709 11.696 31.6709 11.0126 30.9874C10.3291 30.304 10.3291 29.196 11.0126 28.5126L18.5251 21L11.0126 13.4874C10.3291 12.804 10.3291 11.696 11.0126 11.0126Z" fill="#F6F6F6"/>
</svg>
