<svg width="281" height="205" viewBox="0 0 281 205" fill="none" xmlns="http://www.w3.org/2000/svg">
<path d="M3.85201 4.10453V200.676H11.7582V204.134H0.818054L0.818054 0.646744H11.7582V4.10453H3.85201Z" fill="white"/>
<path d="M35.0499 35.0668H29.9036V51.5624C29.9036 52.512 30.0108 53.2625 30.2252 53.8138C30.4397 54.3652 30.7613 54.7941 31.1902 55.1004C31.6497 55.3761 32.1857 55.5446 32.7984 55.6058C33.4417 55.6671 34.1768 55.6824 35.0039 55.6518V57.1681C34.1156 57.2294 33.2425 57.2294 32.3848 57.1681C31.5578 57.0762 30.8226 56.8465 30.1793 56.4789C29.536 56.0807 29.0153 55.4986 28.617 54.7328C28.2494 53.967 28.0963 52.9102 28.1575 51.5624V35.0668H23.7924V33.5505H28.1575V26.1987H29.9036V33.5505H35.0499V35.0668ZM41.8406 24.3607V38.6048H41.9325C42.2388 37.7165 42.6677 36.9354 43.219 36.2614C43.8011 35.5569 44.4597 34.9596 45.1948 34.4694C45.9606 33.9793 46.7877 33.6117 47.6761 33.3667C48.5644 33.1216 49.4681 32.9991 50.387 32.9991C51.7655 32.9991 52.9295 33.1676 53.8791 33.5045C54.8594 33.8415 55.6558 34.2856 56.2685 34.837C56.8811 35.3884 57.3559 36.0164 57.6929 36.7209C58.0605 37.3948 58.3208 38.0841 58.474 38.7886C58.6272 39.4932 58.7191 40.1824 58.7497 40.8563C58.7803 41.4996 58.7957 42.0663 58.7957 42.5564V57.1681H57.0496V42.2348C57.0496 41.6528 57.0037 40.9176 56.9118 40.0292C56.8199 39.1409 56.5442 38.2985 56.0847 37.5021C55.6558 36.675 54.9819 35.9704 54.0629 35.3884C53.1746 34.8064 51.934 34.5154 50.3411 34.5154C48.9933 34.5154 47.7986 34.7604 46.7571 35.2506C45.7156 35.7407 44.8272 36.4299 44.0921 37.3183C43.3569 38.176 42.7902 39.2175 42.392 40.4428C42.0244 41.6374 41.8406 42.9546 41.8406 44.3944V57.1681H40.0945V24.3607H41.8406ZM66.4486 45.589V45.8647C66.4486 47.2432 66.6324 48.5604 67 49.8163C67.3676 51.0722 67.9037 52.175 68.6082 53.1246C69.3434 54.0742 70.2471 54.8247 71.3192 55.3761C72.422 55.9275 73.6932 56.2032 75.1329 56.2032C77.4916 56.2032 79.3602 55.5905 80.7387 54.3652C82.1171 53.1093 83.0667 51.3786 83.5875 49.173H85.3335C84.8128 51.93 83.6794 54.0436 81.9333 55.514C80.2179 56.9843 77.9358 57.7195 75.087 57.7195C73.3409 57.7195 71.8093 57.4132 70.4921 56.8005C69.2055 56.1572 68.1181 55.2995 67.2298 54.2274C66.372 53.1246 65.7288 51.8381 65.2999 50.3677C64.8711 48.8667 64.6566 47.2585 64.6566 45.5431C64.6566 43.8889 64.8711 42.3114 65.2999 40.8104C65.7594 39.2787 66.4333 37.9462 67.3216 36.8128C68.21 35.6488 69.3128 34.7298 70.63 34.0559C71.9778 33.3514 73.5554 32.9991 75.3627 32.9991C77.0168 32.9991 78.4719 33.3054 79.7278 33.9181C81.0144 34.5307 82.0865 35.3731 82.9442 36.4452C83.8019 37.4867 84.4452 38.712 84.8741 40.1211C85.3335 41.4996 85.5633 42.9853 85.5633 44.5782C85.5633 44.7313 85.548 44.9151 85.5173 45.1295C85.5173 45.3133 85.5173 45.4665 85.5173 45.589H66.4486ZM83.7713 44.0727C83.71 42.7862 83.4956 41.5762 83.128 40.4428C82.7604 39.2787 82.209 38.2679 81.4739 37.4102C80.7693 36.5218 79.8963 35.8173 78.8548 35.2965C77.8439 34.7758 76.6799 34.5154 75.3627 34.5154C73.9536 34.5154 72.713 34.7911 71.6408 35.3425C70.5687 35.8632 69.665 36.5678 68.9299 37.4561C68.1947 38.3138 67.628 39.3247 67.2298 40.4887C66.8315 41.6528 66.5865 42.8474 66.4946 44.0727H83.7713Z" fill="white"/>
<path d="M34.6173 82.6928V88.3287H34.7783C36.2867 86.1835 38.1035 84.5176 40.2318 83.3366C42.3585 82.1577 44.7968 81.5658 47.5429 81.5658C50.1813 81.5658 52.5921 82.0769 54.7732 83.0957C56.9548 84.1163 58.6112 85.9135 59.7421 88.4905C60.98 86.6657 62.663 85.055 64.7913 83.6596C66.9183 82.2648 69.436 81.5658 72.3449 81.5658C74.5534 81.5658 76.5989 81.8347 78.4854 82.3715C80.3695 82.9083 81.9851 83.767 83.332 84.9477C84.6772 86.1292 85.7274 87.6727 86.483 89.5764C87.2365 91.4837 87.6139 93.7769 87.6139 96.4618V124.318H76.1416V100.728C76.1416 99.333 76.0879 98.0182 75.9798 96.7826C75.8712 95.549 75.5762 94.476 75.0914 93.5624C74.6063 92.6504 73.8919 91.9252 72.9507 91.3879C72.0078 90.8534 70.7284 90.5833 69.1131 90.5833C67.4975 90.5833 66.191 90.894 65.1945 91.509C64.1976 92.1272 63.417 92.933 62.8519 93.9246C62.2869 94.9187 61.9095 96.0457 61.7214 97.3078C61.5317 98.5683 61.4385 99.8438 61.4385 101.132V124.318H49.967V100.971C49.967 99.7363 49.9388 98.5144 49.8871 97.3078C49.8322 96.0992 49.6042 94.986 49.1994 93.9653C48.7953 92.9462 48.1217 92.1272 47.1793 91.509C46.2368 90.894 44.85 90.5833 43.0189 90.5833C42.4796 90.5833 41.766 90.7045 40.8785 90.9468C39.9898 91.1882 39.1275 91.6451 38.2933 92.3152C37.4574 92.9865 36.7446 93.9528 36.1521 95.2129C35.5593 96.4751 35.2634 98.1248 35.2634 100.164V124.318H23.7924V82.6928H34.6173Z" fill="white"/>
<path fill-rule="evenodd" clip-rule="evenodd" d="M99.4877 84.5451C97.6561 85.6198 96.1474 87.0413 94.9636 88.813C93.777 90.583 93.105 92.8119 92.9443 95.4948H104.416C104.63 93.2409 105.386 91.6298 106.678 90.6639C107.97 89.6976 109.748 89.2142 112.01 89.2142C113.032 89.2142 113.989 89.283 114.878 89.4155C115.766 89.5503 116.547 89.8187 117.22 90.2212C117.893 90.6233 118.432 91.1879 118.836 91.912C119.24 92.6364 119.441 93.6168 119.441 94.8504C119.494 96.0321 119.144 96.9312 118.392 97.5482C117.636 98.166 116.614 98.6348 115.321 98.9568C114.029 99.2788 112.547 99.5207 110.878 99.6821C109.208 99.8431 107.512 100.058 105.788 100.326C104.065 100.596 102.355 100.957 100.659 101.413C98.9618 101.869 97.4539 102.553 96.1353 103.465C94.8139 104.379 93.7374 105.599 92.9032 107.13C92.0669 108.658 91.65 110.605 91.65 112.966C91.65 115.112 92.014 116.965 92.7413 118.522C93.4682 120.078 94.4781 121.366 95.7708 122.385C97.0632 123.406 98.5707 124.157 100.295 124.64C102.018 125.123 103.876 125.365 105.869 125.365C108.455 125.365 110.986 124.988 113.464 124.238C115.94 123.487 118.095 122.171 119.926 120.293C119.979 120.991 120.073 121.675 120.209 122.345C120.343 123.016 120.518 123.673 120.734 124.318H132.367C131.828 123.46 131.45 122.171 131.237 120.453C131.021 118.735 130.913 116.94 130.913 115.058V93.4019C130.913 90.8788 130.347 88.852 129.217 87.3226C128.085 85.7936 126.631 84.5984 124.854 83.7401C123.076 82.8824 121.11 82.3047 118.956 82.0084C116.802 81.7142 114.675 81.5659 112.574 81.5659C110.258 81.5659 107.955 81.7949 105.667 82.2507C103.377 82.7074 101.318 83.4718 99.4877 84.5451ZM115.282 105.56C116.116 105.399 116.897 105.198 117.624 104.957C118.351 104.715 118.957 104.38 119.442 103.949V108.217C119.442 108.861 119.374 109.72 119.241 110.793C119.106 111.868 118.742 112.926 118.15 113.972C117.556 115.02 116.642 115.919 115.403 116.67C114.163 117.423 112.414 117.797 110.152 117.797C109.236 117.797 108.347 117.717 107.486 117.555C106.624 117.395 105.87 117.113 105.224 116.711C104.578 116.308 104.065 115.758 103.688 115.059C103.312 114.363 103.123 113.503 103.123 112.484C103.123 111.411 103.312 110.525 103.688 109.827C104.065 109.131 104.564 108.553 105.184 108.097C105.802 107.64 106.53 107.279 107.365 107.009C108.199 106.742 109.047 106.525 109.909 106.365C110.824 106.204 111.74 106.071 112.656 105.962C113.572 105.856 114.446 105.721 115.282 105.56Z" fill="white"/>
<path d="M161.131 82.6961V90.3448H152.73V110.956C152.73 112.888 153.053 114.177 153.7 114.82C154.345 115.464 155.639 115.786 157.577 115.786C158.224 115.786 158.842 115.76 159.435 115.706C160.027 115.653 160.593 115.571 161.131 115.465V124.321C160.162 124.482 159.084 124.589 157.9 124.644C156.715 124.695 155.557 124.723 154.426 124.723C152.649 124.723 150.966 124.602 149.377 124.36C147.788 124.119 146.388 123.651 145.177 122.952C143.965 122.255 143.008 121.261 142.309 119.973C141.607 118.686 141.258 116.995 141.258 114.9V90.3448H134.311V82.6961H141.258V70.2166H152.73V82.6961H161.131Z" fill="white"/>
<path d="M177.53 82.6935V90.4228H177.691C178.229 89.1337 178.956 87.9408 179.872 86.8397C180.788 85.7401 181.838 84.8001 183.023 84.0218C184.206 83.2449 185.473 82.6408 186.821 82.2101C188.165 81.7815 189.567 81.5659 191.021 81.5659C191.775 81.5659 192.609 81.701 193.525 81.9689V92.5974C192.986 92.4891 192.34 92.3949 191.587 92.3153C190.832 92.2344 190.106 92.1937 189.405 92.1937C187.305 92.1937 185.527 92.5439 184.074 93.2409C182.62 93.9388 181.449 94.8907 180.56 96.0985C179.671 97.3071 179.037 98.7149 178.66 100.326C178.284 101.935 178.095 103.681 178.095 105.559V124.318H166.624V82.6935H177.53Z" fill="white"/>
<path fill-rule="evenodd" clip-rule="evenodd" d="M198.376 66.8348V76.2547H209.848V66.8348H198.376ZM209.846 124.322V82.6968H198.374V124.322H209.846Z" fill="white"/>
<path d="M215.825 82.6913H228.912L236.264 93.5602L243.535 82.6913H256.218L242.485 102.175L257.915 124.317H244.827L236.102 111.193L227.377 124.317H214.533L229.558 102.418L215.825 82.6913Z" fill="white"/>
<path d="M44.1477 160.104C44.0558 159.063 43.7801 158.144 43.3206 157.347C42.8918 156.551 42.3251 155.892 41.6205 155.371C40.916 154.851 40.0889 154.452 39.1393 154.177C38.2203 153.901 37.2248 153.763 36.1526 153.763C34.6823 153.763 33.3804 154.07 32.247 154.682C31.1136 155.264 30.164 156.061 29.3982 157.072C28.6324 158.052 28.0503 159.185 27.6521 160.472C27.2539 161.728 27.0548 163.03 27.0548 164.377C27.0548 165.97 27.2386 167.441 27.6062 168.788C27.9738 170.136 28.5405 171.316 29.3063 172.327C30.0721 173.307 31.0217 174.073 32.1551 174.624C33.2885 175.175 34.621 175.451 36.1526 175.451C37.2554 175.451 38.2663 175.267 39.1852 174.9C40.1348 174.532 40.9619 174.027 41.6665 173.383C42.4017 172.74 42.999 171.974 43.4585 171.086C43.918 170.167 44.2243 169.171 44.3774 168.099H46.1235C45.9397 169.508 45.5568 170.764 44.9748 171.867C44.3928 172.97 43.6576 173.904 42.7692 174.67C41.8809 175.405 40.87 175.972 39.7366 176.37C38.6032 176.768 37.4086 176.967 36.1526 176.967C34.2228 176.967 32.5686 176.63 31.1902 175.956C29.8423 175.252 28.7242 174.318 27.8359 173.154C26.9782 171.99 26.3349 170.657 25.9061 169.156C25.5078 167.624 25.3087 166.032 25.3087 164.377C25.3087 162.723 25.5385 161.161 25.998 159.691C26.4881 158.22 27.1926 156.934 28.1116 155.831C29.0306 154.728 30.164 153.855 31.5118 153.212C32.8596 152.569 34.4066 152.247 36.1526 152.247C37.4392 152.247 38.6339 152.415 39.7366 152.752C40.87 153.059 41.8656 153.533 42.7233 154.177C43.6116 154.82 44.3315 155.647 44.8829 156.658C45.4343 157.638 45.7712 158.787 45.8938 160.104H44.1477ZM50.9276 164.607C50.9276 162.922 51.1574 161.345 51.6169 159.874C52.107 158.373 52.8115 157.056 53.7305 155.923C54.6495 154.789 55.7829 153.901 57.1307 153.258C58.4786 152.584 60.0255 152.247 61.7715 152.247C63.5176 152.247 65.0645 152.584 66.4124 153.258C67.7602 153.901 68.8936 154.789 69.8126 155.923C70.7315 157.056 71.4208 158.373 71.8803 159.874C72.3704 161.345 72.6154 162.922 72.6154 164.607C72.6154 166.292 72.3704 167.885 71.8803 169.386C71.4208 170.887 70.7315 172.204 69.8126 173.337C68.8936 174.44 67.7602 175.329 66.4124 176.002C65.0645 176.646 63.5176 176.967 61.7715 176.967C60.0255 176.967 58.4786 176.646 57.1307 176.002C55.7829 175.329 54.6495 174.44 53.7305 173.337C52.8115 172.204 52.107 170.887 51.6169 169.386C51.1574 167.885 50.9276 166.292 50.9276 164.607ZM52.6737 164.607C52.6737 166.016 52.8728 167.379 53.271 168.697C53.6693 169.983 54.2513 171.132 55.0171 172.143C55.7829 173.154 56.7325 173.965 57.8659 174.578C58.9993 175.16 60.3012 175.451 61.7715 175.451C63.2419 175.451 64.5438 175.16 65.6772 174.578C66.8106 173.965 67.7602 173.154 68.526 172.143C69.2918 171.132 69.8738 169.983 70.2721 168.697C70.6703 167.379 70.8694 166.016 70.8694 164.607C70.8694 163.198 70.6703 161.85 70.2721 160.564C69.8738 159.246 69.2918 158.082 68.526 157.072C67.7602 156.061 66.8106 155.264 65.6772 154.682C64.5438 154.07 63.2419 153.763 61.7715 153.763C60.3012 153.763 58.9993 154.07 57.8659 154.682C56.7325 155.264 55.7829 156.061 55.0171 157.072C54.2513 158.082 53.6693 159.246 53.271 160.564C52.8728 161.85 52.6737 163.198 52.6737 164.607ZM78.5479 152.798H80.2939V157.853H80.3858C80.6921 156.964 81.121 156.183 81.6724 155.509C82.2544 154.805 82.913 154.207 83.6482 153.717C84.414 153.227 85.2411 152.86 86.1294 152.615C87.0177 152.369 87.9214 152.247 88.8404 152.247C90.2188 152.247 91.3829 152.415 92.3325 152.752C93.3127 153.089 94.1092 153.533 94.7218 154.085C95.3345 154.636 95.8093 155.264 96.1462 155.969C96.5138 156.643 96.7742 157.332 96.9273 158.036C97.0805 158.741 97.1724 159.43 97.203 160.104C97.2337 160.747 97.249 161.314 97.249 161.804V176.416H95.5029V161.483C95.5029 160.901 95.457 160.165 95.3651 159.277C95.2732 158.389 94.9975 157.546 94.538 156.75C94.1092 155.923 93.4352 155.218 92.5163 154.636C91.6279 154.054 90.3873 153.763 88.7944 153.763C87.4466 153.763 86.2519 154.008 85.2104 154.498C84.1689 154.989 83.2806 155.678 82.5454 156.566C81.8102 157.424 81.2435 158.465 80.8453 159.691C80.4777 160.885 80.2939 162.202 80.2939 163.642V176.416H78.5479V152.798ZM101.64 154.315V152.798H105.867V147.928C105.867 147.101 106.005 146.396 106.28 145.814C106.556 145.201 106.924 144.711 107.383 144.344C107.873 143.976 108.425 143.7 109.037 143.517C109.681 143.333 110.355 143.241 111.059 143.241C111.58 143.241 112.269 143.318 113.127 143.471V144.987C112.269 144.834 111.58 144.757 111.059 144.757C110.079 144.757 109.252 144.987 108.578 145.447C107.935 145.875 107.613 146.748 107.613 148.066V152.798H112.529V154.315H107.613V176.416H105.867V154.315H101.64ZM117.823 164.837V165.113C117.823 166.491 118.007 167.808 118.375 169.064C118.742 170.32 119.278 171.423 119.983 172.372C120.718 173.322 121.622 174.073 122.694 174.624C123.797 175.175 125.068 175.451 126.508 175.451C128.866 175.451 130.735 174.838 132.113 173.613C133.492 172.357 134.441 170.626 134.962 168.421H136.708C136.187 171.178 135.054 173.291 133.308 174.762C131.593 176.232 129.31 176.967 126.462 176.967C124.716 176.967 123.184 176.661 121.867 176.048C120.58 175.405 119.493 174.547 118.604 173.475C117.747 172.372 117.103 171.086 116.675 169.616C116.246 168.115 116.031 166.506 116.031 164.791C116.031 163.137 116.246 161.559 116.675 160.058C117.134 158.527 117.808 157.194 118.696 156.061C119.585 154.897 120.687 153.978 122.005 153.304C123.352 152.599 124.93 152.247 126.737 152.247C128.391 152.247 129.846 152.553 131.102 153.166C132.389 153.779 133.461 154.621 134.319 155.693C135.177 156.735 135.82 157.96 136.249 159.369C136.708 160.747 136.938 162.233 136.938 163.826C136.938 163.979 136.923 164.163 136.892 164.377C136.892 164.561 136.892 164.714 136.892 164.837H117.823ZM135.146 163.321C135.085 162.034 134.87 160.824 134.503 159.691C134.135 158.527 133.584 157.516 132.848 156.658C132.144 155.77 131.271 155.065 130.229 154.544C129.219 154.024 128.054 153.763 126.737 153.763C125.328 153.763 124.088 154.039 123.015 154.59C121.943 155.111 121.04 155.816 120.304 156.704C119.569 157.562 119.003 158.573 118.604 159.737C118.206 160.901 117.961 162.095 117.869 163.321H135.146ZM144.545 158.036H144.683C144.897 157.271 145.28 156.551 145.831 155.877C146.414 155.203 147.103 154.621 147.899 154.131C148.726 153.641 149.63 153.273 150.61 153.028C151.621 152.752 152.663 152.63 153.735 152.66V154.407C152.816 154.284 151.759 154.376 150.564 154.682C149.4 154.989 148.282 155.662 147.21 156.704C146.781 157.163 146.398 157.608 146.061 158.036C145.755 158.465 145.495 158.94 145.28 159.461C145.066 159.982 144.897 160.564 144.775 161.207C144.652 161.85 144.576 162.616 144.545 163.504V176.416H142.799V152.798H144.545V158.036ZM157.576 164.837V165.113C157.576 166.491 157.76 167.808 158.127 169.064C158.495 170.32 159.031 171.423 159.736 172.372C160.471 173.322 161.374 174.073 162.447 174.624C163.549 175.175 164.821 175.451 166.26 175.451C168.619 175.451 170.488 174.838 171.866 173.613C173.245 172.357 174.194 170.626 174.715 168.421H176.461C175.94 171.178 174.807 173.291 173.061 174.762C171.345 176.232 169.063 176.967 166.214 176.967C164.468 176.967 162.937 176.661 161.62 176.048C160.333 175.405 159.246 174.547 158.357 173.475C157.499 172.372 156.856 171.086 156.427 169.616C155.998 168.115 155.784 166.506 155.784 164.791C155.784 163.137 155.998 161.559 156.427 160.058C156.887 158.527 157.561 157.194 158.449 156.061C159.337 154.897 160.44 153.978 161.757 153.304C163.105 152.599 164.683 152.247 166.49 152.247C168.144 152.247 169.599 152.553 170.855 153.166C172.142 153.779 173.214 154.621 174.072 155.693C174.929 156.735 175.573 157.96 176.002 159.369C176.461 160.747 176.691 162.233 176.691 163.826C176.691 163.979 176.675 164.163 176.645 164.377C176.645 164.561 176.645 164.714 176.645 164.837H157.576ZM174.899 163.321C174.837 162.034 174.623 160.824 174.255 159.691C173.888 158.527 173.336 157.516 172.601 156.658C171.897 155.77 171.024 155.065 169.982 154.544C168.971 154.024 167.807 153.763 166.49 153.763C165.081 153.763 163.84 154.039 162.768 154.59C161.696 155.111 160.792 155.816 160.057 156.704C159.322 157.562 158.755 158.573 158.357 159.737C157.959 160.901 157.714 162.095 157.622 163.321H174.899ZM182.552 152.798H184.298V157.853H184.39C184.696 156.964 185.125 156.183 185.676 155.509C186.258 154.805 186.917 154.207 187.652 153.717C188.418 153.227 189.245 152.86 190.133 152.615C191.022 152.369 191.925 152.247 192.844 152.247C194.223 152.247 195.387 152.415 196.336 152.752C197.317 153.089 198.113 153.533 198.726 154.085C199.338 154.636 199.813 155.264 200.15 155.969C200.518 156.643 200.778 157.332 200.931 158.036C201.084 158.741 201.176 159.43 201.207 160.104C201.238 160.747 201.253 161.314 201.253 161.804V176.416H199.507V161.483C199.507 160.901 199.461 160.165 199.369 159.277C199.277 158.389 199.001 157.546 198.542 156.75C198.113 155.923 197.439 155.218 196.52 154.636C195.632 154.054 194.391 153.763 192.798 153.763C191.45 153.763 190.256 154.008 189.214 154.498C188.173 154.989 187.284 155.678 186.549 156.566C185.814 157.424 185.247 158.465 184.849 159.691C184.482 160.885 184.298 162.202 184.298 163.642V176.416H182.552V152.798ZM225.999 160.104C225.907 159.063 225.631 158.144 225.172 157.347C224.743 156.551 224.176 155.892 223.472 155.371C222.767 154.851 221.94 154.452 220.99 154.177C220.071 153.901 219.076 153.763 218.004 153.763C216.533 153.763 215.231 154.07 214.098 154.682C212.965 155.264 212.015 156.061 211.249 157.072C210.483 158.052 209.901 159.185 209.503 160.472C209.105 161.728 208.906 163.03 208.906 164.377C208.906 165.97 209.09 167.441 209.457 168.788C209.825 170.136 210.391 171.316 211.157 172.327C211.923 173.307 212.873 174.073 214.006 174.624C215.14 175.175 216.472 175.451 218.004 175.451C219.106 175.451 220.117 175.267 221.036 174.9C221.986 174.532 222.813 174.027 223.518 173.383C224.253 172.74 224.85 171.974 225.31 171.086C225.769 170.167 226.075 169.171 226.228 168.099H227.975C227.791 169.508 227.408 170.764 226.826 171.867C226.244 172.97 225.509 173.904 224.62 174.67C223.732 175.405 222.721 175.972 221.588 176.37C220.454 176.768 219.26 176.967 218.004 176.967C216.074 176.967 214.42 176.63 213.041 175.956C211.693 175.252 210.575 174.318 209.687 173.154C208.829 171.99 208.186 170.657 207.757 169.156C207.359 167.624 207.16 166.032 207.16 164.377C207.16 162.723 207.389 161.161 207.849 159.691C208.339 158.22 209.044 156.934 209.963 155.831C210.882 154.728 212.015 153.855 213.363 153.212C214.711 152.569 216.258 152.247 218.004 152.247C219.29 152.247 220.485 152.415 221.588 152.752C222.721 153.059 223.717 153.533 224.574 154.177C225.463 154.82 226.183 155.647 226.734 156.658C227.285 157.638 227.622 158.787 227.745 160.104H225.999ZM234.571 164.837V165.113C234.571 166.491 234.754 167.808 235.122 169.064C235.49 170.32 236.026 171.423 236.73 172.372C237.465 173.322 238.369 174.073 239.441 174.624C240.544 175.175 241.815 175.451 243.255 175.451C245.614 175.451 247.482 174.838 248.861 173.613C250.239 172.357 251.189 170.626 251.71 168.421H253.456C252.935 171.178 251.801 173.291 250.055 174.762C248.34 176.232 246.058 176.967 243.209 176.967C241.463 176.967 239.931 176.661 238.614 176.048C237.328 175.405 236.24 174.547 235.352 173.475C234.494 172.372 233.851 171.086 233.422 169.616C232.993 168.115 232.779 166.506 232.779 164.791C232.779 163.137 232.993 161.559 233.422 160.058C233.881 158.527 234.555 157.194 235.444 156.061C236.332 154.897 237.435 153.978 238.752 153.304C240.1 152.599 241.677 152.247 243.485 152.247C245.139 152.247 246.594 152.553 247.85 153.166C249.136 153.779 250.209 154.621 251.066 155.693C251.924 156.735 252.567 157.96 252.996 159.369C253.456 160.747 253.685 162.233 253.685 163.826C253.685 163.979 253.67 164.163 253.639 164.377C253.639 164.561 253.639 164.714 253.639 164.837H234.571ZM251.893 163.321C251.832 162.034 251.618 160.824 251.25 159.691C250.882 158.527 250.331 157.516 249.596 156.658C248.891 155.77 248.018 155.065 246.977 154.544C245.966 154.024 244.802 153.763 243.485 153.763C242.076 153.763 240.835 154.039 239.763 154.59C238.691 155.111 237.787 155.816 237.052 156.704C236.317 157.562 235.75 158.573 235.352 159.737C234.954 160.901 234.709 162.095 234.617 163.321H251.893Z" fill="white"/>
<path d="M277.852 200.623V4.15779H269.946V0.646744H280.886V204.134H269.946V200.623H277.852Z" fill="white"/>
</svg>
