<svg width="160" height="160" viewBox="0 0 160 160" fill="none" xmlns="http://www.w3.org/2000/svg">
<g clip-path="url(#clip0_239_7422)">
<rect width="160" height="160" fill="black"/>
<g opacity="0.15">
<path d="M32 39.8011V36.7247C27.1081 37.8147 22.4496 40.0541 18.3143 44.1893C13.5532 48.9505 12.0971 55.0026 12.221 61.4215C12.2374 62.2719 12.2816 63.1321 12.3499 64H15.3594C15.2848 63.1093 15.2371 62.23 15.2204 61.3636C15.106 55.4349 16.4468 50.2995 20.4357 46.3107C23.9224 42.8239 27.8214 40.8346 32 39.8011Z" fill="#929292"/>
<path d="M25.0244 64H22.0229C21.8278 57.619 22.7483 51.893 26.5988 48.281C28.1168 46.857 29.9484 45.8304 32 45.1061V48.3258C30.7073 48.8848 29.586 49.5921 28.6512 50.469C25.7833 53.1593 24.8235 57.7437 25.0244 64Z" fill="#929292"/>
<path d="M8.45645 64C7.97052 60.8272 7.50661 57.6283 7.11373 54.4416C6.2792 47.6727 6.53733 42.7559 8.0183 39.1863C9.39615 35.8653 11.9058 33.542 16.0766 32H9.8257C7.78902 33.5839 6.26894 35.5743 5.24732 38.0367C3.46267 42.3382 3.2833 47.8901 4.13627 54.8087C4.51393 57.8718 4.95742 60.9519 5.42169 64H8.45645Z" fill="#929292"/>
</g>
<g opacity="0.15">
<path d="M15.3594 64H12.3499C12.7938 69.6379 14.2547 75.6056 15.7178 81.3838C15.8073 81.7374 15.8968 82.0902 15.9861 82.4423L15.9931 82.4698C17.1872 87.1755 18.3444 91.7359 18.9968 96H22.0292C21.3632 91.4283 20.1378 86.6023 18.9262 81.8307C18.8259 81.4358 18.7257 81.0414 18.626 80.6474C17.1706 74.8997 15.7987 69.2507 15.3594 64Z" fill="#A8A8A8"/>
<path d="M29.1168 96H26.1011C25.8344 93.3981 25.4886 90.778 25.109 88.1675C24.8034 86.0664 24.4746 83.9653 24.1493 81.8865L24.1493 81.8861C23.2148 75.9144 22.3089 70.1257 22.0641 65.0423C22.0473 64.6931 22.0334 64.3456 22.0229 64H25.0244C25.0339 64.2956 25.046 64.5949 25.0606 64.898C25.2971 69.807 26.1653 75.3569 27.091 81.2739C27.4213 83.3853 27.7589 85.5434 28.0777 87.7358C28.4739 90.4598 28.8391 93.2276 29.1168 96Z" fill="#A8A8A8"/>
<path d="M12.1943 96C12.2182 94.9545 12.2083 93.8781 12.1708 92.7771C11.9878 87.4046 11.1346 81.196 10.1289 74.6757C9.8787 73.0533 9.61901 71.4114 9.35713 69.7557L9.35692 69.7544C9.05597 67.8516 8.75214 65.9306 8.45645 64H5.42169C5.74276 66.108 6.07377 68.2006 6.39979 70.2618C6.66023 71.9083 6.9175 73.5349 7.16399 75.133C8.16999 81.6556 8.99631 87.7048 9.1725 92.8792C9.20964 93.9697 9.21728 95.0106 9.19296 96H12.1943Z" fill="#A8A8A8"/>
</g>
<g opacity="0.15">
<path d="M22.0292 96H18.9968C19.226 97.4975 19.3929 98.9584 19.4773 100.376C19.8185 106.109 18.7894 110.839 15.3143 114.314C15.1815 114.447 15.0451 114.584 14.9052 114.724L14.9049 114.724L14.9019 114.727C13.1115 116.522 10.7588 118.88 8.16887 120.854C5.32603 123.021 2.47807 124.5 0 124.5V127.5C3.52193 127.5 7.04897 125.479 9.98738 123.24C12.7474 121.136 15.2363 118.641 17.0118 116.86C17.158 116.714 17.2994 116.572 17.4357 116.436C21.7731 112.098 22.8377 106.344 22.472 100.198C22.3905 98.8297 22.2371 97.4272 22.0292 96Z" fill="#D0D0D0"/>
<path d="M24.0149 128H20.3208C23.809 123.547 25.5772 118.173 26.2755 112.25C26.8824 107.103 26.6745 101.594 26.1011 96H29.1168C29.6803 101.625 29.8837 107.268 29.2549 112.602C28.6006 118.151 27.0388 123.418 24.0149 128Z" fill="#D0D0D0"/>
<path d="M0 112C2.36598 111.983 4.40014 111.496 6.09992 110.524C7.83723 109.531 9.13102 108.084 10.0622 106.319C11.5113 103.572 12.1024 100.014 12.1943 96H9.19296C9.10089 99.7462 8.55074 102.754 7.40877 104.919C6.70495 106.254 5.7865 107.248 4.61085 107.92C3.45291 108.582 1.95544 108.983 0 108.999L0 112Z" fill="#D0D0D0"/>
</g>
<g opacity="0.15">
<path d="M0 142V139C3.83609 139 6.54244 138.433 9.02908 137.254C11.5582 136.055 13.9549 134.179 17.1326 131.375C18.3273 130.321 19.3858 129.194 20.3208 128H24.0149C22.6822 130.019 21.0655 131.906 19.1174 133.625C15.9201 136.446 13.2543 138.57 10.3147 139.965C7.33256 141.379 4.16391 142 0 142Z" fill="#B5B5B5"/>
<path d="M0 156.5V153.5C15.2251 153.5 25.8807 147.64 32 137.267V142.607C25.0199 151.614 14.2096 156.5 0 156.5Z" fill="#B5B5B5"/>
</g>
<g opacity="0.15">
<path d="M64 41.2582V38.2437C61.9051 38.0423 59.7471 37.7631 57.5371 37.4619C56.9663 37.3841 56.392 37.3047 55.8146 37.2248C48.0564 36.1517 39.7363 35.0008 32 36.7246V39.801C39.32 37.9905 47.4983 39.1128 55.823 40.2552C56.259 40.315 56.6953 40.3749 57.1319 40.4344C59.4228 40.7467 61.723 41.0467 64 41.2582Z" fill="#D0D0D0"/>
<path d="M32 48.3258V45.1061C34.9409 44.0679 38.3342 43.6511 41.9048 43.5757C47.9195 43.4487 54.8043 44.2912 61.5834 45.1209L61.8861 45.1579C62.5923 45.2443 63.2971 45.3304 64 45.4153V48.4371C63.1727 48.3376 62.346 48.2366 61.5218 48.1357L61.3542 48.1152C54.4721 47.2731 47.7663 46.4526 41.9682 46.575C38.0124 46.6585 34.6468 47.1813 32 48.3258Z" fill="#D0D0D0"/>
<path d="M38.1612 63.9999H34.9891C36.11 60.3792 38.1931 57.8665 41.382 56.3352C45.308 54.45 50.6955 54.1738 57.3678 54.5769C59.4245 54.7011 61.6354 54.893 64 55.1326V58.1478C61.5605 57.8978 59.2925 57.6986 57.1869 57.5714C50.5389 57.1698 45.8482 57.5186 42.6805 59.0396C40.6234 60.0274 39.1114 61.5621 38.1612 63.9999Z" fill="#D0D0D0"/>
</g>
<g opacity="0.15">
<path d="M90.3835 32H86.5921C83.5689 35.5075 79.9361 37.2672 75.8737 38.0447C72.2366 38.7407 68.2481 38.6522 64 38.2438V41.2582C68.3022 41.6577 72.5214 41.7406 76.4376 40.9912C81.8376 39.9577 86.6453 37.348 90.3835 32Z" fill="#B4B4B4"/>
<path d="M64 48.4372V45.4153C70.2013 46.1637 76.2446 46.8122 81.5814 46.6767C87.5583 46.5248 92.3129 45.3906 95.371 42.6356C95.5852 42.4426 95.7949 42.2479 96 42.0516V45.9596C92.2139 48.6082 87.1316 49.5366 81.6575 49.6757C76.1956 49.8145 70.0797 49.1682 64 48.4372Z" fill="#B4B4B4"/>
<path d="M64 58.1479L64 55.1326C67.4647 55.4836 71.2593 55.9368 75.3821 56.4293C77.6311 56.6979 79.9778 56.9782 82.4218 57.2599C87.5861 57.8551 92.0822 57.8032 96 57.2161V60.2471C91.8879 60.8178 87.2664 60.8381 82.0782 60.2401C79.5892 59.9532 77.2146 59.6697 74.9502 59.3992L74.9499 59.3992C70.9665 58.9235 67.3241 58.4885 64 58.1479Z" fill="#B4B4B4"/>
</g>
<g opacity="0.15">
<path d="M35.9401 128C38.4785 119.298 38.9299 108.528 37.1149 96H40.1453C41.8731 108.234 41.5106 119.028 39.0581 128H35.9401Z" fill="#929292"/>
<path d="M48.5735 128C49.9598 120.048 49.5559 110.352 45.5681 97.5718C45.402 97.0394 45.2449 96.5156 45.0966 96H48.2239C48.2914 96.2241 48.3608 96.4502 48.4319 96.6782C52.4676 109.612 52.9836 119.645 51.616 128H48.5735Z" fill="#929292"/>
<path d="M59.7613 96C59.4088 100.511 59.7022 105.787 60.1667 111.52C60.2803 112.921 60.4037 114.347 60.5285 115.79C60.8739 119.781 61.2306 123.902 61.4218 128H58.4191C58.2305 124.053 57.8851 120.054 57.5443 116.109L57.5442 116.108L57.5442 116.108C57.4183 114.65 57.293 113.2 57.1765 111.762C56.727 106.215 56.401 100.804 56.7547 96H59.7613Z" fill="#929292"/>
</g>
<g opacity="0.15" clip-path="url(#clip1_239_7422)">
<path d="M51.616 128H48.5735C48.1846 130.231 47.6546 132.325 47.0234 134.311C45.5739 138.872 43.5755 142.912 41.4474 146.802C40.7653 148.048 40.0626 149.292 39.3598 150.536L39.3592 150.537L39.359 150.537C37.8951 153.128 36.4308 155.72 35.1515 158.342C34.869 158.921 34.6249 159.474 34.4196 160H37.6842C37.7365 159.888 37.791 159.774 37.8478 159.658C39.0881 157.115 40.4752 154.661 41.9125 152.118L41.9129 152.117L41.9131 152.117C42.6267 150.854 43.3528 149.57 44.0793 148.241C46.2443 144.284 48.3476 140.05 49.8825 135.22C50.605 132.947 51.1984 130.552 51.616 128Z" fill="#B4B4B4"/>
<path d="M50.2689 160H54.4286C59.1499 154.173 60.9414 146.626 61.4208 138.686C61.6306 135.212 61.5905 131.615 61.4218 128H58.4191C58.5897 131.571 58.632 135.099 58.4263 138.505C57.9125 147.014 55.8616 154.462 50.6447 159.733C50.5231 159.822 50.3978 159.911 50.2689 160Z" fill="#B4B4B4"/>
<path d="M64 149.437C63.3542 152.431 62.4233 155.509 61.1138 158.677L60.5669 160H63.8131L63.8863 159.823C63.9245 159.731 63.9624 159.638 64 159.546V149.437Z" fill="#B4B4B4"/>
<path d="M32 142.607C33.0668 141.231 34.0441 139.758 34.9305 138.192C36.6655 135.126 38.0414 131.719 39.0581 128H35.9401C35.0103 131.187 33.8005 134.097 32.3195 136.714C32.2144 136.9 32.1079 137.084 32 137.267L32 142.607Z" fill="#B4B4B4"/>
</g>
<g opacity="0.15">
<path d="M37.1149 96C36.8444 94.1326 36.5235 92.2262 36.1517 90.2817C34.2413 80.2915 33.5258 72.8616 34.2516 67.4453C34.4183 66.201 34.663 65.0536 34.9891 64H38.1611C37.7363 65.0901 37.4237 66.3607 37.225 67.8437C36.5679 72.7478 37.1962 79.771 39.0983 89.7183C39.5062 91.8516 39.8552 93.9461 40.1453 96H37.1149Z" fill="#B5B5B5"/>
<path d="M45.096 96C42.8945 88.3435 42.6505 82.5265 43.9763 78.1591C45.4219 73.3968 48.6693 70.5636 52.7202 69.0181C56.0889 67.7328 60.0244 67.3279 64 67.3558V70.356C60.2143 70.3283 56.6861 70.7159 53.7896 71.821C50.4533 73.0939 47.9791 75.3009 46.8469 79.0305C45.7166 82.7542 45.8671 88.1792 48.2233 96H45.096Z" fill="#B5B5B5"/>
<path d="M64 84.2621C62.6511 85.5925 61.6684 87.3103 60.9756 89.3998C60.3314 91.3428 59.9515 93.5593 59.7607 96H56.754C56.956 93.2576 57.3794 90.7134 58.128 88.4557C59.1765 85.2933 60.8885 82.6019 63.5843 80.7192C63.7207 80.6239 63.8593 80.531 64 80.4404V84.2621Z" fill="#B5B5B5"/>
</g>
<g opacity="0.15">
<path d="M96 42.0516C99.13 39.0564 101.213 35.68 102.589 32H105.771C104.189 36.699 101.595 41.0661 97.379 44.8644C96.9415 45.2586 96.4812 45.623 96 45.9596V42.0516Z" fill="#A8A8A8"/>
<path d="M96 60.2471V57.2161C99.5395 56.6856 102.607 55.7183 105.268 54.3967C110.861 51.6197 114.801 47.2094 117.582 41.6849C119.069 38.7313 120.218 35.4733 121.105 32H124.194C123.236 35.9413 121.959 39.6615 120.262 43.0338C117.246 49.025 112.881 53.9663 106.603 57.0837C103.515 58.6169 99.9982 59.6922 96 60.2471Z" fill="#A8A8A8"/>
</g>
<g opacity="0.15" clip-path="url(#clip2_239_7422)">
<path d="M96 20.9602V0C96 4.82213 95.9648 8.89957 95.1058 13.2669C94.2511 17.6124 92.5664 22.3053 89.1947 28.261C88.3878 29.6862 87.5186 30.9251 86.5921 32H90.3835C90.8764 31.2948 91.3507 30.542 91.8053 29.739C93.619 26.5353 94.9803 23.6512 96 20.9602Z" fill="#B5B5B5"/>
<path d="M64 30.9885C65.5877 31.1095 67.2142 31.2369 68.8804 31.3702C73.7665 31.7611 77.5185 30.4618 80.3214 28.0445C83.0813 25.6644 84.7868 22.3171 85.8561 18.8269C87.8066 12.4602 87.7724 5.13092 87.7533 1.03096L87.7533 1.02981C87.7516 0.659097 87.75 0.314792 87.75 0H84.75C84.75 0.317803 84.7513 0.658998 84.7527 1.0211L84.7527 1.0259C84.7688 5.16946 84.7956 12.0469 82.9877 17.9481C82.01 21.1392 80.5359 23.8981 78.3622 25.7727C76.2315 27.6101 73.296 28.7139 69.1196 28.3798C67.3714 28.2399 65.6651 28.1063 64 27.9798V30.9885Z" fill="#B5B5B5"/>
<path d="M64 22.2244C64.5313 22.2713 65.0694 22.3194 65.6145 22.3689C70.8753 22.846 74.2803 19.4853 76.2611 15.3164C78.2326 11.1669 79 5.88288 79 1.5V0H76V1.5C76 5.61712 75.2674 10.4174 73.5514 14.0289C71.8447 17.6209 69.3747 19.6976 65.8855 19.3811C65.2477 19.3233 64.6193 19.2672 64 19.2128V22.2244Z" fill="#B5B5B5"/>
</g>
<g opacity="0.15" clip-path="url(#clip3_239_7422)">
<path d="M73.4937 96H69.3831C65.6387 100.498 64.2964 105.487 64 110.824V116.228C64.0877 118.2 64.2508 120.209 64.4284 122.25C64.4725 122.757 64.5176 123.266 64.5629 123.778L64.563 123.779C64.6858 125.165 64.8105 126.572 64.9213 128H67.9322C67.8172 126.501 67.6871 125.037 67.56 123.609C67.5116 123.064 67.4636 122.525 67.4171 121.99C66.4814 111.238 66.1983 102.916 73.4937 96Z" fill="#B4B4B4"/>
<path d="M76.6387 128H73.6298C74.1489 121.369 76.287 114.968 81.94 109.314C85.4269 105.827 88.968 104.032 93.1464 103.376C94.0686 103.231 95.0181 103.142 96 103.101V106.103C95.1706 106.142 94.3772 106.219 93.6122 106.339C90.111 106.889 87.1367 108.36 84.0614 111.436C79.1167 116.381 77.1486 121.964 76.6387 128Z" fill="#B4B4B4"/>
<path d="M89.1717 128H85.8373C86.0405 127.536 86.2622 127.079 86.5038 126.627C88.1808 123.493 90.7685 120.751 94.6072 118.462C95.0757 118.182 95.5399 117.918 96 117.669V121.125C92.6823 123.132 90.5476 125.447 89.1717 128Z" fill="#B4B4B4"/>
</g>
<g opacity="0.15" clip-path="url(#clip4_239_7422)">
<path d="M64 149.438C65.6552 141.766 65.4376 134.651 64.9213 128H67.9322C68.6426 137.257 68.7727 147.83 64 159.546V149.438Z" fill="#A8A8A8"/>
<path d="M79.0006 160H76.0006C76.0007 155.827 75.4902 151.541 74.9215 147.166C74.866 146.74 74.81 146.312 74.7538 145.883C74.2384 141.951 73.7142 137.952 73.5491 134.032C73.4639 132.01 73.4736 129.995 73.6298 128H76.6387C76.4761 129.925 76.4618 131.895 76.5465 133.906C76.7056 137.685 77.2119 141.55 77.7299 145.504L77.7305 145.509C77.7858 145.931 77.8413 146.355 77.8965 146.78C78.4644 151.147 79.0007 155.61 79.0006 160Z" fill="#A8A8A8"/>
<path d="M87.7501 160H84.7501C84.7501 156.352 84.4905 152.795 84.2365 149.316L84.2362 149.312C84.2034 148.863 84.1707 148.415 84.1387 147.969C83.8607 144.093 83.6318 140.299 83.8734 136.738C84.0806 133.681 84.6369 130.739 85.8373 128H89.1717C89.1641 128.014 89.1565 128.028 89.149 128.042C87.7458 130.665 87.0911 133.628 86.8665 136.941C86.6409 140.266 86.8522 143.866 87.131 147.754C87.1628 148.198 87.1955 148.645 87.2284 149.095C87.4819 152.564 87.7501 156.235 87.7501 160Z" fill="#A8A8A8"/>
<path d="M96 147.706V159.781C95.9961 159.074 95.9748 158.225 95.9507 157.269C95.8845 154.638 95.7979 151.198 96 147.706Z" fill="#A8A8A8"/>
</g>
<g opacity="0.15">
<path d="M129.582 64C129.657 63.8756 129.732 63.7496 129.804 63.6219C132.446 58.9753 133.37 51.8218 131.154 40.924C130.521 37.8101 130.118 34.8341 129.917 32H132.925C133.121 34.6368 133.501 37.4129 134.094 40.326C136.23 50.8289 135.659 58.51 132.993 64H129.582Z" fill="#B5B5B5"/>
<path d="M155.8 64H152.794C152.642 61.6986 152.29 58.8285 151.897 55.6244L151.831 55.0847C151.285 50.6279 150.69 45.6426 150.531 40.9887C150.424 37.8275 150.512 34.727 150.99 32H154.042C153.542 34.4903 153.415 37.5364 153.53 40.8864C153.683 45.3887 154.261 50.2472 154.809 54.72C154.836 54.9455 154.864 55.1702 154.891 55.3941C155.28 58.5626 155.647 61.553 155.8 64Z" fill="#B5B5B5"/>
<path d="M147.627 32C147.498 33.4581 147.385 34.9572 147.28 36.4876C147.182 37.9227 147.092 39.3834 147 40.858L147 40.8584L147 40.8587L147 40.8598L147 40.8602C146.619 46.9797 146.223 53.3391 145.24 59.1075C144.955 60.7761 144.619 62.4145 144.214 64H141.11C141.574 62.3042 141.959 60.4988 142.282 58.6034C143.236 53.0092 143.62 46.8568 144 40.7499C144.093 39.2554 144.186 37.7634 144.287 36.2831C144.386 34.8429 144.492 33.4113 144.615 32H147.627Z" fill="#B5B5B5"/>
</g>
<g opacity="0.15" clip-path="url(#clip5_239_7422)">
<path d="M64 67.3558C64.7195 67.3609 65.4403 67.3801 66.1593 67.4108C70.605 67.6009 75.1257 68.241 79.0246 68.793L79.04 68.7951C79.265 68.827 79.488 68.8586 79.7088 68.8897C81.9067 69.2 84.2405 69.5874 86.6813 69.9925L86.6817 69.9926C89.6473 70.4848 92.7707 71.0032 96 71.4415V74.468C92.5874 74.0119 89.1869 73.449 86.031 72.9267C83.6039 72.5249 81.3215 72.1472 79.2895 71.8603C79.0821 71.831 78.8733 71.8015 78.6632 71.7717L78.6383 71.7682C74.7113 71.2125 70.3247 70.5917 66.0312 70.4081C65.3474 70.3789 64.6697 70.361 64 70.3561V67.3558Z" fill="#A8A8A8"/>
<path d="M73.4933 96H69.3826C70.0091 95.2475 70.7028 94.5087 71.4701 93.7843C77.917 87.6979 84.7048 86.0714 91.3713 86.8088C92.9261 86.9807 94.471 87.281 96 87.679V90.787C94.3502 90.3191 92.696 89.9736 91.0415 89.7906C85.1998 89.1444 79.3001 90.5179 73.5295 95.9657C73.5174 95.9771 73.5053 95.9886 73.4933 96Z" fill="#A8A8A8"/>
<path d="M96 84.229C95.2039 84.0579 94.4094 83.8848 93.6172 83.7121L93.6167 83.712C92.3371 83.4331 91.0637 83.1555 89.8002 82.8905C84.505 81.78 79.3252 80.875 74.2488 80.875C70.2118 80.875 67.3508 81.7478 65.3018 83.1788C64.8342 83.5053 64.4009 83.8665 64 84.2619V80.4402C66.6313 78.7463 70.0125 77.875 74.2488 77.875C79.6532 77.875 85.0875 78.8369 90.416 79.9544C91.733 80.2306 93.0406 80.5156 94.3405 80.7988L94.341 80.7989C94.8953 80.9197 95.4483 81.0402 96 81.1596V84.229Z" fill="#A8A8A8"/>
</g>
<g opacity="0.15">
<path d="M128 99.5134V96.5026C124.381 96.8234 120.818 96.5853 117.669 96H108.288C108.419 96.0682 108.55 96.1365 108.681 96.2049C113.086 98.503 120.412 100.134 128 99.5134Z" fill="#B5B5B5"/>
<path d="M96 106.103V103.101C99.3731 102.961 103.128 103.385 107.471 104.032C109.198 104.289 111.031 104.584 112.99 104.899L112.991 104.9C117.317 105.596 122.256 106.391 128 107.094V110.116C122.026 109.393 116.923 108.572 112.497 107.859L112.496 107.859C110.548 107.545 108.732 107.253 107.029 106.999C102.614 106.341 99.0621 105.961 96 106.103Z" fill="#B5B5B5"/>
<path d="M96 121.125V117.669C100.691 115.13 104.963 114.141 109.19 114.164C113.784 114.189 118.235 115.411 122.95 116.949C124.112 117.328 125.295 117.728 126.509 118.138C127.001 118.304 127.498 118.472 128 118.641V121.806C127.159 121.526 126.336 121.247 125.531 120.975C124.325 120.567 123.157 120.172 122.02 119.801C117.344 118.276 113.271 117.186 109.174 117.164C105.125 117.142 100.961 118.166 96.1436 121.038C96.0955 121.067 96.0476 121.096 96 121.125Z" fill="#B5B5B5"/>
</g>
<g opacity="0.15" clip-path="url(#clip6_239_7422)">
<path d="M98.9994 160H96V147.686C96.0477 146.867 96.1113 146.045 96.1948 145.23C96.4885 142.365 97.0348 139.476 98.0425 136.983C99.0498 134.492 100.569 132.275 102.878 130.949C110.617 126.506 119.18 128.364 128 131.224V134.381C118.778 131.332 111.114 129.68 104.371 133.551C102.847 134.426 101.684 135.981 100.824 138.108C99.9643 140.234 99.4584 142.811 99.1792 145.536C98.7608 149.617 98.8651 153.782 98.9462 157.02C98.9742 158.138 98.9994 159.145 98.9994 160Z" fill="#929292"/>
<path d="M107.999 160H104.999C104.999 155.632 106.349 149.936 108.843 145.675C110.093 143.541 111.697 141.65 113.68 140.517C115.722 139.35 118.091 139.034 120.639 139.966C124.988 141.556 126.485 145.47 126.966 149.271C127.208 151.186 127.211 153.178 127.158 155.019C127.137 155.761 127.108 156.462 127.081 157.127C127.038 158.165 126.999 159.116 126.999 160L123.999 160C123.999 159.068 124.043 157.997 124.087 156.901L124.087 156.9C124.114 156.246 124.141 155.583 124.16 154.934C124.211 153.139 124.202 151.33 123.99 149.648C123.56 146.255 122.37 143.794 119.609 142.784C117.925 142.168 116.475 142.375 115.169 143.121C113.804 143.901 112.531 145.313 111.432 147.191C109.23 150.953 107.999 156.118 107.999 160Z" fill="#929292"/>
</g>
<g opacity="0.15">
<path d="M99 0H96V20.9602C96.9492 18.4553 97.6025 16.1178 98.0494 13.8458C98.9721 9.1547 99 4.80287 99 0Z" fill="#D0D0D0"/>
<path d="M105.771 32H102.589C103.581 29.3458 104.206 26.5336 104.591 23.5927C105.296 18.2139 105.191 12.542 105.082 6.66003C105.041 4.4678 105 2.24631 105 0H108C108 2.11181 108.04 4.2508 108.08 6.39637C108.19 12.3548 108.302 18.364 107.566 23.9824C107.206 26.7291 106.642 29.4148 105.771 32Z" fill="#D0D0D0"/>
<path d="M124.194 32H121.105C123.566 22.3568 124 11.0544 124 0H127C127 10.7152 126.611 22.0604 124.194 32Z" fill="#D0D0D0"/>
</g>
<g opacity="0.15" clip-path="url(#clip7_239_7422)">
<path d="M140.667 96H131.562C130.377 96.2325 129.186 96.3976 128 96.5026V99.5134C130.905 99.2757 133.849 98.7078 136.681 97.7208C138.039 97.2478 139.373 96.6775 140.667 96Z" fill="#A8A8A8"/>
<path d="M128 110.116V107.094C136.629 108.15 147.076 109 160 109V112C147.117 112 136.647 111.162 128 110.116Z" fill="#A8A8A8"/>
<path d="M128 121.806V118.641C136.339 121.443 146.174 124.5 160 124.5V127.5C146.232 127.5 136.218 124.545 128 121.806Z" fill="#A8A8A8"/>
</g>
<g opacity="0.15">
<path d="M128 134.381V131.224C128.489 131.382 128.978 131.543 129.468 131.707C130.832 132.163 132.206 132.637 133.593 133.115C141.89 135.978 150.602 138.984 159.999 138.984H160V141.984H159.999C150.055 141.984 140.812 138.788 132.538 135.927C131.171 135.455 129.83 134.991 128.518 134.553C128.345 134.495 128.172 134.437 128 134.381Z" fill="#D0D0D0"/>
<path d="M143.604 160H139.266C143.15 155.812 147.656 153.5 151.624 153.5H160V156.5H151.624C149.311 156.5 146.43 157.646 143.604 160Z" fill="#D0D0D0"/>
</g>
<g opacity="0.15" clip-path="url(#clip8_239_7422)">
<path d="M96 71.4415C96.7317 71.5408 97.4688 71.6359 98.2107 71.7257C104.848 72.5292 111.48 72.8412 117.12 71.7463C121.596 70.8772 125.342 69.1463 128 66.1497V70.265C125.097 72.5682 121.54 73.944 117.691 74.6913C111.581 75.8776 104.572 75.5177 97.8501 74.704C97.2339 74.6294 96.6168 74.5505 96 74.468V71.4415Z" fill="#D0D0D0"/>
<path d="M96 90.7872V87.6792C100.922 88.9607 105.679 91.2554 110.068 93.5451C112.01 94.5581 114.648 95.4387 117.668 96H108.287C104.263 93.9122 100.145 91.9631 96 90.7872Z" fill="#D0D0D0"/>
<path d="M128 83.619C120.76 86.9741 113.261 87.0657 105.792 86.0397C102.541 85.5931 99.2575 84.9289 96 84.229V81.1596C99.4359 81.9032 102.824 82.6038 106.2 83.0676C113.765 84.1067 121.048 83.9226 128 80.2721V83.619Z" fill="#D0D0D0"/>
</g>
<g opacity="0.15">
<path d="M132.925 32C132.148 21.5359 134.281 13.2669 137.615 7.34315C139.367 4.23094 141.43 1.79015 143.567 0L139.239 0C137.693 1.67363 136.258 3.63844 135.001 5.87172C131.368 12.3256 129.149 21.1155 129.918 32H132.925Z" fill="#929292"/>
<path d="M144.615 32H147.627C148.131 26.32 148.887 21.2614 150.404 17.3957C151.348 14.9906 152.548 13.1562 154.067 11.924C155.56 10.7132 157.464 10 159.998 10H160V7H159.998C156.846 7 154.257 7.90747 152.177 9.59394C150.124 11.2589 148.672 13.5983 147.612 16.2996C145.917 20.616 145.124 26.1321 144.615 32Z" fill="#929292"/>
<path d="M160 22.5C157.977 22.5 156.261 23.0804 154.875 24.1863C153.51 25.2751 152.567 26.7909 151.917 28.5032C151.513 29.5694 151.21 30.7452 150.99 32H154.042C154.219 31.1151 154.444 30.3003 154.722 29.5671C155.245 28.1895 155.923 27.1878 156.746 26.5315C157.547 25.8923 158.585 25.5 160 25.5V22.5Z" fill="#929292"/>
</g>
<g opacity="0.15">
<path d="M128 66.1496C128.581 65.4949 129.109 64.7798 129.582 64H132.994C132.81 64.3786 132.616 64.7467 132.412 65.1047C131.224 67.1952 129.728 68.8944 128 70.265V66.1496Z" fill="#B4B4B4"/>
<path d="M140.666 96H131.561C132.954 95.7266 134.338 95.3599 135.693 94.8879C140.345 93.2668 144.609 90.4173 147.722 85.8632C150.837 81.3053 152.874 74.9277 152.874 66.125C152.874 65.4873 152.845 64.776 152.794 64H155.8C155.847 64.7652 155.874 65.4772 155.874 66.125C155.874 75.3948 153.724 82.3971 150.199 87.5559C147.598 91.3606 144.291 94.1015 140.666 96Z" fill="#B4B4B4"/>
<path d="M144.214 64C142.887 69.1946 140.82 73.8219 137.411 77.0838C134.341 80.0211 131.196 82.138 128 83.619V80.272C130.489 78.9653 132.935 77.2143 135.337 74.9162C138.05 72.3205 139.865 68.5556 141.111 64H144.214Z" fill="#B4B4B4"/>
</g>
<g opacity="0.15">
<path d="M32 13.2134V10.2014C33.7 10.3574 35.3597 10.4736 36.9762 10.5322C42.4843 10.732 47.3221 10.2524 51.3694 8.49518C54.9867 6.92471 58.0638 4.29425 60.4304 0H63.8039C61.0672 5.68305 57.2333 9.21988 52.5642 11.247C47.9201 13.2633 42.5626 13.7368 36.8675 13.5303C35.2815 13.4727 33.6563 13.3616 32 13.2134Z" fill="#A8A8A8"/>
<path d="M32 20.8528V17.8502C38.7133 17.5616 48.4821 17.8498 64 19.2128V22.2244C48.2525 20.8349 38.5361 20.563 32 20.8528Z" fill="#A8A8A8"/>
<path d="M32 29.6505V26.6492C33.3509 26.6126 34.7552 26.5967 36.214 26.5997C43.8204 26.615 53.0139 27.1448 64 27.9798V30.9885C52.9336 30.1451 43.7563 29.6149 36.2079 29.5996C34.7404 29.5967 33.3386 29.6133 32 29.6505Z" fill="#A8A8A8"/>
<path d="M54.4276 0C53.8859 0.668529 53.3057 1.31442 52.6845 1.93565L52.6038 2.0163L52.5119 2.08382C50.8861 3.27831 48.7093 4.54208 46.4577 5.57381C44.2195 6.5994 41.8051 7.44305 39.7144 7.72412C38.6712 7.86438 37.615 7.87801 36.6673 7.63982C35.6933 7.39503 34.7646 6.86119 34.1813 5.88301C33.6141 4.93155 33.5088 3.78398 33.6919 2.5724C33.8094 1.79534 34.0525 0.939134 34.419 0H37.6836C37.0787 1.29355 36.7695 2.28426 36.6582 3.02075C36.5371 3.82188 36.6672 4.19423 36.7581 4.34668C36.8331 4.47241 36.9853 4.62645 37.3985 4.7303C37.8379 4.84074 38.4751 4.86375 39.3147 4.75087C40.9896 4.5257 43.0985 3.8131 45.208 2.8465C47.0852 1.98632 48.8813 0.962604 50.268 0H54.4276Z" fill="#A8A8A8"/>
</g>
<g opacity="0.15">
<path d="M0 7.00317C6.47925 7.05894 12.9207 7.82445 19.0481 8.62588C19.8232 8.72726 20.5927 8.82912 21.3563 8.9302L21.3567 8.93024C25.0494 9.41904 28.605 9.88969 32 10.2013V13.2133C28.4359 12.8942 24.7281 12.4031 20.9583 11.9038L20.9577 11.9037C20.1938 11.8026 19.4273 11.701 18.659 11.6005C12.5439 10.8007 6.26896 10.059 0 10.0033V7.00317Z" fill="#B4B4B4"/>
<path d="M9.8257 31.9999C11.4371 30.7468 13.3718 29.7482 15.6389 28.9716C19.851 27.5288 25.2613 26.8315 32 26.6491V29.6504C25.4434 29.8328 20.405 30.5101 16.6111 31.8097C16.43 31.8718 16.2518 31.9352 16.0766 31.9999H9.8257Z" fill="#B4B4B4"/>
<path d="M0 25.4999V22.4999C9.51972 22.4999 13.2457 21.4189 17.2174 20.2667C18.5774 19.8721 19.9662 19.4692 21.6262 19.0985C24.2257 18.518 27.3936 18.0482 32 17.8502V20.8527C27.6159 21.0471 24.6627 21.4943 22.2801 22.0264C20.7841 22.3605 19.4761 22.7402 18.1578 23.1229C14.1132 24.2972 9.97071 25.4999 0 25.4999Z" fill="#B4B4B4"/>
</g>
</g>
<defs>
<clipPath id="clip0_239_7422">
<rect width="160" height="160" fill="white"/>
</clipPath>
<clipPath id="clip1_239_7422">
<rect width="32" height="32" fill="white" transform="translate(32 128)"/>
</clipPath>
<clipPath id="clip2_239_7422">
<rect width="32" height="32" fill="white" transform="translate(64)"/>
</clipPath>
<clipPath id="clip3_239_7422">
<rect width="32" height="32" fill="white" transform="translate(64 96)"/>
</clipPath>
<clipPath id="clip4_239_7422">
<rect width="32" height="32" fill="white" transform="translate(64 128)"/>
</clipPath>
<clipPath id="clip5_239_7422">
<rect width="32" height="32" fill="white" transform="translate(64 64)"/>
</clipPath>
<clipPath id="clip6_239_7422">
<rect width="32" height="32" fill="white" transform="translate(96 128)"/>
</clipPath>
<clipPath id="clip7_239_7422">
<rect width="32" height="32" fill="white" transform="translate(128 96)"/>
</clipPath>
<clipPath id="clip8_239_7422">
<rect width="32" height="32" fill="white" transform="translate(96 64)"/>
</clipPath>
</defs>
</svg>
