<svg width="42" height="42" viewBox="0 0 42 42" fill="none" xmlns="http://www.w3.org/2000/svg">
<path d="M7 31.5C6.50417 31.5 6.08854 31.3323 5.75313 30.9969C5.41771 30.6615 5.25 30.2458 5.25 29.75C5.25 29.2542 5.41771 28.8385 5.75313 28.5031C6.08854 28.1677 6.50417 28 7 28H35C35.4958 28 35.9115 28.1677 36.2469 28.5031C36.5823 28.8385 36.75 29.2542 36.75 29.75C36.75 30.2458 36.5823 30.6615 36.2469 30.9969C35.9115 31.3323 35.4958 31.5 35 31.5H7ZM7 22.75C6.50417 22.75 6.08854 22.5823 5.75313 22.2469C5.41771 21.9115 5.25 21.4958 5.25 21C5.25 20.5042 5.41771 20.0885 5.75313 19.7531C6.08854 19.4177 6.50417 19.25 7 19.25H35C35.4958 19.25 35.9115 19.4177 36.2469 19.7531C36.5823 20.0885 36.75 20.5042 36.75 21C36.75 21.4958 36.5823 21.9115 36.2469 22.2469C35.9115 22.5823 35.4958 22.75 35 22.75H7ZM7 14C6.50417 14 6.08854 13.8323 5.75313 13.4969C5.41771 13.1615 5.25 12.7458 5.25 12.25C5.25 11.7542 5.41771 11.3385 5.75313 11.0031C6.08854 10.6677 6.50417 10.5 7 10.5H35C35.4958 10.5 35.9115 10.6677 36.2469 11.0031C36.5823 11.3385 36.75 11.7542 36.75 12.25C36.75 12.7458 36.5823 13.1615 36.2469 13.4969C35.9115 13.8323 35.4958 14 35 14H7Z" fill="#F6F6F6"/>
</svg>
