<svg width="320" height="229" viewBox="0 0 320 229" fill="none" xmlns="http://www.w3.org/2000/svg">
<g clip-path="url(#clip0_191_2468)">
<rect width="320" height="229" fill="black"/>
<g clip-path="url(#clip1_191_2468)">
<g clip-path="url(#clip2_191_2468)">
<g clip-path="url(#clip3_191_2468)">
<path d="M-1.07144 12.1429C36.7857 12.1429 74.4643 30 89.2857 -1.07143" stroke="#AE7FE9" stroke-width="4.28571" stroke-linecap="round"/>
<path d="M-0.181366 157.857C25.1786 157.857 12.8571 117.143 8.03571 78.0359C3.21428 38.9289 22.6786 36.6071 98.5714 42.6786C124.464 44.75 123.214 11.0714 123.214 0" stroke="#AE7FE9" stroke-width="4.28571"/>
<path d="M0 180C8.57143 180 18.2143 170 23.3929 164.821C45.7143 142.5 2.67857 89.6429 27.6786 64.6429C57.7877 34.5338 108.308 78.4833 129.286 41.4286C139.105 24.0836 139.286 13.75 139.286 0" stroke="#AE7FE9" stroke-width="4.28571" stroke-linecap="square"/>
<path d="M110.714 2.14286C110.714 14.2857 106.429 30.9552 93.9286 29.8214C15.1786 22.6786 37.1429 34.2857 0 34.2857" stroke="#AE7FE9" stroke-width="4.28571" stroke-linecap="square"/>
<path d="M152.143 0C152.143 23.2143 155.359 46.5716 137.679 62.5C117.857 80.3571 58.1579 53.0001 39.4643 70.5357C19.2857 89.4643 60.2366 158.982 25.8929 189.286C16.7857 197.321 11.4286 200.714 0 200.714" stroke="#AE7FE9" stroke-width="4.28571" stroke-linecap="square"/>
<path d="M179.286 0C179.286 42.8571 174.821 90.5357 117.5 83.9286C60.1786 77.3214 42.8571 71.6071 53.75 128.571C64.6429 185.536 45.5357 221.429 0 221.429" stroke="#AE7FE9" stroke-width="4.28571" stroke-linecap="square"/>
</g>
</g>
</g>
<g clip-path="url(#clip4_191_2468)">
<g clip-path="url(#clip5_191_2468)">
<g clip-path="url(#clip6_191_2468)">
<path d="M-0.181366 157.857C25.1786 157.857 12.8571 117.143 8.03571 78.0359C3.21428 38.9289 22.6786 36.6071 98.5714 42.6786C124.464 44.75 123.214 11.0714 123.214 -7.62939e-06" stroke="#F6AE2D" stroke-width="4.28571"/>
<path d="M0 180C8.57143 180 18.2143 170 23.3929 164.821C45.7143 142.5 2.67857 89.6429 27.6786 64.6429C57.7877 34.5338 108.308 78.4833 129.286 41.4286C139.105 24.0836 139.286 13.75 139.286 -7.62939e-06" stroke="#F6AE2D" stroke-width="4.28571" stroke-linecap="square"/>
<path d="M152.143 -7.62939e-06C152.143 23.2143 155.359 46.5716 137.679 62.5C117.857 80.3571 58.1579 53.0001 39.4643 70.5357C19.2857 89.4643 60.2366 158.982 25.8929 189.286C16.7857 197.321 11.4286 200.714 0 200.714" stroke="#F6AE2D" stroke-width="4.28571" stroke-linecap="square"/>
<path d="M179.286 -7.62939e-06C179.286 42.8571 174.821 90.5357 117.5 83.9286C60.1786 77.3214 42.8571 71.6071 53.75 128.571C64.6429 185.536 45.5357 221.429 0 221.429" stroke="#F6AE2D" stroke-width="4.28571" stroke-linecap="square"/>
</g>
</g>
</g>
<g clip-path="url(#clip7_191_2468)">
<g clip-path="url(#clip8_191_2468)">
<g clip-path="url(#clip9_191_2468)">
<path d="M-0.181366 157.857C25.1786 157.857 12.8571 117.143 8.03571 78.0359C3.21428 38.9289 22.6786 36.6071 98.5714 42.6786C124.464 44.75 123.214 11.0714 123.214 0" stroke="#F45B69" stroke-width="4.28571"/>
<path d="M0 180C8.57143 180 18.2143 170 23.3929 164.821C45.7143 142.5 2.67857 89.6429 27.6786 64.6429C57.7877 34.5338 108.308 78.4833 129.286 41.4286C139.105 24.0836 139.286 13.75 139.286 0" stroke="#F45B69" stroke-width="4.28571" stroke-linecap="square"/>
<path d="M152.143 0C152.143 23.2143 155.359 46.5716 137.679 62.5C117.857 80.3571 58.1579 53.0001 39.4643 70.5357C19.2857 89.4643 60.2366 158.982 25.8929 189.286C16.7857 197.321 11.4286 200.714 0 200.714" stroke="#F45B69" stroke-width="4.28571" stroke-linecap="square"/>
<path d="M179.286 0C179.286 42.8571 174.821 90.5357 117.5 83.9286C60.1786 77.3214 42.8571 71.6071 53.75 128.571C64.6429 185.536 45.5357 221.429 0 221.429" stroke="#F45B69" stroke-width="4.28571" stroke-linecap="square"/>
</g>
</g>
</g>
<g clip-path="url(#clip10_191_2468)">
<g clip-path="url(#clip11_191_2468)">
<g clip-path="url(#clip12_191_2468)">
<path d="M-0.181366 157.857C25.1786 157.857 12.8571 117.143 8.03571 78.0359C3.21428 38.9289 22.6786 36.6071 98.5714 42.6786C124.464 44.75 123.214 11.0714 123.214 0" stroke="#A6FFA1" stroke-width="4.28571"/>
<path d="M0 180C8.57143 180 18.2143 170 23.3929 164.821C45.7143 142.5 2.67857 89.6429 27.6786 64.6429C57.7877 34.5338 108.308 78.4833 129.286 41.4286C139.105 24.0836 139.286 13.75 139.286 0" stroke="#A6FFA1" stroke-width="4.28571" stroke-linecap="square"/>
<path d="M152.143 0C152.143 23.2143 155.359 46.5716 137.679 62.5C117.857 80.3571 58.1579 53.0001 39.4643 70.5357C19.2857 89.4643 60.2366 158.982 25.8929 189.286C16.7857 197.321 11.4286 200.714 0 200.714" stroke="#A6FFA1" stroke-width="4.28571" stroke-linecap="square"/>
<path d="M179.286 0C179.286 42.8571 174.821 90.5357 117.5 83.9286C60.1786 77.3214 42.8571 71.6071 53.75 128.571C64.6429 185.536 45.5357 221.429 0 221.429" stroke="#A6FFA1" stroke-width="4.28571" stroke-linecap="square"/>
</g>
</g>
</g>
<g clip-path="url(#clip13_191_2468)">
<g clip-path="url(#clip14_191_2468)">
<g clip-path="url(#clip15_191_2468)">
<path d="M152.143 0C152.143 23.2143 155.359 46.5716 137.679 62.5C117.857 80.3571 58.1579 53.0001 39.4643 70.5357C19.2857 89.4643 60.2366 158.982 25.8929 189.286C16.7857 197.321 11.4286 200.714 0 200.714" stroke="#75F4F4" stroke-width="4.28571" stroke-linecap="square"/>
<path d="M179.286 0C179.286 42.8571 174.821 90.5357 117.5 83.9286C60.1786 77.3214 42.8571 71.6071 53.75 128.571C64.6429 185.536 45.5357 221.429 0 221.429" stroke="#75F4F4" stroke-width="4.28571" stroke-linecap="square"/>
</g>
</g>
</g>
<g clip-path="url(#clip16_191_2468)">
<g clip-path="url(#clip17_191_2468)">
<g clip-path="url(#clip18_191_2468)">
<path d="M89.2857 227.5C105.893 187.321 80.9548 156.887 103.571 135.536C121.025 119.058 139.821 126.964 156.25 135.536C172.679 144.107 220.536 146.1 220.536 94.4643C220.536 78.7501 208.929 34.2857 228.571 34.2857" stroke="#A6FFA1" stroke-width="4.28571" stroke-linecap="square"/>
<path d="M-0.181366 157.857C25.1786 157.857 12.8571 117.143 8.03571 78.0359C3.21428 38.9289 22.6786 36.6071 98.5714 42.6786C124.464 44.75 123.214 11.0714 123.214 -7.62939e-06" stroke="#A6FFA1" stroke-width="4.28571"/>
<path d="M0 180C8.57143 180 18.2143 170 23.3929 164.821C45.7143 142.5 2.67857 89.6429 27.6786 64.6429C57.7877 34.5338 108.308 78.4833 129.286 41.4286C139.105 24.0836 139.286 13.75 139.286 -7.62939e-06" stroke="#A6FFA1" stroke-width="4.28571" stroke-linecap="square"/>
<path d="M152.143 -7.62939e-06C152.143 23.2143 155.359 46.5716 137.679 62.5C117.857 80.3571 58.1579 53.0001 39.4643 70.5357C19.2857 89.4643 60.2366 158.982 25.8929 189.286C16.7857 197.321 11.4286 200.714 0 200.714" stroke="#A6FFA1" stroke-width="4.28571" stroke-linecap="square"/>
<path d="M228.571 12.1428C196.071 12.1428 218.171 86.23 194.821 108.571C167.484 134.728 136.016 113.393 106.071 113.393C57.4997 113.393 106.071 197.5 73.7497 229.821C64.9997 236.25 43.571 244.714 52.1424 227.143C62.8567 205.179 81.9643 186.25 67.1429 138.75C52.3215 91.25 90.3187 97.253 113.571 100.536C143.929 104.821 202.321 121.25 189.464 58.0357C180.879 15.8259 202.679 -7.50001 217.679 -7.50001" stroke="#A6FFA1" stroke-width="4.28571" stroke-linecap="square"/>
<path d="M179.286 -7.62939e-06C179.286 42.8571 174.821 90.5357 117.5 83.9286C60.1786 77.3214 42.8571 71.6071 53.75 128.571C64.6429 185.536 45.5357 221.429 0 221.429" stroke="#A6FFA1" stroke-width="4.28571" stroke-linecap="square"/>
</g>
</g>
</g>
<g clip-path="url(#clip19_191_2468)">
<g clip-path="url(#clip20_191_2468)">
<g clip-path="url(#clip21_191_2468)">
<path d="M-1.07144 12.1429C36.7857 12.1429 74.4643 30 89.2857 -1.07143" stroke="#F45B69" stroke-width="4.28571" stroke-linecap="round"/>
<path d="M89.2857 227.5C105.893 187.321 80.9548 156.887 103.571 135.536C121.025 119.058 139.821 126.964 156.25 135.536C172.679 144.107 220.536 146.1 220.536 94.4643C220.536 78.7501 208.929 34.2857 228.571 34.2857" stroke="#F45B69" stroke-width="4.28571" stroke-linecap="square"/>
<path d="M-0.181366 157.857C25.1786 157.857 12.8571 117.143 8.03571 78.0359C3.21428 38.9289 22.6786 36.6071 98.5714 42.6786C124.464 44.75 123.214 11.0714 123.214 0" stroke="#F45B69" stroke-width="4.28571"/>
<path d="M0 180C8.57143 180 18.2143 170 23.3929 164.821C45.7143 142.5 2.67857 89.6429 27.6786 64.6429C57.7877 34.5338 108.308 78.4833 129.286 41.4286C139.105 24.0836 139.286 13.75 139.286 0" stroke="#F45B69" stroke-width="4.28571" stroke-linecap="square"/>
<path d="M110.714 2.14286C110.714 14.2857 106.429 30.9552 93.9286 29.8214C15.1786 22.6786 37.1429 34.2857 0 34.2857" stroke="#F45B69" stroke-width="4.28571" stroke-linecap="square"/>
<path d="M152.143 0C152.143 23.2143 155.359 46.5716 137.679 62.5C117.857 80.3571 58.1579 53.0001 39.4643 70.5357C19.2857 89.4643 60.2366 158.982 25.8929 189.286C16.7857 197.321 11.4286 200.714 0 200.714" stroke="#F45B69" stroke-width="4.28571" stroke-linecap="square"/>
<path d="M228.571 12.1429C196.071 12.1429 218.171 86.23 194.821 108.571C167.484 134.728 136.016 113.393 106.071 113.393C57.4997 113.393 106.071 197.5 73.7497 229.821C64.9997 236.25 43.571 244.714 52.1424 227.143C62.8567 205.179 81.9643 186.25 67.1429 138.75C52.3215 91.25 90.3187 97.253 113.571 100.536C143.929 104.821 202.321 121.25 189.464 58.0357C180.879 15.8259 202.679 -7.5 217.679 -7.5" stroke="#F45B69" stroke-width="4.28571" stroke-linecap="square"/>
<path d="M228.571 -211.429C196.071 -211.429 218.171 -142.341 194.821 -120C167.484 -93.8434 136.016 -115.179 106.071 -115.179C57.4996 -115.179 106.071 -31.0713 73.7496 1.24999C64.9996 7.67856 43.5714 16.1429 52.1428 -1.42858C62.8571 -23.3929 81.9643 -42.3214 67.1428 -89.8214C52.3214 -137.321 90.3187 -131.318 113.571 -128.036C143.929 -123.75 198.393 -107.321 185.536 -170.536C176.951 -212.745 202.679 -236.071 217.679 -236.071" stroke="#F45B69" stroke-width="4.28571" stroke-linecap="square"/>
<path d="M179.286 0C179.286 42.8571 174.821 90.5357 117.5 83.9286C60.1786 77.3214 42.8571 71.6071 53.75 128.571C64.6429 185.536 45.5357 221.429 0 221.429" stroke="#F45B69" stroke-width="4.28571" stroke-linecap="square"/>
</g>
</g>
</g>
<g clip-path="url(#clip22_191_2468)">
<g clip-path="url(#clip23_191_2468)">
<g clip-path="url(#clip24_191_2468)">
<path d="M89.2857 227.5C105.893 187.321 80.9548 156.887 103.571 135.536C121.025 119.058 139.821 126.964 156.25 135.536C172.679 144.107 220.536 146.1 220.536 94.4643C220.536 78.7501 208.929 34.2857 228.571 34.2857" stroke="#AE7FE9" stroke-width="4.28571" stroke-linecap="square"/>
<path d="M-0.181366 157.857C25.1786 157.857 12.8571 117.143 8.03571 78.0359C3.21428 38.9289 22.6786 36.6071 98.5714 42.6786C124.464 44.75 123.214 11.0714 123.214 -7.62939e-06" stroke="#AE7FE9" stroke-width="4.28571"/>
<path d="M0 180C8.57143 180 18.2143 170 23.3929 164.821C45.7143 142.5 2.67857 89.6429 27.6786 64.6429C57.7877 34.5338 108.308 78.4833 129.286 41.4286C139.105 24.0836 139.286 13.75 139.286 -7.62939e-06" stroke="#AE7FE9" stroke-width="4.28571" stroke-linecap="square"/>
<path d="M152.143 -7.62939e-06C152.143 23.2143 155.359 46.5716 137.679 62.5C117.857 80.3571 58.1579 53.0001 39.4643 70.5357C19.2857 89.4643 60.2366 158.982 25.8929 189.286C16.7857 197.321 11.4286 200.714 0 200.714" stroke="#AE7FE9" stroke-width="4.28571" stroke-linecap="square"/>
<path d="M228.571 12.1428C196.071 12.1428 218.171 86.23 194.821 108.571C167.484 134.728 136.016 113.393 106.071 113.393C57.4997 113.393 106.071 197.5 73.7497 229.821C64.9997 236.25 43.571 244.714 52.1424 227.143C62.8567 205.179 81.9643 186.25 67.1429 138.75C52.3215 91.25 90.3187 97.253 113.571 100.536C143.929 104.821 202.321 121.25 189.464 58.0357C180.879 15.8259 202.679 -7.50001 217.679 -7.50001" stroke="#AE7FE9" stroke-width="4.28571" stroke-linecap="square"/>
<path d="M179.286 -7.62939e-06C179.286 42.8571 174.821 90.5357 117.5 83.9286C60.1786 77.3214 42.8571 71.6071 53.75 128.571C64.6429 185.536 45.5357 221.429 0 221.429" stroke="#AE7FE9" stroke-width="4.28571" stroke-linecap="square"/>
</g>
</g>
</g>
<g clip-path="url(#clip25_191_2468)">
<g clip-path="url(#clip26_191_2468)">
<g clip-path="url(#clip27_191_2468)">
<path d="M89.2857 227.5C105.893 187.321 80.9548 156.887 103.571 135.536C121.025 119.058 139.821 126.964 156.25 135.536C172.679 144.107 220.536 146.1 220.536 94.4643C220.536 78.7501 208.929 34.2857 228.571 34.2857" stroke="#F6AE2D" stroke-width="4.28571" stroke-linecap="square"/>
<path d="M-0.181366 157.857C25.1786 157.857 12.8571 117.143 8.03571 78.0359C3.21428 38.9289 22.6786 36.6071 98.5714 42.6786C124.464 44.75 123.214 11.0714 123.214 0" stroke="#F6AE2D" stroke-width="4.28571"/>
<path d="M0 180C8.57143 180 18.2143 170 23.3929 164.821C45.7143 142.5 2.67857 89.6429 27.6786 64.6429C57.7877 34.5338 108.308 78.4833 129.286 41.4286C139.105 24.0836 139.286 13.75 139.286 0" stroke="#F6AE2D" stroke-width="4.28571" stroke-linecap="square"/>
<path d="M152.143 0C152.143 23.2143 155.359 46.5716 137.679 62.5C117.857 80.3571 58.1579 53.0001 39.4643 70.5357C19.2857 89.4643 60.2366 158.982 25.8929 189.286C16.7857 197.321 11.4286 200.714 0 200.714" stroke="#F6AE2D" stroke-width="4.28571" stroke-linecap="square"/>
<path d="M228.571 12.1429C196.071 12.1429 218.171 86.23 194.821 108.571C167.484 134.728 136.016 113.393 106.071 113.393C57.4997 113.393 106.071 197.5 73.7497 229.821C64.9997 236.25 43.571 244.714 52.1424 227.143C62.8567 205.179 81.9643 186.25 67.1429 138.75C52.3215 91.25 90.3187 97.253 113.571 100.536C143.929 104.821 202.321 121.25 189.464 58.0357C180.879 15.8259 202.679 -7.5 217.679 -7.5" stroke="#F6AE2D" stroke-width="4.28571" stroke-linecap="square"/>
<path d="M179.286 0C179.286 42.8571 174.821 90.5357 117.5 83.9286C60.1786 77.3214 42.8571 71.6071 53.75 128.571C64.6429 185.536 45.5357 221.429 0 221.429" stroke="#F6AE2D" stroke-width="4.28571" stroke-linecap="square"/>
</g>
</g>
</g>
<g clip-path="url(#clip28_191_2468)">
<g clip-path="url(#clip29_191_2468)">
<g clip-path="url(#clip30_191_2468)">
<path d="M89.2857 227.5C105.893 187.321 80.9548 156.887 103.571 135.536C121.025 119.058 139.821 126.964 156.25 135.536C172.679 144.107 220.536 146.1 220.536 94.4643C220.536 78.7501 208.929 34.2857 228.571 34.2857" stroke="#AE7FE9" stroke-width="4.28571" stroke-linecap="square"/>
<path d="M152.143 0C152.143 23.2143 155.359 46.5716 137.679 62.5C117.857 80.3571 58.1579 53.0001 39.4643 70.5357C19.2857 89.4643 60.2366 158.982 25.8929 189.286C16.7857 197.321 11.4286 200.714 0 200.714" stroke="#AE7FE9" stroke-width="4.28571" stroke-linecap="square"/>
<path d="M228.571 12.1429C196.071 12.1429 218.171 86.23 194.821 108.571C167.484 134.728 136.016 113.393 106.071 113.393C57.4997 113.393 106.071 197.5 73.7497 229.821C64.9997 236.25 43.571 244.714 52.1424 227.143C62.8567 205.179 81.9643 186.25 67.1429 138.75C52.3215 91.25 90.3187 97.253 113.571 100.536C143.929 104.821 202.321 121.25 189.464 58.0357C180.879 15.8259 202.679 -7.5 217.679 -7.5" stroke="#AE7FE9" stroke-width="4.28571" stroke-linecap="square"/>
<path d="M179.286 0C179.286 42.8571 174.821 90.5357 117.5 83.9286C60.1786 77.3214 42.8571 71.6071 53.75 128.571C64.6429 185.536 45.5357 221.429 0 221.429" stroke="#AE7FE9" stroke-width="4.28571" stroke-linecap="square"/>
</g>
</g>
</g>
<g clip-path="url(#clip31_191_2468)">
<g clip-path="url(#clip32_191_2468)">
<g clip-path="url(#clip33_191_2468)">
<path d="M89.2857 227.5C105.893 187.321 80.9548 156.887 103.571 135.536C121.025 119.058 139.821 126.964 156.25 135.536C172.679 144.107 220.536 146.1 220.536 94.4643C220.536 78.7501 208.929 34.2857 228.571 34.2857" stroke="#75F4F4" stroke-width="4.28571" stroke-linecap="square"/>
<path d="M-0.181366 157.857C25.1786 157.857 12.8571 117.143 8.03571 78.0359C3.21428 38.9289 22.6786 36.6071 98.5714 42.6786C124.464 44.75 123.214 11.0714 123.214 0" stroke="#75F4F4" stroke-width="4.28571"/>
<path d="M0 180C8.57143 180 18.2143 170 23.3929 164.821C45.7143 142.5 2.67857 89.6429 27.6786 64.6429C57.7877 34.5338 108.308 78.4833 129.286 41.4286C139.105 24.0836 139.286 13.75 139.286 0" stroke="#75F4F4" stroke-width="4.28571" stroke-linecap="square"/>
<path d="M152.143 0C152.143 23.2143 155.359 46.5716 137.679 62.5C117.857 80.3571 58.1579 53.0001 39.4643 70.5357C19.2857 89.4643 60.2366 158.982 25.8929 189.286C16.7857 197.321 11.4286 200.714 0 200.714" stroke="#75F4F4" stroke-width="4.28571" stroke-linecap="square"/>
<path d="M228.571 12.1429C196.071 12.1429 218.171 86.23 194.821 108.571C167.484 134.728 136.016 113.393 106.071 113.393C57.4997 113.393 106.071 197.5 73.7497 229.821C64.9997 236.25 43.571 244.714 52.1424 227.143C62.8567 205.179 81.9643 186.25 67.1429 138.75C52.3215 91.25 90.3187 97.253 113.571 100.536C143.929 104.821 202.321 121.25 189.464 58.0357C180.879 15.8259 202.679 -7.5 217.679 -7.5" stroke="#75F4F4" stroke-width="4.28571" stroke-linecap="square"/>
<path d="M179.286 0C179.286 42.8571 174.821 90.5357 117.5 83.9286C60.1786 77.3214 42.8571 71.6071 53.75 128.571C64.6429 185.536 45.5357 221.429 0 221.429" stroke="#75F4F4" stroke-width="4.28571" stroke-linecap="square"/>
</g>
</g>
</g>
<g clip-path="url(#clip34_191_2468)">
<g clip-path="url(#clip35_191_2468)">
<g clip-path="url(#clip36_191_2468)">
<path d="M89.2857 227.5C105.893 187.321 80.9548 156.887 103.571 135.536C121.025 119.058 139.821 126.964 156.25 135.536C172.679 144.107 220.536 146.1 220.536 94.4643C220.536 78.7501 208.929 34.2857 228.571 34.2857" stroke="#F45B69" stroke-width="4.28571" stroke-linecap="square"/>
<path d="M0 180C8.57143 180 18.2143 170 23.3929 164.821C45.7143 142.5 2.67857 89.6429 27.6786 64.6429C57.7877 34.5338 108.308 78.4833 129.286 41.4286C139.105 24.0836 139.286 13.75 139.286 -7.62939e-06" stroke="#F45B69" stroke-width="4.28571" stroke-linecap="square"/>
<path d="M152.143 -7.62939e-06C152.143 23.2143 155.359 46.5716 137.679 62.5C117.857 80.3571 58.1579 53.0001 39.4643 70.5357C19.2857 89.4643 60.2366 158.982 25.8929 189.286C16.7857 197.321 11.4286 200.714 0 200.714" stroke="#F45B69" stroke-width="4.28571" stroke-linecap="square"/>
<path d="M228.571 12.1428C196.071 12.1428 218.171 86.23 194.821 108.571C167.484 134.728 136.016 113.393 106.071 113.393C57.4997 113.393 106.071 197.5 73.7497 229.821C64.9997 236.25 43.571 244.714 52.1424 227.143C62.8567 205.179 81.9643 186.25 67.1429 138.75C52.3215 91.25 90.3187 97.253 113.571 100.536C143.929 104.821 202.321 121.25 189.464 58.0357C180.879 15.8259 202.679 -7.50001 217.679 -7.50001" stroke="#F45B69" stroke-width="4.28571" stroke-linecap="square"/>
<path d="M179.286 -7.62939e-06C179.286 42.8571 174.821 90.5357 117.5 83.9286C60.1786 77.3214 42.8571 71.6071 53.75 128.571C64.6429 185.536 45.5357 221.429 0 221.429" stroke="#F45B69" stroke-width="4.28571" stroke-linecap="square"/>
</g>
</g>
</g>
<g clip-path="url(#clip37_191_2468)">
<g clip-path="url(#clip38_191_2468)">
<g clip-path="url(#clip39_191_2468)">
<path d="M-1.07144 12.1429C36.7857 12.1429 74.4643 30 89.2857 -1.07143" stroke="#75F4F4" stroke-width="4.28571" stroke-linecap="round"/>
<path d="M89.2857 227.5C105.893 187.321 80.9548 156.887 103.571 135.536C121.025 119.058 139.821 126.964 156.25 135.536C172.679 144.107 220.536 146.1 220.536 94.4643C220.536 78.7501 208.929 34.2857 228.571 34.2857" stroke="#75F4F4" stroke-width="4.28571" stroke-linecap="square"/>
<path d="M-0.181366 157.857C25.1786 157.857 12.8571 117.143 8.03571 78.0359C3.21428 38.9289 22.6786 36.6071 98.5714 42.6786C124.464 44.75 123.214 11.0714 123.214 0" stroke="#75F4F4" stroke-width="4.28571"/>
<path d="M0 180C8.57143 180 18.2143 170 23.3929 164.821C45.7143 142.5 2.67857 89.6429 27.6786 64.6429C57.7877 34.5338 108.308 78.4833 129.286 41.4286C139.105 24.0836 139.286 13.75 139.286 0" stroke="#75F4F4" stroke-width="4.28571" stroke-linecap="square"/>
<path d="M110.714 2.14286C110.714 14.2857 106.429 30.9552 93.9286 29.8214C15.1786 22.6786 37.1429 34.2857 0 34.2857" stroke="#75F4F4" stroke-width="4.28571" stroke-linecap="square"/>
<path d="M152.143 0C152.143 23.2143 155.359 46.5716 137.679 62.5C117.857 80.3571 58.1579 53.0001 39.4643 70.5357C19.2857 89.4643 60.2366 158.982 25.8929 189.286C16.7857 197.321 11.4286 200.714 0 200.714" stroke="#75F4F4" stroke-width="4.28571" stroke-linecap="square"/>
<path d="M228.571 12.1429C196.071 12.1429 218.171 86.23 194.821 108.571C167.484 134.728 136.016 113.393 106.071 113.393C57.4997 113.393 106.071 197.5 73.7497 229.821C64.9997 236.25 43.571 244.714 52.1424 227.143C62.8567 205.179 81.9643 186.25 67.1429 138.75C52.3215 91.25 90.3187 97.253 113.571 100.536C143.929 104.821 202.321 121.25 189.464 58.0357C180.879 15.8259 202.679 -7.5 217.679 -7.5" stroke="#75F4F4" stroke-width="4.28571" stroke-linecap="square"/>
<path d="M228.571 -211.429C196.071 -211.429 218.171 -142.341 194.821 -120C167.484 -93.8434 136.016 -115.179 106.071 -115.179C57.4996 -115.179 106.071 -31.0713 73.7496 1.24999C64.9996 7.67856 43.5714 16.1429 52.1428 -1.42858C62.8571 -23.3929 81.9643 -42.3214 67.1428 -89.8214C52.3214 -137.321 90.3187 -131.318 113.571 -128.036C143.929 -123.75 198.393 -107.321 185.536 -170.536C176.951 -212.745 202.679 -236.071 217.679 -236.071" stroke="#75F4F4" stroke-width="4.28571" stroke-linecap="square"/>
<path d="M179.286 0C179.286 42.8571 174.821 90.5357 117.5 83.9286C60.1786 77.3214 42.8571 71.6071 53.75 128.571C64.6429 185.536 45.5357 221.429 0 221.429" stroke="#75F4F4" stroke-width="4.28571" stroke-linecap="square"/>
</g>
</g>
</g>
<g clip-path="url(#clip40_191_2468)">
<g clip-path="url(#clip41_191_2468)">
<g clip-path="url(#clip42_191_2468)">
<path d="M89.2857 227.5C105.893 187.321 80.9548 156.887 103.571 135.536C121.025 119.058 139.821 126.964 156.25 135.536C172.679 144.107 220.536 146.1 220.536 94.4643C220.536 78.7501 208.929 34.2857 228.571 34.2857" stroke="#AE7FE9" stroke-width="4.28571" stroke-linecap="square"/>
<path d="M110.715 228.572C110.715 204.108 98.7512 177.501 118.572 157.679C137.321 138.928 155.536 157.857 228.572 157.857" stroke="#AE7FE9" stroke-width="4.28571"/>
<path d="M-0.181366 157.857C25.1786 157.857 12.8571 117.143 8.03571 78.0359C3.21428 38.9289 22.6786 36.6071 98.5714 42.6786C124.464 44.75 123.214 11.0714 123.214 0" stroke="#AE7FE9" stroke-width="4.28571"/>
<path d="M123.214 228.571C123.214 204.643 115.516 183.435 136.25 171.071C165 153.929 180 180 228.572 180" stroke="#AE7FE9" stroke-width="4.28571" stroke-linecap="square"/>
<path d="M0 180C8.57143 180 18.2143 170 23.3929 164.821C45.7143 142.5 2.67857 89.6429 27.6786 64.6429C57.7877 34.5338 108.308 78.4833 129.286 41.4286C139.105 24.0836 139.286 13.75 139.286 0" stroke="#AE7FE9" stroke-width="4.28571" stroke-linecap="square"/>
<path d="M139.286 228.571C139.286 219.457 137.084 195.216 148.036 188.929C169.516 176.598 196.353 200.691 228.571 200.691" stroke="#AE7FE9" stroke-width="4.28571" stroke-linecap="square"/>
<path d="M152.143 0C152.143 23.2143 155.359 46.5716 137.679 62.5C117.857 80.3571 58.1579 53.0001 39.4643 70.5357C19.2857 89.4643 60.2366 158.982 25.8929 189.286C16.7857 197.321 11.4286 200.714 0 200.714" stroke="#AE7FE9" stroke-width="4.28571" stroke-linecap="square"/>
<path d="M228.571 12.1429C196.071 12.1429 218.171 86.23 194.821 108.571C167.484 134.728 136.016 113.393 106.071 113.393C57.4997 113.393 106.071 197.5 73.7497 229.821C64.9997 236.25 43.571 244.714 52.1424 227.143C62.8567 205.179 81.9643 186.25 67.1429 138.75C52.3215 91.25 90.3187 97.253 113.571 100.536C143.929 104.821 202.321 121.25 189.464 58.0357C180.879 15.8259 202.679 -7.5 217.679 -7.5" stroke="#AE7FE9" stroke-width="4.28571" stroke-linecap="square"/>
<path d="M179.286 0C179.286 42.8571 174.821 90.5357 117.5 83.9286C60.1786 77.3214 42.8571 71.6071 53.75 128.571C64.6429 185.536 45.5357 221.429 0 221.429" stroke="#AE7FE9" stroke-width="4.28571" stroke-linecap="square"/>
</g>
</g>
</g>
<g clip-path="url(#clip43_191_2468)">
<g clip-path="url(#clip44_191_2468)">
<g clip-path="url(#clip45_191_2468)">
<path d="M89.2857 227.5C105.893 187.321 80.9548 156.887 103.571 135.536C121.025 119.058 139.821 126.964 156.25 135.536C172.679 144.107 220.536 146.1 220.536 94.4643C220.536 78.7501 208.929 34.2857 228.571 34.2857" stroke="#F45B69" stroke-width="4.28571" stroke-linecap="square"/>
<path d="M110.715 228.572C110.715 204.108 98.7512 177.501 118.572 157.679C137.321 138.928 155.536 157.857 228.572 157.857" stroke="#F45B69" stroke-width="4.28571"/>
<path d="M123.214 228.571C123.214 204.643 115.516 183.435 136.25 171.071C165 153.929 180 180 228.572 180" stroke="#F45B69" stroke-width="4.28571" stroke-linecap="square"/>
<path d="M139.286 228.571C139.286 219.457 137.084 195.216 148.036 188.929C169.516 176.598 196.353 200.691 228.571 200.691" stroke="#F45B69" stroke-width="4.28571" stroke-linecap="square"/>
<path d="M152.143 0C152.143 23.2143 155.359 46.5716 137.679 62.5C117.857 80.3571 58.1579 53.0001 39.4643 70.5357C19.2857 89.4643 60.2366 158.982 25.8929 189.286C16.7857 197.321 11.4286 200.714 0 200.714" stroke="#F45B69" stroke-width="4.28571" stroke-linecap="square"/>
<path d="M228.571 12.1429C196.071 12.1429 218.171 86.23 194.821 108.571C167.484 134.728 136.016 113.393 106.071 113.393C57.4997 113.393 106.071 197.5 73.7497 229.821C64.9997 236.25 43.571 244.714 52.1424 227.143C62.8567 205.179 81.9643 186.25 67.1429 138.75C52.3215 91.25 90.3187 97.253 113.571 100.536C143.929 104.821 202.321 121.25 189.464 58.0357C180.879 15.8259 202.679 -7.5 217.679 -7.5" stroke="#F45B69" stroke-width="4.28571" stroke-linecap="square"/>
<path d="M179.286 0C179.286 42.8571 174.821 90.5357 117.5 83.9286C60.1786 77.3214 42.8571 71.6071 53.75 128.571C64.6429 185.536 45.5357 221.429 0 221.429" stroke="#F45B69" stroke-width="4.28571" stroke-linecap="square"/>
</g>
</g>
</g>
<g clip-path="url(#clip46_191_2468)">
<g clip-path="url(#clip47_191_2468)">
<g clip-path="url(#clip48_191_2468)">
<path d="M89.2857 227.5C105.893 187.321 80.9548 156.887 103.571 135.536C121.025 119.058 139.821 126.964 156.25 135.536C172.679 144.107 220.536 146.1 220.536 94.4643C220.536 78.7501 208.929 34.2857 228.571 34.2857" stroke="#75F4F4" stroke-width="4.28571" stroke-linecap="square"/>
<path d="M228.571 12.1428C196.071 12.1428 218.171 86.23 194.821 108.571C167.484 134.728 136.016 113.393 106.071 113.393C57.4997 113.393 106.071 197.5 73.7497 229.821C64.9997 236.25 43.571 244.714 52.1424 227.143C62.8567 205.179 81.9643 186.25 67.1429 138.75C52.3215 91.25 90.3187 97.253 113.571 100.536C143.929 104.821 202.321 121.25 189.464 58.0357C180.879 15.8259 202.679 -7.50001 217.679 -7.50001" stroke="#75F4F4" stroke-width="4.28571" stroke-linecap="square"/>
</g>
</g>
</g>
<g clip-path="url(#clip49_191_2468)">
<g clip-path="url(#clip50_191_2468)">
<g clip-path="url(#clip51_191_2468)">
<path d="M89.2857 227.5C105.893 187.321 80.9548 156.887 103.571 135.536C121.025 119.058 139.821 126.964 156.25 135.536C172.679 144.107 220.536 146.1 220.536 94.4643C220.536 78.7501 208.929 34.2857 228.571 34.2857" stroke="#F45B69" stroke-width="4.28571" stroke-linecap="square"/>
<path d="M-0.181366 157.857C25.1786 157.857 12.8571 117.143 8.03571 78.0359C3.21428 38.9289 22.6786 36.6071 98.5714 42.6786C124.464 44.75 123.214 11.0714 123.214 0" stroke="#F45B69" stroke-width="4.28571"/>
<path d="M0 180C8.57143 180 18.2143 170 23.3929 164.821C45.7143 142.5 2.67857 89.6429 27.6786 64.6429C57.7877 34.5338 108.308 78.4833 129.286 41.4286C139.105 24.0836 139.286 13.75 139.286 0" stroke="#F45B69" stroke-width="4.28571" stroke-linecap="square"/>
<path d="M152.143 0C152.143 23.2143 155.359 46.5716 137.679 62.5C117.857 80.3571 58.1579 53.0001 39.4643 70.5357C19.2857 89.4643 60.2366 158.982 25.8929 189.286C16.7857 197.321 11.4286 200.714 0 200.714" stroke="#F45B69" stroke-width="4.28571" stroke-linecap="square"/>
<path d="M228.571 12.1429C196.071 12.1429 218.171 86.23 194.821 108.571C167.484 134.728 136.016 113.393 106.071 113.393C57.4997 113.393 106.071 197.5 73.7497 229.821C64.9997 236.25 43.571 244.714 52.1424 227.143C62.8567 205.179 81.9643 186.25 67.1429 138.75C52.3215 91.25 90.3187 97.253 113.571 100.536C143.929 104.821 202.321 121.25 189.464 58.0357C180.879 15.8259 202.679 -7.5 217.679 -7.5" stroke="#F45B69" stroke-width="4.28571" stroke-linecap="square"/>
<path d="M179.286 0C179.286 42.8571 174.821 90.5357 117.5 83.9286C60.1786 77.3214 42.8571 71.6071 53.75 128.571C64.6429 185.536 45.5357 221.429 0 221.429" stroke="#F45B69" stroke-width="4.28571" stroke-linecap="square"/>
</g>
</g>
</g>
<g clip-path="url(#clip52_191_2468)">
<g clip-path="url(#clip53_191_2468)">
<g clip-path="url(#clip54_191_2468)">
<path d="M89.2857 227.5C105.893 187.321 80.9548 156.887 103.571 135.536C121.025 119.058 139.821 126.964 156.25 135.536C172.679 144.107 220.536 146.1 220.536 94.4643C220.536 78.7501 208.929 34.2857 228.571 34.2857" stroke="#75F4F4" stroke-width="4.28571" stroke-linecap="square"/>
<path d="M110.715 228.572C110.715 204.108 98.7512 177.501 118.572 157.679C137.321 138.928 155.536 157.857 228.572 157.857" stroke="#75F4F4" stroke-width="4.28571"/>
<path d="M123.214 228.571C123.214 204.643 115.516 183.435 136.25 171.071C165 153.929 180 180 228.572 180" stroke="#75F4F4" stroke-width="4.28571" stroke-linecap="square"/>
<path d="M0 180C8.57143 180 18.2143 170 23.3929 164.821C45.7143 142.5 2.67857 89.6429 27.6786 64.6429C57.7877 34.5338 108.308 78.4833 129.286 41.4286C139.105 24.0836 139.286 13.75 139.286 0" stroke="#75F4F4" stroke-width="4.28571" stroke-linecap="square"/>
<path d="M139.286 228.571C139.286 219.457 137.084 195.216 148.036 188.929C169.516 176.598 196.353 200.691 228.571 200.691" stroke="#75F4F4" stroke-width="4.28571" stroke-linecap="square"/>
<path d="M152.143 0C152.143 23.2143 155.359 46.5716 137.679 62.5C117.857 80.3571 58.1579 53.0001 39.4643 70.5357C19.2857 89.4643 60.2366 158.982 25.8929 189.286C16.7857 197.321 11.4286 200.714 0 200.714" stroke="#75F4F4" stroke-width="4.28571" stroke-linecap="square"/>
<path d="M228.571 12.1429C196.071 12.1429 218.171 86.23 194.821 108.571C167.484 134.728 136.016 113.393 106.071 113.393C57.4997 113.393 106.071 197.5 73.7497 229.821C64.9997 236.25 43.571 244.714 52.1424 227.143C62.8567 205.179 81.9643 186.25 67.1429 138.75C52.3215 91.25 90.3187 97.253 113.571 100.536C143.929 104.821 202.321 121.25 189.464 58.0357C180.879 15.8259 202.679 -7.5 217.679 -7.5" stroke="#75F4F4" stroke-width="4.28571" stroke-linecap="square"/>
<path d="M179.286 0C179.286 42.8571 174.821 90.5357 117.5 83.9286C60.1786 77.3214 42.8571 71.6071 53.75 128.571C64.6429 185.536 45.5357 221.429 0 221.429" stroke="#75F4F4" stroke-width="4.28571" stroke-linecap="square"/>
</g>
</g>
</g>
<g clip-path="url(#clip55_191_2468)">
<g clip-path="url(#clip56_191_2468)">
<g clip-path="url(#clip57_191_2468)">
<path d="M89.2857 227.5C105.893 187.321 80.9548 156.887 103.571 135.536C121.025 119.058 139.821 126.964 156.25 135.536C172.679 144.107 220.536 146.1 220.536 94.4643C220.536 78.7501 208.929 34.2857 228.571 34.2857" stroke="#F6AE2D" stroke-width="4.28571" stroke-linecap="square"/>
<path d="M110.715 228.572C110.715 204.108 98.7512 177.501 118.572 157.679C137.321 138.928 155.536 157.857 228.572 157.857" stroke="#F6AE2D" stroke-width="4.28571"/>
<path d="M123.214 228.571C123.214 204.643 115.516 183.435 136.25 171.071C165 153.929 180 180 228.572 180" stroke="#F6AE2D" stroke-width="4.28571" stroke-linecap="square"/>
<path d="M139.286 228.571C139.286 219.457 137.084 195.216 148.036 188.929C169.516 176.598 196.353 200.691 228.571 200.691" stroke="#F6AE2D" stroke-width="4.28571" stroke-linecap="square"/>
<path d="M152.143 0C152.143 23.2143 155.359 46.5716 137.679 62.5C117.857 80.3571 58.1579 53.0001 39.4643 70.5357C19.2857 89.4643 60.2366 158.982 25.8929 189.286C16.7857 197.321 11.4286 200.714 0 200.714" stroke="#F6AE2D" stroke-width="4.28571" stroke-linecap="square"/>
<path d="M152.143 228.571C152.143 216.786 159.516 197.542 171.607 201.964C181.764 205.679 179.286 220.178 179.286 228.571" stroke="#F6AE2D" stroke-width="4.28571" stroke-linecap="square"/>
<path d="M228.571 12.1429C196.071 12.1429 218.171 86.23 194.821 108.571C167.484 134.728 136.016 113.393 106.071 113.393C57.4997 113.393 106.071 197.5 73.7497 229.821C64.9997 236.25 43.571 244.714 52.1424 227.143C62.8567 205.179 81.9643 186.25 67.1429 138.75C52.3215 91.25 90.3187 97.253 113.571 100.536C143.929 104.821 202.321 121.25 189.464 58.0357C180.879 15.8259 202.679 -7.5 217.679 -7.5" stroke="#F6AE2D" stroke-width="4.28571" stroke-linecap="square"/>
<path d="M179.286 0C179.286 42.8571 174.821 90.5357 117.5 83.9286C60.1786 77.3214 42.8571 71.6071 53.75 128.571C64.6429 185.536 45.5357 221.429 0 221.429" stroke="#F6AE2D" stroke-width="4.28571" stroke-linecap="square"/>
<path d="M189.107 287.321C180.522 245.112 202.679 221.429 216.607 221.429H228.75" stroke="#F6AE2D" stroke-width="4.28571" stroke-linecap="square"/>
</g>
</g>
</g>
<g clip-path="url(#clip58_191_2468)">
<g clip-path="url(#clip59_191_2468)">
<g clip-path="url(#clip60_191_2468)">
<path d="M89.2857 227.5C105.893 187.321 80.9548 156.887 103.571 135.536C121.025 119.058 139.821 126.964 156.25 135.536C172.679 144.107 220.536 146.1 220.536 94.4643C220.536 78.7501 208.929 34.2857 228.571 34.2857" stroke="#A6FFA1" stroke-width="4.28571" stroke-linecap="square"/>
<path d="M0 180C8.57143 180 18.2143 170 23.3929 164.821C45.7143 142.5 2.67857 89.6429 27.6786 64.6429C57.7877 34.5338 108.308 78.4833 129.286 41.4286C139.105 24.0836 139.286 13.75 139.286 0" stroke="#A6FFA1" stroke-width="4.28571" stroke-linecap="square"/>
<path d="M152.143 0C152.143 23.2143 155.359 46.5716 137.679 62.5C117.857 80.3571 58.1579 53.0001 39.4643 70.5357C19.2857 89.4643 60.2366 158.982 25.8929 189.286C16.7857 197.321 11.4286 200.714 0 200.714" stroke="#A6FFA1" stroke-width="4.28571" stroke-linecap="square"/>
<path d="M228.571 12.1429C196.071 12.1429 218.171 86.23 194.821 108.571C167.484 134.728 136.016 113.393 106.071 113.393C57.4997 113.393 106.071 197.5 73.7497 229.821C64.9997 236.25 43.571 244.714 52.1424 227.143C62.8567 205.179 81.9643 186.25 67.1429 138.75C52.3215 91.25 90.3187 97.253 113.571 100.536C143.929 104.821 202.321 121.25 189.464 58.0357C180.879 15.8259 202.679 -7.5 217.679 -7.5" stroke="#A6FFA1" stroke-width="4.28571" stroke-linecap="square"/>
<path d="M228.571 -211.429C196.071 -211.429 218.171 -142.341 194.821 -120C167.484 -93.8434 136.016 -115.179 106.071 -115.179C57.4996 -115.179 106.071 -31.0713 73.7496 1.24999C64.9996 7.67856 43.5714 16.1429 52.1428 -1.42858C62.8571 -23.3929 81.9643 -42.3214 67.1428 -89.8214C52.3214 -137.321 90.3187 -131.318 113.571 -128.036C143.929 -123.75 198.393 -107.321 185.536 -170.536C176.951 -212.745 202.679 -236.071 217.679 -236.071" stroke="#A6FFA1" stroke-width="4.28571" stroke-linecap="square"/>
<path d="M179.286 0C179.286 42.8571 174.821 90.5357 117.5 83.9286C60.1786 77.3214 42.8571 71.6071 53.75 128.571C64.6429 185.536 45.5357 221.429 0 221.429" stroke="#A6FFA1" stroke-width="4.28571" stroke-linecap="square"/>
</g>
</g>
</g>
<g clip-path="url(#clip61_191_2468)">
<g clip-path="url(#clip62_191_2468)">
<g clip-path="url(#clip63_191_2468)">
<path d="M89.2857 227.5C105.893 187.321 80.9548 156.887 103.571 135.536C121.025 119.058 139.821 126.964 156.25 135.536C172.679 144.107 220.536 146.1 220.536 94.4643C220.536 78.7501 208.929 34.2857 228.571 34.2857" stroke="#F45B69" stroke-width="4.28571" stroke-linecap="square"/>
<path d="M110.715 228.572C110.715 204.108 98.7512 177.501 118.572 157.679C137.321 138.928 155.536 157.857 228.572 157.857" stroke="#F45B69" stroke-width="4.28571"/>
<path d="M123.214 228.571C123.214 204.643 115.516 183.435 136.25 171.071C165 153.929 180 180 228.572 180" stroke="#F45B69" stroke-width="4.28571" stroke-linecap="square"/>
<path d="M139.286 228.571C139.286 219.457 137.084 195.216 148.036 188.929C169.516 176.598 196.353 200.691 228.571 200.691" stroke="#F45B69" stroke-width="4.28571" stroke-linecap="square"/>
<path d="M228.571 12.1429C196.071 12.1429 218.171 86.23 194.821 108.571C167.484 134.728 136.016 113.393 106.071 113.393C57.4997 113.393 106.071 197.5 73.7497 229.821C64.9997 236.25 43.571 244.714 52.1424 227.143C62.8567 205.179 81.9643 186.25 67.1429 138.75C52.3215 91.25 90.3187 97.253 113.571 100.536C143.929 104.821 202.321 121.25 189.464 58.0357C180.879 15.8259 202.679 -7.5 217.679 -7.5" stroke="#F45B69" stroke-width="4.28571" stroke-linecap="square"/>
</g>
</g>
</g>
<g clip-path="url(#clip64_191_2468)">
<g clip-path="url(#clip65_191_2468)">
<g clip-path="url(#clip66_191_2468)">
<path d="M89.2857 227.5C105.893 187.321 80.9548 156.887 103.571 135.536C121.025 119.058 139.821 126.964 156.25 135.536C172.679 144.107 220.536 146.1 220.536 94.4643C220.536 78.7501 208.929 34.2857 228.571 34.2857" stroke="#A6FFA1" stroke-width="4.28571" stroke-linecap="square"/>
<path d="M110.715 228.572C110.715 204.108 98.7512 177.501 118.572 157.679C137.321 138.928 155.536 157.857 228.572 157.857" stroke="#A6FFA1" stroke-width="4.28571"/>
<path d="M123.214 228.571C123.214 204.643 115.516 183.435 136.25 171.071C165 153.929 180 180 228.572 180" stroke="#A6FFA1" stroke-width="4.28571" stroke-linecap="square"/>
<path d="M139.286 228.571C139.286 219.457 137.084 195.216 148.036 188.929C169.516 176.598 196.353 200.691 228.571 200.691" stroke="#A6FFA1" stroke-width="4.28571" stroke-linecap="square"/>
<path d="M228.571 12.1429C196.071 12.1429 218.171 86.23 194.821 108.571C167.484 134.728 136.016 113.393 106.071 113.393C57.4997 113.393 106.071 197.5 73.7497 229.821C64.9997 236.25 43.571 244.714 52.1424 227.143C62.8567 205.179 81.9643 186.25 67.1429 138.75C52.3215 91.25 90.3187 97.253 113.571 100.536C143.929 104.821 202.321 121.25 189.464 58.0357C180.879 15.8259 202.679 -7.5 217.679 -7.5" stroke="#A6FFA1" stroke-width="4.28571" stroke-linecap="square"/>
<path d="M189.107 287.321C180.522 245.112 202.679 221.429 216.607 221.429H228.75" stroke="#A6FFA1" stroke-width="4.28571" stroke-linecap="square"/>
</g>
</g>
</g>
<g clip-path="url(#clip67_191_2468)">
<g clip-path="url(#clip68_191_2468)">
<g clip-path="url(#clip69_191_2468)">
<path d="M89.2857 227.5C105.893 187.321 80.9548 156.887 103.571 135.536C121.025 119.058 139.821 126.964 156.25 135.536C172.679 144.107 220.536 146.1 220.536 94.4643C220.536 78.7501 208.929 34.2857 228.571 34.2857" stroke="#A6FFA1" stroke-width="4.28571" stroke-linecap="square"/>
<path d="M0 180C8.57143 180 18.2143 170 23.3929 164.821C45.7143 142.5 2.67857 89.6429 27.6786 64.6429C57.7877 34.5338 108.308 78.4833 129.286 41.4286C139.105 24.0836 139.286 13.75 139.286 0" stroke="#A6FFA1" stroke-width="4.28571" stroke-linecap="square"/>
<path d="M152.143 0C152.143 23.2143 155.359 46.5716 137.679 62.5C117.857 80.3571 58.1579 53.0001 39.4643 70.5357C19.2857 89.4643 60.2366 158.982 25.8929 189.286C16.7857 197.321 11.4286 200.714 0 200.714" stroke="#A6FFA1" stroke-width="4.28571" stroke-linecap="square"/>
<path d="M228.571 12.1429C196.071 12.1429 218.171 86.23 194.821 108.571C167.484 134.728 136.016 113.393 106.071 113.393C57.4997 113.393 106.071 197.5 73.7497 229.821C64.9997 236.25 43.571 244.714 52.1424 227.143C62.8567 205.179 81.9643 186.25 67.1429 138.75C52.3215 91.25 90.3187 97.253 113.571 100.536C143.929 104.821 202.321 121.25 189.464 58.0357C180.879 15.8259 202.679 -7.5 217.679 -7.5" stroke="#A6FFA1" stroke-width="4.28571" stroke-linecap="square"/>
<path d="M179.286 0C179.286 42.8571 174.821 90.5357 117.5 83.9286C60.1786 77.3214 42.8571 71.6071 53.75 128.571C64.6429 185.536 45.5357 221.429 0 221.429" stroke="#A6FFA1" stroke-width="4.28571" stroke-linecap="square"/>
</g>
</g>
</g>
<g clip-path="url(#clip70_191_2468)">
<g clip-path="url(#clip71_191_2468)">
<g clip-path="url(#clip72_191_2468)">
<path d="M89.2857 227.5C105.893 187.321 80.9548 156.887 103.571 135.536C121.025 119.058 139.821 126.964 156.25 135.536C172.679 144.107 220.536 146.1 220.536 94.4643C220.536 78.7501 208.929 34.2857 228.571 34.2857" stroke="#F6AE2D" stroke-width="4.28571" stroke-linecap="square"/>
<path d="M228.571 12.1429C196.071 12.1429 218.171 86.23 194.821 108.571C167.484 134.728 136.016 113.393 106.071 113.393C57.4997 113.393 106.071 197.5 73.7497 229.821C64.9997 236.25 43.571 244.714 52.1424 227.143C62.8567 205.179 81.9643 186.25 67.1429 138.75C52.3215 91.25 90.3187 97.253 113.571 100.536C143.929 104.821 202.321 121.25 189.464 58.0357C180.879 15.8259 202.679 -7.5 217.679 -7.5" stroke="#F6AE2D" stroke-width="4.28571" stroke-linecap="square"/>
<path d="M228.571 -211.429C196.071 -211.429 218.171 -142.341 194.821 -120C167.484 -93.8434 136.016 -115.179 106.071 -115.179C57.4996 -115.179 106.071 -31.0713 73.7496 1.24999C64.9996 7.67856 43.5714 16.1429 52.1428 -1.42858C62.8571 -23.3929 81.9643 -42.3214 67.1428 -89.8214C52.3214 -137.321 90.3187 -131.318 113.571 -128.036C143.929 -123.75 198.393 -107.321 185.536 -170.536C176.951 -212.745 202.679 -236.071 217.679 -236.071" stroke="#F6AE2D" stroke-width="4.28571" stroke-linecap="square"/>
</g>
</g>
</g>
<g clip-path="url(#clip73_191_2468)">
<g clip-path="url(#clip74_191_2468)">
<g clip-path="url(#clip75_191_2468)">
<path d="M89.2857 227.5C105.893 187.321 80.9548 156.887 103.571 135.536C121.025 119.058 139.821 126.964 156.25 135.536C172.679 144.107 220.536 146.1 220.536 94.4643C220.536 78.7501 208.929 34.2857 228.571 34.2857" stroke="#AE7FE9" stroke-width="4.28571" stroke-linecap="square"/>
<path d="M228.571 12.1429C196.071 12.1429 218.171 86.23 194.821 108.571C167.484 134.728 136.016 113.393 106.071 113.393C57.4997 113.393 106.071 197.5 73.7497 229.821C64.9997 236.25 43.571 244.714 52.1424 227.143C62.8567 205.179 81.9643 186.25 67.1429 138.75C52.3215 91.25 90.3187 97.253 113.571 100.536C143.929 104.821 202.321 121.25 189.464 58.0357C180.879 15.8259 202.679 -7.5 217.679 -7.5" stroke="#AE7FE9" stroke-width="4.28571" stroke-linecap="square"/>
</g>
</g>
</g>
</g>
<g clip-path="url(#clip76_191_2468)">
<g clip-path="url(#clip77_191_2468)">
<g clip-path="url(#clip78_191_2468)">
<path d="M227.5 12.1429C265.357 12.1429 303.036 30 317.857 -1.07142" stroke="#AE7FE9" stroke-width="4.28571" stroke-linecap="round"/>
<path d="M228.39 157.857C253.75 157.857 241.429 117.143 236.607 78.0359C231.786 38.9289 251.25 36.6072 327.143 42.6786C353.036 44.75 351.786 11.0714 351.786 7.62939e-06" stroke="#AE7FE9" stroke-width="4.28571"/>
<path d="M228.571 180C237.143 180 246.786 170 251.964 164.821C274.286 142.5 231.25 89.6429 256.25 64.6429C286.359 34.5338 336.879 78.4833 357.857 41.4286C367.677 24.0836 367.857 13.75 367.857 7.62939e-06" stroke="#AE7FE9" stroke-width="4.28571" stroke-linecap="square"/>
<path d="M339.286 2.14287C339.286 14.2857 335 30.9552 322.5 29.8214C243.75 22.6786 265.714 34.2857 228.571 34.2857" stroke="#AE7FE9" stroke-width="4.28571" stroke-linecap="square"/>
<path d="M380.714 7.62939e-06C380.714 23.2143 383.931 46.5716 366.25 62.5C346.429 80.3572 286.729 53.0001 268.036 70.5357C247.857 89.4643 288.808 158.982 254.464 189.286C245.357 197.321 240 200.714 228.571 200.714" stroke="#AE7FE9" stroke-width="4.28571" stroke-linecap="square"/>
<path d="M407.857 7.62939e-06C407.857 42.8572 403.393 90.5357 346.071 83.9286C288.75 77.3214 271.429 71.6072 282.321 128.571C293.214 185.536 274.107 221.429 228.571 221.429" stroke="#AE7FE9" stroke-width="4.28571" stroke-linecap="square"/>
</g>
</g>
</g>
<g clip-path="url(#clip79_191_2468)">
<g clip-path="url(#clip80_191_2468)">
<g clip-path="url(#clip81_191_2468)">
<path d="M228.39 157.857C253.75 157.857 241.429 117.143 236.607 78.0359C231.786 38.9289 251.25 36.6071 327.143 42.6786C353.036 44.75 351.786 11.0714 351.786 -1.52588e-05" stroke="#F6AE2D" stroke-width="4.28571"/>
<path d="M228.571 180C237.143 180 246.786 170 251.964 164.821C274.286 142.5 231.25 89.6428 256.25 64.6428C286.359 34.5338 336.879 78.4833 357.857 41.4286C367.677 24.0836 367.857 13.75 367.857 -1.52588e-05" stroke="#F6AE2D" stroke-width="4.28571" stroke-linecap="square"/>
<path d="M380.714 -1.52588e-05C380.714 23.2143 383.931 46.5716 366.25 62.5C346.429 80.3571 286.729 53.0001 268.036 70.5357C247.857 89.4643 288.808 158.982 254.464 189.286C245.357 197.321 240 200.714 228.571 200.714" stroke="#F6AE2D" stroke-width="4.28571" stroke-linecap="square"/>
<path d="M407.857 -1.52588e-05C407.857 42.8571 403.393 90.5357 346.071 83.9286C288.75 77.3214 271.429 71.6071 282.321 128.571C293.214 185.536 274.107 221.429 228.571 221.429" stroke="#F6AE2D" stroke-width="4.28571" stroke-linecap="square"/>
</g>
</g>
</g>
<g clip-path="url(#clip82_191_2468)">
<g clip-path="url(#clip83_191_2468)">
<g clip-path="url(#clip84_191_2468)">
<path d="M228.39 157.857C253.75 157.857 241.429 117.143 236.607 78.0359C231.786 38.9289 251.25 36.6071 327.143 42.6786C353.036 44.75 351.786 11.0714 351.786 0" stroke="#F45B69" stroke-width="4.28571"/>
<path d="M228.571 180C237.143 180 246.786 170 251.964 164.821C274.286 142.5 231.25 89.6429 256.25 64.6429C286.359 34.5338 336.879 78.4833 357.857 41.4286C367.677 24.0836 367.857 13.75 367.857 0" stroke="#F45B69" stroke-width="4.28571" stroke-linecap="square"/>
<path d="M380.714 0C380.714 23.2143 383.931 46.5716 366.25 62.5C346.429 80.3571 286.729 53.0001 268.036 70.5357C247.857 89.4643 288.808 158.982 254.464 189.286C245.357 197.321 240 200.714 228.571 200.714" stroke="#F45B69" stroke-width="4.28571" stroke-linecap="square"/>
<path d="M407.857 0C407.857 42.8571 403.393 90.5357 346.071 83.9286C288.75 77.3214 271.429 71.6071 282.321 128.571C293.214 185.536 274.107 221.429 228.571 221.429" stroke="#F45B69" stroke-width="4.28571" stroke-linecap="square"/>
</g>
</g>
</g>
<g clip-path="url(#clip85_191_2468)">
<g clip-path="url(#clip86_191_2468)">
<g clip-path="url(#clip87_191_2468)">
<path d="M228.39 157.857C253.75 157.857 241.429 117.143 236.607 78.0359C231.786 38.9289 251.25 36.6071 327.143 42.6786C353.036 44.75 351.786 11.0714 351.786 -1.52588e-05" stroke="#A6FFA1" stroke-width="4.28571"/>
<path d="M228.571 180C237.143 180 246.786 170 251.964 164.821C274.286 142.5 231.25 89.6428 256.25 64.6428C286.359 34.5338 336.879 78.4833 357.857 41.4286C367.677 24.0836 367.857 13.75 367.857 -1.52588e-05" stroke="#A6FFA1" stroke-width="4.28571" stroke-linecap="square"/>
<path d="M380.714 -1.52588e-05C380.714 23.2143 383.931 46.5716 366.25 62.5C346.429 80.3571 286.729 53.0001 268.036 70.5357C247.857 89.4643 288.808 158.982 254.464 189.286C245.357 197.321 240 200.714 228.571 200.714" stroke="#A6FFA1" stroke-width="4.28571" stroke-linecap="square"/>
<path d="M407.857 -1.52588e-05C407.857 42.8571 403.393 90.5357 346.071 83.9286C288.75 77.3214 271.429 71.6071 282.321 128.571C293.214 185.536 274.107 221.429 228.571 221.429" stroke="#A6FFA1" stroke-width="4.28571" stroke-linecap="square"/>
</g>
</g>
</g>
<g clip-path="url(#clip88_191_2468)">
<g clip-path="url(#clip89_191_2468)">
<g clip-path="url(#clip90_191_2468)">
<path d="M380.714 1.52588e-05C380.714 23.2143 383.931 46.5716 366.25 62.5C346.429 80.3572 286.729 53.0001 268.036 70.5357C247.857 89.4643 288.808 158.982 254.464 189.286C245.357 197.321 240 200.714 228.571 200.714" stroke="#75F4F4" stroke-width="4.28571" stroke-linecap="square"/>
<path d="M407.857 1.52588e-05C407.857 42.8572 403.393 90.5357 346.071 83.9286C288.75 77.3214 271.429 71.6072 282.321 128.571C293.214 185.536 274.107 221.429 228.571 221.429" stroke="#75F4F4" stroke-width="4.28571" stroke-linecap="square"/>
</g>
</g>
</g>
<g clip-path="url(#clip91_191_2468)">
<g clip-path="url(#clip92_191_2468)">
<g clip-path="url(#clip93_191_2468)">
<path d="M317.857 227.5C334.464 187.321 309.526 156.887 332.143 135.536C349.597 119.058 368.393 126.964 384.821 135.536C401.25 144.107 449.107 146.1 449.107 94.4643C449.107 78.7501 437.5 34.2857 457.143 34.2857" stroke="#A6FFA1" stroke-width="4.28571" stroke-linecap="square"/>
<path d="M228.39 157.857C253.75 157.857 241.429 117.143 236.607 78.0359C231.786 38.9289 251.25 36.6071 327.143 42.6786C353.036 44.75 351.786 11.0714 351.786 -1.52588e-05" stroke="#A6FFA1" stroke-width="4.28571"/>
<path d="M228.571 180C237.143 180 246.786 170 251.964 164.821C274.286 142.5 231.25 89.6428 256.25 64.6428C286.359 34.5338 336.88 78.4833 357.857 41.4286C367.677 24.0836 367.857 13.75 367.857 -1.52588e-05" stroke="#A6FFA1" stroke-width="4.28571" stroke-linecap="square"/>
<path d="M380.714 -1.52588e-05C380.714 23.2143 383.931 46.5716 366.25 62.5C346.429 80.3571 286.729 53.0001 268.036 70.5357C247.857 89.4643 288.808 158.982 254.464 189.286C245.357 197.321 240 200.714 228.571 200.714" stroke="#A6FFA1" stroke-width="4.28571" stroke-linecap="square"/>
<path d="M457.142 12.1428C424.643 12.1428 446.742 86.23 423.393 108.571C396.056 134.728 364.588 113.393 334.642 113.393C286.071 113.393 334.642 197.5 302.321 229.821C293.571 236.25 272.142 244.714 280.714 227.143C291.428 205.179 310.536 186.25 295.714 138.75C280.893 91.25 318.89 97.253 342.143 100.536C372.5 104.821 430.893 121.25 418.036 58.0357C409.451 15.8259 431.25 -7.50002 446.25 -7.50002" stroke="#A6FFA1" stroke-width="4.28571" stroke-linecap="square"/>
<path d="M407.857 -1.52588e-05C407.857 42.8571 403.393 90.5357 346.071 83.9286C288.75 77.3214 271.429 71.6071 282.321 128.571C293.214 185.536 274.107 221.429 228.571 221.429" stroke="#A6FFA1" stroke-width="4.28571" stroke-linecap="square"/>
</g>
</g>
</g>
<g clip-path="url(#clip94_191_2468)">
<g clip-path="url(#clip95_191_2468)">
<g clip-path="url(#clip96_191_2468)">
<path d="M227.5 12.1429C265.357 12.1429 303.036 30 317.857 -1.07141" stroke="#F45B69" stroke-width="4.28571" stroke-linecap="round"/>
<path d="M317.857 227.5C334.464 187.321 309.526 156.887 332.143 135.536C349.597 119.058 368.393 126.964 384.821 135.536C401.25 144.107 449.107 146.1 449.107 94.4643C449.107 78.7501 437.5 34.2857 457.143 34.2857" stroke="#F45B69" stroke-width="4.28571" stroke-linecap="square"/>
<path d="M228.39 157.857C253.75 157.857 241.429 117.143 236.607 78.0359C231.786 38.9289 251.25 36.6072 327.143 42.6786C353.036 44.75 351.786 11.0714 351.786 1.52588e-05" stroke="#F45B69" stroke-width="4.28571"/>
<path d="M228.571 180C237.143 180 246.786 170 251.964 164.821C274.286 142.5 231.25 89.6429 256.25 64.6429C286.359 34.5338 336.88 78.4833 357.857 41.4286C367.677 24.0837 367.857 13.75 367.857 1.52588e-05" stroke="#F45B69" stroke-width="4.28571" stroke-linecap="square"/>
<path d="M339.286 2.14288C339.286 14.2857 335 30.9552 322.5 29.8214C243.75 22.6786 265.714 34.2857 228.571 34.2857" stroke="#F45B69" stroke-width="4.28571" stroke-linecap="square"/>
<path d="M380.714 1.52588e-05C380.714 23.2143 383.931 46.5716 366.25 62.5C346.429 80.3572 286.729 53.0001 268.036 70.5357C247.857 89.4643 288.808 158.982 254.464 189.286C245.357 197.321 240 200.714 228.571 200.714" stroke="#F45B69" stroke-width="4.28571" stroke-linecap="square"/>
<path d="M457.142 12.1429C424.643 12.1429 446.742 86.2301 423.393 108.571C396.056 134.728 364.588 113.393 334.642 113.393C286.071 113.393 334.642 197.5 302.321 229.821C293.571 236.25 272.142 244.714 280.714 227.143C291.428 205.179 310.536 186.25 295.714 138.75C280.893 91.25 318.89 97.253 342.143 100.536C372.5 104.821 430.893 121.25 418.036 58.0357C409.451 15.826 431.25 -7.49998 446.25 -7.49998" stroke="#F45B69" stroke-width="4.28571" stroke-linecap="square"/>
<path d="M457.142 -211.429C424.643 -211.429 446.742 -142.341 423.393 -120C396.056 -93.8434 364.588 -115.179 334.642 -115.179C286.071 -115.179 334.642 -31.0713 302.321 1.25001C293.571 7.67858 272.143 16.1429 280.714 -1.42856C291.429 -23.3928 310.536 -42.3214 295.714 -89.8214C280.893 -137.321 318.89 -131.318 342.143 -128.036C372.5 -123.75 426.964 -107.321 414.107 -170.536C405.522 -212.745 431.25 -236.071 446.25 -236.071" stroke="#F45B69" stroke-width="4.28571" stroke-linecap="square"/>
<path d="M407.857 1.52588e-05C407.857 42.8572 403.393 90.5357 346.071 83.9286C288.75 77.3214 271.429 71.6072 282.321 128.571C293.214 185.536 274.107 221.429 228.571 221.429" stroke="#F45B69" stroke-width="4.28571" stroke-linecap="square"/>
</g>
</g>
</g>
<g clip-path="url(#clip97_191_2468)">
<g clip-path="url(#clip98_191_2468)">
<g clip-path="url(#clip99_191_2468)">
<path d="M317.857 227.5C334.464 187.321 309.526 156.887 332.143 135.536C349.597 119.058 368.393 126.964 384.821 135.536C401.25 144.107 449.107 146.1 449.107 94.4643C449.107 78.7501 437.5 34.2857 457.143 34.2857" stroke="#F6AE2D" stroke-width="4.28571" stroke-linecap="square"/>
<path d="M228.39 157.857C253.75 157.857 241.429 117.143 236.607 78.0359C231.786 38.9289 251.25 36.6071 327.143 42.6786C353.036 44.75 351.786 11.0714 351.786 -1.52588e-05" stroke="#F6AE2D" stroke-width="4.28571"/>
<path d="M228.571 180C237.143 180 246.786 170 251.964 164.821C274.286 142.5 231.25 89.6428 256.25 64.6428C286.359 34.5338 336.88 78.4833 357.857 41.4286C367.677 24.0836 367.857 13.75 367.857 -1.52588e-05" stroke="#F6AE2D" stroke-width="4.28571" stroke-linecap="square"/>
<path d="M380.714 -1.52588e-05C380.714 23.2143 383.931 46.5716 366.25 62.5C346.429 80.3571 286.729 53.0001 268.036 70.5357C247.857 89.4643 288.808 158.982 254.464 189.286C245.357 197.321 240 200.714 228.571 200.714" stroke="#F6AE2D" stroke-width="4.28571" stroke-linecap="square"/>
<path d="M457.142 12.1428C424.643 12.1428 446.742 86.23 423.393 108.571C396.056 134.728 364.588 113.393 334.642 113.393C286.071 113.393 334.642 197.5 302.321 229.821C293.571 236.25 272.142 244.714 280.714 227.143C291.428 205.179 310.536 186.25 295.714 138.75C280.893 91.25 318.89 97.253 342.143 100.536C372.5 104.821 430.893 121.25 418.036 58.0357C409.451 15.8259 431.25 -7.50002 446.25 -7.50002" stroke="#F6AE2D" stroke-width="4.28571" stroke-linecap="square"/>
<path d="M407.857 -1.52588e-05C407.857 42.8571 403.393 90.5357 346.071 83.9286C288.75 77.3214 271.429 71.6071 282.321 128.571C293.214 185.536 274.107 221.429 228.571 221.429" stroke="#F6AE2D" stroke-width="4.28571" stroke-linecap="square"/>
</g>
</g>
</g>
<g clip-path="url(#clip100_191_2468)">
<g clip-path="url(#clip101_191_2468)">
<g clip-path="url(#clip102_191_2468)">
<path d="M317.857 227.5C334.464 187.321 309.526 156.887 332.143 135.536C349.597 119.058 368.393 126.964 384.821 135.536C401.25 144.107 449.107 146.1 449.107 94.4643C449.107 78.7501 437.5 34.2857 457.143 34.2857" stroke="#AE7FE9" stroke-width="4.28571" stroke-linecap="square"/>
<path d="M380.714 1.52588e-05C380.714 23.2143 383.931 46.5716 366.25 62.5C346.429 80.3572 286.729 53.0001 268.036 70.5357C247.857 89.4643 288.808 158.982 254.464 189.286C245.357 197.321 240 200.714 228.571 200.714" stroke="#AE7FE9" stroke-width="4.28571" stroke-linecap="square"/>
<path d="M457.142 12.1429C424.643 12.1429 446.742 86.2301 423.393 108.571C396.056 134.728 364.588 113.393 334.642 113.393C286.071 113.393 334.642 197.5 302.321 229.821C293.571 236.25 272.142 244.714 280.714 227.143C291.428 205.179 310.536 186.25 295.714 138.75C280.893 91.25 318.89 97.253 342.143 100.536C372.5 104.821 430.893 121.25 418.036 58.0357C409.451 15.826 431.25 -7.49998 446.25 -7.49998" stroke="#AE7FE9" stroke-width="4.28571" stroke-linecap="square"/>
<path d="M407.857 1.52588e-05C407.857 42.8572 403.393 90.5357 346.071 83.9286C288.75 77.3214 271.429 71.6072 282.321 128.571C293.214 185.536 274.107 221.429 228.571 221.429" stroke="#AE7FE9" stroke-width="4.28571" stroke-linecap="square"/>
</g>
</g>
</g>
<g clip-path="url(#clip103_191_2468)">
<g clip-path="url(#clip104_191_2468)">
<g clip-path="url(#clip105_191_2468)">
<path d="M317.857 227.5C334.464 187.321 309.526 156.887 332.143 135.536C349.597 119.058 368.393 126.964 384.821 135.536C401.25 144.107 449.107 146.1 449.107 94.4643C449.107 78.7501 437.5 34.2857 457.143 34.2857" stroke="#75F4F4" stroke-width="4.28571" stroke-linecap="square"/>
<path d="M228.39 157.857C253.75 157.857 241.429 117.143 236.607 78.0359C231.786 38.9289 251.25 36.6071 327.143 42.6786C353.036 44.75 351.786 11.0714 351.786 0" stroke="#75F4F4" stroke-width="4.28571"/>
<path d="M228.571 180C237.143 180 246.786 170 251.964 164.821C274.286 142.5 231.25 89.6429 256.25 64.6429C286.359 34.5338 336.88 78.4833 357.857 41.4286C367.677 24.0836 367.857 13.75 367.857 0" stroke="#75F4F4" stroke-width="4.28571" stroke-linecap="square"/>
<path d="M380.714 0C380.714 23.2143 383.931 46.5716 366.25 62.5C346.429 80.3571 286.729 53.0001 268.036 70.5357C247.857 89.4643 288.808 158.982 254.464 189.286C245.357 197.321 240 200.714 228.571 200.714" stroke="#75F4F4" stroke-width="4.28571" stroke-linecap="square"/>
<path d="M457.142 12.1429C424.643 12.1429 446.742 86.23 423.393 108.571C396.056 134.728 364.588 113.393 334.642 113.393C286.071 113.393 334.642 197.5 302.321 229.821C293.571 236.25 272.142 244.714 280.714 227.143C291.428 205.179 310.536 186.25 295.714 138.75C280.893 91.25 318.89 97.253 342.143 100.536C372.5 104.821 430.893 121.25 418.036 58.0357C409.451 15.8259 431.25 -7.5 446.25 -7.5" stroke="#75F4F4" stroke-width="4.28571" stroke-linecap="square"/>
<path d="M407.857 0C407.857 42.8571 403.393 90.5357 346.071 83.9286C288.75 77.3214 271.429 71.6071 282.321 128.571C293.214 185.536 274.107 221.429 228.571 221.429" stroke="#75F4F4" stroke-width="4.28571" stroke-linecap="square"/>
</g>
</g>
</g>
<defs>
<clipPath id="clip0_191_2468">
<rect width="228.571" height="228.571" fill="white"/>
</clipPath>
<clipPath id="clip1_191_2468">
<rect width="45.7143" height="45.7143" fill="white"/>
</clipPath>
<clipPath id="clip2_191_2468">
<rect width="228.571" height="228.571" fill="white"/>
</clipPath>
<clipPath id="clip3_191_2468">
<rect width="228.571" height="228.571" fill="white"/>
</clipPath>
<clipPath id="clip4_191_2468">
<rect width="45.7143" height="45.7143" fill="white" transform="translate(0 45.7143)"/>
</clipPath>
<clipPath id="clip5_191_2468">
<rect width="228.571" height="228.571" fill="white"/>
</clipPath>
<clipPath id="clip6_191_2468">
<rect width="228.571" height="228.571" fill="white"/>
</clipPath>
<clipPath id="clip7_191_2468">
<rect width="45.7143" height="45.7143" fill="white" transform="translate(0 91.4286)"/>
</clipPath>
<clipPath id="clip8_191_2468">
<rect width="228.571" height="228.571" fill="white"/>
</clipPath>
<clipPath id="clip9_191_2468">
<rect width="228.571" height="228.571" fill="white"/>
</clipPath>
<clipPath id="clip10_191_2468">
<rect width="45.7143" height="45.7143" fill="white" transform="translate(0 137.143)"/>
</clipPath>
<clipPath id="clip11_191_2468">
<rect width="228.571" height="228.571" fill="white"/>
</clipPath>
<clipPath id="clip12_191_2468">
<rect width="228.571" height="228.571" fill="white"/>
</clipPath>
<clipPath id="clip13_191_2468">
<rect width="45.7143" height="45.7143" fill="white" transform="translate(0 182.857)"/>
</clipPath>
<clipPath id="clip14_191_2468">
<rect width="228.571" height="228.571" fill="white"/>
</clipPath>
<clipPath id="clip15_191_2468">
<rect width="228.571" height="228.571" fill="white"/>
</clipPath>
<clipPath id="clip16_191_2468">
<rect width="45.7143" height="45.7143" fill="white" transform="translate(45.7143 45.7143)"/>
</clipPath>
<clipPath id="clip17_191_2468">
<rect width="228.571" height="228.571" fill="white"/>
</clipPath>
<clipPath id="clip18_191_2468">
<rect width="228.571" height="228.571" fill="white"/>
</clipPath>
<clipPath id="clip19_191_2468">
<rect width="45.7143" height="45.7143" fill="white" transform="translate(45.7143)"/>
</clipPath>
<clipPath id="clip20_191_2468">
<rect width="228.571" height="228.571" fill="white"/>
</clipPath>
<clipPath id="clip21_191_2468">
<rect width="228.571" height="228.571" fill="white"/>
</clipPath>
<clipPath id="clip22_191_2468">
<rect width="45.7143" height="45.7143" fill="white" transform="translate(91.4286 45.7143)"/>
</clipPath>
<clipPath id="clip23_191_2468">
<rect width="228.571" height="228.571" fill="white"/>
</clipPath>
<clipPath id="clip24_191_2468">
<rect width="228.571" height="228.571" fill="white"/>
</clipPath>
<clipPath id="clip25_191_2468">
<rect width="45.7143" height="45.7143" fill="white" transform="translate(45.7143 137.143)"/>
</clipPath>
<clipPath id="clip26_191_2468">
<rect width="228.571" height="228.571" fill="white"/>
</clipPath>
<clipPath id="clip27_191_2468">
<rect width="228.571" height="228.571" fill="white"/>
</clipPath>
<clipPath id="clip28_191_2468">
<rect width="45.7143" height="45.7143" fill="white" transform="translate(45.7143 182.857)"/>
</clipPath>
<clipPath id="clip29_191_2468">
<rect width="228.571" height="228.571" fill="white"/>
</clipPath>
<clipPath id="clip30_191_2468">
<rect width="228.571" height="228.571" fill="white"/>
</clipPath>
<clipPath id="clip31_191_2468">
<rect width="45.7143" height="45.7143" fill="white" transform="translate(45.7143 91.4286)"/>
</clipPath>
<clipPath id="clip32_191_2468">
<rect width="228.571" height="228.571" fill="white"/>
</clipPath>
<clipPath id="clip33_191_2468">
<rect width="228.571" height="228.571" fill="white"/>
</clipPath>
<clipPath id="clip34_191_2468">
<rect width="45.7143" height="45.7143" fill="white" transform="translate(137.143 45.7143)"/>
</clipPath>
<clipPath id="clip35_191_2468">
<rect width="228.571" height="228.571" fill="white"/>
</clipPath>
<clipPath id="clip36_191_2468">
<rect width="228.571" height="228.571" fill="white"/>
</clipPath>
<clipPath id="clip37_191_2468">
<rect width="45.7143" height="45.7143" fill="white" transform="translate(91.4286)"/>
</clipPath>
<clipPath id="clip38_191_2468">
<rect width="228.571" height="228.571" fill="white"/>
</clipPath>
<clipPath id="clip39_191_2468">
<rect width="228.571" height="228.571" fill="white"/>
</clipPath>
<clipPath id="clip40_191_2468">
<rect width="45.7143" height="45.7143" fill="white" transform="translate(91.4286 137.143)"/>
</clipPath>
<clipPath id="clip41_191_2468">
<rect width="228.571" height="228.571" fill="white"/>
</clipPath>
<clipPath id="clip42_191_2468">
<rect width="228.571" height="228.571" fill="white"/>
</clipPath>
<clipPath id="clip43_191_2468">
<rect width="45.7143" height="45.7143" fill="white" transform="translate(91.4286 182.857)"/>
</clipPath>
<clipPath id="clip44_191_2468">
<rect width="228.571" height="228.571" fill="white"/>
</clipPath>
<clipPath id="clip45_191_2468">
<rect width="228.571" height="228.571" fill="white"/>
</clipPath>
<clipPath id="clip46_191_2468">
<rect width="45.7143" height="45.7143" fill="white" transform="translate(182.857 45.7143)"/>
</clipPath>
<clipPath id="clip47_191_2468">
<rect width="228.571" height="228.571" fill="white"/>
</clipPath>
<clipPath id="clip48_191_2468">
<rect width="228.571" height="228.571" fill="white"/>
</clipPath>
<clipPath id="clip49_191_2468">
<rect width="45.7143" height="45.7143" fill="white" transform="translate(91.4286 91.4286)"/>
</clipPath>
<clipPath id="clip50_191_2468">
<rect width="228.571" height="228.571" fill="white"/>
</clipPath>
<clipPath id="clip51_191_2468">
<rect width="228.571" height="228.571" fill="white"/>
</clipPath>
<clipPath id="clip52_191_2468">
<rect width="45.7143" height="45.7143" fill="white" transform="translate(137.143 137.143)"/>
</clipPath>
<clipPath id="clip53_191_2468">
<rect width="228.571" height="228.571" fill="white"/>
</clipPath>
<clipPath id="clip54_191_2468">
<rect width="228.571" height="228.571" fill="white"/>
</clipPath>
<clipPath id="clip55_191_2468">
<rect width="45.7143" height="45.7143" fill="white" transform="translate(137.143 182.857)"/>
</clipPath>
<clipPath id="clip56_191_2468">
<rect width="228.571" height="228.571" fill="white"/>
</clipPath>
<clipPath id="clip57_191_2468">
<rect width="228.571" height="228.571" fill="white"/>
</clipPath>
<clipPath id="clip58_191_2468">
<rect width="45.7143" height="45.7143" fill="white" transform="translate(137.143)"/>
</clipPath>
<clipPath id="clip59_191_2468">
<rect width="228.571" height="228.571" fill="white"/>
</clipPath>
<clipPath id="clip60_191_2468">
<rect width="228.571" height="228.571" fill="white"/>
</clipPath>
<clipPath id="clip61_191_2468">
<rect width="45.7143" height="45.7143" fill="white" transform="translate(182.857 137.143)"/>
</clipPath>
<clipPath id="clip62_191_2468">
<rect width="228.571" height="228.571" fill="white"/>
</clipPath>
<clipPath id="clip63_191_2468">
<rect width="228.571" height="228.571" fill="white"/>
</clipPath>
<clipPath id="clip64_191_2468">
<rect width="45.7143" height="45.7143" fill="white" transform="translate(182.857 182.857)"/>
</clipPath>
<clipPath id="clip65_191_2468">
<rect width="228.571" height="228.571" fill="white"/>
</clipPath>
<clipPath id="clip66_191_2468">
<rect width="228.571" height="228.571" fill="white"/>
</clipPath>
<clipPath id="clip67_191_2468">
<rect width="45.7143" height="45.7143" fill="white" transform="translate(137.143 91.4286)"/>
</clipPath>
<clipPath id="clip68_191_2468">
<rect width="228.571" height="228.571" fill="white"/>
</clipPath>
<clipPath id="clip69_191_2468">
<rect width="228.571" height="228.571" fill="white"/>
</clipPath>
<clipPath id="clip70_191_2468">
<rect width="45.7143" height="45.7143" fill="white" transform="translate(182.857)"/>
</clipPath>
<clipPath id="clip71_191_2468">
<rect width="228.571" height="228.571" fill="white"/>
</clipPath>
<clipPath id="clip72_191_2468">
<rect width="228.571" height="228.571" fill="white"/>
</clipPath>
<clipPath id="clip73_191_2468">
<rect width="45.7143" height="45.7143" fill="white" transform="translate(182.857 91.4286)"/>
</clipPath>
<clipPath id="clip74_191_2468">
<rect width="228.571" height="228.571" fill="white"/>
</clipPath>
<clipPath id="clip75_191_2468">
<rect width="228.571" height="228.571" fill="white"/>
</clipPath>
<clipPath id="clip76_191_2468">
<rect width="45.7143" height="45.7143" fill="white" transform="translate(228.571 7.62939e-06)"/>
</clipPath>
<clipPath id="clip77_191_2468">
<rect width="228.571" height="228.571" fill="white" transform="translate(228.571 7.62939e-06)"/>
</clipPath>
<clipPath id="clip78_191_2468">
<rect width="228.571" height="228.571" fill="white" transform="translate(228.571 7.62939e-06)"/>
</clipPath>
<clipPath id="clip79_191_2468">
<rect width="45.7143" height="45.7143" fill="white" transform="translate(228.571 45.7143)"/>
</clipPath>
<clipPath id="clip80_191_2468">
<rect width="228.571" height="228.571" fill="white" transform="translate(228.571 -1.52588e-05)"/>
</clipPath>
<clipPath id="clip81_191_2468">
<rect width="228.571" height="228.571" fill="white" transform="translate(228.571 -1.52588e-05)"/>
</clipPath>
<clipPath id="clip82_191_2468">
<rect width="45.7143" height="45.7143" fill="white" transform="translate(228.571 91.4286)"/>
</clipPath>
<clipPath id="clip83_191_2468">
<rect width="228.571" height="228.571" fill="white" transform="translate(228.571)"/>
</clipPath>
<clipPath id="clip84_191_2468">
<rect width="228.571" height="228.571" fill="white" transform="translate(228.571)"/>
</clipPath>
<clipPath id="clip85_191_2468">
<rect width="45.7143" height="45.7143" fill="white" transform="translate(228.571 137.143)"/>
</clipPath>
<clipPath id="clip86_191_2468">
<rect width="228.571" height="228.571" fill="white" transform="translate(228.571 -1.52588e-05)"/>
</clipPath>
<clipPath id="clip87_191_2468">
<rect width="228.571" height="228.571" fill="white" transform="translate(228.571 -1.52588e-05)"/>
</clipPath>
<clipPath id="clip88_191_2468">
<rect width="45.7143" height="45.7143" fill="white" transform="translate(228.571 182.857)"/>
</clipPath>
<clipPath id="clip89_191_2468">
<rect width="228.571" height="228.571" fill="white" transform="translate(228.571 1.52588e-05)"/>
</clipPath>
<clipPath id="clip90_191_2468">
<rect width="228.571" height="228.571" fill="white" transform="translate(228.571 1.52588e-05)"/>
</clipPath>
<clipPath id="clip91_191_2468">
<rect width="45.7143" height="45.7143" fill="white" transform="translate(274.286 45.7143)"/>
</clipPath>
<clipPath id="clip92_191_2468">
<rect width="228.571" height="228.571" fill="white" transform="translate(228.571 -1.52588e-05)"/>
</clipPath>
<clipPath id="clip93_191_2468">
<rect width="228.571" height="228.571" fill="white" transform="translate(228.571 -1.52588e-05)"/>
</clipPath>
<clipPath id="clip94_191_2468">
<rect width="45.7143" height="45.7143" fill="white" transform="translate(274.286 7.62939e-06)"/>
</clipPath>
<clipPath id="clip95_191_2468">
<rect width="228.571" height="228.571" fill="white" transform="translate(228.571 1.52588e-05)"/>
</clipPath>
<clipPath id="clip96_191_2468">
<rect width="228.571" height="228.571" fill="white" transform="translate(228.571 1.52588e-05)"/>
</clipPath>
<clipPath id="clip97_191_2468">
<rect width="45.7143" height="45.7143" fill="white" transform="translate(274.286 137.143)"/>
</clipPath>
<clipPath id="clip98_191_2468">
<rect width="228.571" height="228.571" fill="white" transform="translate(228.571 -1.52588e-05)"/>
</clipPath>
<clipPath id="clip99_191_2468">
<rect width="228.571" height="228.571" fill="white" transform="translate(228.571 -1.52588e-05)"/>
</clipPath>
<clipPath id="clip100_191_2468">
<rect width="45.7143" height="45.7143" fill="white" transform="translate(274.286 182.857)"/>
</clipPath>
<clipPath id="clip101_191_2468">
<rect width="228.571" height="228.571" fill="white" transform="translate(228.571 1.52588e-05)"/>
</clipPath>
<clipPath id="clip102_191_2468">
<rect width="228.571" height="228.571" fill="white" transform="translate(228.571 1.52588e-05)"/>
</clipPath>
<clipPath id="clip103_191_2468">
<rect width="45.7143" height="45.7143" fill="white" transform="translate(274.286 91.4286)"/>
</clipPath>
<clipPath id="clip104_191_2468">
<rect width="228.571" height="228.571" fill="white" transform="translate(228.571)"/>
</clipPath>
<clipPath id="clip105_191_2468">
<rect width="228.571" height="228.571" fill="white" transform="translate(228.571)"/>
</clipPath>
</defs>
</svg>
