<svg width="320" height="640" viewBox="0 0 320 640" fill="none" xmlns="http://www.w3.org/2000/svg">
<g clip-path="url(#clip0_374_16325)">
<rect width="320" height="320" fill="black"/>
<g clip-path="url(#clip1_374_16325)">
<path d="M64.0003 79.6022V73.4493C54.2165 75.6293 44.8996 80.1081 36.629 88.3787C27.1067 97.901 24.1946 110.005 24.4423 122.843C24.4751 124.544 24.5636 126.264 24.7002 128H30.7191C30.57 126.219 30.4746 124.46 30.4412 122.727C30.2124 110.87 32.894 100.599 40.8717 92.6213C47.8452 85.6477 55.6431 81.6693 64.0003 79.6022Z" fill="#F6AE2D"/>
<path d="M50.0492 128H44.0461C43.656 115.238 45.4969 103.786 53.1979 96.562C56.234 93.7139 59.897 91.6607 64.0003 90.2123V96.6517C61.4149 97.7697 59.1724 99.1843 57.3028 100.938C51.5669 106.319 49.6474 115.487 50.0492 128Z" fill="#F6AE2D"/>
<path d="M16.9132 128C15.9414 121.654 15.0136 115.257 14.2278 108.883C12.5587 95.3453 13.075 85.5117 16.0369 78.3726C18.7926 71.7306 23.8119 67.0841 32.1536 64H19.6517C15.5784 67.1677 12.5382 71.1485 10.495 76.0733C6.92568 84.6764 6.56694 95.7803 8.27288 109.617C9.02819 115.744 9.91518 121.904 10.8437 128H16.9132Z" fill="#F6AE2D"/>
</g>
<path d="M30.7191 128H24.7003C25.5879 139.276 28.5097 151.211 31.4359 162.768C31.615 163.475 31.794 164.18 31.9727 164.885L31.9867 164.94C34.3747 174.351 36.6891 183.472 37.994 192H44.0588C42.7267 182.857 40.2759 173.205 37.8527 163.661C37.6522 162.872 37.4518 162.083 37.2523 161.295C34.3416 149.799 31.5979 138.501 30.7191 128Z" fill="#F45B69"/>
<path d="M58.234 192H52.2026C51.6692 186.796 50.9776 181.556 50.2183 176.335C49.6072 172.133 48.9496 167.931 48.299 163.773L48.2989 163.772C46.4299 151.829 44.6182 140.251 44.1285 130.085C44.0949 129.386 44.0672 128.691 44.0461 128H50.0493C50.0682 128.591 50.0924 129.19 50.1216 129.796C50.5945 139.614 52.331 150.714 54.1823 162.548C54.8429 166.771 55.5182 171.087 56.1558 175.472C56.9481 180.92 57.6785 186.455 58.234 192Z" fill="#F45B69"/>
<path d="M24.3889 192C24.4368 189.909 24.4169 187.756 24.3419 185.554C23.976 174.809 22.2695 162.392 20.2582 149.351C19.7578 146.107 19.2384 142.823 18.7146 139.511L18.7142 139.509C18.1123 135.703 17.5046 131.861 16.9133 128H10.8438C11.4859 132.216 12.1479 136.401 12.7999 140.524C13.3208 143.817 13.8354 147.07 14.3283 150.266C16.3403 163.311 17.993 175.41 18.3454 185.758C18.4196 187.939 18.4349 190.021 18.3863 192H24.3889Z" fill="#F45B69"/>
<path d="M44.0584 192H37.9937C38.4519 194.995 38.7857 197.917 38.9545 200.752C39.637 212.219 37.5789 221.678 30.6287 228.629C30.363 228.894 30.0901 229.168 29.8104 229.448L29.8098 229.449L29.8037 229.455C26.2229 233.044 21.5176 237.76 16.3377 241.708C10.6521 246.041 4.95615 249 0 249V255C7.04385 255 14.0979 250.959 19.9748 246.48C25.4948 242.273 30.4726 237.281 34.0236 233.721C34.316 233.427 34.5987 233.144 34.8713 232.871C43.5461 224.197 45.6755 212.687 44.9439 200.396C44.781 197.659 44.4742 194.854 44.0584 192Z" fill="#A6FFA1"/>
<path d="M48.0297 256H40.6417C47.6181 247.094 51.1544 236.346 52.551 224.501C53.7649 214.205 53.349 203.187 52.2022 192H58.2336C59.3606 203.25 59.7674 214.537 58.5097 225.203C57.2012 236.301 54.0777 246.835 48.0297 256Z" fill="#A6FFA1"/>
<path d="M0 223.999C4.73196 223.966 8.80028 222.992 12.1998 221.048C15.6745 219.062 18.262 216.169 20.1245 212.638C23.0226 207.144 24.2048 200.027 24.3885 192H18.3859C18.2018 199.492 17.1015 205.509 14.8175 209.839C13.4099 212.507 11.573 214.495 9.22169 215.839C6.90582 217.164 3.91087 217.966 0 217.999L0 223.999Z" fill="#A6FFA1"/>
<path d="M0 284V278C7.67218 278 13.0849 276.867 18.0582 274.508C23.1163 272.109 27.9098 268.358 34.2651 262.75C36.6545 260.642 38.7717 258.387 40.6417 256H48.0297C45.3644 260.039 42.1311 263.812 38.2349 267.25C31.8402 272.892 26.5087 277.141 20.6293 279.929C14.6651 282.758 8.32782 284 0 284Z" fill="#75F4F4"/>
<path d="M0 313V307C30.4502 307 51.7615 295.279 64 274.535V285.215C50.0398 303.228 28.4193 313 0 313Z" fill="#75F4F4"/>
<path d="M128 82.5164V76.4875C123.81 76.0847 119.494 75.5264 115.074 74.9239C113.933 74.7683 112.784 74.6095 111.629 74.4497C96.1129 72.3035 79.4725 70.0018 64 73.4493V79.6022C78.64 75.9812 94.9966 78.2258 111.646 80.5105C112.518 80.6302 113.391 80.7499 114.264 80.8689C118.846 81.4934 123.446 82.0936 128 82.5164Z" fill="#A6FFA1"/>
<path d="M64 96.6517V90.2122C69.8819 88.1359 76.6684 87.3023 83.8096 87.1515C95.839 86.8974 109.609 88.5826 123.167 90.2419L123.772 90.316C125.185 90.4888 126.594 90.661 128 90.8306V96.8743C126.345 96.6754 124.692 96.4733 123.044 96.2716L122.708 96.2306C108.944 94.5463 95.5325 92.9053 83.9363 93.1501C76.0247 93.3172 69.2935 94.3627 64 96.6517Z" fill="#A6FFA1"/>
<path d="M76.3223 128H69.9782C72.2199 120.758 76.3861 115.733 82.7639 112.671C90.6161 108.9 101.391 108.348 114.736 109.154C118.849 109.402 123.271 109.786 128 110.265V116.296C123.121 115.796 118.585 115.397 114.374 115.143C101.078 114.34 91.6964 115.037 85.3611 118.079C81.2469 120.055 78.2227 123.124 76.3223 128Z" fill="#A6FFA1"/>
<path d="M180.767 64H173.184C167.138 71.015 159.872 74.5344 151.747 76.0893C144.473 77.4814 136.496 77.3043 128 76.4876V82.5165C136.604 83.3154 145.043 83.4813 152.875 81.9824C163.675 79.9155 173.291 74.696 180.767 64Z" fill="#AE7FE9"/>
<path d="M128 96.8743V90.8307C140.403 92.3275 152.489 93.6245 163.163 93.3533C175.117 93.0496 184.626 90.7812 190.742 85.2711C191.17 84.8851 191.59 84.4958 192 84.1032V91.9193C184.428 97.2163 174.263 99.0732 163.315 99.3514C152.391 99.6289 140.159 98.3363 128 96.8743Z" fill="#AE7FE9"/>
<path d="M128 116.296L128 110.265C134.929 110.967 142.519 111.874 150.764 112.859C155.262 113.396 159.956 113.956 164.844 114.52C175.172 115.71 184.164 115.606 192 114.432V120.494C183.776 121.636 174.533 121.676 164.156 120.48C159.178 119.906 154.429 119.339 149.9 118.798L149.9 118.798C141.933 117.847 134.648 116.977 128 116.296Z" fill="#AE7FE9"/>
<path d="M71.8809 256C76.9577 238.596 77.8605 217.056 74.2305 192H80.2913C83.7469 216.467 83.0219 238.055 78.1168 256H71.8809Z" fill="#F6AE2D"/>
<path d="M97.1477 256C99.9203 240.096 99.1125 220.704 91.1368 195.144C90.8046 194.079 90.4904 193.031 90.1939 192H96.4485C96.5835 192.448 96.7222 192.9 96.8645 193.356C104.936 219.224 105.968 239.291 103.233 256H97.1477Z" fill="#F6AE2D"/>
<path d="M119.523 192C118.818 201.021 119.405 211.575 120.334 223.039C120.561 225.842 120.808 228.694 121.058 231.58C121.748 239.562 122.462 247.804 122.844 256H116.839C116.462 248.106 115.771 240.108 115.089 232.218L115.089 232.217L115.089 232.216C114.837 229.3 114.587 226.399 114.354 223.524C113.455 212.431 112.803 201.607 113.51 192H119.523Z" fill="#F6AE2D"/>
<g clip-path="url(#clip2_374_16325)">
<path d="M103.232 256H97.1471C96.3691 260.462 95.3093 264.65 94.0468 268.623C91.1478 277.744 87.151 285.823 82.8948 293.603C81.5307 296.097 80.1253 298.584 78.7196 301.072L78.7184 301.074L78.718 301.075C75.7902 306.257 72.8615 311.44 70.303 316.685C69.7381 317.843 69.2499 318.947 68.8391 320H75.3684C75.473 319.776 75.5821 319.548 75.6956 319.315C78.1762 314.23 80.9504 309.322 83.825 304.236L83.8258 304.234L83.8261 304.234C85.2535 301.708 86.7056 299.139 88.1587 296.483C92.4887 288.568 96.6951 280.099 99.765 270.44C101.21 265.893 102.397 261.103 103.232 256Z" fill="#AE7FE9"/>
<path d="M100.538 320H108.857C118.3 308.346 121.883 293.251 122.842 277.372C123.261 270.423 123.181 263.229 122.844 256H116.838C117.179 263.141 117.264 270.197 116.853 277.011C115.825 294.027 111.723 308.923 101.289 319.467C101.046 319.643 100.796 319.821 100.538 320Z" fill="#AE7FE9"/>
<path d="M128 298.874C126.708 304.861 124.847 311.017 122.228 317.354L121.134 320H127.626L127.773 319.646C127.849 319.461 127.925 319.276 128 319.092V298.874Z" fill="#AE7FE9"/>
<path d="M64 285.215C66.1336 282.462 68.0883 279.516 69.8609 276.384C73.331 270.252 76.0827 263.439 78.1161 256H71.8802C70.0206 262.375 67.601 268.194 64.6391 273.429C64.4289 273.8 64.2158 274.169 64 274.535L64 285.215Z" fill="#AE7FE9"/>
</g>
<g clip-path="url(#clip3_374_16325)">
<path d="M74.2303 192C73.6892 188.265 73.0475 184.452 72.3038 180.563C68.4831 160.583 67.0521 145.723 68.5036 134.891C68.837 132.402 69.3264 130.107 69.9786 128H76.3227C75.4729 130.18 74.8478 132.721 74.4504 135.687C73.1362 145.496 74.3928 159.542 78.197 179.437C79.0129 183.703 79.7109 187.892 80.2911 192H74.2303Z" fill="#75F4F4"/>
<path d="M90.1924 192C85.7894 176.687 85.3014 165.053 87.953 156.318C90.8443 146.794 97.3389 141.127 105.441 138.036C112.178 135.466 120.049 134.656 128 134.712V140.712C120.429 140.657 113.373 141.432 107.58 143.642C100.907 146.188 95.9586 150.602 93.6943 158.061C91.4335 165.508 91.7347 176.358 96.447 192H90.1924Z" fill="#75F4F4"/>
<path d="M128 168.524C125.303 171.185 123.337 174.621 121.952 178.8C120.663 182.686 119.903 187.119 119.522 192H113.508C113.912 186.515 114.759 181.427 116.256 176.911C118.353 170.587 121.777 165.204 127.169 161.438C127.442 161.248 127.719 161.062 128 160.881V168.524Z" fill="#75F4F4"/>
</g>
<path d="M192 84.1032C198.26 78.1129 202.425 71.3601 205.177 64H211.543C208.378 73.398 203.19 82.1321 194.758 89.7289C193.883 90.5171 192.962 91.246 192 91.9193V84.1032Z" fill="#F45B69"/>
<path d="M192 120.494V114.432C199.079 113.371 205.214 111.437 210.537 108.793C221.722 103.239 229.602 94.4188 235.164 83.3698C238.138 77.4626 240.437 70.9465 242.21 64H248.389C246.472 71.8825 243.919 79.323 240.523 86.0677C234.492 98.0499 225.762 107.933 213.205 114.167C207.03 117.234 199.996 119.384 192 120.494Z" fill="#F45B69"/>
<g clip-path="url(#clip4_374_16325)">
<path d="M192 41.9205V0C192 9.64427 191.93 17.7991 190.212 26.5337C188.502 35.2248 185.133 44.6106 178.389 56.522C176.776 59.3723 175.037 61.8503 173.184 64H180.767C181.753 62.5897 182.701 61.0841 183.611 59.478C187.238 53.0707 189.961 47.3024 192 41.9205Z" fill="#75F4F4"/>
<path d="M128 61.977C131.175 62.219 134.428 62.4739 137.761 62.7404C147.533 63.5222 155.037 60.9235 160.643 56.0891C166.163 51.3288 169.574 44.6341 171.712 37.6538C175.613 24.9203 175.545 10.2618 175.507 2.06192L175.507 2.05963C175.503 1.31819 175.5 0.629584 175.5 0H169.5C169.5 0.635606 169.503 1.318 169.505 2.04221L169.505 2.05181C169.538 10.3389 169.591 24.0939 165.975 35.8962C164.02 42.2784 161.072 47.7962 156.724 51.5453C152.463 55.2202 146.592 57.4278 138.239 56.7596C134.743 56.4798 131.33 56.2127 128 55.9596V61.977Z" fill="#75F4F4"/>
<path d="M128 44.4488C129.063 44.5426 130.139 44.6389 131.229 44.7377C141.751 45.6921 148.561 38.9706 152.522 30.6327C156.465 22.3339 158 11.7658 158 3V0H152V3C152 11.2342 150.535 20.8348 147.103 28.0578C143.689 35.2417 138.749 39.3952 131.771 38.7623C130.495 38.6466 129.239 38.5344 128 38.4256V44.4488Z" fill="#75F4F4"/>
</g>
<g clip-path="url(#clip5_374_16325)">
<path d="M146.987 192H138.766C131.277 200.996 128.593 210.974 128 221.648V232.456C128.175 236.4 128.502 240.419 128.857 244.501C128.945 245.514 129.035 246.532 129.126 247.556L129.126 247.558C129.372 250.33 129.621 253.144 129.843 256H135.864C135.634 253.003 135.374 250.075 135.12 247.217C135.023 246.128 134.927 245.049 134.834 243.981C132.963 222.477 132.397 205.831 146.987 192Z" fill="#AE7FE9"/>
<path d="M153.277 256H147.26C148.298 242.737 152.574 229.936 163.88 218.629C170.854 211.655 177.936 208.065 186.293 206.751C188.137 206.461 190.036 206.284 192 206.202V212.207C190.341 212.284 188.754 212.438 187.224 212.678C180.222 213.779 174.273 216.72 168.123 222.871C158.233 232.761 154.297 243.928 153.277 256Z" fill="#AE7FE9"/>
<path d="M178.343 256H171.675C172.081 255.073 172.524 254.157 173.008 253.254C176.362 246.985 181.537 241.501 189.214 236.923C190.151 236.364 191.08 235.837 192 235.338V242.249C185.365 246.264 181.095 250.894 178.343 256Z" fill="#AE7FE9"/>
</g>
<g clip-path="url(#clip6_374_16325)">
<path d="M128 298.876C131.31 283.533 130.875 269.302 129.843 256H135.864C137.285 274.515 137.545 295.661 128 319.093V298.876Z" fill="#F45B69"/>
<path d="M158.001 320H152.001C152.001 311.655 150.98 303.081 149.843 294.333C149.732 293.479 149.62 292.624 149.508 291.767C148.477 283.903 147.428 275.904 147.098 268.064C146.928 264.02 146.947 259.989 147.26 256H153.277C152.952 259.849 152.924 263.791 153.093 267.812C153.411 275.37 154.424 283.1 155.46 291.009L155.461 291.018C155.572 291.863 155.683 292.71 155.793 293.559C156.929 302.295 158.001 311.221 158.001 320Z" fill="#F45B69"/>
<path d="M175.5 320H169.5C169.5 312.703 168.981 305.59 168.473 298.631L168.472 298.624C168.407 297.726 168.341 296.831 168.277 295.938C167.721 288.185 167.264 280.598 167.747 273.475C168.161 267.362 169.274 261.477 171.675 256H178.343C178.328 256.028 178.313 256.056 178.298 256.085C175.492 261.33 174.182 267.256 173.733 273.881C173.282 280.533 173.704 287.731 174.262 295.508C174.326 296.395 174.391 297.289 174.457 298.19C174.964 305.128 175.5 312.469 175.5 320Z" fill="#F45B69"/>
<path d="M192 295.413V319.561C191.992 318.149 191.95 316.45 191.901 314.539C191.769 309.275 191.596 302.395 192 295.413Z" fill="#F45B69"/>
</g>
<path d="M259.164 128C259.315 127.751 259.463 127.499 259.608 127.244C264.892 117.951 266.741 103.644 262.308 81.8479C261.041 75.6203 260.235 69.6681 259.835 64H265.85C266.241 69.2735 267.002 74.8258 268.187 80.6521C272.46 101.658 271.317 117.02 265.986 128H259.164Z" fill="#75F4F4"/>
<path d="M311.6 128H305.588C305.283 123.397 304.58 117.657 303.794 111.249L303.662 110.169C302.57 101.256 301.381 91.2852 301.063 81.9774C300.847 75.6549 301.023 69.4539 301.98 64H308.083C307.083 68.9805 306.831 75.0729 307.059 81.7727C307.367 90.7774 308.521 100.494 309.617 109.44C309.672 109.891 309.727 110.34 309.782 110.788C310.56 117.125 311.294 123.106 311.6 128Z" fill="#75F4F4"/>
<path d="M295.254 64C294.995 66.9163 294.77 69.9145 294.561 72.9753C294.365 75.8455 294.183 78.7668 294 81.716L294 81.7167L293.999 81.7173L293.999 81.7197L293.999 81.7203C293.238 93.9594 292.446 106.678 290.48 118.215C289.911 121.552 289.238 124.829 288.428 128H282.221C283.149 124.608 283.919 120.998 284.565 117.207C286.472 106.018 287.239 93.7136 288 81.4998C288.187 78.5108 288.373 75.5267 288.575 72.5663C288.772 69.6859 288.984 66.8226 289.229 64H295.254Z" fill="#75F4F4"/>
<g clip-path="url(#clip7_374_16325)">
<path d="M128 134.712C129.439 134.722 130.881 134.76 132.319 134.822C141.21 135.202 150.251 136.482 158.049 137.586L158.08 137.59C158.53 137.654 158.976 137.717 159.418 137.779C163.813 138.4 168.481 139.175 173.363 139.985L173.363 139.985C179.295 140.97 185.541 142.006 192 142.883V148.936C185.175 148.024 178.374 146.898 172.062 145.853C167.208 145.05 162.643 144.294 158.579 143.721C158.164 143.662 157.747 143.603 157.326 143.543L157.277 143.536C149.423 142.425 140.649 141.183 132.062 140.816C130.695 140.758 129.339 140.722 128 140.712V134.712Z" fill="#F45B69"/>
<path d="M146.987 192H138.765C140.018 190.495 141.406 189.017 142.94 187.569C155.834 175.396 169.41 172.143 182.743 173.618C185.852 173.961 188.942 174.562 192 175.358V181.574C188.7 180.638 185.392 179.947 182.083 179.581C170.4 178.289 158.6 181.036 147.059 191.931C147.035 191.954 147.011 191.977 146.987 192Z" fill="#F45B69"/>
<path d="M192 168.458C190.408 168.116 188.819 167.77 187.234 167.424L187.233 167.424C184.674 166.866 182.127 166.311 179.6 165.781C169.01 163.56 158.65 161.75 148.498 161.75C140.424 161.75 134.702 163.496 130.604 166.358C129.668 167.011 128.802 167.733 128 168.524V160.88C133.263 157.493 140.025 155.75 148.498 155.75C159.306 155.75 170.175 157.674 180.832 159.909C183.466 160.461 186.081 161.031 188.681 161.598L188.682 161.598C189.791 161.839 190.897 162.08 192 162.319V168.458Z" fill="#F45B69"/>
</g>
<path d="M256 199.027V193.005C248.762 193.647 241.636 193.171 235.339 192H216.575C216.838 192.136 217.101 192.273 217.363 192.41C226.172 197.006 240.825 200.268 256 199.027Z" fill="#75F4F4"/>
<path d="M192 212.207V206.202C198.746 205.921 206.256 206.769 214.943 208.064C218.395 208.578 222.062 209.168 225.98 209.799L225.981 209.799C234.635 211.192 244.511 212.781 256 214.188V220.232C244.053 218.787 233.847 217.144 224.994 215.718L224.992 215.718C221.097 215.091 217.463 214.506 214.058 213.998C205.228 212.682 198.124 211.921 192 212.207Z" fill="#75F4F4"/>
<path d="M192 242.249V235.338C201.382 230.261 209.925 228.283 218.38 228.328C227.569 228.378 236.47 230.823 245.899 233.898C248.223 234.656 250.591 235.455 253.017 236.275C254.001 236.608 254.995 236.943 256 237.281V243.612C254.318 243.051 252.673 242.495 251.062 241.95C248.651 241.134 246.314 240.344 244.039 239.602C234.687 236.552 226.541 234.372 218.348 234.328C210.249 234.284 201.922 236.332 192.287 242.077C192.191 242.134 192.095 242.192 192 242.249Z" fill="#75F4F4"/>
<g clip-path="url(#clip8_374_16325)">
<path d="M197.999 320H192V295.371C192.095 293.733 192.223 292.089 192.39 290.46C192.977 284.729 194.07 278.952 196.085 273.967C198.1 268.983 201.137 264.55 205.755 261.898C221.233 253.013 238.36 256.728 256 262.447V268.761C237.555 262.664 222.227 259.361 208.743 267.102C205.694 268.852 203.367 271.962 201.648 276.216C199.929 280.468 198.917 285.623 198.358 291.072C197.522 299.234 197.73 307.564 197.892 314.04C197.948 316.275 197.999 318.29 197.999 320Z" fill="#F6AE2D"/>
<path d="M215.998 320H209.998C209.998 311.264 212.698 299.872 217.686 291.35C220.185 287.081 223.393 283.3 227.361 281.033C231.444 278.7 236.183 278.069 241.279 279.932C249.975 283.113 252.97 290.94 253.932 298.542C254.416 302.372 254.421 306.357 254.317 310.039C254.275 311.523 254.217 312.924 254.162 314.254C254.077 316.331 253.998 318.232 253.998 320L247.998 320C247.998 318.136 248.085 315.994 248.175 313.801L248.175 313.8C248.228 312.492 248.282 311.165 248.319 309.869C248.421 306.277 248.405 302.659 247.979 299.295C247.121 292.51 244.741 287.587 239.218 285.567C235.85 284.335 232.95 284.75 230.337 286.243C227.609 287.802 225.062 290.626 222.865 294.381C218.46 301.907 215.998 312.236 215.998 320Z" fill="#F6AE2D"/>
</g>
<path d="M198 0H192V41.9205C193.898 36.9107 195.205 32.2356 196.099 27.6916C197.944 18.3094 198 9.60573 198 0Z" fill="#A6FFA1"/>
<path d="M211.543 64H205.177C207.162 58.6916 208.412 53.0673 209.183 47.1854C210.592 36.4278 210.382 25.0841 210.164 13.3201C210.082 8.93561 210 4.49262 210 0H216C216 4.22362 216.079 8.50161 216.159 12.7927C216.381 24.7096 216.604 36.728 215.132 47.9648C214.412 53.4582 213.284 58.8296 211.543 64Z" fill="#A6FFA1"/>
<path d="M248.389 64H242.21C247.132 44.7137 248 22.1088 248 0H254C254 21.4304 253.221 44.1208 248.389 64Z" fill="#A6FFA1"/>
<path d="M281.334 192H263.124C260.754 192.465 258.371 192.795 256 193.005V199.027C261.811 198.551 267.698 197.416 273.363 195.442C276.077 194.496 278.746 193.355 281.334 192Z" fill="#F45B69"/>
<path d="M256 220.232V214.188C273.257 216.3 294.151 218 320 218V224C294.234 224 273.293 222.323 256 220.232Z" fill="#F45B69"/>
<path d="M256 243.612V237.281C272.677 242.885 292.347 249 320 249V255C292.464 255 272.435 249.09 256 243.612Z" fill="#F45B69"/>
<g clip-path="url(#clip9_374_16325)">
<path d="M256 268.761V262.447C256.977 262.764 257.956 263.087 258.936 263.414C261.664 264.325 264.413 265.274 267.185 266.23C283.779 271.956 301.204 277.967 319.997 277.968H320V283.968H319.997C300.111 283.967 281.625 277.576 265.076 271.854C262.342 270.909 259.661 269.982 257.035 269.105C256.689 268.99 256.344 268.875 256 268.761Z" fill="#A6FFA1"/>
<path d="M287.207 320H278.532C286.299 311.624 295.311 307 303.248 307H320V313H303.248C298.622 313 292.861 315.292 287.207 320Z" fill="#A6FFA1"/>
</g>
<g clip-path="url(#clip10_374_16325)">
<path d="M192 142.883C193.463 143.082 194.938 143.272 196.421 143.451C209.696 145.058 222.96 145.682 234.239 143.493C243.191 141.754 250.684 138.293 256 132.299V140.53C250.194 145.136 243.081 147.888 235.383 149.383C223.162 151.755 209.145 151.035 195.7 149.408C194.468 149.259 193.234 149.101 192 148.936V142.883Z" fill="#A6FFA1"/>
<path d="M192 181.574V175.358C201.845 177.921 211.359 182.511 220.136 187.09C224.019 189.116 229.297 190.877 235.337 192H216.573C208.525 187.824 200.291 183.926 192 181.574Z" fill="#A6FFA1"/>
<path d="M256 167.238C241.52 173.948 226.522 174.131 211.584 172.079C205.082 171.186 198.515 169.858 192 168.458V162.319C198.872 163.806 205.648 165.208 212.4 166.135C227.529 168.213 242.095 167.845 256 160.544V167.238Z" fill="#A6FFA1"/>
</g>
<path d="M265.85 64C264.297 43.0717 268.562 26.5339 275.23 14.6863C278.733 8.46187 282.859 3.5803 287.134 0L278.477 0C275.386 3.34726 272.515 7.27689 270.001 11.7434C262.737 24.6512 258.297 42.2309 259.835 64H265.85Z" fill="#F6AE2D"/>
<path d="M289.23 64H295.254C296.261 52.64 297.774 42.5228 300.809 34.7914C302.697 29.9813 305.095 26.3124 308.134 23.8479C311.12 21.4264 314.927 20 319.997 20H320V14H319.997C313.692 14 308.513 15.8149 304.354 19.1879C300.249 22.5179 297.344 27.1967 295.223 32.5992C291.835 41.232 290.249 52.2641 289.23 64Z" fill="#F6AE2D"/>
<path d="M319.999 45C315.954 45 312.522 46.1607 309.749 48.3726C307.02 50.5502 305.134 53.5819 303.835 57.0065C303.026 59.1388 302.42 61.4903 301.98 64H308.083C308.439 62.2301 308.889 60.6006 309.445 59.1342C310.49 56.3791 311.846 54.3756 313.491 53.0629C315.094 51.7846 317.169 51 319.999 51V45Z" fill="#F6AE2D"/>
<path d="M256 132.299C257.161 130.99 258.219 129.56 259.165 128H265.987C265.62 128.757 265.232 129.493 264.825 130.209C262.448 134.39 259.455 137.789 256 140.53V132.299Z" fill="#AE7FE9"/>
<path d="M281.332 192H263.122C265.908 191.453 268.677 190.72 271.386 189.776C280.69 186.534 289.219 180.835 295.443 171.726C301.673 162.611 305.748 149.855 305.748 132.25C305.748 130.975 305.691 129.552 305.588 128H311.599C311.695 129.53 311.748 130.954 311.748 132.25C311.748 150.79 307.448 164.794 300.397 175.112C295.197 182.721 288.583 188.203 281.332 192Z" fill="#AE7FE9"/>
<path d="M288.429 128C285.774 138.389 281.64 147.644 274.822 154.168C268.682 160.042 262.392 164.276 256 167.238V160.544C260.977 157.931 265.87 154.429 270.674 149.832C276.099 144.641 279.73 137.111 282.222 128H288.429Z" fill="#AE7FE9"/>
<path d="M64 26.4267V20.4028C67.4 20.7149 70.7195 20.9472 73.9525 21.0645C84.9686 21.464 94.6441 20.5047 102.739 16.9904C109.973 13.8494 116.128 8.58851 120.861 0H127.608C122.134 11.3661 114.467 18.4398 105.128 22.494C95.8402 26.5265 85.1252 27.4735 73.735 27.0605C70.563 26.9455 67.3125 26.7233 64 26.4267Z" fill="#F45B69"/>
<path d="M64 41.7056V35.7005C77.4266 35.1231 96.9642 35.6997 128 38.4256V44.4488C96.5051 41.6698 77.0722 41.126 64 41.7056Z" fill="#F45B69"/>
<path d="M64 59.301V53.2983C66.7018 53.2252 69.5105 53.1934 72.4279 53.1993C87.6408 53.23 106.028 54.2895 128 55.9596V61.977C105.867 60.2902 87.5126 59.2298 72.4158 59.1993C69.4809 59.1934 66.6772 59.2265 64 59.301Z" fill="#F45B69"/>
<path d="M108.855 0C107.772 1.33706 106.611 2.62883 105.369 3.87131L105.208 4.03259L105.024 4.16763C101.772 6.55661 97.4185 9.08417 92.9154 11.1476C88.439 13.1988 83.6102 14.8861 79.4288 15.4482C77.3424 15.7288 75.2301 15.756 73.3346 15.2796C71.3867 14.7901 69.5291 13.7224 68.3627 11.766C67.2281 9.8631 67.0176 7.56796 67.3838 5.14481C67.6187 3.59068 68.1049 1.87827 68.8379 0H75.3672C74.1575 2.58711 73.5391 4.56852 73.3164 6.0415C73.0743 7.64377 73.3344 8.38846 73.5162 8.69336C73.6661 8.94482 73.9706 9.2529 74.7971 9.4606C75.6759 9.68149 76.9502 9.72751 78.6294 9.50174C81.9792 9.05139 86.1971 7.62619 90.4159 5.69299C94.1703 3.97264 97.7627 1.92521 100.536 0H108.855Z" fill="#F45B69"/>
<path d="M0 14.0065C12.9585 14.118 25.8414 15.649 38.0961 17.2519C39.6464 17.4546 41.1854 17.6584 42.7126 17.8605L42.7133 17.8606C50.0987 18.8382 57.21 19.7795 64 20.4028V26.4267C56.8717 25.7886 49.4561 24.8064 41.9166 23.8078L41.9154 23.8076C40.3875 23.6052 38.8546 23.4022 37.318 23.2012C25.0879 21.6016 12.5379 20.1181 0 20.0067V14.0065Z" fill="#AE7FE9"/>
<path d="M19.6514 64C22.8742 61.4937 26.7437 59.4965 31.2778 57.9433C39.702 55.0577 50.5226 53.6632 64 53.2983V59.301C50.8868 59.6656 40.8101 61.0204 33.2222 63.6196C32.8599 63.7436 32.5037 63.8704 32.1533 64H19.6514Z" fill="#AE7FE9"/>
<path d="M0 51V45C19.0394 45 26.4914 42.838 34.4348 40.5335C37.1547 39.7444 39.9323 38.9386 43.2524 38.1971C48.4514 37.036 54.7871 36.0966 64 35.7005V41.7056C55.2318 42.0944 49.3253 42.9887 44.5601 44.0529C41.5682 44.721 38.9523 45.4805 36.3156 46.246C28.2263 48.5946 19.9414 51 0 51Z" fill="#AE7FE9"/>
</g>
<g clip-path="url(#clip11_374_16325)">
<rect width="320" height="320" transform="translate(0 320)" fill="black"/>
<g clip-path="url(#clip12_374_16325)">
<path d="M64.0003 399.602V393.449C54.2165 395.629 44.8996 400.108 36.629 408.379C27.1067 417.901 24.1946 430.005 24.4423 442.843C24.4751 444.544 24.5636 446.264 24.7002 448H30.7191C30.57 446.219 30.4746 444.46 30.4412 442.727C30.2124 430.87 32.894 420.599 40.8717 412.621C47.8452 405.648 55.6431 401.669 64.0003 399.602Z" fill="#F6AE2D"/>
<path d="M50.0492 448H44.0461C43.656 435.238 45.4969 423.786 53.1979 416.562C56.234 413.714 59.897 411.661 64.0003 410.212V416.652C61.4149 417.77 59.1724 419.184 57.3028 420.938C51.5669 426.319 49.6474 435.487 50.0492 448Z" fill="#F6AE2D"/>
<path d="M16.9132 448C15.9414 441.654 15.0136 435.257 14.2278 428.883C12.5587 415.345 13.075 405.512 16.0369 398.373C18.7926 391.731 23.8119 387.084 32.1536 384H19.6517C15.5784 387.168 12.5382 391.149 10.495 396.073C6.92568 404.676 6.56694 415.78 8.27288 429.617C9.02819 435.744 9.91518 441.904 10.8437 448H16.9132Z" fill="#F6AE2D"/>
</g>
<path d="M30.7191 448H24.7003C25.5879 459.276 28.5097 471.211 31.4359 482.768C31.615 483.475 31.794 484.18 31.9727 484.885L31.9867 484.94C34.3747 494.351 36.6891 503.472 37.994 512H44.0588C42.7267 502.857 40.2759 493.205 37.8527 483.661C37.6522 482.872 37.4518 482.083 37.2523 481.295C34.3416 469.799 31.5979 458.501 30.7191 448Z" fill="#F45B69"/>
<path d="M58.234 512H52.2026C51.6692 506.796 50.9776 501.556 50.2183 496.335C49.6072 492.133 48.9496 487.931 48.299 483.773L48.2989 483.772C46.4299 471.829 44.6182 460.251 44.1285 450.085C44.0949 449.386 44.0672 448.691 44.0461 448H50.0493C50.0682 448.591 50.0924 449.19 50.1216 449.796C50.5945 459.614 52.331 470.714 54.1823 482.548C54.8429 486.771 55.5182 491.087 56.1558 495.472C56.9481 500.92 57.6785 506.455 58.234 512Z" fill="#F45B69"/>
<path d="M24.3889 512C24.4368 509.909 24.4169 507.756 24.3419 505.554C23.976 494.809 22.2695 482.392 20.2582 469.351C19.7578 466.107 19.2384 462.823 18.7146 459.511L18.7142 459.509C18.1123 455.703 17.5046 451.861 16.9133 448H10.8438C11.4859 452.216 12.1479 456.401 12.7999 460.524C13.3208 463.817 13.8354 467.07 14.3283 470.266C16.3403 483.311 17.993 495.41 18.3454 505.758C18.4196 507.939 18.4349 510.021 18.3863 512H24.3889Z" fill="#F45B69"/>
<path d="M44.0584 512H37.9937C38.4519 514.995 38.7857 517.917 38.9545 520.752C39.637 532.219 37.5789 541.678 30.6287 548.629C30.363 548.894 30.0901 549.168 29.8104 549.448L29.8098 549.449L29.8037 549.455C26.2229 553.044 21.5176 557.76 16.3377 561.708C10.6521 566.041 4.95615 569 0 569V575C7.04385 575 14.0979 570.959 19.9748 566.48C25.4948 562.273 30.4726 557.281 34.0236 553.721C34.316 553.427 34.5987 553.144 34.8713 552.871C43.5461 544.197 45.6755 532.687 44.9439 520.396C44.781 517.659 44.4742 514.854 44.0584 512Z" fill="#A6FFA1"/>
<path d="M48.0297 576H40.6417C47.6181 567.094 51.1544 556.346 52.551 544.501C53.7649 534.205 53.349 523.187 52.2022 512H58.2336C59.3606 523.25 59.7674 534.537 58.5097 545.203C57.2012 556.301 54.0777 566.835 48.0297 576Z" fill="#A6FFA1"/>
<path d="M0 543.999C4.73196 543.966 8.80028 542.992 12.1998 541.048C15.6745 539.062 18.262 536.169 20.1245 532.638C23.0226 527.144 24.2048 520.027 24.3885 512H18.3859C18.2018 519.492 17.1015 525.509 14.8175 529.839C13.4099 532.507 11.573 534.495 9.22169 535.839C6.90582 537.164 3.91087 537.966 0 537.999L0 543.999Z" fill="#A6FFA1"/>
<path d="M0 604V598C7.67218 598 13.0849 596.867 18.0582 594.508C23.1163 592.109 27.9098 588.358 34.2651 582.75C36.6545 580.642 38.7717 578.387 40.6417 576H48.0297C45.3644 580.039 42.1311 583.812 38.2349 587.25C31.8402 592.892 26.5087 597.141 20.6293 599.929C14.6651 602.758 8.32782 604 0 604Z" fill="#75F4F4"/>
<path d="M0 633V627C30.4502 627 51.7615 615.279 64 594.535V605.215C50.0398 623.228 28.4193 633 0 633Z" fill="#75F4F4"/>
<path d="M128 402.516V396.488C123.81 396.085 119.494 395.526 115.074 394.924C113.933 394.768 112.784 394.609 111.629 394.45C96.1129 392.303 79.4725 390.002 64 393.449V399.602C78.64 395.981 94.9966 398.226 111.646 400.511C112.518 400.63 113.391 400.75 114.264 400.869C118.846 401.493 123.446 402.094 128 402.516Z" fill="#A6FFA1"/>
<path d="M64 416.652V410.212C69.8819 408.136 76.6684 407.302 83.8096 407.151C95.839 406.897 109.609 408.583 123.167 410.242L123.772 410.316C125.185 410.489 126.594 410.661 128 410.831V416.874C126.345 416.675 124.692 416.473 123.044 416.272L122.708 416.231C108.944 414.546 95.5325 412.905 83.9363 413.15C76.0247 413.317 69.2935 414.363 64 416.652Z" fill="#A6FFA1"/>
<path d="M76.3223 448H69.9782C72.2199 440.758 76.3861 435.733 82.7639 432.671C90.6161 428.9 101.391 428.348 114.736 429.154C118.849 429.402 123.271 429.786 128 430.265V436.296C123.121 435.796 118.585 435.397 114.374 435.143C101.078 434.34 91.6964 435.037 85.3611 438.079C81.2469 440.055 78.2227 443.124 76.3223 448Z" fill="#A6FFA1"/>
<path d="M180.767 384H173.184C167.138 391.015 159.872 394.534 151.747 396.089C144.473 397.481 136.496 397.304 128 396.488V402.516C136.604 403.315 145.043 403.481 152.875 401.982C163.675 399.915 173.291 394.696 180.767 384Z" fill="#AE7FE9"/>
<path d="M128 416.874V410.831C140.403 412.327 152.489 413.624 163.163 413.353C175.117 413.05 184.626 410.781 190.742 405.271C191.17 404.885 191.59 404.496 192 404.103V411.919C184.428 417.216 174.263 419.073 163.315 419.351C152.391 419.629 140.159 418.336 128 416.874Z" fill="#AE7FE9"/>
<path d="M128 436.296L128 430.265C134.929 430.967 142.519 431.874 150.764 432.859C155.262 433.396 159.956 433.956 164.844 434.52C175.172 435.71 184.164 435.606 192 434.432V440.494C183.776 441.636 174.533 441.676 164.156 440.48C159.178 439.906 154.429 439.339 149.9 438.798L149.9 438.798C141.933 437.847 134.648 436.977 128 436.296Z" fill="#AE7FE9"/>
<path d="M71.8809 576C76.9577 558.596 77.8605 537.056 74.2305 512H80.2913C83.7469 536.467 83.0219 558.055 78.1168 576H71.8809Z" fill="#F6AE2D"/>
<path d="M97.1477 576C99.9203 560.096 99.1125 540.704 91.1368 515.144C90.8046 514.079 90.4904 513.031 90.1939 512H96.4485C96.5835 512.448 96.7222 512.9 96.8645 513.356C104.936 539.224 105.968 559.291 103.233 576H97.1477Z" fill="#F6AE2D"/>
<path d="M119.523 512C118.818 521.021 119.405 531.575 120.334 543.039C120.561 545.842 120.808 548.694 121.058 551.58C121.748 559.562 122.462 567.804 122.844 576H116.839C116.462 568.106 115.771 560.108 115.089 552.218L115.089 552.217L115.089 552.216C114.837 549.3 114.587 546.399 114.354 543.524C113.455 532.431 112.803 521.607 113.51 512H119.523Z" fill="#F6AE2D"/>
<g clip-path="url(#clip13_374_16325)">
<path d="M103.232 576H97.1471C96.3691 580.462 95.3093 584.65 94.0468 588.623C91.1478 597.744 87.151 605.823 82.8948 613.603C81.5307 616.097 80.1253 618.584 78.7196 621.072L78.7184 621.074L78.718 621.075C75.7902 626.257 72.8615 631.44 70.303 636.685C69.7381 637.843 69.2499 638.947 68.8391 640H75.3684C75.473 639.776 75.5821 639.548 75.6956 639.315C78.1762 634.23 80.9504 629.322 83.825 624.236L83.8258 624.234L83.8261 624.234C85.2535 621.708 86.7056 619.139 88.1587 616.483C92.4887 608.568 96.6951 600.099 99.765 590.44C101.21 585.893 102.397 581.103 103.232 576Z" fill="#AE7FE9"/>
<path d="M100.538 640H108.857C118.3 628.346 121.883 613.251 122.842 597.372C123.261 590.423 123.181 583.229 122.844 576H116.838C117.179 583.141 117.264 590.197 116.853 597.011C115.825 614.027 111.723 628.923 101.289 639.467C101.046 639.643 100.796 639.821 100.538 640Z" fill="#AE7FE9"/>
<path d="M128 618.874C126.708 624.861 124.847 631.017 122.228 637.354L121.134 640H127.626L127.773 639.646C127.849 639.461 127.925 639.276 128 639.092V618.874Z" fill="#AE7FE9"/>
<path d="M64 605.215C66.1336 602.462 68.0883 599.516 69.8609 596.384C73.331 590.252 76.0827 583.439 78.1161 576H71.8802C70.0206 582.375 67.601 588.194 64.6391 593.429C64.4289 593.8 64.2158 594.169 64 594.535L64 605.215Z" fill="#AE7FE9"/>
</g>
<g clip-path="url(#clip14_374_16325)">
<path d="M74.2303 512C73.6892 508.265 73.0475 504.452 72.3038 500.563C68.4831 480.583 67.0521 465.723 68.5036 454.891C68.837 452.402 69.3264 450.107 69.9786 448H76.3227C75.4729 450.18 74.8478 452.721 74.4504 455.687C73.1362 465.496 74.3928 479.542 78.197 499.437C79.0129 503.703 79.7109 507.892 80.2911 512H74.2303Z" fill="#75F4F4"/>
<path d="M90.1924 512C85.7894 496.687 85.3014 485.053 87.953 476.318C90.8443 466.794 97.3389 461.127 105.441 458.036C112.178 455.466 120.049 454.656 128 454.712V460.712C120.429 460.657 113.373 461.432 107.58 463.642C100.907 466.188 95.9586 470.602 93.6943 478.061C91.4335 485.508 91.7347 496.358 96.447 512H90.1924Z" fill="#75F4F4"/>
<path d="M128 488.524C125.303 491.185 123.337 494.621 121.952 498.8C120.663 502.686 119.903 507.119 119.522 512H113.508C113.912 506.515 114.759 501.427 116.256 496.911C118.353 490.587 121.777 485.204 127.169 481.438C127.442 481.248 127.719 481.062 128 480.881V488.524Z" fill="#75F4F4"/>
</g>
<path d="M192 404.103C198.26 398.113 202.425 391.36 205.177 384H211.543C208.378 393.398 203.19 402.132 194.758 409.729C193.883 410.517 192.962 411.246 192 411.919V404.103Z" fill="#F45B69"/>
<path d="M192 440.494V434.432C199.079 433.371 205.214 431.437 210.537 428.793C221.722 423.239 229.602 414.419 235.164 403.37C238.138 397.463 240.437 390.947 242.21 384H248.389C246.472 391.883 243.919 399.323 240.523 406.068C234.492 418.05 225.762 427.933 213.205 434.167C207.03 437.234 199.996 439.384 192 440.494Z" fill="#F45B69"/>
<g clip-path="url(#clip15_374_16325)">
<path d="M192 361.92V320C192 329.644 191.93 337.799 190.212 346.534C188.502 355.225 185.133 364.611 178.389 376.522C176.776 379.372 175.037 381.85 173.184 384H180.767C181.753 382.59 182.701 381.084 183.611 379.478C187.238 373.071 189.961 367.302 192 361.92Z" fill="#75F4F4"/>
<path d="M128 381.977C131.175 382.219 134.428 382.474 137.761 382.74C147.533 383.522 155.037 380.924 160.643 376.089C166.163 371.329 169.574 364.634 171.712 357.654C175.613 344.92 175.545 330.262 175.507 322.062L175.507 322.06C175.503 321.318 175.5 320.63 175.5 320H169.5C169.5 320.636 169.503 321.318 169.505 322.042L169.505 322.052C169.538 330.339 169.591 344.094 165.975 355.896C164.02 362.278 161.072 367.796 156.724 371.545C152.463 375.22 146.592 377.428 138.239 376.76C134.743 376.48 131.33 376.213 128 375.96V381.977Z" fill="#75F4F4"/>
<path d="M128 364.449C129.063 364.543 130.139 364.639 131.229 364.738C141.751 365.692 148.561 358.971 152.522 350.633C156.465 342.334 158 331.766 158 323V320H152V323C152 331.234 150.535 340.835 147.103 348.058C143.689 355.242 138.749 359.395 131.771 358.762C130.495 358.647 129.239 358.534 128 358.426V364.449Z" fill="#75F4F4"/>
</g>
<g clip-path="url(#clip16_374_16325)">
<path d="M146.987 512H138.766C131.277 520.996 128.593 530.974 128 541.648V552.456C128.175 556.4 128.502 560.419 128.857 564.501C128.945 565.514 129.035 566.532 129.126 567.556L129.126 567.558C129.372 570.33 129.621 573.144 129.843 576H135.864C135.634 573.003 135.374 570.075 135.12 567.217C135.023 566.128 134.927 565.049 134.834 563.981C132.963 542.477 132.397 525.831 146.987 512Z" fill="#AE7FE9"/>
<path d="M153.277 576H147.26C148.298 562.737 152.574 549.936 163.88 538.629C170.854 531.655 177.936 528.065 186.293 526.751C188.137 526.461 190.036 526.284 192 526.202V532.207C190.341 532.284 188.754 532.438 187.224 532.678C180.222 533.779 174.273 536.72 168.123 542.871C158.233 552.761 154.297 563.928 153.277 576Z" fill="#AE7FE9"/>
<path d="M178.343 576H171.675C172.081 575.073 172.524 574.157 173.008 573.254C176.362 566.985 181.537 561.501 189.214 556.923C190.151 556.364 191.08 555.837 192 555.338V562.249C185.365 566.264 181.095 570.894 178.343 576Z" fill="#AE7FE9"/>
</g>
<g clip-path="url(#clip17_374_16325)">
<path d="M128 618.876C131.31 603.533 130.875 589.302 129.843 576H135.864C137.285 594.515 137.545 615.661 128 639.093V618.876Z" fill="#F45B69"/>
<path d="M158.001 640H152.001C152.001 631.655 150.98 623.081 149.843 614.333C149.732 613.479 149.62 612.624 149.508 611.767C148.477 603.903 147.428 595.904 147.098 588.064C146.928 584.02 146.947 579.989 147.26 576H153.277C152.952 579.849 152.924 583.791 153.093 587.812C153.411 595.37 154.424 603.1 155.46 611.009L155.461 611.018C155.572 611.863 155.683 612.71 155.793 613.559C156.929 622.295 158.001 631.221 158.001 640Z" fill="#F45B69"/>
<path d="M175.5 640H169.5C169.5 632.703 168.981 625.59 168.473 618.631L168.472 618.624C168.407 617.726 168.341 616.831 168.277 615.938C167.721 608.185 167.264 600.598 167.747 593.475C168.161 587.362 169.274 581.477 171.675 576H178.343C178.328 576.028 178.313 576.056 178.298 576.085C175.492 581.33 174.182 587.256 173.733 593.881C173.282 600.533 173.704 607.731 174.262 615.508C174.326 616.395 174.391 617.289 174.457 618.19C174.964 625.128 175.5 632.469 175.5 640Z" fill="#F45B69"/>
<path d="M192 615.413V639.561C191.992 638.149 191.95 636.45 191.901 634.539C191.769 629.275 191.596 622.395 192 615.413Z" fill="#F45B69"/>
</g>
<path d="M259.164 448C259.315 447.751 259.463 447.499 259.608 447.244C264.892 437.951 266.741 423.644 262.308 401.848C261.041 395.62 260.235 389.668 259.835 384H265.85C266.241 389.274 267.002 394.826 268.187 400.652C272.46 421.658 271.317 437.02 265.986 448H259.164Z" fill="#75F4F4"/>
<path d="M311.6 448H305.588C305.283 443.397 304.58 437.657 303.794 431.249L303.662 430.169C302.57 421.256 301.381 411.285 301.063 401.977C300.847 395.655 301.023 389.454 301.98 384H308.083C307.083 388.981 306.831 395.073 307.059 401.773C307.367 410.777 308.521 420.494 309.617 429.44C309.672 429.891 309.727 430.34 309.782 430.788C310.56 437.125 311.294 443.106 311.6 448Z" fill="#75F4F4"/>
<path d="M295.254 384C294.995 386.916 294.77 389.914 294.561 392.975C294.365 395.845 294.183 398.767 294 401.716L294 401.717L293.999 401.717L293.999 401.72L293.999 401.72C293.238 413.959 292.446 426.678 290.48 438.215C289.911 441.552 289.238 444.829 288.428 448H282.221C283.149 444.608 283.919 440.998 284.565 437.207C286.472 426.018 287.239 413.714 288 401.5C288.187 398.511 288.373 395.527 288.575 392.566C288.772 389.686 288.984 386.823 289.229 384H295.254Z" fill="#75F4F4"/>
<g clip-path="url(#clip18_374_16325)">
<path d="M128 454.712C129.439 454.722 130.881 454.76 132.319 454.822C141.21 455.202 150.251 456.482 158.049 457.586L158.08 457.59C158.53 457.654 158.976 457.717 159.418 457.779C163.813 458.4 168.481 459.175 173.363 459.985L173.363 459.985C179.295 460.97 185.541 462.006 192 462.883V468.936C185.175 468.024 178.374 466.898 172.062 465.853C167.208 465.05 162.643 464.294 158.579 463.721C158.164 463.662 157.747 463.603 157.326 463.543L157.277 463.536C149.423 462.425 140.649 461.183 132.062 460.816C130.695 460.758 129.339 460.722 128 460.712V454.712Z" fill="#F45B69"/>
<path d="M146.987 512H138.765C140.018 510.495 141.406 509.017 142.94 507.569C155.834 495.396 169.41 492.143 182.743 493.618C185.852 493.961 188.942 494.562 192 495.358V501.574C188.7 500.638 185.392 499.947 182.083 499.581C170.4 498.289 158.6 501.036 147.059 511.931C147.035 511.954 147.011 511.977 146.987 512Z" fill="#F45B69"/>
<path d="M192 488.458C190.408 488.116 188.819 487.77 187.234 487.424L187.233 487.424C184.674 486.866 182.127 486.311 179.6 485.781C169.01 483.56 158.65 481.75 148.498 481.75C140.424 481.75 134.702 483.496 130.604 486.358C129.668 487.011 128.802 487.733 128 488.524V480.88C133.263 477.493 140.025 475.75 148.498 475.75C159.306 475.75 170.175 477.674 180.832 479.909C183.466 480.461 186.081 481.031 188.681 481.598L188.682 481.598C189.791 481.839 190.897 482.08 192 482.319V488.458Z" fill="#F45B69"/>
</g>
<path d="M256 519.027V513.005C248.762 513.647 241.636 513.171 235.339 512H216.575C216.838 512.136 217.101 512.273 217.363 512.41C226.172 517.006 240.825 520.268 256 519.027Z" fill="#75F4F4"/>
<path d="M192 532.207V526.202C198.746 525.921 206.256 526.769 214.943 528.064C218.395 528.578 222.062 529.168 225.98 529.799L225.981 529.799C234.635 531.192 244.511 532.781 256 534.188V540.232C244.053 538.787 233.847 537.144 224.994 535.718L224.992 535.718C221.097 535.091 217.463 534.506 214.058 533.998C205.228 532.682 198.124 531.921 192 532.207Z" fill="#75F4F4"/>
<path d="M192 562.249V555.338C201.382 550.261 209.925 548.283 218.38 548.328C227.569 548.378 236.47 550.823 245.899 553.898C248.223 554.656 250.591 555.455 253.017 556.275C254.001 556.608 254.995 556.943 256 557.281V563.612C254.318 563.051 252.673 562.495 251.062 561.95C248.651 561.134 246.314 560.344 244.039 559.602C234.687 556.552 226.541 554.372 218.348 554.328C210.249 554.284 201.922 556.332 192.287 562.077C192.191 562.134 192.095 562.192 192 562.249Z" fill="#75F4F4"/>
<g clip-path="url(#clip19_374_16325)">
<path d="M197.999 640H192V615.371C192.095 613.733 192.223 612.089 192.39 610.46C192.977 604.729 194.07 598.952 196.085 593.967C198.1 588.983 201.137 584.55 205.755 581.898C221.233 573.013 238.36 576.728 256 582.447V588.761C237.555 582.664 222.227 579.361 208.743 587.102C205.694 588.852 203.367 591.962 201.648 596.216C199.929 600.468 198.917 605.623 198.358 611.072C197.522 619.234 197.73 627.564 197.892 634.04C197.948 636.275 197.999 638.29 197.999 640Z" fill="#F6AE2D"/>
<path d="M215.998 640H209.998C209.998 631.264 212.698 619.872 217.686 611.35C220.185 607.081 223.393 603.3 227.361 601.033C231.444 598.7 236.183 598.069 241.279 599.932C249.975 603.113 252.97 610.94 253.932 618.542C254.416 622.372 254.421 626.357 254.317 630.039C254.275 631.523 254.217 632.924 254.162 634.254C254.077 636.331 253.998 638.232 253.998 640L247.998 640C247.998 638.136 248.085 635.994 248.175 633.801L248.175 633.8C248.228 632.492 248.282 631.165 248.319 629.869C248.421 626.277 248.405 622.659 247.979 619.295C247.121 612.51 244.741 607.587 239.218 605.567C235.85 604.335 232.95 604.75 230.337 606.243C227.609 607.802 225.062 610.626 222.865 614.381C218.46 621.907 215.998 632.236 215.998 640Z" fill="#F6AE2D"/>
</g>
<path d="M198 320H192V361.92C193.898 356.911 195.205 352.236 196.099 347.692C197.944 338.309 198 329.606 198 320Z" fill="#A6FFA1"/>
<path d="M211.543 384H205.177C207.162 378.692 208.412 373.067 209.183 367.185C210.592 356.428 210.382 345.084 210.164 333.32C210.082 328.936 210 324.493 210 320H216C216 324.224 216.079 328.502 216.159 332.793C216.381 344.71 216.604 356.728 215.132 367.965C214.412 373.458 213.284 378.83 211.543 384Z" fill="#A6FFA1"/>
<path d="M248.389 384H242.21C247.132 364.714 248 342.109 248 320H254C254 341.43 253.221 364.121 248.389 384Z" fill="#A6FFA1"/>
<path d="M281.334 512H263.124C260.754 512.465 258.371 512.795 256 513.005V519.027C261.811 518.551 267.698 517.416 273.363 515.442C276.077 514.496 278.746 513.355 281.334 512Z" fill="#F45B69"/>
<path d="M256 540.232V534.188C273.257 536.3 294.151 538 320 538V544C294.234 544 273.293 542.323 256 540.232Z" fill="#F45B69"/>
<path d="M256 563.612V557.281C272.677 562.885 292.347 569 320 569V575C292.464 575 272.435 569.09 256 563.612Z" fill="#F45B69"/>
<g clip-path="url(#clip20_374_16325)">
<path d="M256 588.761V582.447C256.977 582.764 257.956 583.087 258.936 583.414C261.664 584.325 264.413 585.274 267.185 586.23C283.779 591.956 301.204 597.967 319.997 597.968H320V603.968H319.997C300.111 603.967 281.625 597.576 265.076 591.854C262.342 590.909 259.661 589.982 257.035 589.105C256.689 588.99 256.344 588.875 256 588.761Z" fill="#A6FFA1"/>
<path d="M287.207 640H278.532C286.299 631.624 295.311 627 303.248 627H320V633H303.248C298.622 633 292.861 635.292 287.207 640Z" fill="#A6FFA1"/>
</g>
<g clip-path="url(#clip21_374_16325)">
<path d="M192 462.883C193.463 463.082 194.938 463.272 196.421 463.451C209.696 465.058 222.96 465.682 234.239 463.493C243.191 461.754 250.684 458.293 256 452.299V460.53C250.194 465.136 243.081 467.888 235.383 469.383C223.162 471.755 209.145 471.035 195.7 469.408C194.468 469.259 193.234 469.101 192 468.936V462.883Z" fill="#A6FFA1"/>
<path d="M192 501.574V495.358C201.845 497.921 211.359 502.511 220.136 507.09C224.019 509.116 229.297 510.877 235.337 512H216.573C208.525 507.824 200.291 503.926 192 501.574Z" fill="#A6FFA1"/>
<path d="M256 487.238C241.52 493.948 226.522 494.131 211.584 492.079C205.082 491.186 198.515 489.858 192 488.458V482.319C198.872 483.806 205.648 485.208 212.4 486.135C227.529 488.213 242.095 487.845 256 480.544V487.238Z" fill="#A6FFA1"/>
</g>
<path d="M265.85 384C264.297 363.072 268.562 346.534 275.23 334.686C278.733 328.462 282.859 323.58 287.134 320L278.477 320C275.386 323.347 272.515 327.277 270.001 331.743C262.737 344.651 258.297 362.231 259.835 384H265.85Z" fill="#F6AE2D"/>
<path d="M289.23 384H295.254C296.261 372.64 297.774 362.523 300.809 354.791C302.697 349.981 305.095 346.312 308.134 343.848C311.12 341.426 314.927 340 319.997 340H320V334H319.997C313.692 334 308.513 335.815 304.354 339.188C300.249 342.518 297.344 347.197 295.223 352.599C291.835 361.232 290.249 372.264 289.23 384Z" fill="#F6AE2D"/>
<path d="M319.999 365C315.954 365 312.522 366.161 309.749 368.373C307.02 370.55 305.134 373.582 303.835 377.006C303.026 379.139 302.42 381.49 301.98 384H308.083C308.439 382.23 308.889 380.601 309.445 379.134C310.49 376.379 311.846 374.376 313.491 373.063C315.094 371.785 317.169 371 319.999 371V365Z" fill="#F6AE2D"/>
<path d="M256 452.299C257.161 450.99 258.219 449.56 259.165 448H265.987C265.62 448.757 265.232 449.493 264.825 450.209C262.448 454.39 259.455 457.789 256 460.53V452.299Z" fill="#AE7FE9"/>
<path d="M281.332 512H263.122C265.908 511.453 268.677 510.72 271.386 509.776C280.69 506.534 289.219 500.835 295.443 491.726C301.673 482.611 305.748 469.855 305.748 452.25C305.748 450.975 305.691 449.552 305.588 448H311.599C311.695 449.53 311.748 450.954 311.748 452.25C311.748 470.79 307.448 484.794 300.397 495.112C295.197 502.721 288.583 508.203 281.332 512Z" fill="#AE7FE9"/>
<path d="M288.429 448C285.774 458.389 281.64 467.644 274.822 474.168C268.682 480.042 262.392 484.276 256 487.238V480.544C260.977 477.931 265.87 474.429 270.674 469.832C276.099 464.641 279.73 457.111 282.222 448H288.429Z" fill="#AE7FE9"/>
<path d="M64 346.427V340.403C67.4 340.715 70.7195 340.947 73.9525 341.064C84.9686 341.464 94.6441 340.505 102.739 336.99C109.973 333.849 116.128 328.589 120.861 320H127.608C122.134 331.366 114.467 338.44 105.128 342.494C95.8402 346.527 85.1252 347.474 73.735 347.061C70.563 346.945 67.3125 346.723 64 346.427Z" fill="#F45B69"/>
<path d="M64 361.706V355.7C77.4266 355.123 96.9642 355.7 128 358.426V364.449C96.5051 361.67 77.0722 361.126 64 361.706Z" fill="#F45B69"/>
<path d="M64 379.301V373.298C66.7018 373.225 69.5105 373.193 72.4279 373.199C87.6408 373.23 106.028 374.29 128 375.96V381.977C105.867 380.29 87.5126 379.23 72.4158 379.199C69.4809 379.193 66.6772 379.227 64 379.301Z" fill="#F45B69"/>
<path d="M108.855 320C107.772 321.337 106.611 322.629 105.369 323.871L105.208 324.033L105.024 324.168C101.772 326.557 97.4185 329.084 92.9154 331.148C88.439 333.199 83.6102 334.886 79.4288 335.448C77.3424 335.729 75.2301 335.756 73.3346 335.28C71.3867 334.79 69.5291 333.722 68.3627 331.766C67.2281 329.863 67.0176 327.568 67.3838 325.145C67.6187 323.591 68.1049 321.878 68.8379 320H75.3672C74.1575 322.587 73.5391 324.569 73.3164 326.042C73.0743 327.644 73.3344 328.388 73.5162 328.693C73.6661 328.945 73.9706 329.253 74.7971 329.461C75.6759 329.681 76.9502 329.728 78.6294 329.502C81.9792 329.051 86.1971 327.626 90.4159 325.693C94.1703 323.973 97.7627 321.925 100.536 320H108.855Z" fill="#F45B69"/>
<path d="M0 334.006C12.9585 334.118 25.8414 335.649 38.0961 337.252C39.6464 337.455 41.1854 337.658 42.7126 337.861L42.7133 337.861C50.0987 338.838 57.21 339.779 64 340.403V346.427C56.8717 345.789 49.4561 344.806 41.9166 343.808L41.9154 343.808C40.3875 343.605 38.8546 343.402 37.318 343.201C25.0879 341.602 12.5379 340.118 0 340.007V334.006Z" fill="#AE7FE9"/>
<path d="M19.6514 384C22.8742 381.494 26.7437 379.496 31.2778 377.943C39.702 375.058 50.5226 373.663 64 373.298V379.301C50.8868 379.666 40.8101 381.02 33.2222 383.62C32.8599 383.744 32.5037 383.87 32.1533 384H19.6514Z" fill="#AE7FE9"/>
<path d="M0 371V365C19.0394 365 26.4914 362.838 34.4348 360.533C37.1547 359.744 39.9323 358.939 43.2524 358.197C48.4514 357.036 54.7871 356.097 64 355.7V361.706C55.2318 362.094 49.3253 362.989 44.5601 364.053C41.5682 364.721 38.9523 365.481 36.3156 366.246C28.2263 368.595 19.9414 371 0 371Z" fill="#AE7FE9"/>
</g>
<defs>
<clipPath id="clip0_374_16325">
<rect width="320" height="320" fill="white"/>
</clipPath>
<clipPath id="clip1_374_16325">
<rect width="64" height="64" fill="white" transform="translate(0 64)"/>
</clipPath>
<clipPath id="clip2_374_16325">
<rect width="64" height="64" fill="white" transform="translate(64 256)"/>
</clipPath>
<clipPath id="clip3_374_16325">
<rect width="64" height="64" fill="white" transform="translate(64 128)"/>
</clipPath>
<clipPath id="clip4_374_16325">
<rect width="64" height="64" fill="white" transform="translate(128)"/>
</clipPath>
<clipPath id="clip5_374_16325">
<rect width="64" height="64" fill="white" transform="translate(128 192)"/>
</clipPath>
<clipPath id="clip6_374_16325">
<rect width="64" height="64" fill="white" transform="translate(128 256)"/>
</clipPath>
<clipPath id="clip7_374_16325">
<rect width="64" height="64" fill="white" transform="translate(128 128)"/>
</clipPath>
<clipPath id="clip8_374_16325">
<rect width="64" height="64" fill="white" transform="translate(192 256)"/>
</clipPath>
<clipPath id="clip9_374_16325">
<rect width="64" height="64" fill="white" transform="translate(256 256)"/>
</clipPath>
<clipPath id="clip10_374_16325">
<rect width="64" height="64" fill="white" transform="translate(192 128)"/>
</clipPath>
<clipPath id="clip11_374_16325">
<rect width="320" height="320" fill="white" transform="translate(0 320)"/>
</clipPath>
<clipPath id="clip12_374_16325">
<rect width="64" height="64" fill="white" transform="translate(0 384)"/>
</clipPath>
<clipPath id="clip13_374_16325">
<rect width="64" height="64" fill="white" transform="translate(64 576)"/>
</clipPath>
<clipPath id="clip14_374_16325">
<rect width="64" height="64" fill="white" transform="translate(64 448)"/>
</clipPath>
<clipPath id="clip15_374_16325">
<rect width="64" height="64" fill="white" transform="translate(128 320)"/>
</clipPath>
<clipPath id="clip16_374_16325">
<rect width="64" height="64" fill="white" transform="translate(128 512)"/>
</clipPath>
<clipPath id="clip17_374_16325">
<rect width="64" height="64" fill="white" transform="translate(128 576)"/>
</clipPath>
<clipPath id="clip18_374_16325">
<rect width="64" height="64" fill="white" transform="translate(128 448)"/>
</clipPath>
<clipPath id="clip19_374_16325">
<rect width="64" height="64" fill="white" transform="translate(192 576)"/>
</clipPath>
<clipPath id="clip20_374_16325">
<rect width="64" height="64" fill="white" transform="translate(256 576)"/>
</clipPath>
<clipPath id="clip21_374_16325">
<rect width="64" height="64" fill="white" transform="translate(192 448)"/>
</clipPath>
</defs>
</svg>
