<svg width="320" height="320" viewBox="0 0 320 320" fill="none" xmlns="http://www.w3.org/2000/svg">
<g clip-path="url(#clip0_2230_184628)">
<rect width="320" height="320" fill="black"/>
<g clip-path="url(#clip1_2230_184628)">
<g clip-path="url(#clip2_2230_184628)">
<g clip-path="url(#clip3_2230_184628)">
<path d="M-1.5 17C51.5 17 104.25 42 125 -1.5" stroke="#AE7FE9" stroke-width="6" stroke-linecap="round"/>
<path d="M-0.253906 221C35.25 221 18 164 11.25 109.25C4.5 54.5005 31.75 51.25 138 59.75C174.25 62.65 172.5 15.5 172.5 0" stroke="#AE7FE9" stroke-width="6"/>
<path d="M0 252C12 252 25.5 238 32.75 230.75C64 199.5 3.75 125.5 38.75 90.5C80.9027 48.3473 151.631 109.877 181 58C194.747 33.7171 195 19.25 195 0" stroke="#AE7FE9" stroke-width="6" stroke-linecap="square"/>
<path d="M155 3C155 20 147.66 35.6787 131.5 41.75C90.0532 57.3214 42.5 24.25 0 48" stroke="#AE7FE9" stroke-width="6" stroke-linecap="square"/>
<path d="M213 0C213 32.5 217.503 65.2002 192.75 87.5C165 112.5 81.4211 74.2001 55.25 98.75C27 125.25 84.3312 222.575 36.25 265C23.5 276.25 16 281 0 281" stroke="#AE7FE9" stroke-width="6" stroke-linecap="square"/>
<path d="M251 0C251 60 244.75 126.75 164.5 117.5C84.25 108.25 60 100.25 75.25 180C90.5 259.75 63.75 310 0 310" stroke="#AE7FE9" stroke-width="6" stroke-linecap="square"/>
</g>
</g>
</g>
<g clip-path="url(#clip4_2230_184628)">
<g clip-path="url(#clip5_2230_184628)">
<g clip-path="url(#clip6_2230_184628)">
<path d="M-0.253906 221C35.25 221 18 164 11.25 109.25C4.5 54.5005 31.75 51.25 138 59.75C174.25 62.65 172.5 15.5 172.5 0" stroke="#F6AE2D" stroke-width="6"/>
<path d="M0 252C12 252 25.5 238 32.75 230.75C64 199.5 3.75 125.5 38.75 90.5C80.9027 48.3473 151.631 109.877 181 58C194.747 33.7171 195 19.25 195 0" stroke="#F6AE2D" stroke-width="6" stroke-linecap="square"/>
<path d="M213 0C213 32.5 217.503 65.2002 192.75 87.5C165 112.5 81.4211 74.2001 55.25 98.75C27 125.25 84.3312 222.575 36.25 265C23.5 276.25 16 281 0 281" stroke="#F6AE2D" stroke-width="6" stroke-linecap="square"/>
<path d="M251 0C251 60 244.75 126.75 164.5 117.5C84.25 108.25 60 100.25 75.25 180C90.5 259.75 63.75 310 0 310" stroke="#F6AE2D" stroke-width="6" stroke-linecap="square"/>
</g>
</g>
</g>
<g clip-path="url(#clip7_2230_184628)">
<g clip-path="url(#clip8_2230_184628)">
<g clip-path="url(#clip9_2230_184628)">
<path d="M-0.253906 221C35.25 221 18 164 11.25 109.25C4.5 54.5005 31.75 51.25 138 59.75C174.25 62.65 172.5 15.5 172.5 0" stroke="#F45B69" stroke-width="6"/>
<path d="M0 252C12 252 25.5 238 32.75 230.75C64 199.5 3.75 125.5 38.75 90.5C80.9027 48.3473 151.631 109.877 181 58C194.747 33.7171 195 19.25 195 0" stroke="#F45B69" stroke-width="6" stroke-linecap="square"/>
<path d="M213 0C213 32.5 217.503 65.2002 192.75 87.5C165 112.5 81.4211 74.2001 55.25 98.75C27 125.25 84.3312 222.575 36.25 265C23.5 276.25 16 281 0 281" stroke="#F45B69" stroke-width="6" stroke-linecap="square"/>
<path d="M251 0C251 60 244.75 126.75 164.5 117.5C84.25 108.25 60 100.25 75.25 180C90.5 259.75 63.75 310 0 310" stroke="#F45B69" stroke-width="6" stroke-linecap="square"/>
</g>
</g>
</g>
<g clip-path="url(#clip10_2230_184628)">
<g clip-path="url(#clip11_2230_184628)">
<g clip-path="url(#clip12_2230_184628)">
<path d="M-0.253906 221C35.25 221 18 164 11.25 109.25C4.5 54.5005 31.75 51.25 138 59.75C174.25 62.65 172.5 15.5 172.5 0" stroke="#A6FFA1" stroke-width="6"/>
<path d="M0 252C12 252 25.5 238 32.75 230.75C64 199.5 3.75 125.5 38.75 90.5C80.9027 48.3473 151.631 109.877 181 58C194.747 33.7171 195 19.25 195 0" stroke="#A6FFA1" stroke-width="6" stroke-linecap="square"/>
<path d="M213 0C213 32.5 217.503 65.2002 192.75 87.5C165 112.5 81.4211 74.2001 55.25 98.75C27 125.25 84.3312 222.575 36.25 265C23.5 276.25 16 281 0 281" stroke="#A6FFA1" stroke-width="6" stroke-linecap="square"/>
<path d="M251 0C251 60 244.75 126.75 164.5 117.5C84.25 108.25 60 100.25 75.25 180C90.5 259.75 63.75 310 0 310" stroke="#A6FFA1" stroke-width="6" stroke-linecap="square"/>
</g>
</g>
</g>
<g clip-path="url(#clip13_2230_184628)">
<g clip-path="url(#clip14_2230_184628)">
<g clip-path="url(#clip15_2230_184628)">
<path d="M213 0C213 32.5 217.503 65.2002 192.75 87.5C165 112.5 81.4211 74.2001 55.25 98.75C27 125.25 84.3312 222.575 36.25 265C23.5 276.25 16 281 0 281" stroke="#75F4F4" stroke-width="6" stroke-linecap="square"/>
<path d="M251 0C251 60 244.75 126.75 164.5 117.5C84.25 108.25 60 100.25 75.25 180C90.5 259.75 63.75 310 0 310" stroke="#75F4F4" stroke-width="6" stroke-linecap="square"/>
</g>
</g>
</g>
<g clip-path="url(#clip16_2230_184628)">
<g clip-path="url(#clip17_2230_184628)">
<g clip-path="url(#clip18_2230_184628)">
<path d="M125 318.5C148.25 262.25 113.337 219.642 145 189.75C169.435 166.682 195.75 177.75 218.75 189.75C241.75 201.75 308.75 204.54 308.75 132.25C308.75 110.25 291.75 76.25 320 48" stroke="#A6FFA1" stroke-width="6" stroke-linecap="square"/>
<path d="M-0.253906 221C35.25 221 18 164 11.25 109.25C4.5 54.5005 31.75 51.25 138 59.75C174.25 62.65 172.5 15.5 172.5 0" stroke="#A6FFA1" stroke-width="6"/>
<path d="M0 252C12 252 25.5 238 32.75 230.75C64 199.5 3.75 125.5 38.75 90.5C80.9027 48.3473 151.631 109.877 181 58C194.747 33.7171 195 19.25 195 0" stroke="#A6FFA1" stroke-width="6" stroke-linecap="square"/>
<path d="M213 0C213 32.5 217.503 65.2002 192.75 87.5C165 112.5 81.4211 74.2001 55.25 98.75C27 125.25 84.3312 222.575 36.25 265C23.5 276.25 16 281 0 281" stroke="#A6FFA1" stroke-width="6" stroke-linecap="square"/>
<path d="M319.998 17C274.498 17 305.438 120.722 272.748 152C234.476 188.619 190.421 158.75 148.498 158.75C80.4982 158.75 148.498 276.5 103.248 321.75C90.9983 330.75 60.9981 342.6 72.9981 318C87.9981 287.25 114.749 260.75 93.9988 194.25C73.2488 127.75 126.445 136.154 158.999 140.75C201.499 146.75 283.249 169.75 265.249 81.25C253.23 22.1563 283.749 -10.5 304.749 -10.5" stroke="#A6FFA1" stroke-width="6" stroke-linecap="square"/>
<path d="M251 0C251 60 244.75 126.75 164.5 117.5C84.25 108.25 60 100.25 75.25 180C90.5 259.75 63.75 310 0 310" stroke="#A6FFA1" stroke-width="6" stroke-linecap="square"/>
</g>
</g>
</g>
<g clip-path="url(#clip19_2230_184628)">
<g clip-path="url(#clip20_2230_184628)">
<g clip-path="url(#clip21_2230_184628)">
<path d="M-1.5 17C51.5 17 104.25 42 125 -1.5" stroke="#F45B69" stroke-width="6" stroke-linecap="round"/>
<path d="M125 318.5C148.25 262.25 113.337 219.642 145 189.75C169.435 166.682 195.75 177.75 218.75 189.75C241.75 201.75 308.75 204.54 308.75 132.25C308.75 110.25 291.75 76.25 320 48" stroke="#F45B69" stroke-width="6" stroke-linecap="square"/>
<path d="M-0.253906 221C35.25 221 18 164 11.25 109.25C4.5 54.5005 31.75 51.25 138 59.75C174.25 62.65 172.5 15.5 172.5 0" stroke="#F45B69" stroke-width="6"/>
<path d="M0 252C12 252 25.5 238 32.75 230.75C64 199.5 3.75 125.5 38.75 90.5C80.9027 48.3473 151.631 109.877 181 58C194.747 33.7171 195 19.25 195 0" stroke="#F45B69" stroke-width="6" stroke-linecap="square"/>
<path d="M155 3C155 20 147.66 35.6787 131.5 41.75C90.0532 57.3214 42.5 24.25 0 48" stroke="#F45B69" stroke-width="6" stroke-linecap="square"/>
<path d="M213 0C213 32.5 217.503 65.2002 192.75 87.5C165 112.5 81.4211 74.2001 55.25 98.75C27 125.25 84.3312 222.575 36.25 265C23.5 276.25 16 281 0 281" stroke="#F45B69" stroke-width="6" stroke-linecap="square"/>
<path d="M319.998 17C274.498 17 305.438 120.722 272.748 152C234.476 188.619 190.421 158.75 148.498 158.75C80.4982 158.75 148.498 276.5 103.248 321.75C90.9983 330.75 60.9981 342.6 72.9981 318C87.9981 287.25 114.749 260.75 93.9988 194.25C73.2488 127.75 126.445 136.154 158.999 140.75C201.499 146.75 283.249 169.75 265.249 81.25C253.23 22.1563 283.749 -10.5 304.749 -10.5" stroke="#F45B69" stroke-width="6" stroke-linecap="square"/>
<path d="M319.997 -296C274.498 -296 305.437 -199.278 272.748 -168C234.476 -131.381 190.421 -161.25 148.497 -161.25C80.4976 -161.25 148.497 -43.4998 103.248 1.75C90.9976 10.75 60.9981 22.6 72.9981 -2C87.9981 -32.75 114.748 -59.25 93.9981 -125.75C73.2481 -192.25 126.444 -183.846 158.998 -179.25C201.498 -173.25 277.748 -150.25 259.748 -238.75C247.729 -297.844 283.748 -330.5 304.748 -330.5" stroke="#F45B69" stroke-width="6" stroke-linecap="square"/>
<path d="M251 0C251 60 244.75 126.75 164.5 117.5C84.25 108.25 60 100.25 75.25 180C90.5 259.75 63.75 310 0 310" stroke="#F45B69" stroke-width="6" stroke-linecap="square"/>
</g>
</g>
</g>
<g clip-path="url(#clip22_2230_184628)">
<g clip-path="url(#clip23_2230_184628)">
<g clip-path="url(#clip24_2230_184628)">
<path d="M125 318.5C148.25 262.25 113.337 219.642 145 189.75C169.435 166.682 195.75 177.75 218.75 189.75C241.75 201.75 308.75 204.54 308.75 132.25C308.75 110.25 291.75 76.25 320 48" stroke="#AE7FE9" stroke-width="6" stroke-linecap="square"/>
<path d="M-0.253906 221C35.25 221 18 164 11.25 109.25C4.5 54.5005 31.75 51.25 138 59.75C174.25 62.65 172.5 15.5 172.5 0" stroke="#AE7FE9" stroke-width="6"/>
<path d="M0 252C12 252 25.5 238 32.75 230.75C64 199.5 3.75 125.5 38.75 90.5C80.9027 48.3473 151.631 109.877 181 58C194.747 33.7171 195 19.25 195 0" stroke="#AE7FE9" stroke-width="6" stroke-linecap="square"/>
<path d="M213 0C213 32.5 217.503 65.2002 192.75 87.5C165 112.5 81.4211 74.2001 55.25 98.75C27 125.25 84.3312 222.575 36.25 265C23.5 276.25 16 281 0 281" stroke="#AE7FE9" stroke-width="6" stroke-linecap="square"/>
<path d="M319.998 17C274.498 17 305.438 120.722 272.748 152C234.476 188.619 190.421 158.75 148.498 158.75C80.4982 158.75 148.498 276.5 103.248 321.75C90.9983 330.75 60.9981 342.6 72.9981 318C87.9981 287.25 114.749 260.75 93.9988 194.25C73.2488 127.75 126.445 136.154 158.999 140.75C201.499 146.75 283.249 169.75 265.249 81.25C253.23 22.1563 283.749 -10.5 304.749 -10.5" stroke="#AE7FE9" stroke-width="6" stroke-linecap="square"/>
<path d="M251 0C251 60 244.75 126.75 164.5 117.5C84.25 108.25 60 100.25 75.25 180C90.5 259.75 63.75 310 0 310" stroke="#AE7FE9" stroke-width="6" stroke-linecap="square"/>
</g>
</g>
</g>
<g clip-path="url(#clip25_2230_184628)">
<g clip-path="url(#clip26_2230_184628)">
<g clip-path="url(#clip27_2230_184628)">
<path d="M125 318.5C148.25 262.25 113.337 219.642 145 189.75C169.435 166.682 195.75 177.75 218.75 189.75C241.75 201.75 308.75 204.54 308.75 132.25C308.75 110.25 291.75 76.25 320 48" stroke="#F6AE2D" stroke-width="6" stroke-linecap="square"/>
<path d="M-0.253906 221C35.25 221 18 164 11.25 109.25C4.5 54.5005 31.75 51.25 138 59.75C174.25 62.65 172.5 15.5 172.5 0" stroke="#F6AE2D" stroke-width="6"/>
<path d="M0 252C12 252 25.5 238 32.75 230.75C64 199.5 3.75 125.5 38.75 90.5C80.9027 48.3473 151.631 109.877 181 58C194.747 33.7171 195 19.25 195 0" stroke="#F6AE2D" stroke-width="6" stroke-linecap="square"/>
<path d="M213 0C213 32.5 217.503 65.2002 192.75 87.5C165 112.5 81.4211 74.2001 55.25 98.75C27 125.25 84.3312 222.575 36.25 265C23.5 276.25 16 281 0 281" stroke="#F6AE2D" stroke-width="6" stroke-linecap="square"/>
<path d="M319.998 17C274.498 17 305.438 120.722 272.748 152C234.476 188.619 190.421 158.75 148.498 158.75C80.4982 158.75 148.498 276.5 103.248 321.75C90.9983 330.75 60.9981 342.6 72.9981 318C87.9981 287.25 114.749 260.75 93.9988 194.25C73.2488 127.75 126.445 136.154 158.999 140.75C201.499 146.75 283.249 169.75 265.249 81.25C253.23 22.1563 283.749 -10.5 304.749 -10.5" stroke="#F6AE2D" stroke-width="6" stroke-linecap="square"/>
<path d="M251 0C251 60 244.75 126.75 164.5 117.5C84.25 108.25 60 100.25 75.25 180C90.5 259.75 63.75 310 0 310" stroke="#F6AE2D" stroke-width="6" stroke-linecap="square"/>
</g>
</g>
</g>
<g clip-path="url(#clip28_2230_184628)">
<g clip-path="url(#clip29_2230_184628)">
<g clip-path="url(#clip30_2230_184628)">
<path d="M125 318.5C148.25 262.25 113.337 219.642 145 189.75C169.435 166.682 195.75 177.75 218.75 189.75C241.75 201.75 308.75 204.54 308.75 132.25C308.75 110.25 291.75 76.25 320 48" stroke="#AE7FE9" stroke-width="6" stroke-linecap="square"/>
<path d="M213 0C213 32.5 217.503 65.2002 192.75 87.5C165 112.5 81.4211 74.2001 55.25 98.75C27 125.25 84.3312 222.575 36.25 265C23.5 276.25 16 281 0 281" stroke="#AE7FE9" stroke-width="6" stroke-linecap="square"/>
<path d="M319.998 17C274.498 17 305.438 120.722 272.748 152C234.476 188.619 190.421 158.75 148.498 158.75C80.4982 158.75 148.498 276.5 103.248 321.75C90.9983 330.75 60.9981 342.6 72.9981 318C87.9981 287.25 114.749 260.75 93.9988 194.25C73.2488 127.75 126.445 136.154 158.999 140.75C201.499 146.75 283.249 169.75 265.249 81.25C253.23 22.1563 283.749 -10.5 304.749 -10.5" stroke="#AE7FE9" stroke-width="6" stroke-linecap="square"/>
<path d="M251 0C251 60 244.75 126.75 164.5 117.5C84.25 108.25 60 100.25 75.25 180C90.5 259.75 63.75 310 0 310" stroke="#AE7FE9" stroke-width="6" stroke-linecap="square"/>
</g>
</g>
</g>
<g clip-path="url(#clip31_2230_184628)">
<g clip-path="url(#clip32_2230_184628)">
<g clip-path="url(#clip33_2230_184628)">
<path d="M125 318.5C148.25 262.25 113.337 219.642 145 189.75C169.435 166.682 195.75 177.75 218.75 189.75C241.75 201.75 308.75 204.54 308.75 132.25C308.75 110.25 291.75 76.25 320 48" stroke="#75F4F4" stroke-width="6" stroke-linecap="square"/>
<path d="M-0.253906 221C35.25 221 18 164 11.25 109.25C4.5 54.5005 31.75 51.25 138 59.75C174.25 62.65 172.5 15.5 172.5 0" stroke="#75F4F4" stroke-width="6"/>
<path d="M0 252C12 252 25.5 238 32.75 230.75C64 199.5 3.75 125.5 38.75 90.5C80.9027 48.3473 151.631 109.877 181 58C194.747 33.7171 195 19.25 195 0" stroke="#75F4F4" stroke-width="6" stroke-linecap="square"/>
<path d="M213 0C213 32.5 217.503 65.2002 192.75 87.5C165 112.5 81.4211 74.2001 55.25 98.75C27 125.25 84.3312 222.575 36.25 265C23.5 276.25 16 281 0 281" stroke="#75F4F4" stroke-width="6" stroke-linecap="square"/>
<path d="M319.998 17C274.498 17 305.438 120.722 272.748 152C234.476 188.619 190.421 158.75 148.498 158.75C80.4982 158.75 148.498 276.5 103.248 321.75C90.9983 330.75 60.9981 342.6 72.9981 318C87.9981 287.25 114.749 260.75 93.9988 194.25C73.2488 127.75 126.445 136.154 158.999 140.75C201.499 146.75 283.249 169.75 265.249 81.25C253.23 22.1563 283.749 -10.5 304.749 -10.5" stroke="#75F4F4" stroke-width="6" stroke-linecap="square"/>
<path d="M251 0C251 60 244.75 126.75 164.5 117.5C84.25 108.25 60 100.25 75.25 180C90.5 259.75 63.75 310 0 310" stroke="#75F4F4" stroke-width="6" stroke-linecap="square"/>
</g>
</g>
</g>
<g clip-path="url(#clip34_2230_184628)">
<g clip-path="url(#clip35_2230_184628)">
<g clip-path="url(#clip36_2230_184628)">
<path d="M125 318.5C148.25 262.25 113.337 219.642 145 189.75C169.435 166.682 195.75 177.75 218.75 189.75C241.75 201.75 308.75 204.54 308.75 132.25C308.75 110.25 291.75 76.25 320 48" stroke="#F45B69" stroke-width="6" stroke-linecap="square"/>
<path d="M0 252C12 252 25.5 238 32.75 230.75C64 199.5 3.75 125.5 38.75 90.5C80.9027 48.3473 151.631 109.877 181 58C194.747 33.7171 195 19.25 195 0" stroke="#F45B69" stroke-width="6" stroke-linecap="square"/>
<path d="M213 0C213 32.5 217.503 65.2002 192.75 87.5C165 112.5 81.4211 74.2001 55.25 98.75C27 125.25 84.3312 222.575 36.25 265C23.5 276.25 16 281 0 281" stroke="#F45B69" stroke-width="6" stroke-linecap="square"/>
<path d="M319.998 17C274.498 17 305.438 120.722 272.748 152C234.476 188.619 190.421 158.75 148.498 158.75C80.4982 158.75 148.498 276.5 103.248 321.75C90.9983 330.75 60.9981 342.6 72.9981 318C87.9981 287.25 114.749 260.75 93.9988 194.25C73.2488 127.75 126.445 136.154 158.999 140.75C201.499 146.75 283.249 169.75 265.249 81.25C253.23 22.1563 283.749 -10.5 304.749 -10.5" stroke="#F45B69" stroke-width="6" stroke-linecap="square"/>
<path d="M251 0C251 60 244.75 126.75 164.5 117.5C84.25 108.25 60 100.25 75.25 180C90.5 259.75 63.75 310 0 310" stroke="#F45B69" stroke-width="6" stroke-linecap="square"/>
</g>
</g>
</g>
<g clip-path="url(#clip37_2230_184628)">
<g clip-path="url(#clip38_2230_184628)">
<g clip-path="url(#clip39_2230_184628)">
<path d="M-1.5 17C51.5 17 104.25 42 125 -1.5" stroke="#75F4F4" stroke-width="6" stroke-linecap="round"/>
<path d="M125 318.5C148.25 262.25 113.337 219.642 145 189.75C169.435 166.682 195.75 177.75 218.75 189.75C241.75 201.75 308.75 204.54 308.75 132.25C308.75 110.25 291.75 76.25 320 48" stroke="#75F4F4" stroke-width="6" stroke-linecap="square"/>
<path d="M-0.253906 221C35.25 221 18 164 11.25 109.25C4.5 54.5005 31.75 51.25 138 59.75C174.25 62.65 172.5 15.5 172.5 0" stroke="#75F4F4" stroke-width="6"/>
<path d="M0 252C12 252 25.5 238 32.75 230.75C64 199.5 3.75 125.5 38.75 90.5C80.9027 48.3473 151.631 109.877 181 58C194.747 33.7171 195 19.25 195 0" stroke="#75F4F4" stroke-width="6" stroke-linecap="square"/>
<path d="M155 3C155 20 147.66 35.6787 131.5 41.75C90.0532 57.3214 42.5 24.25 0 48" stroke="#75F4F4" stroke-width="6" stroke-linecap="square"/>
<path d="M213 0C213 32.5 217.503 65.2002 192.75 87.5C165 112.5 81.4211 74.2001 55.25 98.75C27 125.25 84.3312 222.575 36.25 265C23.5 276.25 16 281 0 281" stroke="#75F4F4" stroke-width="6" stroke-linecap="square"/>
<path d="M319.998 17C274.498 17 305.438 120.722 272.748 152C234.476 188.619 190.421 158.75 148.498 158.75C80.4982 158.75 148.498 276.5 103.248 321.75C90.9983 330.75 60.9981 342.6 72.9981 318C87.9981 287.25 114.749 260.75 93.9988 194.25C73.2488 127.75 126.445 136.154 158.999 140.75C201.499 146.75 283.249 169.75 265.249 81.25C253.23 22.1563 283.749 -10.5 304.749 -10.5" stroke="#75F4F4" stroke-width="6" stroke-linecap="square"/>
<path d="M319.997 -296C274.498 -296 305.437 -199.278 272.748 -168C234.476 -131.381 190.421 -161.25 148.497 -161.25C80.4976 -161.25 148.497 -43.4998 103.248 1.75C90.9976 10.75 60.9981 22.6 72.9981 -2C87.9981 -32.75 114.748 -59.25 93.9981 -125.75C73.2481 -192.25 126.444 -183.846 158.998 -179.25C201.498 -173.25 277.748 -150.25 259.748 -238.75C247.729 -297.844 283.748 -330.5 304.748 -330.5" stroke="#75F4F4" stroke-width="6" stroke-linecap="square"/>
<path d="M251 0C251 60 244.75 126.75 164.5 117.5C84.25 108.25 60 100.25 75.25 180C90.5 259.75 63.75 310 0 310" stroke="#75F4F4" stroke-width="6" stroke-linecap="square"/>
</g>
</g>
</g>
<g clip-path="url(#clip40_2230_184628)">
<g clip-path="url(#clip41_2230_184628)">
<g clip-path="url(#clip42_2230_184628)">
<path d="M125 318.5C148.25 262.25 113.337 219.642 145 189.75C169.435 166.682 195.75 177.75 218.75 189.75C241.75 201.75 308.75 204.54 308.75 132.25C308.75 110.25 291.75 76.25 320 48" stroke="#AE7FE9" stroke-width="6" stroke-linecap="square"/>
<path d="M155.002 320C155.003 285.75 138.253 248.501 166.002 220.75C192.251 194.499 217.752 221 320.002 221" stroke="#AE7FE9" stroke-width="6"/>
<path d="M-0.253906 221C35.25 221 18 164 11.25 109.25C4.5 54.5005 31.75 51.25 138 59.75C174.25 62.65 172.5 15.5 172.5 0" stroke="#AE7FE9" stroke-width="6"/>
<path d="M172.5 320C172.5 286.5 161.722 256.809 190.751 239.5C231 215.5 252.001 252 320.001 252" stroke="#AE7FE9" stroke-width="6" stroke-linecap="square"/>
<path d="M0 252C12 252 25.5 238 32.75 230.75C64 199.5 3.75 125.5 38.75 90.5C80.9027 48.3473 151.631 109.877 181 58C194.747 33.7171 195 19.25 195 0" stroke="#AE7FE9" stroke-width="6" stroke-linecap="square"/>
<path d="M195 320C195 307.239 191.917 273.303 207.25 264.5C237.321 247.237 274.893 280.967 319.998 280.968" stroke="#AE7FE9" stroke-width="6" stroke-linecap="square"/>
<path d="M213 0C213 32.5 217.503 65.2002 192.75 87.5C165 112.5 81.4211 74.2001 55.25 98.75C27 125.25 84.3312 222.575 36.25 265C23.5 276.25 16 281 0 281" stroke="#AE7FE9" stroke-width="6" stroke-linecap="square"/>
<path d="M319.998 17C274.498 17 305.438 120.722 272.748 152C234.476 188.619 190.421 158.75 148.498 158.75C80.4982 158.75 148.498 276.5 103.248 321.75C90.9983 330.75 60.9981 342.6 72.9981 318C87.9981 287.25 114.749 260.75 93.9988 194.25C73.2488 127.75 126.445 136.154 158.999 140.75C201.499 146.75 283.249 169.75 265.249 81.25C253.23 22.1563 283.749 -10.5 304.749 -10.5" stroke="#AE7FE9" stroke-width="6" stroke-linecap="square"/>
<path d="M251 0C251 60 244.75 126.75 164.5 117.5C84.25 108.25 60 100.25 75.25 180C90.5 259.75 63.75 310 0 310" stroke="#AE7FE9" stroke-width="6" stroke-linecap="square"/>
</g>
</g>
</g>
<g clip-path="url(#clip43_2230_184628)">
<g clip-path="url(#clip44_2230_184628)">
<g clip-path="url(#clip45_2230_184628)">
<path d="M125 318.5C148.25 262.25 113.337 219.642 145 189.75C169.435 166.682 195.75 177.75 218.75 189.75C241.75 201.75 308.75 204.54 308.75 132.25C308.75 110.25 291.75 76.25 320 48" stroke="#F45B69" stroke-width="6" stroke-linecap="square"/>
<path d="M155.002 320C155.003 285.75 138.253 248.501 166.002 220.75C192.251 194.499 217.752 221 320.002 221" stroke="#F45B69" stroke-width="6"/>
<path d="M172.5 320C172.5 286.5 161.722 256.809 190.751 239.5C231 215.5 252.001 252 320.001 252" stroke="#F45B69" stroke-width="6" stroke-linecap="square"/>
<path d="M195 320C195 307.239 191.917 273.303 207.25 264.5C237.321 247.237 274.893 280.967 319.998 280.968" stroke="#F45B69" stroke-width="6" stroke-linecap="square"/>
<path d="M213 0C213 32.5 217.503 65.2002 192.75 87.5C165 112.5 81.4211 74.2001 55.25 98.75C27 125.25 84.3312 222.575 36.25 265C23.5 276.25 16 281 0 281" stroke="#F45B69" stroke-width="6" stroke-linecap="square"/>
<path d="M319.998 17C274.498 17 305.438 120.722 272.748 152C234.476 188.619 190.421 158.75 148.498 158.75C80.4982 158.75 148.498 276.5 103.248 321.75C90.9983 330.75 60.9981 342.6 72.9981 318C87.9981 287.25 114.749 260.75 93.9988 194.25C73.2488 127.75 126.445 136.154 158.999 140.75C201.499 146.75 283.249 169.75 265.249 81.25C253.23 22.1563 283.749 -10.5 304.749 -10.5" stroke="#F45B69" stroke-width="6" stroke-linecap="square"/>
<path d="M251 0C251 60 244.75 126.75 164.5 117.5C84.25 108.25 60 100.25 75.25 180C90.5 259.75 63.75 310 0 310" stroke="#F45B69" stroke-width="6" stroke-linecap="square"/>
</g>
</g>
</g>
<g clip-path="url(#clip46_2230_184628)">
<g clip-path="url(#clip47_2230_184628)">
<g clip-path="url(#clip48_2230_184628)">
<path d="M125 318.5C148.25 262.25 113.337 219.642 145 189.75C169.435 166.682 195.75 177.75 218.75 189.75C241.75 201.75 308.75 204.54 308.75 132.25C308.75 110.25 291.75 76.25 320 48" stroke="#75F4F4" stroke-width="6" stroke-linecap="square"/>
<path d="M319.998 17C274.498 17 305.438 120.722 272.748 152C234.476 188.619 190.421 158.75 148.498 158.75C80.4982 158.75 148.498 276.5 103.248 321.75C90.9983 330.75 60.9981 342.6 72.9981 318C87.9981 287.25 114.749 260.75 93.9988 194.25C73.2488 127.75 126.445 136.154 158.999 140.75C201.499 146.75 283.249 169.75 265.249 81.25C253.23 22.1563 283.749 -10.5 304.749 -10.5" stroke="#75F4F4" stroke-width="6" stroke-linecap="square"/>
</g>
</g>
</g>
<g clip-path="url(#clip49_2230_184628)">
<g clip-path="url(#clip50_2230_184628)">
<g clip-path="url(#clip51_2230_184628)">
<path d="M125 318.5C148.25 262.25 113.337 219.642 145 189.75C169.435 166.682 195.75 177.75 218.75 189.75C241.75 201.75 308.75 204.54 308.75 132.25C308.75 110.25 291.75 76.25 320 48" stroke="#F45B69" stroke-width="6" stroke-linecap="square"/>
<path d="M-0.253906 221C35.25 221 18 164 11.25 109.25C4.5 54.5005 31.75 51.25 138 59.75C174.25 62.65 172.5 15.5 172.5 0" stroke="#F45B69" stroke-width="6"/>
<path d="M0 252C12 252 25.5 238 32.75 230.75C64 199.5 3.75 125.5 38.75 90.5C80.9027 48.3473 151.631 109.877 181 58C194.747 33.7171 195 19.25 195 0" stroke="#F45B69" stroke-width="6" stroke-linecap="square"/>
<path d="M213 0C213 32.5 217.503 65.2002 192.75 87.5C165 112.5 81.4211 74.2001 55.25 98.75C27 125.25 84.3312 222.575 36.25 265C23.5 276.25 16 281 0 281" stroke="#F45B69" stroke-width="6" stroke-linecap="square"/>
<path d="M319.998 17C274.498 17 305.438 120.722 272.748 152C234.476 188.619 190.421 158.75 148.498 158.75C80.4982 158.75 148.498 276.5 103.248 321.75C90.9983 330.75 60.9981 342.6 72.9981 318C87.9981 287.25 114.749 260.75 93.9988 194.25C73.2488 127.75 126.445 136.154 158.999 140.75C201.499 146.75 283.249 169.75 265.249 81.25C253.23 22.1563 283.749 -10.5 304.749 -10.5" stroke="#F45B69" stroke-width="6" stroke-linecap="square"/>
<path d="M251 0C251 60 244.75 126.75 164.5 117.5C84.25 108.25 60 100.25 75.25 180C90.5 259.75 63.75 310 0 310" stroke="#F45B69" stroke-width="6" stroke-linecap="square"/>
</g>
</g>
</g>
<g clip-path="url(#clip52_2230_184628)">
<g clip-path="url(#clip53_2230_184628)">
<g clip-path="url(#clip54_2230_184628)">
<path d="M125 318.5C148.25 262.25 113.337 219.642 145 189.75C169.435 166.682 195.75 177.75 218.75 189.75C241.75 201.75 308.75 204.54 308.75 132.25C308.75 110.25 291.75 76.25 320 48" stroke="#75F4F4" stroke-width="6" stroke-linecap="square"/>
<path d="M155.002 320C155.003 285.75 138.253 248.501 166.002 220.75C192.251 194.499 217.752 221 320.002 221" stroke="#75F4F4" stroke-width="6"/>
<path d="M172.5 320C172.5 286.5 161.722 256.809 190.751 239.5C231 215.5 252.001 252 320.001 252" stroke="#75F4F4" stroke-width="6" stroke-linecap="square"/>
<path d="M0 252C12 252 25.5 238 32.75 230.75C64 199.5 3.75 125.5 38.75 90.5C80.9027 48.3473 151.631 109.877 181 58C194.747 33.7171 195 19.25 195 0" stroke="#75F4F4" stroke-width="6" stroke-linecap="square"/>
<path d="M195 320C195 307.239 191.917 273.303 207.25 264.5C237.321 247.237 274.893 280.967 319.998 280.968" stroke="#75F4F4" stroke-width="6" stroke-linecap="square"/>
<path d="M213 0C213 32.5 217.503 65.2002 192.75 87.5C165 112.5 81.4211 74.2001 55.25 98.75C27 125.25 84.3312 222.575 36.25 265C23.5 276.25 16 281 0 281" stroke="#75F4F4" stroke-width="6" stroke-linecap="square"/>
<path d="M319.998 17C274.498 17 305.438 120.722 272.748 152C234.476 188.619 190.421 158.75 148.498 158.75C80.4982 158.75 148.498 276.5 103.248 321.75C90.9983 330.75 60.9981 342.6 72.9981 318C87.9981 287.25 114.749 260.75 93.9988 194.25C73.2488 127.75 126.445 136.154 158.999 140.75C201.499 146.75 283.249 169.75 265.249 81.25C253.23 22.1563 283.749 -10.5 304.749 -10.5" stroke="#75F4F4" stroke-width="6" stroke-linecap="square"/>
<path d="M251 0C251 60 244.75 126.75 164.5 117.5C84.25 108.25 60 100.25 75.25 180C90.5 259.75 63.75 310 0 310" stroke="#75F4F4" stroke-width="6" stroke-linecap="square"/>
</g>
</g>
</g>
<g clip-path="url(#clip55_2230_184628)">
<g clip-path="url(#clip56_2230_184628)">
<g clip-path="url(#clip57_2230_184628)">
<path d="M125 318.5C148.25 262.25 113.337 219.642 145 189.75C169.435 166.682 195.75 177.75 218.75 189.75C241.75 201.75 308.75 204.54 308.75 132.25C308.75 110.25 291.75 76.25 320 48" stroke="#F6AE2D" stroke-width="6" stroke-linecap="square"/>
<path d="M155.002 320C155.003 285.75 138.253 248.501 166.002 220.75C192.251 194.499 217.752 221 320.002 221" stroke="#F6AE2D" stroke-width="6"/>
<path d="M172.5 320C172.5 286.5 161.722 256.809 190.751 239.5C231 215.5 252.001 252 320.001 252" stroke="#F6AE2D" stroke-width="6" stroke-linecap="square"/>
<path d="M195 320C195 307.239 191.917 273.303 207.25 264.5C237.321 247.237 274.893 280.967 319.998 280.968" stroke="#F6AE2D" stroke-width="6" stroke-linecap="square"/>
<path d="M213 0C213 32.5 217.503 65.2002 192.75 87.5C165 112.5 81.4211 74.2001 55.25 98.75C27 125.25 84.3312 222.575 36.25 265C23.5 276.25 16 281 0 281" stroke="#F6AE2D" stroke-width="6" stroke-linecap="square"/>
<path d="M213 320C213 303.5 223.323 276.559 240.25 282.75C254.47 287.95 251 308.25 251 320" stroke="#F6AE2D" stroke-width="6" stroke-linecap="square"/>
<path d="M319.998 17C274.498 17 305.438 120.722 272.748 152C234.476 188.619 190.421 158.75 148.498 158.75C80.4982 158.75 148.498 276.5 103.248 321.75C90.9983 330.75 60.9981 342.6 72.9981 318C87.9981 287.25 114.749 260.75 93.9988 194.25C73.2488 127.75 126.445 136.154 158.999 140.75C201.499 146.75 283.249 169.75 265.249 81.25C253.23 22.1563 283.749 -10.5 304.749 -10.5" stroke="#F6AE2D" stroke-width="6" stroke-linecap="square"/>
<path d="M251 0C251 60 244.75 126.75 164.5 117.5C84.25 108.25 60 100.25 75.25 180C90.5 259.75 63.75 310 0 310" stroke="#F6AE2D" stroke-width="6" stroke-linecap="square"/>
<path d="M264.753 402.25C252.734 343.156 283.753 310 303.252 310H320.252" stroke="#F6AE2D" stroke-width="6" stroke-linecap="square"/>
</g>
</g>
</g>
<g clip-path="url(#clip58_2230_184628)">
<g clip-path="url(#clip59_2230_184628)">
<g clip-path="url(#clip60_2230_184628)">
<path d="M125 318.5C148.25 262.25 113.337 219.642 145 189.75C169.435 166.682 195.75 177.75 218.75 189.75C241.75 201.75 308.75 204.54 308.75 132.25C308.75 110.25 291.75 76.25 320 48" stroke="#A6FFA1" stroke-width="6" stroke-linecap="square"/>
<path d="M0 252C12 252 25.5 238 32.75 230.75C64 199.5 3.75 125.5 38.75 90.5C80.9027 48.3473 151.631 109.877 181 58C194.747 33.7171 195 19.25 195 0" stroke="#A6FFA1" stroke-width="6" stroke-linecap="square"/>
<path d="M213 0C213 32.5 217.503 65.2002 192.75 87.5C165 112.5 81.4211 74.2001 55.25 98.75C27 125.25 84.3312 222.575 36.25 265C23.5 276.25 16 281 0 281" stroke="#A6FFA1" stroke-width="6" stroke-linecap="square"/>
<path d="M319.998 17C274.498 17 305.438 120.722 272.748 152C234.476 188.619 190.421 158.75 148.498 158.75C80.4982 158.75 148.498 276.5 103.248 321.75C90.9983 330.75 60.9981 342.6 72.9981 318C87.9981 287.25 114.749 260.75 93.9988 194.25C73.2488 127.75 126.445 136.154 158.999 140.75C201.499 146.75 283.249 169.75 265.249 81.25C253.23 22.1563 283.749 -10.5 304.749 -10.5" stroke="#A6FFA1" stroke-width="6" stroke-linecap="square"/>
<path d="M319.997 -296C274.498 -296 305.437 -199.278 272.748 -168C234.476 -131.381 190.421 -161.25 148.497 -161.25C80.4976 -161.25 148.497 -43.4998 103.248 1.75C90.9976 10.75 60.9981 22.6 72.9981 -2C87.9981 -32.75 114.748 -59.25 93.9981 -125.75C73.2481 -192.25 126.444 -183.846 158.998 -179.25C201.498 -173.25 277.748 -150.25 259.748 -238.75C247.729 -297.844 283.748 -330.5 304.748 -330.5" stroke="#A6FFA1" stroke-width="6" stroke-linecap="square"/>
<path d="M251 0C251 60 244.75 126.75 164.5 117.5C84.25 108.25 60 100.25 75.25 180C90.5 259.75 63.75 310 0 310" stroke="#A6FFA1" stroke-width="6" stroke-linecap="square"/>
</g>
</g>
</g>
<g clip-path="url(#clip61_2230_184628)">
<g clip-path="url(#clip62_2230_184628)">
<g clip-path="url(#clip63_2230_184628)">
<path d="M125 318.5C148.25 262.25 113.337 219.642 145 189.75C169.435 166.682 195.75 177.75 218.75 189.75C241.75 201.75 308.75 204.54 308.75 132.25C308.75 110.25 291.75 76.25 320 48" stroke="#F45B69" stroke-width="6" stroke-linecap="square"/>
<path d="M155.002 320C155.003 285.75 138.253 248.501 166.002 220.75C192.251 194.499 217.752 221 320.002 221" stroke="#F45B69" stroke-width="6"/>
<path d="M172.5 320C172.5 286.5 161.722 256.809 190.751 239.5C231 215.5 252.001 252 320.001 252" stroke="#F45B69" stroke-width="6" stroke-linecap="square"/>
<path d="M195 320C195 307.239 191.917 273.303 207.25 264.5C237.321 247.237 274.893 280.967 319.998 280.968" stroke="#F45B69" stroke-width="6" stroke-linecap="square"/>
<path d="M319.998 17C274.498 17 305.438 120.722 272.748 152C234.476 188.619 190.421 158.75 148.498 158.75C80.4982 158.75 148.498 276.5 103.248 321.75C90.9983 330.75 60.9981 342.6 72.9981 318C87.9981 287.25 114.749 260.75 93.9988 194.25C73.2488 127.75 126.445 136.154 158.999 140.75C201.499 146.75 283.249 169.75 265.249 81.25C253.23 22.1563 283.749 -10.5 304.749 -10.5" stroke="#F45B69" stroke-width="6" stroke-linecap="square"/>
</g>
</g>
</g>
<g clip-path="url(#clip64_2230_184628)">
<g clip-path="url(#clip65_2230_184628)">
<g clip-path="url(#clip66_2230_184628)">
<path d="M125 318.5C148.25 262.25 113.337 219.642 145 189.75C169.435 166.682 195.75 177.75 218.75 189.75C241.75 201.75 308.75 204.54 308.75 132.25C308.75 110.25 291.75 76.25 320 48" stroke="#A6FFA1" stroke-width="6" stroke-linecap="square"/>
<path d="M155.002 320C155.003 285.75 138.253 248.501 166.002 220.75C192.251 194.499 217.752 221 320.002 221" stroke="#A6FFA1" stroke-width="6"/>
<path d="M172.5 320C172.5 286.5 161.722 256.809 190.751 239.5C231 215.5 252.001 252 320.001 252" stroke="#A6FFA1" stroke-width="6" stroke-linecap="square"/>
<path d="M195 320C195 307.239 191.917 273.303 207.25 264.5C237.321 247.237 274.893 280.967 319.998 280.968" stroke="#A6FFA1" stroke-width="6" stroke-linecap="square"/>
<path d="M319.998 17C274.498 17 305.438 120.722 272.748 152C234.476 188.619 190.421 158.75 148.498 158.75C80.4982 158.75 148.498 276.5 103.248 321.75C90.9983 330.75 60.9981 342.6 72.9981 318C87.9981 287.25 114.749 260.75 93.9988 194.25C73.2488 127.75 126.445 136.154 158.999 140.75C201.499 146.75 283.249 169.75 265.249 81.25C253.23 22.1563 283.749 -10.5 304.749 -10.5" stroke="#A6FFA1" stroke-width="6" stroke-linecap="square"/>
<path d="M264.753 402.25C252.734 343.156 283.753 310 303.252 310H320.252" stroke="#A6FFA1" stroke-width="6" stroke-linecap="square"/>
</g>
</g>
</g>
<g clip-path="url(#clip67_2230_184628)">
<g clip-path="url(#clip68_2230_184628)">
<g clip-path="url(#clip69_2230_184628)">
<path d="M125 318.5C148.25 262.25 113.337 219.642 145 189.75C169.435 166.682 195.75 177.75 218.75 189.75C241.75 201.75 308.75 204.54 308.75 132.25C308.75 110.25 291.75 76.25 320 48" stroke="#A6FFA1" stroke-width="6" stroke-linecap="square"/>
<path d="M0 252C12 252 25.5 238 32.75 230.75C64 199.5 3.75 125.5 38.75 90.5C80.9027 48.3473 151.631 109.877 181 58C194.747 33.7171 195 19.25 195 0" stroke="#A6FFA1" stroke-width="6" stroke-linecap="square"/>
<path d="M213 0C213 32.5 217.503 65.2002 192.75 87.5C165 112.5 81.4211 74.2001 55.25 98.75C27 125.25 84.3312 222.575 36.25 265C23.5 276.25 16 281 0 281" stroke="#A6FFA1" stroke-width="6" stroke-linecap="square"/>
<path d="M319.998 17C274.498 17 305.438 120.722 272.748 152C234.476 188.619 190.421 158.75 148.498 158.75C80.4982 158.75 148.498 276.5 103.248 321.75C90.9983 330.75 60.9981 342.6 72.9981 318C87.9981 287.25 114.749 260.75 93.9988 194.25C73.2488 127.75 126.445 136.154 158.999 140.75C201.499 146.75 283.249 169.75 265.249 81.25C253.23 22.1563 283.749 -10.5 304.749 -10.5" stroke="#A6FFA1" stroke-width="6" stroke-linecap="square"/>
<path d="M251 0C251 60 244.75 126.75 164.5 117.5C84.25 108.25 60 100.25 75.25 180C90.5 259.75 63.75 310 0 310" stroke="#A6FFA1" stroke-width="6" stroke-linecap="square"/>
</g>
</g>
</g>
<g clip-path="url(#clip70_2230_184628)">
<g clip-path="url(#clip71_2230_184628)">
<g clip-path="url(#clip72_2230_184628)">
<path d="M125 318.5C148.25 262.25 113.337 219.642 145 189.75C169.435 166.682 195.75 177.75 218.75 189.75C241.75 201.75 308.75 204.54 308.75 132.25C308.75 110.25 291.75 76.25 320 48" stroke="#F6AE2D" stroke-width="6" stroke-linecap="square"/>
<path d="M319.998 17C274.498 17 305.438 120.722 272.748 152C234.476 188.619 190.421 158.75 148.498 158.75C80.4982 158.75 148.498 276.5 103.248 321.75C90.9983 330.75 60.9981 342.6 72.9981 318C87.9981 287.25 114.749 260.75 93.9988 194.25C73.2488 127.75 126.445 136.154 158.999 140.75C201.499 146.75 283.249 169.75 265.249 81.25C253.23 22.1563 283.749 -10.5 304.749 -10.5" stroke="#F6AE2D" stroke-width="6" stroke-linecap="square"/>
<path d="M319.997 -296C274.498 -296 305.437 -199.278 272.748 -168C234.476 -131.381 190.421 -161.25 148.497 -161.25C80.4976 -161.25 148.497 -43.4998 103.248 1.75C90.9976 10.75 60.9981 22.6 72.9981 -2C87.9981 -32.75 114.748 -59.25 93.9981 -125.75C73.2481 -192.25 126.444 -183.846 158.998 -179.25C201.498 -173.25 277.748 -150.25 259.748 -238.75C247.729 -297.844 283.748 -330.5 304.748 -330.5" stroke="#F6AE2D" stroke-width="6" stroke-linecap="square"/>
</g>
</g>
</g>
<g clip-path="url(#clip73_2230_184628)">
<g clip-path="url(#clip74_2230_184628)">
<g clip-path="url(#clip75_2230_184628)">
<path d="M125 318.5C148.25 262.25 113.337 219.642 145 189.75C169.435 166.682 195.75 177.75 218.75 189.75C241.75 201.75 308.75 204.54 308.75 132.25C308.75 110.25 291.75 76.25 320 48" stroke="#AE7FE9" stroke-width="6" stroke-linecap="square"/>
<path d="M319.998 17C274.498 17 305.438 120.722 272.748 152C234.476 188.619 190.421 158.75 148.498 158.75C80.4982 158.75 148.498 276.5 103.248 321.75C90.9983 330.75 60.9981 342.6 72.9981 318C87.9981 287.25 114.749 260.75 93.9988 194.25C73.2488 127.75 126.445 136.154 158.999 140.75C201.499 146.75 283.249 169.75 265.249 81.25C253.23 22.1563 283.749 -10.5 304.749 -10.5" stroke="#AE7FE9" stroke-width="6" stroke-linecap="square"/>
</g>
</g>
</g>
</g>
<defs>
<clipPath id="clip0_2230_184628">
<rect width="320" height="320" fill="white"/>
</clipPath>
<clipPath id="clip1_2230_184628">
<rect width="64" height="64" fill="white"/>
</clipPath>
<clipPath id="clip2_2230_184628">
<rect width="320" height="320" fill="white"/>
</clipPath>
<clipPath id="clip3_2230_184628">
<rect width="320" height="320" fill="white"/>
</clipPath>
<clipPath id="clip4_2230_184628">
<rect width="64" height="64" fill="white" transform="translate(0 64)"/>
</clipPath>
<clipPath id="clip5_2230_184628">
<rect width="320" height="320" fill="white"/>
</clipPath>
<clipPath id="clip6_2230_184628">
<rect width="320" height="320" fill="white"/>
</clipPath>
<clipPath id="clip7_2230_184628">
<rect width="64" height="64" fill="white" transform="translate(0 128)"/>
</clipPath>
<clipPath id="clip8_2230_184628">
<rect width="320" height="320" fill="white"/>
</clipPath>
<clipPath id="clip9_2230_184628">
<rect width="320" height="320" fill="white"/>
</clipPath>
<clipPath id="clip10_2230_184628">
<rect width="64" height="64" fill="white" transform="translate(0 192)"/>
</clipPath>
<clipPath id="clip11_2230_184628">
<rect width="320" height="320" fill="white"/>
</clipPath>
<clipPath id="clip12_2230_184628">
<rect width="320" height="320" fill="white"/>
</clipPath>
<clipPath id="clip13_2230_184628">
<rect width="64" height="64" fill="white" transform="translate(0 256)"/>
</clipPath>
<clipPath id="clip14_2230_184628">
<rect width="320" height="320" fill="white"/>
</clipPath>
<clipPath id="clip15_2230_184628">
<rect width="320" height="320" fill="white"/>
</clipPath>
<clipPath id="clip16_2230_184628">
<rect width="64" height="64" fill="white" transform="translate(64 64)"/>
</clipPath>
<clipPath id="clip17_2230_184628">
<rect width="320" height="320" fill="white"/>
</clipPath>
<clipPath id="clip18_2230_184628">
<rect width="320" height="320" fill="white"/>
</clipPath>
<clipPath id="clip19_2230_184628">
<rect width="64" height="64" fill="white" transform="translate(64)"/>
</clipPath>
<clipPath id="clip20_2230_184628">
<rect width="320" height="320" fill="white"/>
</clipPath>
<clipPath id="clip21_2230_184628">
<rect width="320" height="320" fill="white"/>
</clipPath>
<clipPath id="clip22_2230_184628">
<rect width="64" height="64" fill="white" transform="translate(128 64)"/>
</clipPath>
<clipPath id="clip23_2230_184628">
<rect width="320" height="320" fill="white"/>
</clipPath>
<clipPath id="clip24_2230_184628">
<rect width="320" height="320" fill="white"/>
</clipPath>
<clipPath id="clip25_2230_184628">
<rect width="64" height="64" fill="white" transform="translate(64 192)"/>
</clipPath>
<clipPath id="clip26_2230_184628">
<rect width="320" height="320" fill="white"/>
</clipPath>
<clipPath id="clip27_2230_184628">
<rect width="320" height="320" fill="white"/>
</clipPath>
<clipPath id="clip28_2230_184628">
<rect width="64" height="64" fill="white" transform="translate(64 256)"/>
</clipPath>
<clipPath id="clip29_2230_184628">
<rect width="320" height="320" fill="white"/>
</clipPath>
<clipPath id="clip30_2230_184628">
<rect width="320" height="320" fill="white"/>
</clipPath>
<clipPath id="clip31_2230_184628">
<rect width="64" height="64" fill="white" transform="translate(64 128)"/>
</clipPath>
<clipPath id="clip32_2230_184628">
<rect width="320" height="320" fill="white"/>
</clipPath>
<clipPath id="clip33_2230_184628">
<rect width="320" height="320" fill="white"/>
</clipPath>
<clipPath id="clip34_2230_184628">
<rect width="64" height="64" fill="white" transform="translate(192 64)"/>
</clipPath>
<clipPath id="clip35_2230_184628">
<rect width="320" height="320" fill="white"/>
</clipPath>
<clipPath id="clip36_2230_184628">
<rect width="320" height="320" fill="white"/>
</clipPath>
<clipPath id="clip37_2230_184628">
<rect width="64" height="64" fill="white" transform="translate(128)"/>
</clipPath>
<clipPath id="clip38_2230_184628">
<rect width="320" height="320" fill="white"/>
</clipPath>
<clipPath id="clip39_2230_184628">
<rect width="320" height="320" fill="white"/>
</clipPath>
<clipPath id="clip40_2230_184628">
<rect width="64" height="64" fill="white" transform="translate(128 192)"/>
</clipPath>
<clipPath id="clip41_2230_184628">
<rect width="320" height="320" fill="white"/>
</clipPath>
<clipPath id="clip42_2230_184628">
<rect width="320" height="320" fill="white"/>
</clipPath>
<clipPath id="clip43_2230_184628">
<rect width="64" height="64" fill="white" transform="translate(128 256)"/>
</clipPath>
<clipPath id="clip44_2230_184628">
<rect width="320" height="320" fill="white"/>
</clipPath>
<clipPath id="clip45_2230_184628">
<rect width="320" height="320" fill="white"/>
</clipPath>
<clipPath id="clip46_2230_184628">
<rect width="64" height="64" fill="white" transform="translate(256 64)"/>
</clipPath>
<clipPath id="clip47_2230_184628">
<rect width="320" height="320" fill="white"/>
</clipPath>
<clipPath id="clip48_2230_184628">
<rect width="320" height="320" fill="white"/>
</clipPath>
<clipPath id="clip49_2230_184628">
<rect width="64" height="64" fill="white" transform="translate(128 128)"/>
</clipPath>
<clipPath id="clip50_2230_184628">
<rect width="320" height="320" fill="white"/>
</clipPath>
<clipPath id="clip51_2230_184628">
<rect width="320" height="320" fill="white"/>
</clipPath>
<clipPath id="clip52_2230_184628">
<rect width="64" height="64" fill="white" transform="translate(192 192)"/>
</clipPath>
<clipPath id="clip53_2230_184628">
<rect width="320" height="320" fill="white"/>
</clipPath>
<clipPath id="clip54_2230_184628">
<rect width="320" height="320" fill="white"/>
</clipPath>
<clipPath id="clip55_2230_184628">
<rect width="64" height="64" fill="white" transform="translate(192 256)"/>
</clipPath>
<clipPath id="clip56_2230_184628">
<rect width="320" height="320" fill="white"/>
</clipPath>
<clipPath id="clip57_2230_184628">
<rect width="320" height="320" fill="white"/>
</clipPath>
<clipPath id="clip58_2230_184628">
<rect width="64" height="64" fill="white" transform="translate(192)"/>
</clipPath>
<clipPath id="clip59_2230_184628">
<rect width="320" height="320" fill="white"/>
</clipPath>
<clipPath id="clip60_2230_184628">
<rect width="320" height="320" fill="white"/>
</clipPath>
<clipPath id="clip61_2230_184628">
<rect width="64" height="64" fill="white" transform="translate(256 192)"/>
</clipPath>
<clipPath id="clip62_2230_184628">
<rect width="320" height="320" fill="white"/>
</clipPath>
<clipPath id="clip63_2230_184628">
<rect width="320" height="320" fill="white"/>
</clipPath>
<clipPath id="clip64_2230_184628">
<rect width="64" height="64" fill="white" transform="translate(256 256)"/>
</clipPath>
<clipPath id="clip65_2230_184628">
<rect width="320" height="320" fill="white"/>
</clipPath>
<clipPath id="clip66_2230_184628">
<rect width="320" height="320" fill="white"/>
</clipPath>
<clipPath id="clip67_2230_184628">
<rect width="64" height="64" fill="white" transform="translate(192 128)"/>
</clipPath>
<clipPath id="clip68_2230_184628">
<rect width="320" height="320" fill="white"/>
</clipPath>
<clipPath id="clip69_2230_184628">
<rect width="320" height="320" fill="white"/>
</clipPath>
<clipPath id="clip70_2230_184628">
<rect width="64" height="64" fill="white" transform="translate(256)"/>
</clipPath>
<clipPath id="clip71_2230_184628">
<rect width="320" height="320" fill="white"/>
</clipPath>
<clipPath id="clip72_2230_184628">
<rect width="320" height="320" fill="white"/>
</clipPath>
<clipPath id="clip73_2230_184628">
<rect width="64" height="64" fill="white" transform="translate(256 128)"/>
</clipPath>
<clipPath id="clip74_2230_184628">
<rect width="320" height="320" fill="white"/>
</clipPath>
<clipPath id="clip75_2230_184628">
<rect width="320" height="320" fill="white"/>
</clipPath>
</defs>
</svg>
