<svg width="399" height="225" viewBox="0 0 399 225" fill="none" xmlns="http://www.w3.org/2000/svg">
<path d="M35.7619 35.266V171.405H45.5652V174.672H32V32H45.5652V35.266H35.7619Z" fill="white"/>
<path d="M73.5307 78.4235V85.3127H73.7269C75.5655 82.6905 77.78 80.6541 80.3743 79.2105C82.9666 77.7694 85.9386 77.0459 89.286 77.0459C92.502 77.0459 95.4405 77.6707 98.0992 78.9161C100.758 80.1636 102.777 82.3604 104.156 85.5105C105.665 83.2799 107.716 81.311 110.31 79.6053C112.903 77.9003 115.972 77.0459 119.518 77.0459C122.21 77.0459 124.703 77.3746 127.002 78.0308C129.299 78.6869 131.268 79.7366 132.91 81.1798C134.55 82.6241 135.83 84.5108 136.751 86.8378C137.669 89.1693 138.129 91.9726 138.129 95.2545V129.305H124.146V100.469C124.146 98.7642 124.08 97.1569 123.948 95.6466C123.816 94.1387 123.456 92.8271 122.865 91.7103C122.274 90.5955 121.403 89.709 120.256 89.0522C119.107 88.3989 117.547 88.0688 115.578 88.0688C113.609 88.0688 112.017 88.4486 110.802 89.2003C109.587 89.956 108.635 90.9409 107.946 92.1531C107.258 93.3683 106.798 94.7458 106.568 96.2886C106.337 97.8295 106.224 99.3885 106.224 100.963V129.306H92.2408V100.766C92.2408 99.2572 92.2063 97.7635 92.1434 96.2886C92.0764 94.8112 91.7985 93.4504 91.305 92.2028C90.8126 90.9571 89.9915 89.956 88.8427 89.2003C87.694 88.4486 86.0036 88.0688 83.7715 88.0688C83.1142 88.0688 82.2444 88.2168 81.1626 88.513C80.0793 88.8082 79.0282 89.3666 78.0114 90.1857C76.9925 91.0063 76.1236 92.1875 75.4015 93.7279C74.6788 95.2707 74.3182 97.2873 74.3182 99.7801V129.305H60.3359V78.4235H73.5307Z" fill="white"/>
<path fill-rule="evenodd" clip-rule="evenodd" d="M152.6 80.6876C150.368 82.0013 148.529 83.7389 147.086 85.9046C145.64 88.0683 144.82 90.7928 144.625 94.0723H158.607C158.869 91.3172 159.79 89.3479 161.364 88.1672C162.94 86.9859 165.107 86.3951 167.864 86.3951C169.11 86.3951 170.276 86.4792 171.36 86.6411C172.442 86.8059 173.394 87.134 174.215 87.626C175.035 88.1175 175.692 88.8077 176.185 89.6928C176.677 90.5783 176.923 91.7767 176.923 93.2846C176.987 94.7291 176.56 95.8281 175.643 96.5823C174.722 97.3375 173.476 97.9106 171.9 98.3042C170.325 98.6978 168.519 98.9935 166.484 99.1908C164.449 99.3875 162.381 99.6503 160.281 99.9774C158.179 100.308 156.095 100.749 154.028 101.306C151.959 101.864 150.121 102.7 148.514 103.815C146.903 104.932 145.591 106.424 144.574 108.295C143.555 110.163 143.047 112.542 143.047 115.428C143.047 118.052 143.491 120.317 144.377 122.22C145.263 124.122 146.494 125.697 148.07 126.942C149.645 128.191 151.483 129.109 153.584 129.699C155.685 130.289 157.949 130.585 160.379 130.585C163.531 130.585 166.616 130.124 169.636 129.208C172.654 128.289 175.281 126.681 177.513 124.385C177.578 125.238 177.693 126.075 177.858 126.894C178.021 127.714 178.235 128.517 178.498 129.305H192.678C192.021 128.256 191.561 126.681 191.3 124.581C191.037 122.481 190.905 120.286 190.905 117.987V91.514C190.905 88.4299 190.216 85.9523 188.838 84.0828C187.458 82.2138 185.686 80.7528 183.52 79.7036C181.353 78.6551 178.957 77.949 176.331 77.5868C173.705 77.2272 171.113 77.0459 168.552 77.0459C165.729 77.0459 162.922 77.3259 160.133 77.8829C157.342 78.4412 154.832 79.3757 152.6 80.6876ZM171.852 106.376C172.869 106.179 173.821 105.933 174.707 105.639C175.594 105.343 176.332 104.933 176.924 104.407V109.624C176.924 110.411 176.84 111.461 176.678 112.773C176.513 114.087 176.069 115.38 175.348 116.659C174.625 117.939 173.51 119.039 172 119.956C170.489 120.876 168.356 121.334 165.599 121.334C164.483 121.334 163.4 121.236 162.35 121.039C161.299 120.843 160.38 120.498 159.593 120.006C158.805 119.514 158.18 118.842 157.721 117.988C157.261 117.136 157.032 116.085 157.032 114.84C157.032 113.528 157.261 112.445 157.721 111.592C158.18 110.741 158.787 110.034 159.544 109.476C160.297 108.919 161.184 108.477 162.203 108.147C163.219 107.82 164.253 107.556 165.304 107.36C166.419 107.163 167.535 107 168.652 106.867C169.768 106.737 170.834 106.573 171.852 106.376Z" fill="white"/>
<path d="M227.735 78.4276V87.7772H217.495V112.973C217.495 115.333 217.888 116.909 218.676 117.695C219.463 118.483 221.04 118.876 223.403 118.876C224.191 118.876 224.944 118.844 225.667 118.778C226.389 118.714 227.079 118.613 227.735 118.483V129.309C226.553 129.506 225.24 129.637 223.796 129.703C222.352 129.766 220.941 129.801 219.562 129.801C217.396 129.801 215.344 129.653 213.408 129.357C211.47 129.062 209.764 128.49 208.287 127.636C206.81 126.784 205.644 125.569 204.791 123.994C203.937 122.421 203.511 120.354 203.511 117.793V87.7772H195.043V78.4276H203.511V63.1729H217.494V78.4276H227.735Z" fill="white"/>
<path d="M247.727 78.4243V87.8725H247.923C248.579 86.2967 249.465 84.8385 250.582 83.4924C251.698 82.1484 252.977 80.9994 254.422 80.048C255.865 79.0983 257.409 78.3599 259.051 77.8333C260.691 77.3094 262.399 77.0459 264.172 77.0459C265.09 77.0459 266.107 77.2111 267.224 77.5386V90.5306C266.567 90.3982 265.779 90.2831 264.861 90.1857C263.941 90.0868 263.055 90.0371 262.202 90.0371C259.641 90.0371 257.475 90.4652 255.703 91.3173C253.931 92.1703 252.504 93.3338 251.42 94.8102C250.337 96.2876 249.564 98.0086 249.105 99.9774C248.646 101.945 248.416 104.079 248.416 106.375V129.305H234.434V78.4243H247.727Z" fill="white"/>
<path fill-rule="evenodd" clip-rule="evenodd" d="M273.135 59.0391V70.5538H287.119V59.0391H273.135ZM287.117 129.31V78.4285H273.133V129.31H287.117Z" fill="white"/>
<path d="M294.399 78.4219H310.351L319.312 91.7079L328.175 78.4219H343.635L326.895 102.239L345.703 129.304H329.751L319.115 113.262L308.48 129.304H292.824L311.139 102.535L294.399 78.4219Z" fill="white"/>
<path d="M362.78 171.405V35.266H352.977V32H366.543V174.672H352.977V171.405H362.78Z" fill="white"/>
<path d="M78.8495 167.019C78.5029 165.32 77.7749 164.003 76.6655 163.067C75.5562 162.131 74.0655 161.663 72.1935 161.663C70.5989 161.663 69.2642 161.957 68.1895 162.547C67.1149 163.136 66.2482 163.916 65.5895 164.887C64.9655 165.857 64.5149 166.984 64.2375 168.267C63.9602 169.515 63.8215 170.815 63.8215 172.167C63.8215 173.415 63.9602 174.628 64.2375 175.807C64.5495 176.985 65.0175 178.043 65.6415 178.979C66.2655 179.88 67.0802 180.608 68.0855 181.163C69.0909 181.717 70.2869 181.995 71.6735 181.995C73.8575 181.995 75.5562 181.423 76.7695 180.279C78.0175 179.135 78.7802 177.523 79.0575 175.443H83.5815C83.0962 178.771 81.8482 181.336 79.8375 183.139C77.8615 184.941 75.1575 185.843 71.7255 185.843C69.6802 185.843 67.8602 185.513 66.2655 184.855C64.7055 184.196 63.3882 183.26 62.3135 182.047C61.2735 180.833 60.4762 179.395 59.9215 177.731C59.4015 176.032 59.1415 174.177 59.1415 172.167C59.1415 170.156 59.4015 168.284 59.9215 166.551C60.4415 164.783 61.2215 163.257 62.2615 161.975C63.3362 160.657 64.6709 159.635 66.2655 158.907C67.8602 158.144 69.7149 157.763 71.8295 157.763C73.3549 157.763 74.7762 157.953 76.0935 158.335C77.4455 158.681 78.6242 159.236 79.6295 159.999C80.6695 160.761 81.5189 161.732 82.1775 162.911C82.8362 164.055 83.2522 165.424 83.4255 167.019H78.8495ZM93.8312 171.855C93.8312 173.484 94.0392 174.94 94.4552 176.223C94.9059 177.471 95.5126 178.528 96.2752 179.395C97.0379 180.227 97.9219 180.868 98.9272 181.319C99.9672 181.769 101.059 181.995 102.203 181.995C103.347 181.995 104.422 181.769 105.427 181.319C106.467 180.868 107.369 180.227 108.131 179.395C108.894 178.528 109.483 177.471 109.899 176.223C110.35 174.94 110.575 173.484 110.575 171.855C110.575 170.225 110.35 168.787 109.899 167.539C109.483 166.256 108.894 165.181 108.131 164.315C107.369 163.448 106.467 162.789 105.427 162.339C104.422 161.888 103.347 161.663 102.203 161.663C101.059 161.663 99.9672 161.888 98.9272 162.339C97.9219 162.789 97.0379 163.448 96.2752 164.315C95.5126 165.181 94.9059 166.256 94.4552 167.539C94.0392 168.787 93.8312 170.225 93.8312 171.855ZM89.1512 171.855C89.1512 169.879 89.4286 168.041 89.9832 166.343C90.5379 164.609 91.3699 163.119 92.4792 161.871C93.5886 160.588 94.9579 159.583 96.5872 158.855C98.2166 158.127 100.089 157.763 102.203 157.763C104.353 157.763 106.225 158.127 107.819 158.855C109.449 159.583 110.818 160.588 111.927 161.871C113.037 163.119 113.869 164.609 114.423 166.343C114.978 168.041 115.255 169.879 115.255 171.855C115.255 173.831 114.978 175.668 114.423 177.367C113.869 179.065 113.037 180.556 111.927 181.839C110.818 183.087 109.449 184.075 107.819 184.803C106.225 185.496 104.353 185.843 102.203 185.843C100.089 185.843 98.2166 185.496 96.5872 184.803C94.9579 184.075 93.5886 183.087 92.4792 181.839C91.3699 180.556 90.5379 179.065 89.9832 177.367C89.4286 175.668 89.1512 173.831 89.1512 171.855ZM122.547 158.387H126.707V162.651H126.811C128.648 159.392 131.56 157.763 135.547 157.763C137.315 157.763 138.788 158.005 139.967 158.491C141.145 158.976 142.099 159.652 142.827 160.519C143.555 161.385 144.057 162.425 144.335 163.639C144.647 164.817 144.803 166.135 144.803 167.591V185.271H140.383V167.071C140.383 165.407 139.897 164.089 138.927 163.119C137.956 162.148 136.621 161.663 134.923 161.663C133.571 161.663 132.392 161.871 131.387 162.287C130.416 162.703 129.601 163.292 128.943 164.055C128.284 164.817 127.781 165.719 127.435 166.759C127.123 167.764 126.967 168.873 126.967 170.087V185.271H122.547V158.387ZM155.341 162.287H150.817V158.387H155.341V154.383C155.341 152.199 155.965 150.552 157.213 149.443C158.496 148.299 160.35 147.727 162.777 147.727C163.193 147.727 163.661 147.761 164.181 147.831C164.736 147.9 165.221 148.004 165.637 148.143V151.991C165.256 151.852 164.84 151.765 164.389 151.731C163.938 151.661 163.522 151.627 163.141 151.627C162.066 151.627 161.234 151.835 160.645 152.251C160.056 152.667 159.761 153.464 159.761 154.643V158.387H164.961V162.287H159.761V185.271H155.341V162.287ZM189.656 169.255C189.587 168.215 189.344 167.227 188.928 166.291C188.547 165.355 188.009 164.557 187.316 163.899C186.657 163.205 185.86 162.668 184.924 162.287C184.023 161.871 183.017 161.663 181.908 161.663C180.764 161.663 179.724 161.871 178.788 162.287C177.887 162.668 177.107 163.205 176.448 163.899C175.789 164.592 175.269 165.407 174.888 166.343C174.507 167.244 174.281 168.215 174.212 169.255H189.656ZM193.92 176.743C193.331 179.759 192.031 182.029 190.02 183.555C188.009 185.08 185.479 185.843 182.428 185.843C180.279 185.843 178.407 185.496 176.812 184.803C175.252 184.109 173.935 183.139 172.86 181.891C171.785 180.643 170.971 179.152 170.416 177.419C169.896 175.685 169.601 173.796 169.532 171.751C169.532 169.705 169.844 167.833 170.468 166.135C171.092 164.436 171.959 162.963 173.068 161.715C174.212 160.467 175.547 159.496 177.072 158.803C178.632 158.109 180.331 157.763 182.168 157.763C184.56 157.763 186.536 158.265 188.096 159.271C189.691 160.241 190.956 161.489 191.892 163.015C192.863 164.54 193.521 166.204 193.868 168.007C194.249 169.809 194.405 171.525 194.336 173.155H174.212C174.177 174.333 174.316 175.46 174.628 176.535C174.94 177.575 175.443 178.511 176.136 179.343C176.829 180.14 177.713 180.781 178.788 181.267C179.863 181.752 181.128 181.995 182.584 181.995C184.456 181.995 185.981 181.561 187.16 180.695C188.373 179.828 189.171 178.511 189.552 176.743H193.92ZM200.842 158.387H205.002V164.055H205.106C206.18 161.871 207.498 160.259 209.058 159.219C210.618 158.179 212.594 157.693 214.986 157.763V162.443C213.218 162.443 211.71 162.685 210.462 163.171C209.214 163.656 208.208 164.367 207.446 165.303C206.683 166.239 206.128 167.383 205.782 168.735C205.435 170.052 205.262 171.577 205.262 173.311V185.271H200.842V158.387ZM238.148 169.255C238.079 168.215 237.836 167.227 237.42 166.291C237.039 165.355 236.501 164.557 235.808 163.899C235.149 163.205 234.352 162.668 233.416 162.287C232.515 161.871 231.509 161.663 230.4 161.663C229.256 161.663 228.216 161.871 227.28 162.287C226.379 162.668 225.599 163.205 224.94 163.899C224.281 164.592 223.761 165.407 223.38 166.343C222.999 167.244 222.773 168.215 222.704 169.255H238.148ZM242.412 176.743C241.823 179.759 240.523 182.029 238.512 183.555C236.501 185.08 233.971 185.843 230.92 185.843C228.771 185.843 226.899 185.496 225.304 184.803C223.744 184.109 222.427 183.139 221.352 181.891C220.277 180.643 219.463 179.152 218.908 177.419C218.388 175.685 218.093 173.796 218.024 171.751C218.024 169.705 218.336 167.833 218.96 166.135C219.584 164.436 220.451 162.963 221.56 161.715C222.704 160.467 224.039 159.496 225.564 158.803C227.124 158.109 228.823 157.763 230.66 157.763C233.052 157.763 235.028 158.265 236.588 159.271C238.183 160.241 239.448 161.489 240.384 163.015C241.355 164.54 242.013 166.204 242.36 168.007C242.741 169.809 242.897 171.525 242.828 173.155H222.704C222.669 174.333 222.808 175.46 223.12 176.535C223.432 177.575 223.935 178.511 224.628 179.343C225.321 180.14 226.205 180.781 227.28 181.267C228.355 181.752 229.62 181.995 231.076 181.995C232.948 181.995 234.473 181.561 235.652 180.695C236.865 179.828 237.663 178.511 238.044 176.743H242.412ZM249.49 158.387H253.65V162.651H253.754C255.591 159.392 258.503 157.763 262.49 157.763C264.258 157.763 265.731 158.005 266.91 158.491C268.088 158.976 269.042 159.652 269.77 160.519C270.498 161.385 271 162.425 271.278 163.639C271.59 164.817 271.746 166.135 271.746 167.591V185.271H267.326V167.071C267.326 165.407 266.84 164.089 265.87 163.119C264.899 162.148 263.564 161.663 261.866 161.663C260.514 161.663 259.335 161.871 258.33 162.287C257.359 162.703 256.544 163.292 255.886 164.055C255.227 164.817 254.724 165.719 254.378 166.759C254.066 167.764 253.91 168.873 253.91 170.087V185.271H249.49V158.387ZM298.716 167.019C298.369 165.32 297.641 164.003 296.532 163.067C295.423 162.131 293.932 161.663 292.06 161.663C290.465 161.663 289.131 161.957 288.056 162.547C286.981 163.136 286.115 163.916 285.456 164.887C284.832 165.857 284.381 166.984 284.104 168.267C283.827 169.515 283.688 170.815 283.688 172.167C283.688 173.415 283.827 174.628 284.104 175.807C284.416 176.985 284.884 178.043 285.508 178.979C286.132 179.88 286.947 180.608 287.952 181.163C288.957 181.717 290.153 181.995 291.54 181.995C293.724 181.995 295.423 181.423 296.636 180.279C297.884 179.135 298.647 177.523 298.924 175.443H303.448C302.963 178.771 301.715 181.336 299.704 183.139C297.728 184.941 295.024 185.843 291.592 185.843C289.547 185.843 287.727 185.513 286.132 184.855C284.572 184.196 283.255 183.26 282.18 182.047C281.14 180.833 280.343 179.395 279.788 177.731C279.268 176.032 279.008 174.177 279.008 172.167C279.008 170.156 279.268 168.284 279.788 166.551C280.308 164.783 281.088 163.257 282.128 161.975C283.203 160.657 284.537 159.635 286.132 158.907C287.727 158.144 289.581 157.763 291.696 157.763C293.221 157.763 294.643 157.953 295.96 158.335C297.312 158.681 298.491 159.236 299.496 159.999C300.536 160.761 301.385 161.732 302.044 162.911C302.703 164.055 303.119 165.424 303.292 167.019H298.716ZM329.142 169.255C329.072 168.215 328.83 167.227 328.414 166.291C328.032 165.355 327.495 164.557 326.802 163.899C326.143 163.205 325.346 162.668 324.41 162.287C323.508 161.871 322.503 161.663 321.394 161.663C320.25 161.663 319.21 161.871 318.274 162.287C317.372 162.668 316.592 163.205 315.934 163.899C315.275 164.592 314.755 165.407 314.374 166.343C313.992 167.244 313.767 168.215 313.698 169.255H329.142ZM333.406 176.743C332.816 179.759 331.516 182.029 329.506 183.555C327.495 185.08 324.964 185.843 321.914 185.843C319.764 185.843 317.892 185.496 316.298 184.803C314.738 184.109 313.42 183.139 312.346 181.891C311.271 180.643 310.456 179.152 309.902 177.419C309.382 175.685 309.087 173.796 309.018 171.751C309.018 169.705 309.33 167.833 309.954 166.135C310.578 164.436 311.444 162.963 312.554 161.715C313.698 160.467 315.032 159.496 316.558 158.803C318.118 158.109 319.816 157.763 321.654 157.763C324.046 157.763 326.022 158.265 327.582 159.271C329.176 160.241 330.442 161.489 331.378 163.015C332.348 164.54 333.007 166.204 333.354 168.007C333.735 169.809 333.891 171.525 333.822 173.155H313.698C313.663 174.333 313.802 175.46 314.114 176.535C314.426 177.575 314.928 178.511 315.622 179.343C316.315 180.14 317.199 180.781 318.274 181.267C319.348 181.752 320.614 181.995 322.07 181.995C323.942 181.995 325.467 181.561 326.646 180.695C327.859 179.828 328.656 178.511 329.038 176.743H333.406Z" fill="white"/>
</svg>
