<svg width="24" height="25" viewBox="0 0 24 25" fill="none" xmlns="http://www.w3.org/2000/svg">
<path d="M20 9.21265C20.5523 9.21265 21 9.66036 21 10.2126V18.2126C21 18.7649 20.5523 19.2126 20 19.2126H4C3.44772 19.2126 3 18.7649 3 18.2126V10.2126C3 9.66036 3.44772 9.21265 4 9.21265H20ZM4 8.21265C2.89543 8.21265 2 9.10808 2 10.2126V18.2126C2 19.3172 2.89543 20.2126 4 20.2126H20C21.1046 20.2126 22 19.3172 22 18.2126V10.2126C22 9.10808 21.1046 8.21265 20 8.21265H4Z" fill="#0098D4"/>
<path d="M4 6.71265C4 6.4365 4.22386 6.21265 4.5 6.21265H19.5C19.7761 6.21265 20 6.4365 20 6.71265C20 6.98879 19.7761 7.21265 19.5 7.21265H4.5C4.22386 7.21265 4 6.98879 4 6.71265Z" fill="#0098D4"/>
<path d="M6 4.71265C6 4.4365 6.22386 4.21265 6.5 4.21265H17.5C17.7761 4.21265 18 4.4365 18 4.71265C18 4.98879 17.7761 5.21265 17.5 5.21265H6.5C6.22386 5.21265 6 4.98879 6 4.71265Z" fill="#0098D4"/>
</svg>
