<svg width="512" height="384" viewBox="0 0 512 384" fill="none" xmlns="http://www.w3.org/2000/svg">
<path d="M68.1598 57.2409V326.759H79V331.5H64L64 52.5H79V57.2409H68.1598Z" fill="white"/>
<path d="M110.935 99.447H103.879V122.064C103.879 123.366 104.026 124.395 104.32 125.151C104.614 125.907 105.055 126.495 105.643 126.915C106.273 127.293 107.008 127.524 107.848 127.608C108.73 127.692 109.738 127.713 110.872 127.671V129.75C109.654 129.834 108.457 129.834 107.281 129.75C106.147 129.624 105.139 129.309 104.257 128.805C103.375 128.259 102.661 127.461 102.115 126.411C101.611 125.361 101.401 123.912 101.485 122.064V99.447H95.5V97.368H101.485V87.288H103.879V97.368H110.935V99.447ZM120.246 84.768V104.298H120.372C120.792 103.08 121.38 102.009 122.136 101.085C122.934 100.119 123.837 99.3 124.845 98.628C125.895 97.956 127.029 97.452 128.247 97.116C129.465 96.78 130.704 96.612 131.964 96.612C133.854 96.612 135.45 96.843 136.752 97.305C138.096 97.767 139.188 98.376 140.028 99.132C140.868 99.888 141.519 100.749 141.981 101.715C142.485 102.639 142.842 103.584 143.052 104.55C143.262 105.516 143.388 106.461 143.43 107.385C143.472 108.267 143.493 109.044 143.493 109.716V129.75H141.099V109.275C141.099 108.477 141.036 107.469 140.91 106.251C140.784 105.033 140.406 103.878 139.776 102.786C139.188 101.652 138.264 100.686 137.004 99.888C135.786 99.09 134.085 98.691 131.901 98.691C130.053 98.691 128.415 99.027 126.987 99.699C125.559 100.371 124.341 101.316 123.333 102.534C122.325 103.71 121.548 105.138 121.002 106.818C120.498 108.456 120.246 110.262 120.246 112.236V129.75H117.852V84.768H120.246ZM153.986 113.874V114.252C153.986 116.142 154.238 117.948 154.742 119.67C155.246 121.392 155.981 122.904 156.947 124.206C157.955 125.508 159.194 126.537 160.664 127.293C162.176 128.049 163.919 128.427 165.893 128.427C169.127 128.427 171.689 127.587 173.579 125.907C175.469 124.185 176.771 121.812 177.485 118.788H179.879C179.165 122.568 177.611 125.466 175.217 127.482C172.865 129.498 169.736 130.506 165.83 130.506C163.436 130.506 161.336 130.086 159.53 129.246C157.766 128.364 156.275 127.188 155.057 125.718C153.881 124.206 152.999 122.442 152.411 120.426C151.823 118.368 151.529 116.163 151.529 113.811C151.529 111.543 151.823 109.38 152.411 107.322C153.041 105.222 153.965 103.395 155.183 101.841C156.401 100.245 157.913 98.985 159.719 98.061C161.567 97.095 163.73 96.612 166.208 96.612C168.476 96.612 170.471 97.032 172.193 97.872C173.957 98.712 175.427 99.867 176.603 101.337C177.779 102.765 178.661 104.445 179.249 106.377C179.879 108.267 180.194 110.304 180.194 112.488C180.194 112.698 180.173 112.95 180.131 113.244C180.131 113.496 180.131 113.706 180.131 113.874H153.986ZM177.737 111.795C177.653 110.031 177.359 108.372 176.855 106.818C176.351 105.222 175.595 103.836 174.587 102.66C173.621 101.442 172.424 100.476 170.996 99.762C169.61 99.048 168.014 98.691 166.208 98.691C164.276 98.691 162.575 99.069 161.105 99.825C159.635 100.539 158.396 101.505 157.388 102.723C156.38 103.899 155.603 105.285 155.057 106.881C154.511 108.477 154.175 110.115 154.049 111.795H177.737Z" fill="white"/>
<path d="M110.342 164.993V172.72H110.563C112.631 169.779 115.122 167.495 118.04 165.876C120.956 164.259 124.299 163.448 128.064 163.448C131.682 163.448 134.987 164.149 137.978 165.545C140.969 166.945 143.24 169.409 144.79 172.942C146.488 170.44 148.795 168.232 151.713 166.319C154.63 164.406 158.082 163.448 162.07 163.448C165.098 163.448 167.903 163.816 170.489 164.552C173.072 165.288 175.288 166.466 177.134 168.085C178.979 169.705 180.419 171.821 181.455 174.431C182.488 177.046 183.005 180.19 183.005 183.872V222.065H167.276V189.721C167.276 187.808 167.202 186.005 167.054 184.311C166.905 182.62 166.5 181.149 165.836 179.896C165.171 178.646 164.191 177.651 162.901 176.915C161.608 176.182 159.854 175.812 157.639 175.812C155.424 175.812 153.632 176.238 152.266 177.081C150.899 177.928 149.829 179.033 149.054 180.393C148.279 181.756 147.762 183.301 147.504 185.032C147.244 186.76 147.116 188.509 147.116 190.274V222.066H131.388V190.054C131.388 188.361 131.349 186.686 131.278 185.032C131.203 183.374 130.89 181.848 130.335 180.449C129.781 179.051 128.858 177.928 127.566 177.081C126.273 176.238 124.372 175.812 121.861 175.812C121.122 175.812 120.144 175.978 118.927 176.31C117.708 176.641 116.526 177.267 115.382 178.186C114.236 179.107 113.259 180.432 112.446 182.159C111.633 183.89 111.228 186.152 111.228 188.948V222.065H95.5V164.993H110.342Z" fill="white"/>
<path fill-rule="evenodd" clip-rule="evenodd" d="M199.285 167.533C196.774 169.006 194.705 170.955 193.082 173.384C191.455 175.811 190.534 178.867 190.314 182.546H206.042C206.336 179.455 207.372 177.246 209.143 175.922C210.916 174.597 213.353 173.934 216.455 173.934C217.855 173.934 219.167 174.029 220.387 174.21C221.604 174.395 222.675 174.763 223.598 175.315C224.521 175.866 225.26 176.64 225.814 177.633C226.368 178.627 226.644 179.971 226.644 181.662C226.716 183.282 226.236 184.515 225.204 185.361C224.169 186.208 222.767 186.851 220.995 187.292C219.223 187.734 217.191 188.065 214.903 188.287C212.613 188.507 210.287 188.802 207.924 189.169C205.561 189.539 203.217 190.035 200.891 190.66C198.564 191.285 196.497 192.223 194.689 193.474C192.877 194.727 191.401 196.4 190.257 198.498C189.111 200.594 188.539 203.263 188.539 206.5C188.539 209.443 189.038 211.984 190.035 214.118C191.032 216.252 192.417 218.018 194.189 219.414C195.961 220.815 198.028 221.844 200.392 222.507C202.755 223.169 205.302 223.5 208.035 223.5C211.58 223.5 215.05 222.983 218.448 221.956C221.843 220.925 224.798 219.122 227.308 216.546C227.381 217.503 227.51 218.441 227.696 219.36C227.879 220.28 228.12 221.181 228.416 222.065H244.366C243.627 220.888 243.109 219.122 242.816 216.766C242.52 214.411 242.372 211.948 242.372 209.369V179.676C242.372 176.217 241.597 173.438 240.046 171.341C238.495 169.244 236.501 167.606 234.065 166.429C231.628 165.253 228.932 164.461 225.979 164.054C223.025 163.651 220.109 163.448 217.228 163.448C214.053 163.448 210.895 163.762 207.758 164.387C204.618 165.013 201.795 166.061 199.285 167.533ZM220.941 196.346C222.084 196.125 223.155 195.849 224.152 195.519C225.149 195.187 225.98 194.728 226.645 194.137V199.989C226.645 200.872 226.551 202.05 226.369 203.521C226.183 204.995 225.684 206.446 224.873 207.88C224.059 209.316 222.805 210.55 221.107 211.579C219.407 212.611 217.008 213.124 213.907 213.124C212.651 213.124 211.433 213.014 210.252 212.793C209.069 212.573 208.036 212.186 207.151 211.634C206.265 211.083 205.562 210.329 205.045 209.37C204.528 208.416 204.27 207.236 204.27 205.84C204.27 204.368 204.528 203.153 205.045 202.197C205.562 201.242 206.245 200.449 207.095 199.824C207.943 199.198 208.94 198.702 210.086 198.333C211.23 197.966 212.392 197.669 213.574 197.45C214.829 197.229 216.084 197.046 217.34 196.897C218.596 196.751 219.795 196.567 220.941 196.346Z" fill="white"/>
<path d="M283.805 164.997V175.484H272.286V203.745C272.286 206.393 272.728 208.16 273.615 209.042C274.5 209.925 276.273 210.367 278.931 210.367C279.818 210.367 280.666 210.331 281.479 210.257C282.29 210.185 283.066 210.072 283.805 209.926V222.069C282.475 222.29 280.998 222.436 279.374 222.511C277.75 222.582 276.162 222.621 274.611 222.621C272.175 222.621 269.866 222.455 267.689 222.123C265.509 221.792 263.59 221.15 261.929 220.193C260.267 219.237 258.956 217.874 257.997 216.107C257.035 214.343 256.557 212.024 256.557 209.152V175.484H247.031V164.997H256.557V147.887H272.285V164.997H283.805Z" fill="white"/>
<path d="M306.289 164.994V175.591H306.51C307.247 173.824 308.244 172.188 309.5 170.679C310.756 169.171 312.195 167.882 313.82 166.815C315.443 165.75 317.179 164.922 319.027 164.331C320.871 163.743 322.792 163.448 324.787 163.448C325.82 163.448 326.963 163.633 328.22 164V178.573C327.481 178.425 326.595 178.295 325.562 178.186C324.527 178.075 323.531 178.019 322.571 178.019C319.69 178.019 317.254 178.5 315.261 179.455C313.267 180.412 311.662 181.717 310.443 183.373C309.225 185.03 308.355 186.961 307.839 189.169C307.322 191.376 307.064 193.77 307.064 196.344V222.065H291.336V164.994H306.289Z" fill="white"/>
<path fill-rule="evenodd" clip-rule="evenodd" d="M334.87 143.25V156.166H350.599V143.25H334.87ZM350.597 222.07V164.998H334.867V222.07H350.597Z" fill="white"/>
<path d="M358.795 164.991H376.738L386.818 179.893L396.787 164.991H414.177L395.348 191.705L416.504 222.063H398.56L386.597 204.07L374.633 222.063H357.023L377.624 192.038L358.795 164.991Z" fill="white"/>
<path d="M123.409 270.885C123.283 269.457 122.905 268.197 122.275 267.105C121.687 266.013 120.91 265.11 119.944 264.396C118.978 263.682 117.844 263.136 116.542 262.758C115.282 262.38 113.917 262.191 112.447 262.191C110.431 262.191 108.646 262.611 107.092 263.451C105.538 264.249 104.236 265.341 103.186 266.727C102.136 268.071 101.338 269.625 100.792 271.389C100.246 273.111 99.973 274.896 99.973 276.744C99.973 278.928 100.225 280.944 100.729 282.792C101.233 284.64 102.01 286.257 103.06 287.643C104.11 288.987 105.412 290.037 106.966 290.793C108.52 291.549 110.347 291.927 112.447 291.927C113.959 291.927 115.345 291.675 116.605 291.171C117.907 290.667 119.041 289.974 120.007 289.092C121.015 288.21 121.834 287.16 122.464 285.942C123.094 284.682 123.514 283.317 123.724 281.847H126.118C125.866 283.779 125.341 285.501 124.543 287.013C123.745 288.525 122.737 289.806 121.519 290.856C120.301 291.864 118.915 292.641 117.361 293.187C115.807 293.733 114.169 294.006 112.447 294.006C109.801 294.006 107.533 293.544 105.643 292.62C103.795 291.654 102.262 290.373 101.044 288.777C99.868 287.181 98.986 285.354 98.398 283.296C97.852 281.196 97.579 279.012 97.579 276.744C97.579 274.476 97.894 272.334 98.524 270.318C99.196 268.302 100.162 266.538 101.422 265.026C102.682 263.514 104.236 262.317 106.084 261.435C107.932 260.553 110.053 260.112 112.447 260.112C114.211 260.112 115.849 260.343 117.361 260.805C118.915 261.225 120.28 261.876 121.456 262.758C122.674 263.64 123.661 264.774 124.417 266.16C125.173 267.504 125.635 269.079 125.803 270.885H123.409ZM132.705 277.059C132.705 274.749 133.02 272.586 133.65 270.57C134.322 268.512 135.288 266.706 136.548 265.152C137.808 263.598 139.362 262.38 141.21 261.498C143.058 260.574 145.179 260.112 147.573 260.112C149.967 260.112 152.088 260.574 153.936 261.498C155.784 262.38 157.338 263.598 158.598 265.152C159.858 266.706 160.803 268.512 161.433 270.57C162.105 272.586 162.441 274.749 162.441 277.059C162.441 279.369 162.105 281.553 161.433 283.611C160.803 285.669 159.858 287.475 158.598 289.029C157.338 290.541 155.784 291.759 153.936 292.683C152.088 293.565 149.967 294.006 147.573 294.006C145.179 294.006 143.058 293.565 141.21 292.683C139.362 291.759 137.808 290.541 136.548 289.029C135.288 287.475 134.322 285.669 133.65 283.611C133.02 281.553 132.705 279.369 132.705 277.059ZM135.099 277.059C135.099 278.991 135.372 280.86 135.918 282.666C136.464 284.43 137.262 286.005 138.312 287.391C139.362 288.777 140.664 289.89 142.218 290.73C143.772 291.528 145.557 291.927 147.573 291.927C149.589 291.927 151.374 291.528 152.928 290.73C154.482 289.89 155.784 288.777 156.834 287.391C157.884 286.005 158.682 284.43 159.228 282.666C159.774 280.86 160.047 278.991 160.047 277.059C160.047 275.127 159.774 273.279 159.228 271.515C158.682 269.709 157.884 268.113 156.834 266.727C155.784 265.341 154.482 264.249 152.928 263.451C151.374 262.611 149.589 262.191 147.573 262.191C145.557 262.191 143.772 262.611 142.218 263.451C140.664 264.249 139.362 265.341 138.312 266.727C137.262 268.113 136.464 269.709 135.918 271.515C135.372 273.279 135.099 275.127 135.099 277.059ZM170.575 260.868H172.969V267.798H173.095C173.515 266.58 174.103 265.509 174.859 264.585C175.657 263.619 176.56 262.8 177.568 262.128C178.618 261.456 179.752 260.952 180.97 260.616C182.188 260.28 183.427 260.112 184.687 260.112C186.577 260.112 188.173 260.343 189.475 260.805C190.819 261.267 191.911 261.876 192.751 262.632C193.591 263.388 194.242 264.249 194.704 265.215C195.208 266.139 195.565 267.084 195.775 268.05C195.985 269.016 196.111 269.961 196.153 270.885C196.195 271.767 196.216 272.544 196.216 273.216V293.25H193.822V272.775C193.822 271.977 193.759 270.969 193.633 269.751C193.507 268.533 193.129 267.378 192.499 266.286C191.911 265.152 190.987 264.186 189.727 263.388C188.509 262.59 186.808 262.191 184.624 262.191C182.776 262.191 181.138 262.527 179.71 263.199C178.282 263.871 177.064 264.816 176.056 266.034C175.048 267.21 174.271 268.638 173.725 270.318C173.221 271.956 172.969 273.762 172.969 275.736V293.25H170.575V260.868ZM202.236 262.947V260.868H208.032V254.19C208.032 253.056 208.221 252.09 208.599 251.292C208.977 250.452 209.481 249.78 210.111 249.276C210.783 248.772 211.539 248.394 212.379 248.142C213.261 247.89 214.185 247.764 215.151 247.764C215.865 247.764 216.81 247.869 217.986 248.079V250.158C216.81 249.948 215.865 249.843 215.151 249.843C213.807 249.843 212.673 250.158 211.749 250.788C210.867 251.376 210.426 252.573 210.426 254.379V260.868H217.167V262.947H210.426V293.25H208.032V262.947H202.236ZM224.425 277.374V277.752C224.425 279.642 224.677 281.448 225.181 283.17C225.685 284.892 226.42 286.404 227.386 287.706C228.394 289.008 229.633 290.037 231.103 290.793C232.615 291.549 234.358 291.927 236.332 291.927C239.566 291.927 242.128 291.087 244.018 289.407C245.908 287.685 247.21 285.312 247.924 282.288H250.318C249.604 286.068 248.05 288.966 245.656 290.982C243.304 292.998 240.175 294.006 236.269 294.006C233.875 294.006 231.775 293.586 229.969 292.746C228.205 291.864 226.714 290.688 225.496 289.218C224.32 287.706 223.438 285.942 222.85 283.926C222.262 281.868 221.968 279.663 221.968 277.311C221.968 275.043 222.262 272.88 222.85 270.822C223.48 268.722 224.404 266.895 225.622 265.341C226.84 263.745 228.352 262.485 230.158 261.561C232.006 260.595 234.169 260.112 236.647 260.112C238.915 260.112 240.91 260.532 242.632 261.372C244.396 262.212 245.866 263.367 247.042 264.837C248.218 266.265 249.1 267.945 249.688 269.877C250.318 271.767 250.633 273.804 250.633 275.988C250.633 276.198 250.612 276.45 250.57 276.744C250.57 276.996 250.57 277.206 250.57 277.374H224.425ZM248.176 275.295C248.092 273.531 247.798 271.872 247.294 270.318C246.79 268.722 246.034 267.336 245.026 266.16C244.06 264.942 242.863 263.976 241.435 263.262C240.049 262.548 238.453 262.191 236.647 262.191C234.715 262.191 233.014 262.569 231.544 263.325C230.074 264.039 228.835 265.005 227.827 266.223C226.819 267.399 226.042 268.785 225.496 270.381C224.95 271.977 224.614 273.615 224.488 275.295H248.176ZM261.063 268.05H261.252C261.546 267 262.071 266.013 262.827 265.089C263.625 264.165 264.57 263.367 265.662 262.695C266.796 262.023 268.035 261.519 269.379 261.183C270.765 260.805 272.193 260.637 273.663 260.679V263.073C272.403 262.905 270.954 263.031 269.316 263.451C267.72 263.871 266.187 264.795 264.717 266.223C264.129 266.853 263.604 267.462 263.142 268.05C262.722 268.638 262.365 269.289 262.071 270.003C261.777 270.717 261.546 271.515 261.378 272.397C261.21 273.279 261.105 274.329 261.063 275.547V293.25H258.669V260.868H261.063V268.05ZM278.93 277.374V277.752C278.93 279.642 279.182 281.448 279.686 283.17C280.19 284.892 280.925 286.404 281.891 287.706C282.899 289.008 284.138 290.037 285.608 290.793C287.12 291.549 288.863 291.927 290.837 291.927C294.071 291.927 296.633 291.087 298.523 289.407C300.413 287.685 301.715 285.312 302.429 282.288H304.823C304.109 286.068 302.555 288.966 300.161 290.982C297.809 292.998 294.68 294.006 290.774 294.006C288.38 294.006 286.28 293.586 284.474 292.746C282.71 291.864 281.219 290.688 280.001 289.218C278.825 287.706 277.943 285.942 277.355 283.926C276.767 281.868 276.473 279.663 276.473 277.311C276.473 275.043 276.767 272.88 277.355 270.822C277.985 268.722 278.909 266.895 280.127 265.341C281.345 263.745 282.857 262.485 284.663 261.561C286.511 260.595 288.674 260.112 291.152 260.112C293.42 260.112 295.415 260.532 297.137 261.372C298.901 262.212 300.371 263.367 301.547 264.837C302.723 266.265 303.605 267.945 304.193 269.877C304.823 271.767 305.138 273.804 305.138 275.988C305.138 276.198 305.117 276.45 305.075 276.744C305.075 276.996 305.075 277.206 305.075 277.374H278.93ZM302.681 275.295C302.597 273.531 302.303 271.872 301.799 270.318C301.295 268.722 300.539 267.336 299.531 266.16C298.565 264.942 297.368 263.976 295.94 263.262C294.554 262.548 292.958 262.191 291.152 262.191C289.22 262.191 287.519 262.569 286.049 263.325C284.579 264.039 283.34 265.005 282.332 266.223C281.324 267.399 280.547 268.785 280.001 270.381C279.455 271.977 279.119 273.615 278.993 275.295H302.681ZM313.174 260.868H315.568V267.798H315.694C316.114 266.58 316.702 265.509 317.458 264.585C318.256 263.619 319.159 262.8 320.167 262.128C321.217 261.456 322.351 260.952 323.569 260.616C324.787 260.28 326.026 260.112 327.286 260.112C329.176 260.112 330.772 260.343 332.074 260.805C333.418 261.267 334.51 261.876 335.35 262.632C336.19 263.388 336.841 264.249 337.303 265.215C337.807 266.139 338.164 267.084 338.374 268.05C338.584 269.016 338.71 269.961 338.752 270.885C338.794 271.767 338.815 272.544 338.815 273.216V293.25H336.421V272.775C336.421 271.977 336.358 270.969 336.232 269.751C336.106 268.533 335.728 267.378 335.098 266.286C334.51 265.152 333.586 264.186 332.326 263.388C331.108 262.59 329.407 262.191 327.223 262.191C325.375 262.191 323.737 262.527 322.309 263.199C320.881 263.871 319.663 264.816 318.655 266.034C317.647 267.21 316.87 268.638 316.324 270.318C315.82 271.956 315.568 273.762 315.568 275.736V293.25H313.174V260.868ZM372.744 270.885C372.618 269.457 372.24 268.197 371.61 267.105C371.022 266.013 370.245 265.11 369.279 264.396C368.313 263.682 367.179 263.136 365.877 262.758C364.617 262.38 363.252 262.191 361.782 262.191C359.766 262.191 357.981 262.611 356.427 263.451C354.873 264.249 353.571 265.341 352.521 266.727C351.471 268.071 350.673 269.625 350.127 271.389C349.581 273.111 349.308 274.896 349.308 276.744C349.308 278.928 349.56 280.944 350.064 282.792C350.568 284.64 351.345 286.257 352.395 287.643C353.445 288.987 354.747 290.037 356.301 290.793C357.855 291.549 359.682 291.927 361.782 291.927C363.294 291.927 364.68 291.675 365.94 291.171C367.242 290.667 368.376 289.974 369.342 289.092C370.35 288.21 371.169 287.16 371.799 285.942C372.429 284.682 372.849 283.317 373.059 281.847H375.453C375.201 283.779 374.676 285.501 373.878 287.013C373.08 288.525 372.072 289.806 370.854 290.856C369.636 291.864 368.25 292.641 366.696 293.187C365.142 293.733 363.504 294.006 361.782 294.006C359.136 294.006 356.868 293.544 354.978 292.62C353.13 291.654 351.597 290.373 350.379 288.777C349.203 287.181 348.321 285.354 347.733 283.296C347.187 281.196 346.914 279.012 346.914 276.744C346.914 274.476 347.229 272.334 347.859 270.318C348.531 268.302 349.497 266.538 350.757 265.026C352.017 263.514 353.571 262.317 355.419 261.435C357.267 260.553 359.388 260.112 361.782 260.112C363.546 260.112 365.184 260.343 366.696 260.805C368.25 261.225 369.615 261.876 370.791 262.758C372.009 263.64 372.996 264.774 373.752 266.16C374.508 267.504 374.97 269.079 375.138 270.885H372.744ZM384.497 277.374V277.752C384.497 279.642 384.749 281.448 385.253 283.17C385.757 284.892 386.492 286.404 387.458 287.706C388.466 289.008 389.705 290.037 391.175 290.793C392.687 291.549 394.43 291.927 396.404 291.927C399.638 291.927 402.2 291.087 404.09 289.407C405.98 287.685 407.282 285.312 407.996 282.288H410.39C409.676 286.068 408.122 288.966 405.728 290.982C403.376 292.998 400.247 294.006 396.341 294.006C393.947 294.006 391.847 293.586 390.041 292.746C388.277 291.864 386.786 290.688 385.568 289.218C384.392 287.706 383.51 285.942 382.922 283.926C382.334 281.868 382.04 279.663 382.04 277.311C382.04 275.043 382.334 272.88 382.922 270.822C383.552 268.722 384.476 266.895 385.694 265.341C386.912 263.745 388.424 262.485 390.23 261.561C392.078 260.595 394.241 260.112 396.719 260.112C398.987 260.112 400.982 260.532 402.704 261.372C404.468 262.212 405.938 263.367 407.114 264.837C408.29 266.265 409.172 267.945 409.76 269.877C410.39 271.767 410.705 273.804 410.705 275.988C410.705 276.198 410.684 276.45 410.642 276.744C410.642 276.996 410.642 277.206 410.642 277.374H384.497ZM408.248 275.295C408.164 273.531 407.87 271.872 407.366 270.318C406.862 268.722 406.106 267.336 405.098 266.16C404.132 264.942 402.935 263.976 401.507 263.262C400.121 262.548 398.525 262.191 396.719 262.191C394.787 262.191 393.086 262.569 391.616 263.325C390.146 264.039 388.907 265.005 387.899 266.223C386.891 267.399 386.114 268.785 385.568 270.381C385.022 271.977 384.686 273.615 384.56 275.295H408.248Z" fill="white"/>
<path d="M443.84 326.686V57.314H433V52.5H448V331.5H433V326.686H443.84Z" fill="white"/>
</svg>
