<svg width="183" height="138" viewBox="0 0 183 138" fill="none" xmlns="http://www.w3.org/2000/svg">
<rect width="183" height="138" fill="black"/>
<path d="M24.3428 21.1575V117.414H28.2143V119.107H22.8571L22.8571 19.4643H28.2143V21.1575H24.3428Z" fill="white"/>
<path d="M39.6196 36.1596H37.0996V44.2371C37.0996 44.7021 37.1521 45.0696 37.2571 45.3396C37.3621 45.6096 37.5196 45.8196 37.7296 45.9696C37.9546 46.1046 38.2171 46.1871 38.5171 46.2171C38.8321 46.2471 39.1921 46.2546 39.5971 46.2396V46.9821C39.1621 47.0121 38.7346 47.0121 38.3146 46.9821C37.9096 46.9371 37.5496 46.8246 37.2346 46.6446C36.9196 46.4496 36.6646 46.1646 36.4696 45.7896C36.2896 45.4146 36.2146 44.8971 36.2446 44.2371V36.1596H34.1071V35.4171H36.2446V31.8171H37.0996V35.4171H39.6196V36.1596ZM42.9449 30.9171V37.8921H42.9899C43.1399 37.4571 43.3499 37.0746 43.6199 36.7446C43.9049 36.3996 44.2274 36.1071 44.5874 35.8671C44.9624 35.6271 45.3674 35.4471 45.8024 35.3271C46.2374 35.2071 46.6799 35.1471 47.1299 35.1471C47.8049 35.1471 48.3749 35.2296 48.8399 35.3946C49.3199 35.5596 49.7099 35.7771 50.0099 36.0471C50.3099 36.3171 50.5424 36.6246 50.7074 36.9696C50.8874 37.2996 51.0149 37.6371 51.0899 37.9821C51.1649 38.3271 51.2099 38.6646 51.2249 38.9946C51.2399 39.3096 51.2474 39.5871 51.2474 39.8271V46.9821H50.3924V39.6696C50.3924 39.3846 50.3699 39.0246 50.3249 38.5896C50.2799 38.1546 50.1449 37.7421 49.9199 37.3521C49.7099 36.9471 49.3799 36.6021 48.9299 36.3171C48.4949 36.0321 47.8874 35.8896 47.1074 35.8896C46.4474 35.8896 45.8624 36.0096 45.3524 36.2496C44.8424 36.4896 44.4074 36.8271 44.0474 37.2621C43.6874 37.6821 43.4099 38.1921 43.2149 38.7921C43.0349 39.3771 42.9449 40.0221 42.9449 40.7271V46.9821H42.0899V30.9171H42.9449ZM54.9949 41.3121V41.4471C54.9949 42.1221 55.0849 42.7671 55.2649 43.3821C55.4449 43.9971 55.7074 44.5371 56.0524 45.0021C56.4124 45.4671 56.8549 45.8346 57.3799 46.1046C57.9199 46.3746 58.5424 46.5096 59.2474 46.5096C60.4024 46.5096 61.3174 46.2096 61.9924 45.6096C62.6674 44.9946 63.1324 44.1471 63.3874 43.0671H64.2424C63.9874 44.4171 63.4324 45.4521 62.5774 46.1721C61.7374 46.8921 60.6199 47.2521 59.2249 47.2521C58.3699 47.2521 57.6199 47.1021 56.9749 46.8021C56.3449 46.4871 55.8124 46.0671 55.3774 45.5421C54.9574 45.0021 54.6424 44.3721 54.4324 43.6521C54.2224 42.9171 54.1174 42.1296 54.1174 41.2896C54.1174 40.4796 54.2224 39.7071 54.4324 38.9721C54.6574 38.2221 54.9874 37.5696 55.4224 37.0146C55.8574 36.4446 56.3974 35.9946 57.0424 35.6646C57.7024 35.3196 58.4749 35.1471 59.3599 35.1471C60.1699 35.1471 60.8824 35.2971 61.4974 35.5971C62.1274 35.8971 62.6524 36.3096 63.0724 36.8346C63.4924 37.3446 63.8074 37.9446 64.0174 38.6346C64.2424 39.3096 64.3549 40.0371 64.3549 40.8171C64.3549 40.8921 64.3474 40.9821 64.3324 41.0871C64.3324 41.1771 64.3324 41.2521 64.3324 41.3121H54.9949ZM63.4774 40.5696C63.4474 39.9396 63.3424 39.3471 63.1624 38.7921C62.9824 38.2221 62.7124 37.7271 62.3524 37.3071C62.0074 36.8721 61.5799 36.5271 61.0699 36.2721C60.5749 36.0171 60.0049 35.8896 59.3599 35.8896C58.6699 35.8896 58.0624 36.0246 57.5374 36.2946C57.0124 36.5496 56.5699 36.8946 56.2099 37.3296C55.8499 37.7496 55.5724 38.2446 55.3774 38.8146C55.1824 39.3846 55.0624 39.9696 55.0174 40.5696H63.4774Z" fill="white"/>
<path d="M39.4078 59.6403V62.4001H39.4867C40.2253 61.3497 41.1149 60.5339 42.1571 59.9556C43.1985 59.3783 44.3925 59.0885 45.7372 59.0885C47.0292 59.0885 48.2097 59.3387 49.2777 59.8376C50.346 60.3374 51.1571 61.2174 51.7108 62.4793C52.317 61.5858 53.1412 60.797 54.1833 60.1137C55.2249 59.4307 56.4577 59.0885 57.8821 59.0885C58.9636 59.0885 59.9652 59.2201 60.889 59.483C61.8116 59.7458 62.6027 60.1663 63.2623 60.7445C63.921 61.323 64.4352 62.0788 64.8052 63.011C65.1742 63.945 65.359 65.068 65.359 66.3827V80.0232H59.7413V68.4717C59.7413 67.7887 59.715 67.1448 59.6621 66.5398C59.6089 65.9357 59.4644 65.4103 59.2271 64.9629C58.9895 64.5163 58.6397 64.1612 58.1788 63.8981C57.7171 63.6364 57.0906 63.5041 56.2996 63.5041C55.5085 63.5041 54.8687 63.6563 54.3808 63.9574C53.8926 64.2601 53.5104 64.6547 53.2337 65.1403C52.957 65.6271 52.7722 66.1789 52.6801 66.7969C52.5872 67.4142 52.5415 68.0387 52.5415 68.6694V80.0234H46.9242V68.5906C46.9242 67.9861 46.9104 67.3878 46.8851 66.7969C46.8582 66.2051 46.7466 65.66 46.5483 65.1602C46.3505 64.6612 46.0206 64.2601 45.5591 63.9574C45.0977 63.6563 44.4186 63.5041 43.5219 63.5041C43.2578 63.5041 42.9084 63.5635 42.4738 63.6821C42.0386 63.8003 41.6164 64.024 41.2079 64.3522C40.7986 64.6809 40.4495 65.1541 40.1594 65.7711C39.8691 66.3892 39.7242 67.197 39.7242 68.1956V80.0232H34.1071V59.6403H39.4078Z" fill="white"/>
<path fill-rule="evenodd" clip-rule="evenodd" d="M71.1733 60.5473C70.2765 61.0736 69.5377 61.7697 68.958 62.6372C68.3769 63.504 68.0479 64.5954 67.9692 65.9091H73.5865C73.6915 64.8055 74.0614 64.0166 74.6941 63.5436C75.3271 63.0704 76.1975 62.8337 77.3053 62.8337C77.8055 62.8337 78.2741 62.8674 78.7095 62.9323C79.1443 62.9983 79.5268 63.1297 79.8566 63.3268C80.1861 63.5237 80.4499 63.8002 80.6478 64.1547C80.8456 64.5095 80.9442 64.9896 80.9442 65.5936C80.9701 66.1722 80.7988 66.6125 80.4302 66.9146C80.0604 67.2172 79.5598 67.4468 78.9267 67.6044C78.2939 67.7621 77.5683 67.8805 76.7509 67.9596C75.9333 68.0384 75.1026 68.1436 74.2587 68.2747C73.4146 68.4069 72.5774 68.5839 71.7469 68.807C70.9158 69.0303 70.1774 69.3655 69.5317 69.8121C68.8847 70.2595 68.3576 70.857 67.9491 71.6065C67.5395 72.355 67.3354 73.3081 67.3354 74.4642C67.3354 75.5152 67.5137 76.4228 67.8698 77.1849C68.2258 77.947 68.7202 78.5778 69.3533 79.0765C69.9861 79.5766 70.7243 79.9444 71.5684 80.1811C72.4123 80.4174 73.3221 80.5358 74.2982 80.5358C75.5643 80.5358 76.8037 80.3512 78.0172 79.9842C79.2295 79.6161 80.2849 78.972 81.1816 78.052C81.2075 78.394 81.2537 78.729 81.3201 79.0571C81.3855 79.3859 81.4715 79.7075 81.5773 80.0232H87.2736C87.0096 79.6029 86.8248 78.972 86.72 78.1307C86.6143 77.2895 86.5615 76.4102 86.5615 75.489V64.8843C86.5615 63.6488 86.2846 62.6563 85.7308 61.9074C85.1767 61.1587 84.4648 60.5735 83.5946 60.1531C82.7242 59.7331 81.7615 59.4503 80.7067 59.3052C79.6517 59.1611 78.6103 59.0885 77.5816 59.0885C76.4475 59.0885 75.3198 59.2007 74.1992 59.4238C73.078 59.6475 72.0696 60.0218 71.1733 60.5473ZM78.9073 70.8379C79.3157 70.7589 79.6983 70.6605 80.0542 70.5425C80.4104 70.4241 80.707 70.2599 80.9446 70.049V72.1388C80.9446 72.4542 80.9112 72.8749 80.846 73.4004C80.7798 73.9268 80.6015 74.4449 80.3118 74.9571C80.021 75.4701 79.5732 75.9106 78.9668 76.2781C78.3597 76.6467 77.5029 76.8301 76.3954 76.8301C75.9469 76.8301 75.5117 76.7907 75.0901 76.7117C74.6676 76.6333 74.2986 76.4951 73.9824 76.298C73.666 76.1009 73.415 75.8317 73.2304 75.4894C73.0458 75.1485 72.9537 74.7273 72.9537 74.2285C72.9537 73.7029 73.0458 73.2691 73.2304 72.9274C73.415 72.5864 73.6588 72.3034 73.9626 72.0799C74.2654 71.8564 74.6215 71.6795 75.0309 71.5474C75.4392 71.4165 75.8544 71.3105 76.2766 71.2323C76.7246 71.1532 77.1729 71.088 77.6215 71.0348C78.07 70.9826 78.4982 70.9168 78.9073 70.8379Z" fill="white"/>
<path d="M101.359 59.6419V63.3873H97.2449V73.4803C97.2449 74.4261 97.403 75.0572 97.7197 75.3723C98.0357 75.6876 98.6691 75.8453 99.6184 75.8453C99.935 75.8453 100.238 75.8325 100.528 75.8061C100.818 75.7803 101.095 75.7401 101.359 75.6878V80.0248C100.884 80.1036 100.356 80.1558 99.7765 80.1826C99.1964 80.2079 98.6294 80.2217 98.0754 80.2217C97.2052 80.2217 96.3808 80.1623 95.6031 80.0439C94.8248 79.9258 94.1392 79.6964 93.5461 79.3545C92.9526 79.0132 92.4844 78.5264 92.1417 77.8955C91.7984 77.2653 91.6274 76.4371 91.6274 75.4115V63.3873H88.2255V59.6419H91.6274V53.531H97.2447V59.6419H101.359Z" fill="white"/>
<path d="M109.389 59.6407V63.4255H109.468C109.731 62.7943 110.087 62.2102 110.536 61.6709C110.984 61.1325 111.498 60.6722 112.078 60.2911C112.658 59.9107 113.278 59.6149 113.938 59.4039C114.597 59.1941 115.283 59.0885 115.995 59.0885C116.364 59.0885 116.773 59.1547 117.221 59.2859V64.4904C116.957 64.4374 116.641 64.3912 116.272 64.3522C115.903 64.3126 115.547 64.2927 115.204 64.2927C114.175 64.2927 113.305 64.4642 112.593 64.8055C111.881 65.1472 111.308 65.6133 110.872 66.2048C110.437 66.7966 110.127 67.486 109.942 68.2747C109.758 69.063 109.666 69.9178 109.666 70.8373V80.0232H104.049V59.6407H109.389Z" fill="white"/>
<path fill-rule="evenodd" clip-rule="evenodd" d="M119.596 51.875V56.4877H125.214V51.875H119.596ZM125.213 80.0252V59.6423H119.595V80.0252H125.213Z" fill="white"/>
<path d="M128.141 59.6396H134.549L138.149 64.9618L141.71 59.6396H147.92L141.196 69.1805L148.751 80.0225H142.343L138.07 73.5963L133.798 80.0225H127.508L134.866 69.2992L128.141 59.6396Z" fill="white"/>
<path d="M44.0746 97.3875C44.0296 96.8775 43.8946 96.4275 43.6696 96.0375C43.4596 95.6475 43.1821 95.325 42.8371 95.07C42.4921 94.815 42.0871 94.62 41.6221 94.485C41.1721 94.35 40.6846 94.2825 40.1596 94.2825C39.4396 94.2825 38.8021 94.4325 38.2471 94.7325C37.6921 95.0175 37.2271 95.4075 36.8521 95.9025C36.4771 96.3825 36.1921 96.9375 35.9971 97.5675C35.8021 98.1825 35.7046 98.82 35.7046 99.48C35.7046 100.26 35.7946 100.98 35.9746 101.64C36.1546 102.3 36.4321 102.877 36.8071 103.372C37.1821 103.852 37.6471 104.227 38.2021 104.497C38.7571 104.767 39.4096 104.902 40.1596 104.902C40.6996 104.902 41.1946 104.812 41.6446 104.633C42.1096 104.452 42.5146 104.205 42.8596 103.89C43.2196 103.575 43.5121 103.2 43.7371 102.765C43.9621 102.315 44.1121 101.827 44.1871 101.302H45.0421C44.9521 101.992 44.7646 102.607 44.4796 103.147C44.1946 103.687 43.8346 104.145 43.3996 104.52C42.9646 104.88 42.4696 105.157 41.9146 105.352C41.3596 105.548 40.7746 105.645 40.1596 105.645C39.2146 105.645 38.4046 105.48 37.7296 105.15C37.0696 104.805 36.5221 104.347 36.0871 103.777C35.6671 103.207 35.3521 102.555 35.1421 101.82C34.9471 101.07 34.8496 100.29 34.8496 99.48C34.8496 98.67 34.9621 97.905 35.1871 97.185C35.4271 96.465 35.7721 95.835 36.2221 95.295C36.6721 94.755 37.2271 94.3275 37.8871 94.0125C38.5471 93.6975 39.3046 93.54 40.1596 93.54C40.7896 93.54 41.3746 93.6225 41.9146 93.7875C42.4696 93.9375 42.9571 94.17 43.3771 94.485C43.8121 94.8 44.1646 95.205 44.4346 95.7C44.7046 96.18 44.8696 96.7425 44.9296 97.3875H44.0746ZM47.3946 99.5925C47.3946 98.7675 47.5071 97.995 47.7321 97.275C47.9721 96.54 48.3171 95.895 48.7671 95.34C49.2171 94.785 49.7721 94.35 50.4321 94.035C51.0921 93.705 51.8496 93.54 52.7046 93.54C53.5596 93.54 54.3171 93.705 54.9771 94.035C55.6371 94.35 56.1921 94.785 56.6421 95.34C57.0921 95.895 57.4296 96.54 57.6546 97.275C57.8946 97.995 58.0146 98.7675 58.0146 99.5925C58.0146 100.417 57.8946 101.197 57.6546 101.932C57.4296 102.667 57.0921 103.312 56.6421 103.867C56.1921 104.407 55.6371 104.842 54.9771 105.172C54.3171 105.487 53.5596 105.645 52.7046 105.645C51.8496 105.645 51.0921 105.487 50.4321 105.172C49.7721 104.842 49.2171 104.407 48.7671 103.867C48.3171 103.312 47.9721 102.667 47.7321 101.932C47.5071 101.197 47.3946 100.417 47.3946 99.5925ZM48.2496 99.5925C48.2496 100.282 48.3471 100.95 48.5421 101.595C48.7371 102.225 49.0221 102.787 49.3971 103.282C49.7721 103.777 50.2371 104.175 50.7921 104.475C51.3471 104.76 51.9846 104.902 52.7046 104.902C53.4246 104.902 54.0621 104.76 54.6171 104.475C55.1721 104.175 55.6371 103.777 56.0121 103.282C56.3871 102.787 56.6721 102.225 56.8671 101.595C57.0621 100.95 57.1596 100.282 57.1596 99.5925C57.1596 98.9025 57.0621 98.2425 56.8671 97.6125C56.6721 96.9675 56.3871 96.3975 56.0121 95.9025C55.6371 95.4075 55.1721 95.0175 54.6171 94.7325C54.0621 94.4325 53.4246 94.2825 52.7046 94.2825C51.9846 94.2825 51.3471 94.4325 50.7921 94.7325C50.2371 95.0175 49.7721 95.4075 49.3971 95.9025C49.0221 96.3975 48.7371 96.9675 48.5421 97.6125C48.3471 98.2425 48.2496 98.9025 48.2496 99.5925ZM60.9196 93.81H61.7746V96.285H61.8196C61.9696 95.85 62.1796 95.4675 62.4496 95.1375C62.7346 94.7925 63.0571 94.5 63.4171 94.26C63.7921 94.02 64.1971 93.84 64.6321 93.72C65.0671 93.6 65.5096 93.54 65.9596 93.54C66.6346 93.54 67.2046 93.6225 67.6696 93.7875C68.1496 93.9525 68.5396 94.17 68.8396 94.44C69.1396 94.71 69.3721 95.0175 69.5371 95.3625C69.7171 95.6925 69.8446 96.03 69.9196 96.375C69.9946 96.72 70.0396 97.0575 70.0546 97.3875C70.0696 97.7025 70.0771 97.98 70.0771 98.22V105.375H69.2221V98.0625C69.2221 97.7775 69.1996 97.4175 69.1546 96.9825C69.1096 96.5475 68.9746 96.135 68.7496 95.745C68.5396 95.34 68.2096 94.995 67.7596 94.71C67.3246 94.425 66.7171 94.2825 65.9371 94.2825C65.2771 94.2825 64.6921 94.4025 64.1821 94.6425C63.6721 94.8825 63.2371 95.22 62.8771 95.655C62.5171 96.075 62.2396 96.585 62.0446 97.185C61.8646 97.77 61.7746 98.415 61.7746 99.12V105.375H60.9196V93.81ZM72.2271 94.5525V93.81H74.2971V91.425C74.2971 91.02 74.3646 90.675 74.4996 90.39C74.6346 90.09 74.8146 89.85 75.0396 89.67C75.2796 89.49 75.5496 89.355 75.8496 89.265C76.1646 89.175 76.4946 89.13 76.8396 89.13C77.0946 89.13 77.4321 89.1675 77.8521 89.2425V89.985C77.4321 89.91 77.0946 89.8725 76.8396 89.8725C76.3596 89.8725 75.9546 89.985 75.6246 90.21C75.3096 90.42 75.1521 90.8475 75.1521 91.4925V93.81H77.5596V94.5525H75.1521V105.375H74.2971V94.5525H72.2271ZM80.1518 99.705V99.84C80.1518 100.515 80.2418 101.16 80.4218 101.775C80.6018 102.39 80.8643 102.93 81.2093 103.395C81.5693 103.86 82.0118 104.227 82.5368 104.497C83.0768 104.767 83.6993 104.902 84.4043 104.902C85.5593 104.902 86.4743 104.602 87.1493 104.002C87.8243 103.387 88.2893 102.54 88.5443 101.46H89.3993C89.1443 102.81 88.5893 103.845 87.7343 104.565C86.8943 105.285 85.7768 105.645 84.3818 105.645C83.5268 105.645 82.7768 105.495 82.1318 105.195C81.5018 104.88 80.9693 104.46 80.5343 103.935C80.1143 103.395 79.7993 102.765 79.5893 102.045C79.3793 101.31 79.2743 100.522 79.2743 99.6825C79.2743 98.8725 79.3793 98.1 79.5893 97.365C79.8143 96.615 80.1443 95.9625 80.5793 95.4075C81.0143 94.8375 81.5543 94.3875 82.1993 94.0575C82.8593 93.7125 83.6318 93.54 84.5168 93.54C85.3268 93.54 86.0393 93.69 86.6543 93.99C87.2843 94.29 87.8093 94.7025 88.2293 95.2275C88.6493 95.7375 88.9643 96.3375 89.1743 97.0275C89.3993 97.7025 89.5118 98.43 89.5118 99.21C89.5118 99.285 89.5043 99.375 89.4893 99.48C89.4893 99.57 89.4893 99.645 89.4893 99.705H80.1518ZM88.6343 98.9625C88.6043 98.3325 88.4993 97.74 88.3193 97.185C88.1393 96.615 87.8693 96.12 87.5093 95.7C87.1643 95.265 86.7368 94.92 86.2268 94.665C85.7318 94.41 85.1618 94.2825 84.5168 94.2825C83.8268 94.2825 83.2193 94.4175 82.6943 94.6875C82.1693 94.9425 81.7268 95.2875 81.3668 95.7225C81.0068 96.1425 80.7293 96.6375 80.5343 97.2075C80.3393 97.7775 80.2193 98.3625 80.1743 98.9625H88.6343ZM93.2368 96.375H93.3043C93.4093 96 93.5968 95.6475 93.8668 95.3175C94.1518 94.9875 94.4893 94.7025 94.8793 94.4625C95.2843 94.2225 95.7268 94.0425 96.2068 93.9225C96.7018 93.7875 97.2118 93.7275 97.7368 93.7425V94.5975C97.2868 94.5375 96.7693 94.5825 96.1843 94.7325C95.6143 94.8825 95.0668 95.2125 94.5418 95.7225C94.3318 95.9475 94.1443 96.165 93.9793 96.375C93.8293 96.585 93.7018 96.8175 93.5968 97.0725C93.4918 97.3275 93.4093 97.6125 93.3493 97.9275C93.2893 98.2425 93.2518 98.6175 93.2368 99.0525V105.375H92.3818V93.81H93.2368V96.375ZM99.6178 99.705V99.84C99.6178 100.515 99.7078 101.16 99.8878 101.775C100.068 102.39 100.33 102.93 100.675 103.395C101.035 103.86 101.478 104.227 102.003 104.497C102.543 104.767 103.165 104.902 103.87 104.902C105.025 104.902 105.94 104.602 106.615 104.002C107.29 103.387 107.755 102.54 108.01 101.46H108.865C108.61 102.81 108.055 103.845 107.2 104.565C106.36 105.285 105.243 105.645 103.848 105.645C102.993 105.645 102.243 105.495 101.598 105.195C100.968 104.88 100.435 104.46 100 103.935C99.5803 103.395 99.2653 102.765 99.0553 102.045C98.8453 101.31 98.7403 100.522 98.7403 99.6825C98.7403 98.8725 98.8453 98.1 99.0553 97.365C99.2803 96.615 99.6103 95.9625 100.045 95.4075C100.48 94.8375 101.02 94.3875 101.665 94.0575C102.325 93.7125 103.098 93.54 103.983 93.54C104.793 93.54 105.505 93.69 106.12 93.99C106.75 94.29 107.275 94.7025 107.695 95.2275C108.115 95.7375 108.43 96.3375 108.64 97.0275C108.865 97.7025 108.978 98.43 108.978 99.21C108.978 99.285 108.97 99.375 108.955 99.48C108.955 99.57 108.955 99.645 108.955 99.705H99.6178ZM108.1 98.9625C108.07 98.3325 107.965 97.74 107.785 97.185C107.605 96.615 107.335 96.12 106.975 95.7C106.63 95.265 106.203 94.92 105.693 94.665C105.198 94.41 104.628 94.2825 103.983 94.2825C103.293 94.2825 102.685 94.4175 102.16 94.6875C101.635 94.9425 101.193 95.2875 100.833 95.7225C100.473 96.1425 100.195 96.6375 100 97.2075C99.8053 97.7775 99.6853 98.3625 99.6403 98.9625H108.1ZM111.848 93.81H112.703V96.285H112.748C112.898 95.85 113.108 95.4675 113.378 95.1375C113.663 94.7925 113.985 94.5 114.345 94.26C114.72 94.02 115.125 93.84 115.56 93.72C115.995 93.6 116.438 93.54 116.888 93.54C117.563 93.54 118.133 93.6225 118.598 93.7875C119.078 93.9525 119.468 94.17 119.768 94.44C120.068 94.71 120.3 95.0175 120.465 95.3625C120.645 95.6925 120.773 96.03 120.848 96.375C120.923 96.72 120.968 97.0575 120.983 97.3875C120.998 97.7025 121.005 97.98 121.005 98.22V105.375H120.15V98.0625C120.15 97.7775 120.128 97.4175 120.083 96.9825C120.038 96.5475 119.903 96.135 119.678 95.745C119.468 95.34 119.138 94.995 118.688 94.71C118.253 94.425 117.645 94.2825 116.865 94.2825C116.205 94.2825 115.62 94.4025 115.11 94.6425C114.6 94.8825 114.165 95.22 113.805 95.655C113.445 96.075 113.168 96.585 112.973 97.185C112.793 97.77 112.703 98.415 112.703 99.12V105.375H111.848V93.81ZM133.123 97.3875C133.078 96.8775 132.943 96.4275 132.718 96.0375C132.508 95.6475 132.23 95.325 131.885 95.07C131.54 94.815 131.135 94.62 130.67 94.485C130.22 94.35 129.733 94.2825 129.208 94.2825C128.488 94.2825 127.85 94.4325 127.295 94.7325C126.74 95.0175 126.275 95.4075 125.9 95.9025C125.525 96.3825 125.24 96.9375 125.045 97.5675C124.85 98.1825 124.753 98.82 124.753 99.48C124.753 100.26 124.843 100.98 125.023 101.64C125.203 102.3 125.48 102.877 125.855 103.372C126.23 103.852 126.695 104.227 127.25 104.497C127.805 104.767 128.458 104.902 129.208 104.902C129.748 104.902 130.243 104.812 130.693 104.633C131.158 104.452 131.563 104.205 131.908 103.89C132.268 103.575 132.56 103.2 132.785 102.765C133.01 102.315 133.16 101.827 133.235 101.302H134.09C134 101.992 133.813 102.607 133.528 103.147C133.243 103.687 132.883 104.145 132.448 104.52C132.013 104.88 131.518 105.157 130.963 105.352C130.408 105.548 129.823 105.645 129.208 105.645C128.263 105.645 127.453 105.48 126.778 105.15C126.118 104.805 125.57 104.347 125.135 103.777C124.715 103.207 124.4 102.555 124.19 101.82C123.995 101.07 123.898 100.29 123.898 99.48C123.898 98.67 124.01 97.905 124.235 97.185C124.475 96.465 124.82 95.835 125.27 95.295C125.72 94.755 126.275 94.3275 126.935 94.0125C127.595 93.6975 128.353 93.54 129.208 93.54C129.838 93.54 130.423 93.6225 130.963 93.7875C131.518 93.9375 132.005 94.17 132.425 94.485C132.86 94.8 133.213 95.205 133.483 95.7C133.753 96.18 133.918 96.7425 133.978 97.3875H133.123ZM137.32 99.705V99.84C137.32 100.515 137.41 101.16 137.59 101.775C137.77 102.39 138.033 102.93 138.378 103.395C138.738 103.86 139.18 104.227 139.705 104.497C140.245 104.767 140.868 104.902 141.573 104.902C142.728 104.902 143.643 104.602 144.318 104.002C144.993 103.387 145.458 102.54 145.713 101.46H146.568C146.313 102.81 145.758 103.845 144.903 104.565C144.063 105.285 142.945 105.645 141.55 105.645C140.695 105.645 139.945 105.495 139.3 105.195C138.67 104.88 138.138 104.46 137.703 103.935C137.283 103.395 136.968 102.765 136.758 102.045C136.548 101.31 136.443 100.522 136.443 99.6825C136.443 98.8725 136.548 98.1 136.758 97.365C136.983 96.615 137.313 95.9625 137.748 95.4075C138.183 94.8375 138.723 94.3875 139.368 94.0575C140.028 93.7125 140.8 93.54 141.685 93.54C142.495 93.54 143.208 93.69 143.823 93.99C144.453 94.29 144.978 94.7025 145.398 95.2275C145.818 95.7375 146.133 96.3375 146.343 97.0275C146.568 97.7025 146.68 98.43 146.68 99.21C146.68 99.285 146.673 99.375 146.658 99.48C146.658 99.57 146.658 99.645 146.658 99.705H137.32ZM145.803 98.9625C145.773 98.3325 145.668 97.74 145.488 97.185C145.308 96.615 145.038 96.12 144.678 95.7C144.333 95.265 143.905 94.92 143.395 94.665C142.9 94.41 142.33 94.2825 141.685 94.2825C140.995 94.2825 140.388 94.4175 139.863 94.6875C139.338 94.9425 138.895 95.2875 138.535 95.7225C138.175 96.1425 137.898 96.6375 137.703 97.2075C137.508 97.7775 137.388 98.3625 137.343 98.9625H145.803Z" fill="white"/>
<path d="M158.514 117.388V21.1836H154.643V19.4643H160V119.107H154.643V117.388H158.514Z" fill="white"/>
</svg>
