<?xml version="1.0" encoding="UTF-8" standalone="no"?>
<svg
   width="45"
   height="45"
   viewBox="0 0 11.906251 11.906309"
   version="1.1"
   id="svg2"
   sodipodi:docname="media-ccc-de.svg"
   inkscape:version="1.4.3 (0d15f75042, 2025-12-25)"
   xmlns:inkscape="http://www.inkscape.org/namespaces/inkscape"
   xmlns:sodipodi="http://sodipodi.sourceforge.net/DTD/sodipodi-0.dtd"
   xmlns="http://www.w3.org/2000/svg"
   xmlns:svg="http://www.w3.org/2000/svg">
  <defs
     id="defs2" />
  <sodipodi:namedview
     id="namedview2"
     pagecolor="#ffffff"
     bordercolor="#000000"
     borderopacity="0.25"
     inkscape:showpageshadow="2"
     inkscape:pageopacity="0.0"
     inkscape:pagecheckerboard="0"
     inkscape:deskcolor="#d1d1d1"
     inkscape:zoom="1.1325384"
     inkscape:cx="148.78082"
     inkscape:cy="-77.260071"
     inkscape:window-width="1920"
     inkscape:window-height="1146"
     inkscape:window-x="0"
     inkscape:window-y="0"
     inkscape:window-maximized="0"
     inkscape:current-layer="svg2" />
  <path
     d="m 5.9511254,0.44215537 a 5.858,5.858 0 0 0 -5.85699994,5.85600003 5.858,5.858 0 0 0 0.38,2.077 c 0.086,-0.224 0.184,-0.444 0.308,-0.65 0.064,-0.105 0.133,-0.206 0.18,-0.32 a 0.54,0.54 0 0 0 0.032,-0.357 0.617,0.617 0 0 0 -0.1,-0.182 c -0.04,-0.056 -0.087,-0.11 -0.124,-0.168 a 0.75,0.75 0 0 1 -0.115,-0.506 0.678,0.678 0 0 1 0.262,-0.446 0.706,0.706 0 0 1 0.44499994,-0.13 0.794,0.794 0 0 1 0.156,0.02 0.99,0.99 0 0 1 0.52,0.34 c 0.165,0.202 0.262,0.457 0.286,0.717 0.024,0.26 -0.024,0.525 -0.124,0.766 -0.18,0.432 -0.52,0.78 -0.707,1.208 -0.152,0.35 -0.196,0.74 -0.175,1.122 0.003,0.035 0.008,0.07 0.01,0.106 a 5.858,5.858 0 0 0 1.636,1.4369996 7.965,7.965 0 0 1 -0.057,-0.954 c 0,-0.254 0.014,-0.5069996 0.038,-0.7569996 a 1.365,1.365 0 0 1 -0.392,-0.39 c -0.177,-0.28 -0.21,-0.635 -0.138,-0.96 0.073,-0.323 0.245,-0.618 0.45,-0.878 a 3.54,3.54 0 0 1 1.282,-1.005 c -0.014,-0.02 -0.03,-0.04 -0.04,-0.056 a 2.193,2.193 0 0 1 -0.318,-0.983 c -0.026,-0.35 0.03,-0.703 0.052,-1.053 0.017,-0.245 0.018,-0.49 0.032,-0.735 0.017,-0.285 0.05,-0.568 0.13,-0.84 0.03,-0.1 0.065,-0.198 0.12,-0.284 a 0.633,0.633 0 0 1 0.27,-0.233 0.62,0.62 0 0 1 0.35,-0.04 c 0.1,0.022 0.192,0.072 0.273,0.134 0.082,0.062 0.152,0.138 0.218,0.215 a 3.297,3.297 0 0 1 0.47,0.73 1.614,1.614 0 0 1 0.493,0 3.292,3.292 0 0 1 0.47,-0.73 c 0.066,-0.078 0.136,-0.153 0.217,-0.215 a 0.688,0.688 0 0 1 0.273,-0.133 0.573,0.573 0 0 1 0.353,0.04 0.634,0.634 0 0 1 0.268,0.233 c 0.057,0.086 0.092,0.184 0.12,0.283 0.08,0.272 0.115,0.556 0.132,0.84 0.014,0.244 0.015,0.49 0.032,0.734 0.023,0.35 0.08,0.702 0.052,1.053 a 2.194,2.194 0 0 1 -0.318,0.984 c -0.014,0.023 -0.03,0.044 -0.046,0.066 0.11,0.126 0.27,0.232 0.406,0.278 a 0.884,0.884 0 0 0 0.473,0.02 0.746,0.746 0 0 0 0.243,-0.103 0.566,0.566 0 0 0 0.18,-0.188 0.798,0.798 0 0 0 0.086,-0.31 c 0.03,-0.275 0,-0.553 -0.024,-0.83 -0.015,-0.178 -0.028,-0.36 0.012,-0.535 a 0.618,0.618 0 0 1 0.17,-0.318 0.5,0.5 0 0 1 0.21,-0.115 0.593,0.593 0 0 1 0.24,-0.013 0.627,0.627 0 0 1 0.4270006,0.267 0.773,0.773 0 0 1 0.108,0.272 c 0.02,0.097 0.027,0.195 0.032,0.294 0.02,0.343 0.018,0.687 0.008,1.03 -0.008,0.302 -0.025,0.61 -0.145,0.886 -0.154001,0.353 -0.4660006,0.617 -0.8000006,0.806 a 3.186,3.186 0 0 1 -0.718,0.294 7.57,7.57 0 0 1 0.33,2.2439996 7.952,7.952 0 0 1 -0.06,0.96 A 5.858,5.858 0 0 0 11.812126,6.2971554 5.858,5.858 0 0 0 5.9501254,0.44215537 Z m -1.64,7.22000003 v 0.67 a 0.85,0.85 0 0 1 0.49,0.164 0.785,0.785 0 0 1 0.252,0.307 c 0.054,0.123 0.074,0.26 0.05,0.393 a 0.675,0.675 0 0 1 -0.148,0.32 0.744,0.744 0 0 1 -0.288,0.207 0.785,0.785 0 0 1 -0.356,0.055 v 1.6859996 l 3.507,-1.8999996 -3.507,-1.9 z"
     fill="currentColor"
     id="path1" />
</svg>
