<svg width="150" height="64" viewBox="0 0 150 64" fill="none" xmlns="http://www.w3.org/2000/svg">
<g clip-path="url(#clip0_1312_12579)">
<path d="M1.68736 1.46504V62.535H6.08248V64H0V0H6.08248V1.46504H1.68736Z" fill="white"/>
<path d="M18.622 20.8241V23.9138H18.7094C19.5342 22.7376 20.5262 21.8236 21.6892 21.1756C22.8522 20.5296 24.1843 20.2047 25.6856 20.2047C27.1869 20.2047 28.4449 20.484 29.6365 21.0445C30.828 21.6032 31.7345 22.5894 32.3521 24.0031C33.0286 23.0036 33.9484 22.12 35.1114 21.3543C36.2744 20.5885 37.6503 20.2065 39.239 20.2065C40.4457 20.2065 41.5631 20.3548 42.595 20.6474C43.625 20.9419 44.5087 21.4132 45.2441 22.0592C45.9795 22.7072 46.5534 23.5528 46.9658 24.5979C47.3782 25.643 47.5834 26.9009 47.5834 28.3735V43.6491H41.3142V30.7146C41.3142 29.9507 41.2857 29.2286 41.2267 28.5521C41.1678 27.8757 41.0063 27.2866 40.7422 26.7869C40.4761 26.2871 40.0865 25.89 39.5715 25.5955C39.0565 25.3028 38.3572 25.1546 37.4735 25.1546C36.5899 25.1546 35.8772 25.3256 35.3318 25.662C34.7864 26.0002 34.3608 26.4429 34.051 26.9864C33.7412 27.5317 33.536 28.1493 33.4334 28.841C33.3308 29.5326 33.2795 30.2319 33.2795 30.9388V43.6529H27.0102V30.8495C27.0102 30.173 26.995 29.5022 26.9665 28.841C26.9361 28.1778 26.8125 27.5679 26.5902 27.0073C26.3698 26.4486 26.0011 26.0002 25.4861 25.6601C24.9711 25.3237 24.2128 25.1527 23.2133 25.1527C22.9187 25.1527 22.5291 25.2192 22.0426 25.3522C21.5561 25.4853 21.0849 25.7361 20.6307 26.1028C20.1746 26.4714 19.785 27.0016 19.4601 27.6914C19.1351 28.383 18.9736 29.2875 18.9736 30.4067V43.651H12.7043V20.826H18.6201L18.622 20.8241Z" fill="white"/>
<path d="M51.6028 24.1798C52.2489 23.2088 53.0737 22.4298 54.0752 21.8388C55.0748 21.2497 56.2017 20.8317 57.4521 20.5809C58.7025 20.3301 59.9606 20.2047 61.2262 20.2047C62.374 20.2047 63.537 20.2864 64.7134 20.4479C65.8916 20.6113 66.9653 20.9267 67.9364 21.398C68.9075 21.8692 69.7018 22.5248 70.3213 23.3628C70.9389 24.2007 71.2487 25.3123 71.2487 26.6957V38.5699C71.2487 39.6017 71.3076 40.586 71.4254 41.5285C71.5413 42.471 71.7485 43.1778 72.043 43.6472H65.6863C65.5685 43.2937 65.4716 42.9327 65.3994 42.566C65.3253 42.1992 65.274 41.823 65.2455 41.4411C64.244 42.471 63.0677 43.193 61.7146 43.6054C60.3596 44.0158 58.9762 44.2229 57.5642 44.2229C56.4753 44.2229 55.4586 44.0899 54.518 43.8258C53.5754 43.5598 52.7525 43.1493 52.0456 42.5888C51.3387 42.0301 50.7875 41.3233 50.3904 40.4701C49.9932 39.6169 49.7937 38.6003 49.7937 37.4241C49.7937 36.1301 50.0217 35.0622 50.4778 34.2242C50.9339 33.3843 51.5211 32.7154 52.2451 32.2157C52.9654 31.7159 53.7901 31.3397 54.7175 31.0908C55.6449 30.84 56.5798 30.6423 57.5205 30.4941C58.4631 30.3478 59.3886 30.23 60.3026 30.1407C61.2148 30.0514 62.0244 29.9203 62.7313 29.7436C63.4382 29.5668 63.9969 29.3103 64.4093 28.9702C64.8217 28.632 65.0117 28.1379 64.9832 27.4899C64.9832 26.8135 64.873 26.2757 64.6525 25.8786C64.4321 25.4815 64.1376 25.1717 63.7689 24.9513C63.4002 24.7309 62.9745 24.5827 62.488 24.5105C62.0016 24.4383 61.479 24.4002 60.9203 24.4002C59.6831 24.4002 58.712 24.6663 58.007 25.1945C57.3001 25.7247 56.8877 26.6083 56.7699 27.8434H50.5006C50.588 26.3726 50.9548 25.1508 51.6047 24.1798H51.6028ZM63.9874 33.0328C63.5902 33.1658 63.1627 33.2741 62.7066 33.3634C62.2505 33.4508 61.7716 33.5249 61.2718 33.5838C60.7701 33.6427 60.2703 33.7168 59.7705 33.8042C59.2992 33.8917 58.8356 34.0114 58.3795 34.1577C57.9234 34.3059 57.5262 34.5035 57.188 34.7543C56.8497 35.0052 56.576 35.3225 56.3708 35.7025C56.1656 36.0845 56.061 36.5709 56.061 37.16C56.061 37.749 56.1637 38.1899 56.3708 38.5718C56.576 38.9556 56.8573 39.2559 57.2108 39.4763C57.5642 39.6967 57.9747 39.8525 58.4479 39.9399C58.9192 40.0292 59.4038 40.0729 59.9055 40.0729C61.1426 40.0729 62.0985 39.8677 62.775 39.4554C63.4515 39.043 63.9513 38.5509 64.2763 37.9751C64.5993 37.4013 64.7989 36.8217 64.873 36.2327C64.9452 35.6436 64.9832 35.1724 64.9832 34.8208V32.4817C64.7172 32.7173 64.3865 32.9017 63.9893 33.0347L63.9874 33.0328Z" fill="white"/>
<path d="M87.7645 20.8241V25.0178H83.1732V36.3201C83.1732 37.3785 83.3499 38.0853 83.7034 38.4388C84.0569 38.7922 84.7638 38.9689 85.8223 38.9689C86.1758 38.9689 86.514 38.9537 86.8371 38.9252C87.1602 38.8967 87.4699 38.8511 87.7645 38.7922V43.6491C87.2343 43.7365 86.6452 43.7954 85.999 43.8258C85.351 43.8543 84.7182 43.8695 84.1006 43.8695C83.1295 43.8695 82.2097 43.803 81.3413 43.67C80.4728 43.537 79.707 43.2804 79.0456 42.8985C78.3824 42.5166 77.8598 41.9712 77.4778 41.2643C77.094 40.5594 76.9039 39.6302 76.9039 38.4825V25.0178H73.107V20.8241H76.9039V13.9815H83.1732V20.8241H87.7645Z" fill="white"/>
<path d="M96.7263 20.8241V25.0634H96.8138C97.1083 24.3565 97.5055 23.7028 98.0053 23.0986C98.5051 22.4962 99.079 21.9794 99.727 21.5537C100.375 21.1281 101.067 20.7956 101.802 20.5599C102.538 20.3243 103.303 20.2065 104.098 20.2065C104.51 20.2065 104.966 20.2806 105.466 20.4269V26.2548C105.172 26.1959 104.818 26.1446 104.406 26.1009C103.993 26.0572 103.596 26.0344 103.214 26.0344C102.066 26.0344 101.095 26.2263 100.301 26.6082C99.5066 26.9902 98.8661 27.5127 98.3796 28.1759C97.8951 28.839 97.5473 29.6105 97.3421 30.4941C97.1368 31.3777 97.0342 32.3335 97.0342 33.3634V43.649H90.7649V20.8241H96.7244H96.7263Z" fill="white"/>
<path d="M108.118 17.2936V12.1289H114.387V17.2936H108.118ZM114.387 20.8241V43.6491H108.118V20.8241H114.387Z" fill="white"/>
<path d="M117.656 20.8241H124.809L128.826 26.783L132.8 20.8241H139.732L132.226 31.5088L140.66 43.649H133.507L128.739 36.4531L123.971 43.649H116.951L125.162 31.6418L117.656 20.8241Z" fill="white"/>
<path d="M148.312 62.535V1.46507H143.917V3.05176e-05H149.999V64H143.917V62.535H148.312Z" fill="white"/>
<path d="M71.3247 58.086C71.186 57.4673 70.93 56.982 70.5567 56.63C70.1834 56.278 69.6607 56.102 68.9887 56.102C68.5087 56.102 68.0874 56.2033 67.7247 56.406C67.362 56.6087 67.058 56.8753 66.8127 57.206C66.578 57.5367 66.3967 57.9153 66.2687 58.342C66.1514 58.758 66.0927 59.1847 66.0927 59.622C66.0927 60.0593 66.1514 60.4913 66.2687 60.918C66.3967 61.334 66.578 61.7073 66.8127 62.038C67.058 62.3687 67.362 62.6353 67.7247 62.838C68.0874 63.0407 68.5087 63.142 68.9887 63.142C69.298 63.142 69.5914 63.0833 69.8687 62.966C70.146 62.8487 70.3914 62.6887 70.6047 62.486C70.818 62.2727 70.994 62.022 71.1327 61.734C71.2714 61.446 71.3567 61.1313 71.3887 60.79H72.3967C72.258 61.7927 71.89 62.5767 71.2927 63.142C70.6954 63.6967 69.9274 63.974 68.9887 63.974C68.3594 63.974 67.7994 63.862 67.3087 63.638C66.8287 63.4033 66.4234 63.0887 66.0927 62.694C65.762 62.2993 65.5114 61.8407 65.3407 61.318C65.17 60.7847 65.0847 60.2193 65.0847 59.622C65.0847 59.0247 65.17 58.4647 65.3407 57.942C65.5114 57.4087 65.762 56.9447 66.0927 56.55C66.4234 56.1553 66.8287 55.8407 67.3087 55.606C67.7994 55.3713 68.3594 55.254 68.9887 55.254C69.874 55.254 70.6207 55.4887 71.2287 55.958C71.8474 56.4273 72.2154 57.1367 72.3327 58.086H71.3247ZM77.2856 56.102C76.8056 56.102 76.3842 56.2033 76.0216 56.406C75.6589 56.6087 75.3549 56.8753 75.1096 57.206C74.8749 57.5367 74.6936 57.9153 74.5656 58.342C74.4482 58.758 74.3896 59.1847 74.3896 59.622C74.3896 60.0593 74.4482 60.4913 74.5656 60.918C74.6936 61.334 74.8749 61.7073 75.1096 62.038C75.3549 62.3687 75.6589 62.6353 76.0216 62.838C76.3842 63.0407 76.8056 63.142 77.2856 63.142C77.7656 63.142 78.1869 63.0407 78.5496 62.838C78.9122 62.6353 79.2109 62.3687 79.4456 62.038C79.6909 61.7073 79.8722 61.334 79.9896 60.918C80.1176 60.4913 80.1816 60.0593 80.1816 59.622C80.1816 59.1847 80.1176 58.758 79.9896 58.342C79.8722 57.9153 79.6909 57.5367 79.4456 57.206C79.2109 56.8753 78.9122 56.6087 78.5496 56.406C78.1869 56.2033 77.7656 56.102 77.2856 56.102ZM77.2856 55.254C77.9149 55.254 78.4696 55.3713 78.9496 55.606C79.4402 55.8407 79.8509 56.1553 80.1816 56.55C80.5122 56.9447 80.7629 57.4087 80.9336 57.942C81.1042 58.4647 81.1896 59.0247 81.1896 59.622C81.1896 60.2193 81.1042 60.7847 80.9336 61.318C80.7629 61.8407 80.5122 62.2993 80.1816 62.694C79.8509 63.0887 79.4402 63.4033 78.9496 63.638C78.4696 63.862 77.9149 63.974 77.2856 63.974C76.6562 63.974 76.0962 63.862 75.6056 63.638C75.1256 63.4033 74.7202 63.0887 74.3896 62.694C74.0589 62.2993 73.8082 61.8407 73.6376 61.318C73.4669 60.7847 73.3816 60.2193 73.3816 59.622C73.3816 59.0247 73.4669 58.4647 73.6376 57.942C73.8082 57.4087 74.0589 56.9447 74.3896 56.55C74.7202 56.1553 75.1256 55.8407 75.6056 55.606C76.0962 55.3713 76.6562 55.254 77.2856 55.254ZM82.6722 55.494H83.6802V56.918H83.7122C83.9042 56.4167 84.2455 56.0167 84.7362 55.718C85.2269 55.4087 85.7655 55.254 86.3522 55.254C86.9282 55.254 87.4082 55.3287 87.7922 55.478C88.1869 55.6273 88.5015 55.8407 88.7362 56.118C88.9709 56.3847 89.1362 56.7153 89.2322 57.11C89.3282 57.5047 89.3762 57.9473 89.3762 58.438V63.75H88.3682V58.598C88.3682 58.246 88.3362 57.9207 88.2722 57.622C88.2082 57.3127 88.0962 57.046 87.9362 56.822C87.7762 56.598 87.5575 56.422 87.2802 56.294C87.0135 56.166 86.6775 56.102 86.2722 56.102C85.8669 56.102 85.5042 56.1767 85.1842 56.326C84.8749 56.4647 84.6082 56.662 84.3842 56.918C84.1709 57.1633 84.0002 57.462 83.8722 57.814C83.7549 58.1553 83.6909 58.5287 83.6802 58.934V63.75H82.6722V55.494ZM94.4659 56.342H92.8339V63.75H91.8259V56.342H90.4179V55.494H91.8259V54.742C91.8259 54.39 91.8526 54.0647 91.9059 53.766C91.9593 53.4673 92.0606 53.2113 92.2099 52.998C92.3593 52.7847 92.5619 52.6193 92.8179 52.502C93.0846 52.3847 93.4206 52.326 93.8259 52.326C93.9753 52.326 94.1139 52.3313 94.2419 52.342C94.3699 52.3527 94.5139 52.3687 94.6739 52.39V53.254C94.5353 53.2327 94.4073 53.2167 94.2899 53.206C94.1726 53.1847 94.0553 53.174 93.9379 53.174C93.6606 53.174 93.4473 53.2167 93.2979 53.302C93.1486 53.3873 93.0366 53.5047 92.9619 53.654C92.8979 53.7927 92.8606 53.958 92.8499 54.15C92.8393 54.342 92.8339 54.55 92.8339 54.774V55.494H94.4659V56.342ZM101.359 59.046C101.348 58.662 101.279 58.294 101.151 57.942C101.033 57.59 100.863 57.2807 100.639 57.014C100.415 56.7367 100.143 56.518 99.8226 56.358C99.5026 56.1873 99.1399 56.102 98.7346 56.102C98.3186 56.102 97.9506 56.1873 97.6306 56.358C97.3106 56.518 97.0386 56.7367 96.8146 57.014C96.5906 57.2807 96.4092 57.5953 96.2706 57.958C96.1426 58.31 96.0572 58.6727 96.0146 59.046H101.359ZM96.0146 59.894C96.0146 60.2567 96.0626 60.6353 96.1586 61.03C96.2652 61.414 96.4306 61.7607 96.6546 62.07C96.8786 62.3793 97.1612 62.6353 97.5026 62.838C97.8439 63.0407 98.2546 63.142 98.7346 63.142C99.4706 63.142 100.047 62.95 100.463 62.566C100.879 62.182 101.167 61.67 101.327 61.03H102.335C102.121 61.9687 101.727 62.694 101.151 63.206C100.585 63.718 99.7799 63.974 98.7346 63.974C98.0839 63.974 97.5186 63.862 97.0386 63.638C96.5692 63.4033 96.1852 63.0887 95.8866 62.694C95.5879 62.2887 95.3639 61.8247 95.2146 61.302C95.0759 60.7687 95.0066 60.2087 95.0066 59.622C95.0066 59.078 95.0759 58.5447 95.2146 58.022C95.3639 57.4993 95.5879 57.0353 95.8866 56.63C96.1852 56.214 96.5692 55.8833 97.0386 55.638C97.5186 55.382 98.0839 55.254 98.7346 55.254C99.3959 55.254 99.9612 55.3873 100.431 55.654C100.9 55.9207 101.279 56.2727 101.567 56.71C101.865 57.1367 102.079 57.6327 102.207 58.198C102.335 58.7527 102.388 59.318 102.367 59.894H96.0146ZM103.719 55.494H104.647V57.43H104.679C104.935 56.758 105.33 56.2407 105.863 55.878C106.407 55.5153 107.053 55.35 107.799 55.382V56.39C107.341 56.3687 106.925 56.4327 106.551 56.582C106.178 56.7207 105.853 56.9233 105.575 57.19C105.309 57.4567 105.101 57.7767 104.951 58.15C104.802 58.5127 104.727 58.9127 104.727 59.35V63.75H103.719V55.494ZM114.421 59.046C114.41 58.662 114.341 58.294 114.213 57.942C114.096 57.59 113.925 57.2807 113.701 57.014C113.477 56.7367 113.205 56.518 112.885 56.358C112.565 56.1873 112.202 56.102 111.797 56.102C111.381 56.102 111.013 56.1873 110.693 56.358C110.373 56.518 110.101 56.7367 109.877 57.014C109.653 57.2807 109.472 57.5953 109.333 57.958C109.205 58.31 109.12 58.6727 109.077 59.046H114.421ZM109.077 59.894C109.077 60.2567 109.125 60.6353 109.221 61.03C109.328 61.414 109.493 61.7607 109.717 62.07C109.941 62.3793 110.224 62.6353 110.565 62.838C110.906 63.0407 111.317 63.142 111.797 63.142C112.533 63.142 113.109 62.95 113.525 62.566C113.941 62.182 114.229 61.67 114.389 61.03H115.397C115.184 61.9687 114.789 62.694 114.213 63.206C113.648 63.718 112.842 63.974 111.797 63.974C111.146 63.974 110.581 63.862 110.101 63.638C109.632 63.4033 109.248 63.0887 108.949 62.694C108.65 62.2887 108.426 61.8247 108.277 61.302C108.138 60.7687 108.069 60.2087 108.069 59.622C108.069 59.078 108.138 58.5447 108.277 58.022C108.426 57.4993 108.65 57.0353 108.949 56.63C109.248 56.214 109.632 55.8833 110.101 55.638C110.581 55.382 111.146 55.254 111.797 55.254C112.458 55.254 113.024 55.3873 113.493 55.654C113.962 55.9207 114.341 56.2727 114.629 56.71C114.928 57.1367 115.141 57.6327 115.269 58.198C115.397 58.7527 115.45 59.318 115.429 59.894H109.077ZM116.766 55.494H117.774V56.918H117.806C117.998 56.4167 118.339 56.0167 118.83 55.718C119.321 55.4087 119.859 55.254 120.446 55.254C121.022 55.254 121.502 55.3287 121.886 55.478C122.281 55.6273 122.595 55.8407 122.83 56.118C123.065 56.3847 123.23 56.7153 123.326 57.11C123.422 57.5047 123.47 57.9473 123.47 58.438V63.75H122.462V58.598C122.462 58.246 122.43 57.9207 122.366 57.622C122.302 57.3127 122.19 57.046 122.03 56.822C121.87 56.598 121.651 56.422 121.374 56.294C121.107 56.166 120.771 56.102 120.366 56.102C119.961 56.102 119.598 56.1767 119.278 56.326C118.969 56.4647 118.702 56.662 118.478 56.918C118.265 57.1633 118.094 57.462 117.966 57.814C117.849 58.1553 117.785 58.5287 117.774 58.934V63.75H116.766V55.494ZM131.2 58.086C131.061 57.4673 130.805 56.982 130.432 56.63C130.058 56.278 129.536 56.102 128.864 56.102C128.384 56.102 127.962 56.2033 127.6 56.406C127.237 56.6087 126.933 56.8753 126.688 57.206C126.453 57.5367 126.272 57.9153 126.144 58.342C126.026 58.758 125.968 59.1847 125.968 59.622C125.968 60.0593 126.026 60.4913 126.144 60.918C126.272 61.334 126.453 61.7073 126.688 62.038C126.933 62.3687 127.237 62.6353 127.6 62.838C127.962 63.0407 128.384 63.142 128.864 63.142C129.173 63.142 129.466 63.0833 129.744 62.966C130.021 62.8487 130.266 62.6887 130.48 62.486C130.693 62.2727 130.869 62.022 131.008 61.734C131.146 61.446 131.232 61.1313 131.264 60.79H132.272C132.133 61.7927 131.765 62.5767 131.168 63.142C130.57 63.6967 129.802 63.974 128.864 63.974C128.234 63.974 127.674 63.862 127.184 63.638C126.704 63.4033 126.298 63.0887 125.968 62.694C125.637 62.2993 125.386 61.8407 125.216 61.318C125.045 60.7847 124.96 60.2193 124.96 59.622C124.96 59.0247 125.045 58.4647 125.216 57.942C125.386 57.4087 125.637 56.9447 125.968 56.55C126.298 56.1553 126.704 55.8407 127.184 55.606C127.674 55.3713 128.234 55.254 128.864 55.254C129.749 55.254 130.496 55.4887 131.104 55.958C131.722 56.4273 132.09 57.1367 132.208 58.086H131.2ZM139.609 59.046C139.598 58.662 139.529 58.294 139.401 57.942C139.283 57.59 139.113 57.2807 138.889 57.014C138.665 56.7367 138.393 56.518 138.073 56.358C137.753 56.1873 137.39 56.102 136.985 56.102C136.569 56.102 136.201 56.1873 135.881 56.358C135.561 56.518 135.289 56.7367 135.065 57.014C134.841 57.2807 134.659 57.5953 134.521 57.958C134.393 58.31 134.307 58.6727 134.265 59.046H139.609ZM134.265 59.894C134.265 60.2567 134.313 60.6353 134.409 61.03C134.515 61.414 134.681 61.7607 134.905 62.07C135.129 62.3793 135.411 62.6353 135.753 62.838C136.094 63.0407 136.505 63.142 136.985 63.142C137.721 63.142 138.297 62.95 138.713 62.566C139.129 62.182 139.417 61.67 139.577 61.03H140.585C140.371 61.9687 139.977 62.694 139.401 63.206C138.835 63.718 138.03 63.974 136.985 63.974C136.334 63.974 135.769 63.862 135.289 63.638C134.819 63.4033 134.435 63.0887 134.137 62.694C133.838 62.2887 133.614 61.8247 133.465 61.302C133.326 60.7687 133.257 60.2087 133.257 59.622C133.257 59.078 133.326 58.5447 133.465 58.022C133.614 57.4993 133.838 57.0353 134.137 56.63C134.435 56.214 134.819 55.8833 135.289 55.638C135.769 55.382 136.334 55.254 136.985 55.254C137.646 55.254 138.211 55.3873 138.681 55.654C139.15 55.9207 139.529 56.2727 139.817 56.71C140.115 57.1367 140.329 57.6327 140.457 58.198C140.585 58.7527 140.638 59.318 140.617 59.894H134.265Z" fill="white"/>
<path d="M14.56 3.744H16.24V4.592H14.56V10.16C14.56 10.4907 14.6027 10.752 14.688 10.944C14.784 11.1253 15.0133 11.2267 15.376 11.248C15.664 11.248 15.952 11.232 16.24 11.2V12.048C16.0907 12.048 15.9413 12.0533 15.792 12.064C15.6427 12.0747 15.4933 12.08 15.344 12.08C14.672 12.08 14.2027 11.952 13.936 11.696C13.6693 11.4293 13.5413 10.944 13.552 10.24V4.592H12.112V3.744H13.552V1.264H14.56V3.744ZM17.6784 0.575999H18.6864V5.168H18.7184C18.9104 4.66667 19.2517 4.26667 19.7424 3.968C20.233 3.65867 20.7717 3.504 21.3584 3.504C21.9344 3.504 22.4144 3.57867 22.7984 3.728C23.193 3.87733 23.5077 4.09067 23.7424 4.368C23.977 4.63467 24.1424 4.96533 24.2384 5.36C24.3344 5.75467 24.3824 6.19733 24.3824 6.688V12H23.3744V6.848C23.3744 6.496 23.3424 6.17067 23.2784 5.872C23.2144 5.56267 23.1024 5.296 22.9424 5.072C22.7824 4.848 22.5637 4.672 22.2864 4.544C22.0197 4.416 21.6837 4.352 21.2784 4.352C20.873 4.352 20.5104 4.42667 20.1904 4.576C19.881 4.71467 19.6144 4.912 19.3904 5.168C19.177 5.41333 19.0064 5.712 18.8784 6.064C18.761 6.40533 18.697 6.77867 18.6864 7.184V12H17.6784V0.575999ZM32.2241 7.296C32.2135 6.912 32.1441 6.544 32.0161 6.192C31.8988 5.84 31.7281 5.53067 31.5041 5.264C31.2801 4.98667 31.0081 4.768 30.6881 4.608C30.3681 4.43733 30.0055 4.352 29.6001 4.352C29.1841 4.352 28.8161 4.43733 28.4961 4.608C28.1761 4.768 27.9041 4.98667 27.6801 5.264C27.4561 5.53067 27.2748 5.84533 27.1361 6.208C27.0081 6.56 26.9228 6.92267 26.8801 7.296H32.2241ZM26.8801 8.144C26.8801 8.50667 26.9281 8.88533 27.0241 9.28C27.1308 9.664 27.2961 10.0107 27.5201 10.32C27.7441 10.6293 28.0268 10.8853 28.3681 11.088C28.7095 11.2907 29.1201 11.392 29.6001 11.392C30.3361 11.392 30.9121 11.2 31.3281 10.816C31.7441 10.432 32.0321 9.92 32.1921 9.28H33.2001C32.9868 10.2187 32.5921 10.944 32.0161 11.456C31.4508 11.968 30.6455 12.224 29.6001 12.224C28.9495 12.224 28.3841 12.112 27.9041 11.888C27.4348 11.6533 27.0508 11.3387 26.7521 10.944C26.4535 10.5387 26.2295 10.0747 26.0801 9.552C25.9415 9.01867 25.8721 8.45867 25.8721 7.872C25.8721 7.328 25.9415 6.79467 26.0801 6.272C26.2295 5.74933 26.4535 5.28533 26.7521 4.88C27.0508 4.464 27.4348 4.13333 27.9041 3.888C28.3841 3.632 28.9495 3.504 29.6001 3.504C30.2615 3.504 30.8268 3.63733 31.2961 3.904C31.7655 4.17067 32.1441 4.52267 32.4321 4.96C32.7308 5.38667 32.9441 5.88267 33.0721 6.448C33.2001 7.00267 33.2535 7.568 33.2321 8.144H26.8801Z" fill="white"/>
</g>
<defs>
<clipPath id="clip0_1312_12579">
<rect width="149.999" height="64" fill="white"/>
</clipPath>
</defs>
</svg>
