<svg width="141" height="60" viewBox="0 0 141 60" fill="none" xmlns="http://www.w3.org/2000/svg">
<g clip-path="url(#clip0_200_13854)">
<path d="M1.57762 1.37349V58.6263H5.68875V60H0V0H5.68875V1.37349H1.57762Z" fill="white"/>
<path d="M17.4165 19.5235V22.4208H17.4988C18.2699 21.3179 19.1985 20.4616 20.2865 19.8545C21.3737 19.2484 22.62 18.9441 24.0238 18.9441C25.3725 18.9441 26.6048 19.2069 27.7196 19.7306C28.8347 20.2553 29.6815 21.1791 30.2597 22.5038C30.8924 21.5659 31.7527 20.7379 32.8406 20.0205C33.9279 19.3035 35.2149 18.9441 36.7019 18.9441C37.8307 18.9441 38.8763 19.0824 39.8407 19.3583C40.8037 19.6343 41.6297 20.0757 42.3181 20.6826C43.0058 21.2901 43.5425 22.0834 43.9288 23.0621C44.3139 24.0426 44.507 25.2216 44.507 26.6016V40.9217H38.6428V28.7948C38.6428 28.0777 38.6154 27.4017 38.5601 26.7666C38.5045 26.1324 38.3538 25.5809 38.106 25.1111C37.8581 24.6424 37.4928 24.2696 37.0117 23.9934C36.5298 23.7186 35.8757 23.5798 35.0499 23.5798C34.2242 23.5798 33.5564 23.7394 33.047 24.0556C32.5372 24.3734 32.1384 24.7876 31.8496 25.2975C31.5605 25.8085 31.3677 26.3877 31.2715 27.0365C31.1747 27.6846 31.1269 28.3401 31.1269 29.0023V40.9219H25.263V28.9195C25.263 28.2849 25.2486 27.657 25.2222 27.0365C25.1941 26.4153 25.0775 25.8429 24.8706 25.3183C24.6641 24.7946 24.3198 24.3734 23.8381 24.0556C23.3562 23.7394 22.6474 23.5798 21.7114 23.5798C21.4358 23.5798 21.071 23.642 20.6173 23.7665C20.163 23.8907 19.7222 24.1256 19.2958 24.47C18.8685 24.8152 18.5041 25.3119 18.2012 25.9598C17.8982 26.6086 17.7469 27.4566 17.7469 28.5049V40.9217H11.8833V19.5235H17.4165Z" fill="white"/>
<path d="M48.2645 22.6695C48.8697 21.7586 49.6409 21.0279 50.5772 20.4755C51.5129 19.9238 52.5654 19.5308 53.7359 19.296C54.9057 19.0617 56.0829 18.944 57.2667 18.944C58.3406 18.944 59.4276 19.0202 60.5289 19.1715C61.63 19.3238 62.6351 19.6207 63.5437 20.0616C64.4522 20.5029 65.1953 21.1173 65.7737 21.9033C66.3518 22.6896 66.6408 23.7314 66.6408 25.0285V36.1614C66.6408 37.1283 66.6959 38.0516 66.8063 38.9345C66.9156 39.8179 67.1087 40.4801 67.3842 40.9214H61.4379C61.3275 40.59 61.2377 40.2524 61.1693 39.9072C61.1 39.5628 61.0518 39.211 61.0248 38.852C60.0886 39.8179 58.987 40.494 57.7215 40.8804C56.4548 41.2657 55.1608 41.4595 53.8393 41.4595C52.8203 41.4595 51.8705 41.3352 50.9896 41.0872C50.1084 40.8387 49.3379 40.4527 48.6772 39.9275C48.0164 39.4041 47.5002 38.7418 47.1285 37.9417C46.7569 37.1417 46.5708 36.1888 46.5708 35.0856C46.5708 33.8719 46.7839 32.8712 47.2114 32.0856C47.6378 31.2988 48.1881 30.6713 48.8635 30.2017C49.5376 29.7329 50.3083 29.381 51.1759 29.1466C52.0429 28.9123 52.9168 28.7265 53.7979 28.5878C54.6789 28.4502 55.546 28.3396 56.3996 28.257C57.253 28.1739 58.0103 28.0496 58.671 27.8841C59.3318 27.7186 59.8544 27.4776 60.2403 27.1599C60.6251 26.8427 60.804 26.3806 60.777 25.7731C60.777 25.1389 60.6739 24.6349 60.4674 24.2626C60.261 23.8903 59.9856 23.6001 59.6416 23.3933C59.2973 23.1865 58.8981 23.0484 58.4442 22.9791C57.9897 22.911 57.5006 22.8758 56.9782 22.8758C55.8218 22.8758 54.9134 23.1243 54.2525 23.6209C53.5921 24.1176 53.2058 24.9458 53.0962 26.1043H47.2324C47.3145 24.7251 47.658 23.5794 48.2645 22.6695ZM59.8476 30.9679C59.4761 31.0919 59.0768 31.1951 58.6504 31.2781C58.2234 31.3609 57.7762 31.43 57.3083 31.4849C56.8399 31.5407 56.3719 31.6093 55.9043 31.6921C55.4635 31.7742 55.03 31.8856 54.6038 32.0229C54.1765 32.1617 53.8048 32.3475 53.4886 32.5819C53.1715 32.8165 52.917 33.1137 52.7243 33.4716C52.5315 33.8304 52.4353 34.2859 52.4353 34.8376C52.4353 35.3613 52.5315 35.8035 52.7243 36.1614C52.917 36.5207 53.179 36.8034 53.5092 37.0102C53.8395 37.217 54.2246 37.3622 54.6658 37.4445C55.1057 37.5275 55.56 37.5689 56.0282 37.5689C57.1844 37.5689 58.0788 37.3761 58.7126 36.9894C59.3455 36.6035 59.8131 36.1411 60.1165 35.6025C60.4191 35.0647 60.6052 34.5208 60.6741 33.9682C60.7424 33.4165 60.7772 32.9749 60.7772 32.6439V30.4501C60.5291 30.6713 60.2195 30.8436 59.8476 30.9679Z" fill="white"/>
<path d="M82.0848 19.5235V23.4555H77.7904V34.0513C77.7904 35.044 77.9554 35.7066 78.286 36.0374C78.6158 36.3685 79.277 36.534 80.2681 36.534C80.5985 36.534 80.9147 36.5205 81.2178 36.4927C81.5205 36.4656 81.8097 36.4236 82.0848 36.3687V40.9215C81.5893 41.0044 81.0384 41.0592 80.4331 41.0874C79.8275 41.1139 79.2356 41.1284 78.6574 41.1284C77.749 41.1284 76.8884 41.066 76.0765 40.9417C75.264 40.8179 74.5484 40.577 73.9292 40.2179C73.3096 39.8596 72.8208 39.3485 72.4632 38.6864C72.1049 38.0247 71.9262 37.1552 71.9262 36.0785V23.4555H68.375V19.5235H71.9262V13.1082H77.7902V19.5235H82.0848Z" fill="white"/>
<path d="M90.4677 19.5235V23.4971H90.5504C90.8251 22.8344 91.1966 22.2211 91.6651 21.655C92.1333 21.0899 92.6697 20.6066 93.2755 20.2065C93.8807 19.8071 94.528 19.4966 95.2169 19.2751C95.9044 19.0548 96.6207 18.944 97.3642 18.944C97.7495 18.944 98.1758 19.0134 98.6443 19.1511V24.6148C98.3686 24.5592 98.0382 24.5108 97.6532 24.4698C97.2675 24.4283 96.896 24.4074 96.5381 24.4074C95.4643 24.4074 94.5559 24.5874 93.813 24.9456C93.0696 25.3044 92.471 25.7938 92.0165 26.4148C91.5624 27.036 91.2382 27.7598 91.0457 28.5878C90.8532 29.4152 90.7569 30.3126 90.7569 31.2781V40.9215H84.8931V19.5235H90.4677Z" fill="white"/>
<path d="M101.122 16.2121V11.3697H106.986V16.2121H101.122ZM106.986 19.5235V40.9215H101.122V19.5235H106.986Z" fill="white"/>
<path d="M110.042 19.5235H116.731L120.49 25.1109L124.206 19.5235H130.69L123.67 29.5398L131.557 40.9217H124.867L120.407 34.1754L115.947 40.9217H109.381L117.062 29.6643L110.042 19.5235Z" fill="white"/>
<path d="M138.716 58.6263V1.37349H134.605V0H140.294V60H134.605V58.6263H138.716Z" fill="white"/>
</g>
<defs>
<clipPath id="clip0_200_13854">
<rect width="140.294" height="60" fill="white"/>
</clipPath>
</defs>
</svg>
