<svg width="125" height="33" viewBox="0 0 125 33" fill="none" xmlns="http://www.w3.org/2000/svg">
<path d="M109.678 17.2434C109.678 8.87072 109.688 1.7414 109.7 1.40047C109.712 1.05958 109.731 0.78064 109.741 0.78064C109.779 0.78064 124.034 15.0501 124.189 15.2434C124.519 15.6553 124.665 16.0719 124.665 16.5988C124.665 16.9876 124.602 17.2554 124.43 17.5906C124.32 17.8068 123.832 18.3023 116.995 25.1443L109.678 32.4666V17.2434Z" fill="white"/>
<path d="M7.8721 8.4218C11.8019 4.48808 15.1131 1.18934 15.2303 1.09122C15.2928 1.03887 15.3505 0.991601 15.3917 0.958899C15.4007 0.950293 15.4056 0.945929 15.4061 0.945929C15.4062 0.945929 15.4063 0.946365 15.4064 0.947236C15.4339 0.925647 15.4512 0.912871 15.4534 0.912871C15.4589 0.912871 15.4635 8.08312 15.4635 16.8468C15.4635 29.5697 15.4551 32.7806 15.4222 32.7806C15.3994 32.7806 12.077 29.4745 8.03898 25.4335C1.17778 18.5674 0.68935 18.0712 0.57897 17.855C0.253482 17.2173 0.251499 16.5449 0.573151 15.8881L0.72697 15.574L7.8721 8.4218Z" fill="white"/>
<path d="M87.8767 8.67499C88.7643 8.08718 89.8625 7.69552 90.9511 7.57852C91.0238 7.57072 91.3808 7.56877 91.7445 7.57419C92.5111 7.58566 92.9924 7.65641 93.5319 7.83697C94.6721 8.21846 95.4251 8.95816 95.7392 10.0046C95.8542 10.388 95.8912 10.6139 95.915 11.0782C95.9911 12.5613 95.3815 14.0408 94.0354 15.6401C93.8975 15.8038 92.8545 16.9195 91.7177 18.1195L89.6506 20.3013L92.9124 20.3178C96.0296 20.3335 96.2554 20.3327 96.3945 20.4421C96.408 20.4527 96.4206 20.4644 96.435 20.4772C96.5967 20.6206 96.6668 20.9929 96.5864 21.2815C96.5375 21.4583 96.3365 21.6259 96.1193 21.6709C95.994 21.697 94.7977 21.7049 92.0086 21.6987C88.3045 21.6904 88.0674 21.6864 87.9431 21.6302C87.6585 21.502 87.5316 21.2904 87.5303 20.943C87.5296 20.7664 87.5484 20.6877 87.6278 20.5284C87.6384 20.5072 87.6472 20.4887 87.6566 20.4706C87.7512 20.2878 87.8987 20.1326 90.3679 17.4805C92.7038 14.9714 92.9015 14.7509 93.2645 14.2517C94.0423 13.1808 94.3898 12.0899 94.2737 11.0813C94.2017 10.4536 94.0076 10.0342 93.6205 9.66904C93.1309 9.20728 92.4126 8.97938 91.4469 8.97938C90.3226 8.97938 89.3888 9.293 88.3874 10.0068C88.2086 10.1342 88.0079 10.2487 87.9246 10.2707C87.4529 10.395 87.0516 9.88537 87.201 9.35178C87.2582 9.14791 87.4446 8.96107 87.8767 8.67499Z" fill="white"/>
<path d="M80.9025 9.43862C80.9792 9.22186 81.1306 9.0859 81.3805 9.00986C81.5018 8.973 81.7762 8.97439 81.9137 9.01257C82.0969 9.06348 82.2483 9.18133 82.3395 9.34391L82.4221 9.49138L82.4423 12.0534H83.6922C84.3937 12.0534 85.0202 12.068 85.12 12.0867C85.3117 12.1227 85.4208 12.1875 85.5259 12.3285C85.6086 12.4392 85.6397 12.8001 85.5788 12.9464C85.5236 13.08 85.3438 13.2322 85.1917 13.2745C85.114 13.296 84.5673 13.3093 83.7514 13.3094L82.4357 13.3096L82.4469 16.0782C82.4582 18.8025 82.4595 18.8511 82.5306 19.1192C82.7369 19.8963 83.156 20.3182 83.8671 20.4639C84.1888 20.5297 84.7002 20.5301 85.0007 20.4646C85.5316 20.3486 85.5944 20.3426 85.724 20.3968C85.8109 20.4332 85.8615 20.4834 85.9002 20.5727C85.9749 20.7453 85.9739 21.1198 85.8982 21.3175C85.7891 21.6034 85.6222 21.6861 84.9015 21.8107C84.5752 21.8673 84.4195 21.8762 84.0255 21.8616C83.3385 21.8362 82.8635 21.7238 82.3696 21.4699C81.7461 21.1492 81.2856 20.5846 81.0526 19.855C81.0195 19.7517 80.9926 19.67 80.9706 19.5869C80.8705 19.2092 80.8717 18.8048 80.8612 16.2289L80.8493 13.3138L80.0489 13.3034C79.2962 13.2937 79.2403 13.2887 79.1114 13.2197C78.6793 12.9885 78.723 12.3069 79.1825 12.1152C79.2489 12.0875 79.5412 12.0694 80.0668 12.0605L80.8519 12.0473V10.8148C80.8519 9.79171 80.8605 9.55793 80.9025 9.43862Z" fill="white"/>
<path d="M20.7652 12.053C20.9704 12.0012 21.2636 11.9448 21.4167 11.9278C22.768 11.7777 24.1073 12.1084 24.9647 12.8039C25.2004 12.9951 25.2717 13.0729 25.2913 13.2364C25.3113 13.3218 25.3127 13.4108 25.2966 13.4977C25.2913 13.6269 25.2707 13.6732 25.199 13.7744C25.0991 13.9154 24.9973 13.992 24.8631 14.0191C24.7959 14.0398 24.7256 14.0423 24.648 14.0262C24.5071 14.0139 24.4398 13.9813 24.2123 13.8282C23.4756 13.3329 22.7683 13.1468 21.8839 13.2155C20.6465 13.3117 19.7453 14.0048 19.3541 15.1608C19.231 15.5243 19.1552 15.9383 19.1243 16.3659C19.1125 16.641 19.1119 16.9575 19.1223 17.2403C19.1691 17.9403 19.3311 18.6104 19.5984 19.0907C20.0914 19.9763 20.8279 20.4454 21.8961 20.5539C21.9407 20.5584 21.9852 20.562 22.0296 20.5648C22.2349 20.5699 22.4543 20.564 22.6487 20.5477C23.1927 20.4819 23.7157 20.281 24.2139 19.9463C24.363 19.8458 24.5376 19.7539 24.6019 19.742C25.0751 19.653 25.4381 20.2051 25.2126 20.6709C25.0767 20.9519 24.3103 21.4276 23.6606 21.6342C23.0768 21.82 22.8216 21.8553 22.075 21.853C21.34 21.8507 21.0208 21.8044 20.4683 21.6196C18.9598 21.1155 17.9055 19.8196 17.5772 18.0659C17.477 17.5304 17.4528 16.4877 17.5275 15.9211C17.7984 13.867 18.9285 12.5169 20.7652 12.053Z" fill="white"/>
<path fill-rule="evenodd" clip-rule="evenodd" d="M27.7445 13.215C28.4347 12.483 29.3945 12.0262 30.4883 11.9091C30.7703 11.8789 31.753 11.9175 32.0377 11.9699C33.6331 12.2637 34.8271 13.3115 35.3478 14.8749C35.7514 16.0854 35.7554 17.6206 35.3583 18.8596C34.9491 20.1377 34.0615 21.0973 32.8456 21.5767C32.5891 21.6775 32.082 21.7962 31.7148 21.8411C31.2635 21.896 30.3872 21.8623 29.9693 21.7737C28.6149 21.4864 27.6027 20.692 26.9974 19.4418C26.647 18.7181 26.4896 18.0009 26.4734 17.0377C26.4723 16.9854 26.4717 16.9328 26.4717 16.8798C26.4717 16.8349 26.4721 16.7903 26.4729 16.7458C26.495 15.2661 26.9181 14.0915 27.7445 13.215ZM28.1858 15.6907C28.4945 14.2719 29.3368 13.3878 30.5483 13.2107C30.8431 13.1675 31.3438 13.1753 31.6437 13.2276C32.5805 13.391 33.277 13.9565 33.6906 14.8901C33.875 15.3065 33.9868 15.8814 34.0213 16.483C34.0298 16.7513 34.0292 17.0466 34.0197 17.3101C33.9935 17.7334 33.9274 18.14 33.8198 18.4831C33.4595 19.6325 32.7388 20.3165 31.657 20.5357C31.2842 20.6111 30.5617 20.5853 30.2082 20.4838C29.8035 20.3674 29.4424 20.1614 29.1387 19.8792C29.1161 19.8569 29.0923 19.8331 29.0668 19.8074C29.0122 19.7525 28.9604 19.6971 28.9112 19.6409C28.6792 19.3674 28.4914 19.0412 28.3561 18.6706C28.1512 18.1092 28.1104 17.8117 28.1104 16.8798C28.1104 16.1258 28.1183 16.0005 28.1858 15.6907Z" fill="white"/>
<path d="M39.7663 13.5244C40.3164 12.6419 41.2255 12.0843 42.3798 11.921C42.4712 11.9081 42.6068 11.9014 42.7626 11.9C42.9472 11.889 43.1323 11.8945 43.3992 11.9181C43.6323 11.9326 43.8459 11.955 43.9759 11.9829C44.6433 12.1258 45.0417 12.3342 45.4635 12.7607C45.8053 13.1063 46.0003 13.4414 46.1686 13.9714C46.3825 14.6461 46.3835 14.6633 46.397 18.0325C46.4056 20.1684 46.3983 21.137 46.3732 21.2557C46.3005 21.5952 46.0678 21.7975 45.7131 21.8296C45.3203 21.8653 44.995 21.701 44.8641 21.4011C44.806 21.2676 44.8017 21.0881 44.7841 18.1195C44.7659 15.0557 44.7636 14.9724 44.6955 14.7145C44.483 13.9134 44.0856 13.4829 43.3808 13.2905C43.0741 13.2068 42.3256 13.19 41.96 13.2587C41.3455 13.3743 40.8307 13.6503 40.4483 14.0692C40.116 14.4332 39.9412 14.7631 39.7855 15.3182C39.7154 15.5691 39.7137 15.6286 39.6962 18.4335C39.6787 21.2633 39.6777 21.2947 39.6079 21.4454C39.5269 21.6206 39.3722 21.7502 39.1825 21.8021C38.8701 21.8874 38.4899 21.813 38.3154 21.6329C38.2857 21.6022 38.2601 21.5813 38.2381 21.5572C38.2068 21.5228 38.1827 21.4816 38.1643 21.3954L38.1246 21.3314V20.9723C38.1011 20.4136 38.105 19.281 38.1055 16.8755C38.1059 14.1025 38.107 13.0735 38.1246 12.656V12.4335L38.1537 12.3792C38.1579 12.3646 38.1626 12.3528 38.1676 12.3414C38.3379 11.9569 38.8512 11.812 39.2906 12.0246C39.5851 12.1672 39.6615 12.4066 39.6625 13.1901L39.6631 13.6897L39.7663 13.5244Z" fill="white"/>
<path d="M51.7531 12.7098C52.2747 12.2954 52.9299 12.0233 53.6526 11.921C53.9851 11.874 54.9064 11.9096 55.2486 11.9827C56.6066 12.2727 57.3408 13.1134 57.6053 14.6815C57.6549 14.9757 57.6612 15.3592 57.6615 18.1525L57.6618 21.293L57.5643 21.4689C57.441 21.6914 57.2602 21.8048 56.9881 21.8292C56.602 21.8643 56.2826 21.7102 56.1541 21.4276C56.0962 21.3003 56.0929 21.1479 56.0916 18.6153C56.0909 17.1426 56.0757 15.7218 56.0582 15.4583C55.9755 14.2183 55.5934 13.5926 54.7527 13.321C54.3742 13.1987 53.638 13.1745 53.1808 13.2692C52.5772 13.3943 52.2093 13.5893 51.7944 14.0041C51.4076 14.3909 51.2291 14.7099 51.0582 15.3182C51.0491 15.3503 51.0412 15.3793 51.0342 15.4113C51.0312 15.4267 51.0282 15.4422 51.0252 15.4578C50.9864 15.6864 50.9828 16.1502 50.9686 18.4335C50.9524 21.0868 50.9468 21.3026 50.8919 21.4239C50.8595 21.496 50.8073 21.5833 50.7762 21.6177C50.681 21.7231 50.4694 21.812 50.2714 21.8299C49.8846 21.8649 49.5732 21.7132 49.4423 21.4256C49.4362 21.4122 49.4307 21.3976 49.4258 21.3773L49.3974 21.3314V21.0131C49.3833 20.535 49.3822 19.4562 49.3822 16.8798C49.3822 14.3034 49.3833 13.2247 49.3974 12.7466V12.4283L49.4258 12.3824C49.4307 12.3621 49.4362 12.3475 49.4423 12.3341C49.6142 11.9557 50.1279 11.8139 50.5633 12.0246C50.8579 12.1672 50.9345 12.4076 50.9345 13.1886V13.6866L51.0797 13.4658C51.2975 13.1338 51.4869 12.9212 51.7531 12.7098Z" fill="white"/>
<path fill-rule="evenodd" clip-rule="evenodd" d="M61.4255 13.219C62.1626 12.4593 63.0274 12.0474 64.1742 11.9099C64.3974 11.8831 64.9735 11.8903 65.2724 11.9236C66.1967 12.0267 67.1101 12.4643 67.6628 13.069C68.1812 13.6363 68.5494 14.3873 68.7187 15.2236C68.8083 15.6666 68.8608 16.221 68.8469 16.575C68.8344 16.898 68.7967 16.9846 68.6076 17.1258C68.517 17.1935 68.4926 17.1939 65.0595 17.2025L61.6026 17.2114L61.6245 17.5C61.6529 17.8758 61.7802 18.4332 61.9055 18.7317C62.2453 19.5403 62.8463 20.1142 63.638 20.3869C64.7445 20.7677 66.3752 20.5912 67.3498 19.9849C67.9084 19.6375 68.0975 19.5889 68.3702 19.7221C68.5795 19.8243 68.6701 19.9853 68.6701 20.2547C68.6701 20.4494 68.6575 20.4953 68.5696 20.6206C68.3167 20.981 67.4152 21.4507 66.5544 21.6702C65.165 22.0249 63.6218 21.9026 62.5217 21.3509C62.0661 21.1225 61.7593 20.901 61.3931 20.5357C60.4926 19.6382 60.0598 18.4626 60.0598 16.9129C60.0598 15.3595 60.4978 14.1754 61.4255 13.219ZM61.6608 15.8689C61.8995 14.3982 62.7412 13.4129 63.9924 13.1403C64.3894 13.0538 65.2231 13.0717 65.5736 13.1742C66.2456 13.3709 66.7679 13.8065 67.083 14.4335C67.2889 14.8425 67.4479 15.4729 67.4671 15.9542L67.4757 16.1691L64.5706 16.1777C62.9729 16.1823 61.6545 16.1747 61.6417 16.1611C61.6284 16.1472 61.637 16.016 61.6608 15.8689Z" fill="white"/>
<path d="M70.6377 16.0368C70.9018 13.6714 72.3418 12.1803 74.6142 11.9198C74.9537 11.8809 75.7944 11.9072 76.125 11.967C76.9094 12.1089 77.5891 12.4003 78.1002 12.8137C78.3616 13.0252 78.4155 13.1101 78.4307 13.3339C78.4413 13.4933 78.4281 13.5541 78.3501 13.7063C78.2241 13.9516 78.0668 14.0441 77.8023 14.0279C77.6377 14.0177 77.5805 13.9939 77.3726 13.8503C76.8893 13.5162 76.5382 13.362 76.042 13.2659C75.6212 13.1845 75.3706 13.1711 74.9911 13.2097C73.5002 13.3613 72.5904 14.2514 72.3038 15.8385C72.2231 16.2854 72.2208 17.3545 72.2998 17.8054C72.4512 18.6719 72.7646 19.3215 73.2645 19.8054C73.7276 20.254 74.2281 20.4709 74.9977 20.5562C75.8086 20.6461 76.6354 20.4312 77.3359 19.9482C77.6294 19.7459 77.7702 19.703 77.9617 19.7565C78.2453 19.8358 78.4324 20.1363 78.395 20.4527C78.3666 20.693 78.2783 20.8107 77.9514 21.0438C77.4443 21.4051 76.9299 21.6253 76.235 21.778C75.7924 21.8752 74.7474 21.8844 74.2734 21.7955C72.2641 21.418 70.9415 19.9317 70.6549 17.7294C70.5967 17.2848 70.5888 16.4758 70.6377 16.0368Z" fill="white"/>
<path d="M98.8413 12.4874C98.8625 12.1987 99.0112 12.0296 99.3147 11.9502C99.5818 11.8803 99.9454 11.9818 100.171 12.1891C100.263 12.2747 100.92 13.0809 101.629 13.9806C102.338 14.8805 102.929 15.6101 102.941 15.6025C102.954 15.5949 103.526 14.8785 104.213 14.0111C104.899 13.1434 105.533 12.357 105.621 12.2633C105.833 12.0374 106.051 11.9422 106.356 11.9418C106.621 11.9414 106.741 11.9911 106.894 12.1649C107.075 12.3723 107.074 12.6642 106.891 12.9373C106.832 13.0238 106.126 13.9103 105.32 14.9072C104.514 15.9039 103.862 16.737 103.872 16.7585C103.881 16.7796 104.605 17.6825 105.48 18.7641C106.355 19.8458 107.111 20.7978 107.159 20.8795C107.346 21.1942 107.241 21.583 106.926 21.7353C106.7 21.8444 106.373 21.8335 106.122 21.7079C106.014 21.654 105.872 21.5535 105.806 21.4848C105.739 21.4157 105.072 20.5856 104.322 19.6401C103.573 18.6947 102.949 17.9099 102.937 17.8963C102.925 17.8828 102.306 18.6415 101.562 19.5823C100.084 21.4511 99.9808 21.5724 99.7669 21.6977C99.5729 21.8114 99.2 21.8401 98.9848 21.7578C98.646 21.6286 98.5154 21.2471 98.6919 20.9013C98.721 20.8441 99.4734 19.8858 100.364 18.772C101.254 17.6583 101.976 16.7287 101.967 16.7059C101.958 16.6834 101.28 15.8319 100.459 14.8137C99.638 13.7955 98.9352 12.8984 98.8972 12.8201C98.8436 12.7107 98.8307 12.6338 98.8413 12.4874Z" fill="white"/>
</svg>
