<svg width="133" height="33" viewBox="0 0 133 33" fill="none" xmlns="http://www.w3.org/2000/svg">
<g clip-path="url(#clip0_198_6104)">
<path fill-rule="evenodd" clip-rule="evenodd" d="M106.231 10.46C106.777 10.7106 107.267 11.0664 107.674 11.507V4.78101H110.953V23.756H107.831V22.2635C107.412 22.7878 106.887 23.18 106.231 23.4935C105.392 23.8865 104.501 24.0703 103.504 24.0703C102.192 24.0703 101.012 23.7823 99.9623 23.1538C98.913 22.4998 98.1 21.662 97.497 20.5625C96.8933 19.4638 96.6053 18.26 96.6053 16.9513C96.6053 15.6163 96.8933 14.4125 97.497 13.3393C98.1 12.2668 98.913 11.4028 99.9623 10.7743C101.012 10.1465 102.192 9.83226 103.478 9.83226C104.501 9.83226 105.418 10.0423 106.231 10.46ZM105.838 20.5363C106.412 20.1822 106.875 19.6745 107.176 19.0708C107.491 18.443 107.674 17.7358 107.674 16.9513C107.674 16.166 107.517 15.4858 107.176 14.8573C106.861 14.2033 106.415 13.706 105.838 13.3648C105.261 13.025 104.605 12.842 103.844 12.842C103.11 12.842 102.428 13.025 101.851 13.3918C101.262 13.7435 100.781 14.2505 100.461 14.8573C100.146 15.4595 99.9885 16.1398 99.9885 16.9513C99.9885 17.7365 100.146 18.443 100.461 19.0708C100.801 19.6993 101.274 20.1958 101.851 20.5363C102.458 20.883 103.145 21.0635 103.844 21.0598C104.605 21.0598 105.261 20.8768 105.838 20.5363Z" fill="#EEF2FF"/>
<path d="M31.2397 23.756H34.65V16.271H42.5977V13.2597H34.65V8.0772H43.725V5.0697H31.2405V23.7567L31.2397 23.756Z" fill="#EEF2FF"/>
<path fill-rule="evenodd" clip-rule="evenodd" d="M53.6663 10.4345C52.8008 10.0152 51.8303 9.80597 50.7023 9.80597C49.7843 9.80597 48.9188 9.96347 48.132 10.2507C47.3653 10.529 46.6611 10.9559 46.0598 11.507C45.4823 12.0305 45.063 12.632 44.8005 13.3655L47.4765 14.6742C47.739 14.0457 48.132 13.5747 48.657 13.1817C49.2075 12.7895 49.8368 12.6065 50.5455 12.6065C51.306 12.6065 51.909 12.8165 52.3553 13.2087C52.8278 13.601 53.0633 14.072 53.0633 14.6742V15.119L49.0238 15.773C47.9483 15.9305 47.0565 16.2185 46.3485 16.637C45.6405 17.0292 45.1155 17.5265 44.8005 18.1287C44.46 18.7047 44.3025 19.385 44.3025 20.144C44.3025 20.9292 44.4863 21.6365 44.88 22.2117C45.2816 22.8108 45.8457 23.2829 46.506 23.573C47.214 23.8865 48.027 24.044 48.9975 24.044C49.6985 24.0474 50.3963 23.9504 51.0698 23.756C51.667 23.5551 52.2257 23.2541 52.722 22.8657C52.9058 22.7082 53.0895 22.526 53.2733 22.3422V23.7822H56.3948V14.6742C56.3948 13.706 56.1585 12.8682 55.6598 12.1355C55.1873 11.4027 54.5325 10.853 53.6663 10.4345ZM52.6433 19.8822C52.3553 20.4057 51.9353 20.798 51.411 21.1122C50.886 21.4002 50.283 21.5315 49.6013 21.5315C49.0763 21.5315 48.6038 21.4002 48.2363 21.1385C48.0685 21.0037 47.9341 20.8321 47.8433 20.637C47.7525 20.4419 47.7079 20.2286 47.7128 20.0135C47.7128 19.5162 47.8703 19.1232 48.1845 18.836C48.4995 18.5472 48.9975 18.338 49.6538 18.2075L53.0895 17.6315V18.1812C53.0895 18.809 52.9575 19.385 52.6433 19.8822Z" fill="#EEF2FF"/>
<path d="M74.415 9.80597C75.3848 9.80597 76.2503 10.016 77.0115 10.46C77.7983 10.9055 78.4013 11.507 78.8213 12.3185C79.2668 13.0775 79.4768 13.9677 79.4768 14.9885V23.756H76.0673V15.7475C76.0673 15.1452 75.9623 14.648 75.7523 14.2025C75.5423 13.784 75.2535 13.4442 74.8598 13.2087C74.4668 12.9725 73.995 12.842 73.4438 12.842C72.9188 12.842 72.447 12.947 72.054 13.2087C71.6603 13.4442 71.3453 13.7577 71.136 14.2032C70.926 14.6217 70.821 15.1452 70.821 15.7475V23.756H67.542V15.7475C67.542 15.1452 67.437 14.648 67.227 14.2025C67.0226 13.7903 66.7043 13.4454 66.3098 13.2087C65.8882 12.9623 65.4075 12.8355 64.9193 12.842C64.3943 12.842 63.9225 12.947 63.5288 13.2087C63.1358 13.4442 62.8208 13.7577 62.6108 14.2032C62.4008 14.6217 62.2958 15.1452 62.2958 15.7475V23.756H59.0175V10.1202H62.1128V11.8212C62.4015 11.2715 62.7683 10.853 63.267 10.5387C64.0275 10.0415 64.9193 9.80597 65.9423 9.80597C67.0703 9.80597 68.0408 10.1202 68.9063 10.6955C69.4568 11.0622 69.8768 11.507 70.1655 12.0305C70.533 11.4545 70.9785 10.9835 71.529 10.643C72.369 10.094 73.314 9.80597 74.415 9.80597Z" fill="#EEF2FF"/>
<path fill-rule="evenodd" clip-rule="evenodd" d="M93.1425 11.795C92.5658 11.1672 91.884 10.6955 91.0703 10.3295C90.2573 9.98897 89.3393 9.80597 88.2638 9.80597C86.979 9.80597 85.8248 10.1202 84.8018 10.7217C83.7821 11.3421 82.9414 12.217 82.362 13.2605C81.7853 14.3075 81.4703 15.5375 81.4703 16.898C81.4703 18.2075 81.759 19.4112 82.362 20.5107C82.9395 21.6095 83.7788 22.4472 84.828 23.1012C85.8773 23.7297 87.1095 24.044 88.5263 24.044C89.4705 24.044 90.3098 23.9127 91.0965 23.6247C91.884 23.3367 92.5658 22.9445 93.1425 22.4472C93.72 21.95 94.1393 21.3747 94.4018 20.72L91.7265 19.4112C91.4339 19.9473 90.9979 20.3913 90.4673 20.6937C89.943 21.008 89.313 21.1647 88.5525 21.1647C87.8448 21.172 87.1479 20.9913 86.5328 20.6412C85.956 20.3007 85.536 19.8035 85.221 19.1495C85.0342 18.7371 84.9275 18.293 84.9068 17.8407H94.743C94.8218 17.6577 94.848 17.4485 94.8743 17.1867L94.881 17.1155C94.905 16.8815 94.926 16.6677 94.926 16.454C94.93 15.5794 94.7791 14.711 94.4805 13.889C94.1393 13.13 93.72 12.4235 93.1425 11.795ZM86.4015 13.0512C86.9265 12.7107 87.5558 12.5277 88.2375 12.5277C88.9463 12.5277 89.5755 12.7115 90.0735 13.0512C90.5985 13.3917 90.9653 13.889 91.1753 14.4912C91.2803 14.7522 91.359 15.0665 91.3853 15.3807H84.9593C85.0118 15.0927 85.0898 14.831 85.1948 14.5692C85.4573 13.889 85.8773 13.3917 86.4015 13.0512Z" fill="#EEF2FF"/>
<path d="M117.038 4.78101H113.759V23.756H117.038V4.78101ZM125.668 19.5163L129.183 10.1203H132.75L125.38 28.7803H121.838L123.911 23.5468L118.585 10.1203H122.127L125.668 19.5163ZM19.5938 5.77476C19.5938 5.68186 19.5756 5.58986 19.54 5.50404C19.5044 5.41822 19.4523 5.34028 19.3865 5.2747C19.3207 5.20911 19.2426 5.15718 19.1566 5.12188C19.0707 5.08658 18.9786 5.06861 18.8857 5.06901H0.708C0.615103 5.06861 0.523044 5.08658 0.437114 5.12188C0.351184 5.15718 0.273077 5.20911 0.207284 5.2747C0.14149 5.34028 0.0893077 5.41822 0.0537349 5.50404C0.0181621 5.58986 -9.92632e-05 5.68186 4.05795e-07 5.77476V13.6003C4.05795e-07 14.0713 0.550501 14.2805 0.892501 13.967L4.485 10.3813C4.7475 10.1188 5.115 9.96201 5.4825 9.96201H18.885C18.978 9.9625 19.0702 9.94458 19.1563 9.90928C19.2424 9.87398 19.3206 9.82199 19.3865 9.75632C19.4524 9.69064 19.5046 9.61258 19.5402 9.52663C19.5757 9.44067 19.5939 9.34853 19.5938 9.25551V5.77476ZM18.885 14.8573C18.978 14.8568 19.0702 14.8747 19.1563 14.91C19.2424 14.9453 19.3206 14.9973 19.3865 15.0629C19.4524 15.1286 19.5046 15.2067 19.5402 15.2926C19.5757 15.3786 19.5939 15.4707 19.5938 15.5638V19.0445C19.594 19.1375 19.5759 19.2297 19.5404 19.3157C19.505 19.4017 19.4528 19.4798 19.387 19.5455C19.3212 19.6113 19.243 19.6634 19.157 19.6987C19.071 19.7341 18.9788 19.7522 18.8857 19.7518H10.3868C10.0193 19.7518 9.6525 19.9085 9.39 20.1703L5.7975 23.7553C5.4555 24.0703 4.905 23.8603 4.905 23.3893V15.5638C4.9048 15.4708 4.92299 15.3787 4.95852 15.2928C4.99405 15.2069 5.04621 15.1289 5.11202 15.0632C5.17782 14.9975 5.25596 14.9455 5.34194 14.9102C5.42792 14.8749 5.52004 14.8569 5.613 14.8573H18.885Z" fill="#EEF2FF"/>
</g>
<defs>
<clipPath id="clip0_198_6104">
<rect width="132.75" height="32" fill="white" transform="translate(0 0.78064)"/>
</clipPath>
</defs>
</svg>
