<svg width="142" height="33" viewBox="0 0 142 33" fill="none" xmlns="http://www.w3.org/2000/svg">
<g clip-path="url(#clip0_196_6076)">
<mask id="mask0_196_6076" style="mask-type:luminance" maskUnits="userSpaceOnUse" x="0" y="4" width="143" height="25">
<path d="M142.003 4.78064H0.666656V28.7806H142.003V4.78064Z" fill="white"/>
</mask>
<g mask="url(#mask0_196_6076)">
<path d="M136.893 7.47424H139.547V11.1669H142.003V13.5959H139.547V20.1933H141.87V22.5787C141.42 22.675 140.959 22.7199 140.499 22.7125C138.087 22.7125 136.892 21.442 136.892 18.901L136.893 7.47424Z" fill="#F5455C"/>
<path d="M136.893 7.47424H139.547V11.1669H142.003V13.5959H139.547V20.1933H141.87V22.5787C141.42 22.675 140.959 22.7199 140.499 22.7125C138.087 22.7125 136.892 21.442 136.892 18.901L136.893 7.47424Z" fill="white"/>
<path d="M131.88 12.7942V11.1649H134.534V22.3974H131.88V20.77C131.504 21.8602 130.156 22.6422 128.319 22.6422C127.575 22.6561 126.837 22.5146 126.151 22.227C125.467 21.9392 124.848 21.5115 124.337 20.9713C123.275 19.8396 122.701 18.3335 122.744 16.7811C122.722 16.0155 122.85 15.2529 123.124 14.5374C123.397 13.8219 123.809 13.1678 124.337 12.6129C124.844 12.0652 125.461 11.6312 126.147 11.3392C126.832 11.0473 127.573 10.9041 128.319 10.9192C130.155 10.9202 131.504 11.7041 131.88 12.7942ZM131.087 19.236C131.413 18.9184 131.67 18.5364 131.84 18.1146C132.011 17.6927 132.092 17.24 132.079 16.7851C132.087 16.3347 132.005 15.8872 131.837 15.469C131.669 15.0509 131.42 14.6705 131.103 14.3502C130.787 14.03 130.408 13.7765 129.992 13.6046C129.575 13.4327 129.128 13.3458 128.678 13.3492C128.237 13.3403 127.799 13.4229 127.392 13.5917C126.984 13.7606 126.616 14.0121 126.311 14.3303C126.002 14.6576 125.762 15.0427 125.602 15.4635C125.443 15.8843 125.367 16.3324 125.382 16.7822C125.367 17.2318 125.443 17.6798 125.602 18.1003C125.762 18.521 126.002 18.9059 126.311 19.233C126.616 19.5512 126.984 19.8027 127.392 19.9716C127.799 20.1404 128.237 20.2231 128.678 20.2142C129.125 20.223 129.568 20.1407 129.982 19.9726C130.396 19.8043 130.771 19.5538 131.085 19.236H131.087Z" fill="#F5455C"/>
<path d="M131.88 12.7942V11.1649H134.534V22.3974H131.88V20.77C131.504 21.8602 130.156 22.6422 128.319 22.6422C127.575 22.6561 126.837 22.5146 126.151 22.227C125.467 21.9392 124.848 21.5115 124.337 20.9713C123.275 19.8396 122.701 18.3335 122.744 16.7811C122.722 16.0155 122.85 15.2529 123.124 14.5374C123.397 13.8219 123.809 13.1678 124.337 12.6129C124.844 12.0652 125.461 11.6312 126.147 11.3392C126.832 11.0473 127.573 10.9041 128.319 10.9192C130.155 10.9202 131.504 11.7041 131.88 12.7942ZM131.087 19.236C131.413 18.9184 131.67 18.5364 131.84 18.1146C132.011 17.6927 132.092 17.24 132.079 16.7851C132.087 16.3347 132.005 15.8872 131.837 15.469C131.669 15.0509 131.42 14.6705 131.103 14.3502C130.787 14.03 130.408 13.7765 129.992 13.6046C129.575 13.4327 129.128 13.3458 128.678 13.3492C128.237 13.3403 127.799 13.4229 127.392 13.5917C126.984 13.7606 126.616 14.0121 126.311 14.3303C126.002 14.6576 125.762 15.0427 125.602 15.4635C125.443 15.8843 125.367 16.3324 125.382 16.7822C125.367 17.2318 125.443 17.6798 125.602 18.1003C125.762 18.521 126.002 18.9059 126.311 19.233C126.616 19.5512 126.984 19.8027 127.392 19.9716C127.799 20.1404 128.237 20.2231 128.678 20.2142C129.125 20.223 129.568 20.1407 129.982 19.9726C130.396 19.8043 130.771 19.5538 131.085 19.236H131.087Z" fill="white"/>
<path d="M33.6488 22.3964V11.1659H36.281V12.8378C36.5846 12.2293 37.0619 11.7245 37.6526 11.3874C38.2432 11.0502 38.9206 10.8959 39.599 10.9439C39.8648 10.9403 40.1304 10.9629 40.3918 11.0113V13.596C40.0277 13.5225 39.6573 13.4853 39.2858 13.485C38.8829 13.4542 38.4779 13.511 38.099 13.6513C37.72 13.7916 37.3758 14.0122 37.0901 14.298C36.8043 14.5838 36.5837 14.928 36.4433 15.3069C36.303 15.6859 36.2463 16.0908 36.277 16.4938V22.3964H33.6488Z" fill="#F5455C"/>
<path d="M33.6488 22.3964V11.1659H36.281V12.8378C36.5846 12.2293 37.0619 11.7245 37.6526 11.3874C38.2432 11.0502 38.9206 10.8959 39.599 10.9439C39.8648 10.9403 40.1304 10.9629 40.3918 11.0113V13.596C40.0277 13.5225 39.6573 13.4853 39.2858 13.485C38.8829 13.4542 38.4779 13.511 38.099 13.6513C37.72 13.7916 37.3758 14.0122 37.0901 14.298C36.8043 14.5838 36.5837 14.928 36.4433 15.3069C36.303 15.6859 36.2463 16.0908 36.277 16.4938V22.3964H33.6488Z" fill="white"/>
<path d="M41.0594 16.7811C41.0443 15.9909 41.1939 15.2062 41.4987 14.477C41.8034 13.7478 42.2566 13.09 42.8294 12.5454C43.9952 11.4434 45.5386 10.8293 47.143 10.8293C48.7472 10.8293 50.2906 11.4434 51.4564 12.5454C52.0292 13.09 52.4824 13.7478 52.7872 14.477C53.0919 15.2062 53.2415 15.9909 53.2264 16.7811C53.2414 17.5711 53.0916 18.3553 52.787 19.0842C52.4822 19.8131 52.0291 20.4706 51.4564 21.0148C50.2906 22.1169 48.7472 22.7309 47.143 22.7309C45.5386 22.7309 43.9952 22.1169 42.8294 21.0148C42.2564 20.4708 41.8032 19.8133 41.4984 19.0844C41.1937 18.3555 41.0441 17.5711 41.0594 16.7811ZM49.5943 19.3003C49.9194 18.9682 50.1747 18.5741 50.3449 18.1417C50.5152 17.7091 50.5969 17.2468 50.5852 16.7821C50.5991 16.3204 50.5182 15.8608 50.3478 15.4315C50.1774 15.0022 49.9209 14.6122 49.5943 14.2857C49.271 13.9608 48.8866 13.7031 48.4634 13.5272C48.0402 13.3513 47.5864 13.2607 47.1281 13.2607C46.6697 13.2607 46.2159 13.3513 45.7927 13.5272C45.3695 13.7031 44.9851 13.9608 44.6618 14.2857C44.3419 14.6163 44.0911 15.0073 43.924 15.436C43.7569 15.8646 43.6769 16.3223 43.6887 16.7821C43.6686 17.717 44.0183 18.622 44.6618 19.3003C45.3218 19.9433 46.2067 20.3032 47.1281 20.3032C48.0494 20.3032 48.9343 19.9433 49.5943 19.3003Z" fill="#F5455C"/>
<path d="M41.0594 16.7811C41.0443 15.9909 41.1939 15.2062 41.4987 14.477C41.8034 13.7478 42.2566 13.09 42.8294 12.5454C43.9952 11.4434 45.5386 10.8293 47.143 10.8293C48.7472 10.8293 50.2906 11.4434 51.4564 12.5454C52.0292 13.09 52.4824 13.7478 52.7872 14.477C53.0919 15.2062 53.2415 15.9909 53.2264 16.7811C53.2414 17.5711 53.0916 18.3553 52.787 19.0842C52.4822 19.8131 52.0291 20.4706 51.4564 21.0148C50.2906 22.1169 48.7472 22.7309 47.143 22.7309C45.5386 22.7309 43.9952 22.1169 42.8294 21.0148C42.2564 20.4708 41.8032 19.8133 41.4984 19.0844C41.1937 18.3555 41.0441 17.5711 41.0594 16.7811ZM49.5943 19.3003C49.9194 18.9682 50.1747 18.5741 50.3449 18.1417C50.5152 17.7091 50.5969 17.2468 50.5852 16.7821C50.5991 16.3204 50.5182 15.8608 50.3478 15.4315C50.1774 15.0022 49.9209 14.6122 49.5943 14.2857C49.271 13.9608 48.8866 13.7031 48.4634 13.5272C48.0402 13.3513 47.5864 13.2607 47.1281 13.2607C46.6697 13.2607 46.2159 13.3513 45.7927 13.5272C45.3695 13.7031 44.9851 13.9608 44.6618 14.2857C44.3419 14.6163 44.0911 15.0073 43.924 15.436C43.7569 15.8646 43.6769 16.3223 43.6887 16.7821C43.6686 17.717 44.0183 18.622 44.6618 19.3003C45.3218 19.9433 46.2067 20.3032 47.1281 20.3032C48.0494 20.3032 48.9343 19.9433 49.5943 19.3003Z" fill="white"/>
<path d="M64.2645 11.9458V14.6217C63.8131 14.1758 63.2776 13.824 62.6892 13.5866C62.1007 13.3493 61.4709 13.2312 60.8365 13.2392C60.3603 13.2236 59.8859 13.3039 59.4413 13.4753C58.9968 13.6468 58.5912 13.9058 58.2488 14.2371C57.9138 14.5633 57.6502 14.9556 57.475 15.3891C57.2998 15.8227 57.2167 16.288 57.2311 16.7554C57.2167 17.2228 57.2998 17.6881 57.475 18.1216C57.6502 18.5552 57.9138 18.9475 58.2488 19.2736C58.5903 19.6067 58.9952 19.8676 59.4396 20.041C59.884 20.2144 60.3587 20.2964 60.8355 20.2825C61.471 20.294 62.1023 20.177 62.6916 19.9386C63.2808 19.7002 63.8158 19.3452 64.2645 18.895V21.5708C63.2415 22.36 61.9727 22.7626 60.6819 22.7075C59.8826 22.7302 59.0868 22.5921 58.342 22.3011C57.5971 22.0101 56.9183 21.5724 56.3461 21.0139C55.772 20.4659 55.3197 19.8034 55.0186 19.0691C54.7173 18.3349 54.574 17.5456 54.5979 16.7524C54.5735 15.9591 54.7167 15.1696 55.0179 14.4354C55.3191 13.7011 55.7717 13.0386 56.3461 12.4909C56.9183 11.9324 57.5971 11.4947 58.342 11.2037C59.0868 10.9127 59.8826 10.7745 60.6819 10.7972C61.9728 10.755 63.2387 11.1609 64.2645 11.9458Z" fill="#F5455C"/>
<path d="M64.2645 11.9458V14.6217C63.8131 14.1758 63.2776 13.824 62.6892 13.5866C62.1007 13.3493 61.4709 13.2312 60.8365 13.2392C60.3603 13.2236 59.8859 13.3039 59.4413 13.4753C58.9968 13.6468 58.5912 13.9058 58.2488 14.2371C57.9138 14.5633 57.6502 14.9556 57.475 15.3891C57.2998 15.8227 57.2167 16.288 57.2311 16.7554C57.2167 17.2228 57.2998 17.6881 57.475 18.1216C57.6502 18.5552 57.9138 18.9475 58.2488 19.2736C58.5903 19.6067 58.9952 19.8676 59.4396 20.041C59.884 20.2144 60.3587 20.2964 60.8355 20.2825C61.471 20.294 62.1023 20.177 62.6916 19.9386C63.2808 19.7002 63.8158 19.3452 64.2645 18.895V21.5708C63.2415 22.36 61.9727 22.7626 60.6819 22.7075C59.8826 22.7302 59.0868 22.5921 58.342 22.3011C57.5971 22.0101 56.9183 21.5724 56.3461 21.0139C55.772 20.4659 55.3197 19.8034 55.0186 19.0691C54.7173 18.3349 54.574 17.5456 54.5979 16.7524C54.5735 15.9591 54.7167 15.1696 55.0179 14.4354C55.3191 13.7011 55.7717 13.0386 56.3461 12.4909C56.9183 11.9324 57.5971 11.4947 58.342 11.2037C59.0868 10.9127 59.8826 10.7745 60.6819 10.7972C61.9728 10.755 63.2387 11.1609 64.2645 11.9458Z" fill="white"/>
<path d="M66.2325 22.3994V7.47424H68.8628V15.9575L72.6287 11.1659H75.6375L71.4117 16.5373L75.9903 22.3983H72.8933L68.8628 17.2053V22.3994H66.2325Z" fill="#F5455C"/>
<path d="M66.2325 22.3994V7.47424H68.8628V15.9575L72.6287 11.1659H75.6375L71.4117 16.5373L75.9903 22.3983H72.8933L68.8628 17.2053V22.3994H66.2325Z" fill="white"/>
<path d="M76.0537 16.7811C76.0164 15.9981 76.1405 15.2157 76.4182 14.4826C76.6959 13.7495 77.1213 13.0814 77.6681 12.5196C78.2135 11.9778 78.8644 11.5537 79.5804 11.2738C80.2964 10.9939 81.0622 10.864 81.8305 10.8923C82.5622 10.8628 83.2916 10.9931 83.9678 11.2741C84.644 11.5551 85.2509 11.9802 85.7461 12.5196C86.2501 13.0517 86.6443 13.6778 86.9061 14.3622C87.168 15.0467 87.2924 15.776 87.2723 16.5086C87.2723 16.8426 87.2504 17.1775 87.2277 17.4669H78.6889C78.7036 17.8844 78.804 18.2944 78.984 18.6715C79.164 19.0485 79.4197 19.3845 79.7351 19.6584C80.0505 19.9324 80.4189 20.1384 80.8174 20.2639C81.2159 20.3893 81.636 20.4314 82.0515 20.3875C83.5024 20.4917 84.9374 20.03 86.0553 19.0991V21.5956C84.8355 22.3927 83.3975 22.79 81.9415 22.7323C81.1605 22.763 80.3813 22.6388 79.6486 22.3666C78.916 22.0944 78.2445 21.6798 77.6731 21.1467C77.1262 20.585 76.7007 19.9168 76.423 19.1837C76.1452 18.4506 76.0213 17.6682 76.0587 16.8852V16.7742L76.0537 16.7811ZM84.5697 15.578C84.5699 15.2548 84.499 14.9355 84.362 14.6428C84.2249 14.3501 84.0252 14.0912 83.7769 13.8843C83.2414 13.4094 82.5461 13.1545 81.8305 13.1707C81.062 13.1576 80.3123 13.4096 79.7077 13.8843C79.4323 14.0782 79.2035 14.3309 79.0379 14.6242C78.8724 14.9175 78.7741 15.244 78.7503 15.58L84.5697 15.578Z" fill="#F5455C"/>
<path d="M76.0537 16.7811C76.0164 15.9981 76.1405 15.2157 76.4182 14.4826C76.6959 13.7495 77.1213 13.0814 77.6681 12.5196C78.2135 11.9778 78.8644 11.5537 79.5804 11.2738C80.2964 10.9939 81.0622 10.864 81.8305 10.8923C82.5622 10.8628 83.2916 10.9931 83.9678 11.2741C84.644 11.5551 85.2509 11.9802 85.7461 12.5196C86.2501 13.0517 86.6443 13.6778 86.9061 14.3622C87.168 15.0467 87.2924 15.776 87.2723 16.5086C87.2723 16.8426 87.2504 17.1775 87.2277 17.4669H78.6889C78.7036 17.8844 78.804 18.2944 78.984 18.6715C79.164 19.0485 79.4197 19.3845 79.7351 19.6584C80.0505 19.9324 80.4189 20.1384 80.8174 20.2639C81.2159 20.3893 81.636 20.4314 82.0515 20.3875C83.5024 20.4917 84.9374 20.03 86.0553 19.0991V21.5956C84.8355 22.3927 83.3975 22.79 81.9415 22.7323C81.1605 22.763 80.3813 22.6388 79.6486 22.3666C78.916 22.0944 78.2445 21.6798 77.6731 21.1467C77.1262 20.585 76.7007 19.9168 76.423 19.1837C76.1452 18.4506 76.0213 17.6682 76.0587 16.8852V16.7742L76.0537 16.7811ZM84.5697 15.578C84.5699 15.2548 84.499 14.9355 84.362 14.6428C84.2249 14.3501 84.0252 14.0912 83.7769 13.8843C83.2414 13.4094 82.5461 13.1545 81.8305 13.1707C81.062 13.1576 80.3123 13.4096 79.7077 13.8843C79.4323 14.0782 79.2035 14.3309 79.0379 14.6242C78.8724 14.9175 78.7741 15.244 78.7503 15.58L84.5697 15.578Z" fill="white"/>
<path d="M89.2672 7.47424H91.9211V11.1669H94.377V13.5959H91.9232V20.1933H94.2461V22.5787C93.7955 22.675 93.3353 22.7199 92.8745 22.7125C90.4634 22.7125 89.2691 21.442 89.2691 18.901V7.47424H89.2672Z" fill="#F5455C"/>
<path d="M89.2672 7.47424H91.9211V11.1669H94.377V13.5959H91.9232V20.1933H94.2461V22.5787C93.7955 22.675 93.3353 22.7199 92.8745 22.7125C90.4634 22.7125 89.2691 21.442 89.2691 18.901V7.47424H89.2672Z" fill="white"/>
<path d="M97.0032 19.452C96.6866 19.4508 96.3767 19.5436 96.113 19.7187C95.8491 19.8937 95.6431 20.1431 95.5212 20.4353C95.3992 20.7274 95.3667 21.0492 95.4277 21.36C95.4887 21.6706 95.6406 21.9562 95.864 22.1804C96.0876 22.4048 96.3725 22.5577 96.683 22.6199C96.9934 22.682 97.3154 22.6507 97.6079 22.5299C97.9006 22.409 98.1508 22.204 98.3268 21.9408C98.5028 21.6776 98.5967 21.3681 98.5967 21.0515C98.5972 20.8419 98.5563 20.6341 98.4764 20.4403C98.3965 20.2465 98.2792 20.0703 98.1312 19.9217C97.9832 19.7732 97.8075 19.6553 97.614 19.5746C97.4204 19.494 97.2128 19.4524 97.0032 19.452Z" fill="#F5455C"/>
<path d="M97.0032 19.452C96.6866 19.4508 96.3767 19.5436 96.113 19.7187C95.8491 19.8937 95.6431 20.1431 95.5212 20.4353C95.3992 20.7274 95.3667 21.0492 95.4277 21.36C95.4887 21.6706 95.6406 21.9562 95.864 22.1804C96.0876 22.4048 96.3725 22.5577 96.683 22.6199C96.9934 22.682 97.3154 22.6507 97.6079 22.5299C97.9006 22.409 98.1508 22.204 98.3268 21.9408C98.5028 21.6776 98.5967 21.3681 98.5967 21.0515C98.5972 20.8419 98.5563 20.6341 98.4764 20.4403C98.3965 20.2465 98.2792 20.0703 98.1312 19.9217C97.9832 19.7732 97.8075 19.6553 97.614 19.5746C97.4204 19.494 97.2128 19.4524 97.0032 19.452Z" fill="white"/>
<path d="M109.008 11.9458V14.6216C108.557 14.1758 108.021 13.824 107.433 13.5866C106.844 13.3493 106.215 13.2312 105.58 13.2391C105.104 13.2242 104.629 13.3052 104.184 13.4775C103.74 13.6498 103.335 13.9098 102.993 14.2421C102.657 14.5682 102.394 14.9606 102.219 15.3941C102.044 15.8277 101.96 16.293 101.975 16.7603C101.96 17.2277 102.044 17.693 102.219 18.1266C102.394 18.56 102.657 18.9524 102.993 19.2786C103.334 19.6103 103.738 19.8701 104.182 20.0426C104.626 20.215 105.1 20.2966 105.575 20.2824C106.21 20.2946 106.841 20.1784 107.43 19.9408C108.019 19.7034 108.554 19.3493 109.003 18.8999V21.5758C107.98 22.365 106.712 22.7676 105.421 22.7125C104.621 22.7352 103.826 22.5971 103.081 22.3061C102.336 22.0151 101.657 21.5774 101.085 21.0188C100.511 20.4709 100.058 19.8084 99.7573 19.0741C99.456 18.3399 99.3128 17.5506 99.3367 16.7573C99.3124 15.9641 99.4556 15.1746 99.7567 14.4403C100.058 13.7061 100.511 13.0435 101.085 12.4959C101.657 11.9373 102.336 11.4995 103.081 11.2086C103.826 10.9176 104.621 10.7794 105.421 10.8022C106.713 10.7574 107.98 11.1615 109.008 11.9458Z" fill="#F5455C"/>
<path d="M109.008 11.9458V14.6216C108.557 14.1758 108.021 13.824 107.433 13.5866C106.844 13.3493 106.215 13.2312 105.58 13.2391C105.104 13.2242 104.629 13.3052 104.184 13.4775C103.74 13.6498 103.335 13.9098 102.993 14.2421C102.657 14.5682 102.394 14.9606 102.219 15.3941C102.044 15.8277 101.96 16.293 101.975 16.7603C101.96 17.2277 102.044 17.693 102.219 18.1266C102.394 18.56 102.657 18.9524 102.993 19.2786C103.334 19.6103 103.738 19.8701 104.182 20.0426C104.626 20.215 105.1 20.2966 105.575 20.2824C106.21 20.2946 106.841 20.1784 107.43 19.9408C108.019 19.7034 108.554 19.3493 109.003 18.8999V21.5758C107.98 22.365 106.712 22.7676 105.421 22.7125C104.621 22.7352 103.826 22.5971 103.081 22.3061C102.336 22.0151 101.657 21.5774 101.085 21.0188C100.511 20.4709 100.058 19.8084 99.7573 19.0741C99.456 18.3399 99.3128 17.5506 99.3367 16.7573C99.3124 15.9641 99.4556 15.1746 99.7567 14.4403C100.058 13.7061 100.511 13.0435 101.085 12.4959C101.657 11.9373 102.336 11.4995 103.081 11.2086C103.826 10.9176 104.621 10.7794 105.421 10.8022C106.713 10.7574 107.98 11.1615 109.008 11.9458Z" fill="white"/>
<path d="M110.976 22.3994V7.47424H113.608V12.7268C113.926 12.1522 114.4 11.6795 114.975 11.3637C115.551 11.048 116.204 10.902 116.86 10.9429C119.425 10.9429 120.929 12.6594 120.929 15.4452V22.3994H118.297V15.8238C118.297 14.2857 117.479 13.3273 116.064 13.3273C115.727 13.3226 115.392 13.3879 115.083 13.5193C114.772 13.6507 114.493 13.8452 114.262 14.0904C114.031 14.3356 113.853 14.6263 113.741 14.9438C113.628 15.2613 113.583 15.5988 113.608 15.9347V22.3994H110.976Z" fill="#F5455C"/>
<path d="M110.976 22.3994V7.47424H113.608V12.7268C113.926 12.1522 114.4 11.6795 114.975 11.3637C115.551 11.048 116.204 10.902 116.86 10.9429C119.425 10.9429 120.929 12.6594 120.929 15.4452V22.3994H118.297V15.8238C118.297 14.2857 117.479 13.3273 116.064 13.3273C115.727 13.3226 115.392 13.3879 115.083 13.5193C114.772 13.6507 114.493 13.8452 114.262 14.0904C114.031 14.3356 113.853 14.6263 113.741 14.9438C113.628 15.2613 113.583 15.5988 113.608 15.9347V22.3994H110.976Z" fill="white"/>
<path d="M26.0621 12.7258C25.2798 11.5327 24.2563 10.5169 23.0572 9.74376C20.3371 8.0368 17.1793 7.15742 13.9684 7.21265C12.8464 7.21113 11.7267 7.31064 10.6226 7.50997C9.93399 6.84141 9.16147 6.2651 8.32442 5.79546C7.22027 5.22182 6.00927 4.88305 4.76774 4.8005C3.52621 4.71794 2.28102 4.8934 1.11064 5.3158C1.00673 5.35437 0.913951 5.41801 0.840554 5.50106C0.767156 5.58411 0.71541 5.68401 0.689914 5.79188C0.664418 5.89975 0.665962 6.01224 0.694408 6.11937C0.722855 6.22649 0.777322 6.32494 0.852972 6.40594C1.82618 7.42672 3.44157 9.43853 3.04515 11.2611C1.55962 12.7102 0.705044 14.6864 0.666656 16.7613C0.697204 18.8489 1.55223 20.8397 3.04515 22.2993C3.44157 24.1258 1.83014 26.1346 0.856936 27.1554C0.781046 27.2363 0.726367 27.3347 0.697779 27.4419C0.669191 27.549 0.667583 27.6617 0.6931 27.7696C0.718616 27.8776 0.770462 27.9774 0.844012 28.0605C0.91756 28.1436 1.01053 28.2072 1.11461 28.2454C2.28501 28.6683 3.53029 28.8441 4.77199 28.7619C6.0137 28.6797 7.22493 28.3412 8.32938 27.7678C9.16716 27.298 9.94036 26.7213 10.6296 26.0523C11.7336 26.2516 12.8534 26.3512 13.9753 26.3497C17.1862 26.4054 20.3439 25.5264 23.0641 23.8195C24.2614 23.0454 25.2831 22.0289 26.063 20.8355C26.8535 19.6304 27.2745 18.2204 27.2745 16.7792C27.2745 15.3379 26.8535 13.928 26.063 12.7228L26.0621 12.7258ZM13.8307 23.9949C12.4281 23.999 11.0312 23.8178 9.6762 23.4558L8.74165 24.3645C8.22298 24.8649 7.64327 25.2978 7.01624 25.6529C6.25434 26.037 5.42628 26.2724 4.5763 26.3467C4.62189 26.2634 4.66351 26.1792 4.70812 26.096C5.14659 25.4065 5.43995 24.6348 5.5703 23.8282C5.70066 23.0216 5.66525 22.1969 5.46626 21.4043C4.7446 20.8963 4.14862 20.23 3.72386 19.4564C3.29909 18.6828 3.05677 17.8222 3.01542 16.9406C3.01542 13.0459 7.85764 9.88746 13.8307 9.88746C19.8037 9.88746 24.6499 13.0449 24.6499 16.9406C24.6499 20.8365 19.8046 23.9949 13.8307 23.9949Z" fill="#F5455C"/>
<path d="M26.0621 12.7258C25.2798 11.5327 24.2563 10.5169 23.0572 9.74376C20.3371 8.0368 17.1793 7.15742 13.9684 7.21265C12.8464 7.21113 11.7267 7.31064 10.6226 7.50997C9.93399 6.84141 9.16147 6.2651 8.32442 5.79546C7.22027 5.22182 6.00927 4.88305 4.76774 4.8005C3.52621 4.71794 2.28102 4.8934 1.11064 5.3158C1.00673 5.35437 0.913951 5.41801 0.840554 5.50106C0.767156 5.58411 0.71541 5.68401 0.689914 5.79188C0.664418 5.89975 0.665962 6.01224 0.694408 6.11937C0.722855 6.22649 0.777322 6.32494 0.852972 6.40594C1.82618 7.42672 3.44157 9.43853 3.04515 11.2611C1.55962 12.7102 0.705044 14.6864 0.666656 16.7613C0.697204 18.8489 1.55223 20.8397 3.04515 22.2993C3.44157 24.1258 1.83014 26.1346 0.856936 27.1554C0.781046 27.2363 0.726367 27.3347 0.697779 27.4419C0.669191 27.549 0.667583 27.6617 0.6931 27.7696C0.718616 27.8776 0.770462 27.9774 0.844012 28.0605C0.91756 28.1436 1.01053 28.2072 1.11461 28.2454C2.28501 28.6683 3.53029 28.8441 4.77199 28.7619C6.0137 28.6797 7.22493 28.3412 8.32938 27.7678C9.16716 27.298 9.94036 26.7213 10.6296 26.0523C11.7336 26.2516 12.8534 26.3512 13.9753 26.3497C17.1862 26.4054 20.3439 25.5264 23.0641 23.8195C24.2614 23.0454 25.2831 22.0289 26.063 20.8355C26.8535 19.6304 27.2745 18.2204 27.2745 16.7792C27.2745 15.3379 26.8535 13.928 26.063 12.7228L26.0621 12.7258ZM13.8307 23.9949C12.4281 23.999 11.0312 23.8178 9.6762 23.4558L8.74165 24.3645C8.22298 24.8649 7.64327 25.2978 7.01624 25.6529C6.25434 26.037 5.42628 26.2724 4.5763 26.3467C4.62189 26.2634 4.66351 26.1792 4.70812 26.096C5.14659 25.4065 5.43995 24.6348 5.5703 23.8282C5.70066 23.0216 5.66525 22.1969 5.46626 21.4043C4.7446 20.8963 4.14862 20.23 3.72386 19.4564C3.29909 18.6828 3.05677 17.8222 3.01542 16.9406C3.01542 13.0459 7.85764 9.88746 13.8307 9.88746C19.8037 9.88746 24.6499 13.0449 24.6499 16.9406C24.6499 20.8365 19.8046 23.9949 13.8307 23.9949Z" fill="white"/>
<path d="M8.65382 15.3184C8.33722 15.3172 8.02737 15.41 7.76356 15.585C7.49973 15.7601 7.29379 16.0095 7.17181 16.3017C7.04983 16.5939 7.01731 16.9156 7.07836 17.2263C7.1394 17.537 7.29127 17.8226 7.51474 18.0468C7.73819 18.2711 8.02319 18.4241 8.33363 18.4862C8.64407 18.5485 8.96599 18.5172 9.25861 18.3963C9.55124 18.2754 9.8014 18.0703 9.97743 17.8071C10.1535 17.5441 10.2474 17.2346 10.2474 16.9179C10.2478 16.7083 10.2069 16.5005 10.127 16.3067C10.0471 16.1129 9.92988 15.9366 9.7819 15.7881C9.63391 15.6396 9.45813 15.5216 9.26458 15.441C9.07102 15.3604 8.86349 15.3188 8.65382 15.3184Z" fill="#F5455C"/>
<path d="M8.65382 15.3184C8.33722 15.3172 8.02737 15.41 7.76356 15.585C7.49973 15.7601 7.29379 16.0095 7.17181 16.3017C7.04983 16.5939 7.01731 16.9156 7.07836 17.2263C7.1394 17.537 7.29127 17.8226 7.51474 18.0468C7.73819 18.2711 8.02319 18.4241 8.33363 18.4862C8.64407 18.5485 8.96599 18.5172 9.25861 18.3963C9.55124 18.2754 9.8014 18.0703 9.97743 17.8071C10.1535 17.5441 10.2474 17.2346 10.2474 16.9179C10.2478 16.7083 10.2069 16.5005 10.127 16.3067C10.0471 16.1129 9.92988 15.9366 9.7819 15.7881C9.63391 15.6396 9.45813 15.5216 9.26458 15.441C9.07102 15.3604 8.86349 15.3188 8.65382 15.3184Z" fill="white"/>
<path d="M13.7888 15.3184C13.4723 15.3172 13.1624 15.41 12.8987 15.585C12.6348 15.7601 12.4288 16.0095 12.3069 16.3017C12.1849 16.5939 12.1524 16.9156 12.2134 17.2263C12.2744 17.537 12.4263 17.8226 12.6497 18.0468C12.8733 18.2711 13.1582 18.4241 13.4687 18.4862C13.7791 18.5485 14.1011 18.5172 14.3936 18.3963C14.6863 18.2754 14.9365 18.0703 15.1125 17.8071C15.2885 17.5441 15.3824 17.2346 15.3824 16.9179C15.3829 16.7083 15.342 16.5005 15.2621 16.3067C15.1822 16.1129 15.0649 15.9366 14.9169 15.7881C14.7689 15.6396 14.5932 15.5216 14.3997 15.441C14.2061 15.3604 13.9985 15.3188 13.7888 15.3184Z" fill="#F5455C"/>
<path d="M13.7888 15.3184C13.4723 15.3172 13.1624 15.41 12.8987 15.585C12.6348 15.7601 12.4288 16.0095 12.3069 16.3017C12.1849 16.5939 12.1524 16.9156 12.2134 17.2263C12.2744 17.537 12.4263 17.8226 12.6497 18.0468C12.8733 18.2711 13.1582 18.4241 13.4687 18.4862C13.7791 18.5485 14.1011 18.5172 14.3936 18.3963C14.6863 18.2754 14.9365 18.0703 15.1125 17.8071C15.2885 17.5441 15.3824 17.2346 15.3824 16.9179C15.3829 16.7083 15.342 16.5005 15.2621 16.3067C15.1822 16.1129 15.0649 15.9366 14.9169 15.7881C14.7689 15.6396 14.5932 15.5216 14.3997 15.441C14.2061 15.3604 13.9985 15.3188 13.7888 15.3184Z" fill="white"/>
<path d="M18.9181 15.3183C18.6014 15.3167 18.2913 15.4092 18.0273 15.584C17.7632 15.7588 17.5569 16.0081 17.4347 16.3002C17.3124 16.5924 17.2796 16.9142 17.3404 17.225C17.4012 17.5358 17.5529 17.8215 17.7764 18.0461C17.9997 18.2706 18.2847 18.4237 18.5952 18.486C18.9056 18.5484 19.2277 18.5172 19.5205 18.3964C19.8132 18.2756 20.0635 18.0706 20.2396 17.8074C20.4157 17.5442 20.5097 17.2346 20.5097 16.9179C20.5105 16.4948 20.3433 16.0886 20.0449 15.7887C19.7464 15.4888 19.3412 15.3196 18.9181 15.3183Z" fill="#F5455C"/>
<path d="M18.9181 15.3183C18.6014 15.3167 18.2913 15.4092 18.0273 15.584C17.7632 15.7588 17.5569 16.0081 17.4347 16.3002C17.3124 16.5924 17.2796 16.9142 17.3404 17.225C17.4012 17.5358 17.5529 17.8215 17.7764 18.0461C17.9997 18.2706 18.2847 18.4237 18.5952 18.486C18.9056 18.5484 19.2277 18.5172 19.5205 18.3964C19.8132 18.2756 20.0635 18.0706 20.2396 17.8074C20.4157 17.5442 20.5097 17.2346 20.5097 16.9179C20.5105 16.4948 20.3433 16.0886 20.0449 15.7887C19.7464 15.4888 19.3412 15.3196 18.9181 15.3183Z" fill="white"/>
</g>
</g>
<defs>
<clipPath id="clip0_196_6076">
<rect width="141.336" height="32" fill="white" transform="translate(0.666656 0.78064)"/>
</clipPath>
</defs>
</svg>
